<svg width="702" height="69" viewBox="0 0 702 69" fill="none" xmlns="http://www.w3.org/2000/svg">
<path d="M47.592 43C47.592 50.04 45.448 55.96 41.16 60.76C36.872 65.56 31.112 67.96 23.88 67.96C17.16 67.96 11.624 65.656 7.272 61.048C2.984 56.376 0.84 50.296 0.84 42.808V0.183996H9.192V41.272C9.192 47.288 10.568 51.928 13.32 55.192C16.136 58.392 19.656 59.992 23.88 59.992C28.36 59.992 32.008 58.52 34.824 55.576C37.704 52.568 39.144 48.728 39.144 44.056C39.144 39.32 37.768 35.512 35.016 32.632C32.264 29.752 28.616 28.312 24.072 28.312C22.152 28.312 20.2 28.664 18.216 29.368C16.296 30.072 14.408 31.064 12.552 32.344V23.512C14.536 22.424 16.616 21.624 18.792 21.112C20.968 20.6 23.208 20.344 25.512 20.344C31.464 20.344 36.616 22.552 40.968 26.968C45.384 31.32 47.592 36.664 47.592 43ZM99.4043 67H90.9563V41.272C90.9563 37.24 89.4843 34.072 86.5403 31.768C83.6603 29.464 80.1723 28.312 76.0763 28.312C71.5963 28.312 67.9483 29.88 65.1323 33.016C62.3803 36.088 61.0043 39.864 61.0043 44.344C61.0043 48.632 62.4123 52.312 65.2283 55.384C68.1083 58.456 71.6923 59.992 75.9803 59.992C78.2843 59.992 80.3643 59.448 82.2203 58.36C84.1403 57.272 85.9003 55.704 87.5003 53.656V63.544C85.4523 65.08 83.5643 66.2 81.8363 66.904C80.1723 67.608 77.9323 67.96 75.1163 67.96C68.6523 67.96 63.2763 65.624 58.9883 60.952C54.7643 56.216 52.6523 50.456 52.6523 43.672C52.6523 36.952 54.7963 31.384 59.0843 26.968C63.3723 22.552 69.1003 20.344 76.2683 20.344C83.3723 20.344 89.0043 22.296 93.1643 26.2C97.3243 30.104 99.4043 35.384 99.4043 42.04V67ZM138.353 67H130.385C124.561 67 119.281 64.952 114.545 60.856C109.809 56.696 107.441 51.128 107.441 44.152C107.441 37.304 109.809 31.8 114.545 27.64C119.281 23.416 124.561 21.304 130.385 21.304H138.353V29.272H131.921C127.633 29.272 123.921 30.584 120.785 33.208C117.713 35.832 116.177 39.48 116.177 44.152C116.177 48.696 117.745 52.312 120.881 55C124.017 57.688 127.697 59.032 131.921 59.032H138.353V67ZM181.72 21.304L175.672 31.576C174.264 33.944 173.016 35.864 171.928 37.336C170.84 38.744 169.72 39.608 168.568 39.928C172.088 40.76 174.712 42.264 176.44 44.44C178.168 46.552 179.032 49.592 179.032 53.56V67H170.68V54.52C170.68 51.768 170.008 49.72 168.664 48.376C167.32 46.968 165.496 46.264 163.192 46.264H153.688V67H145.336V0.183996H153.688V38.2H157.24C160.568 38.2 162.904 37.048 164.248 34.744L172.216 21.304H181.72ZM230.399 10.936C230.399 12.408 229.951 13.624 229.055 14.584C228.223 15.544 226.975 16.024 225.311 16.024C223.775 16.024 222.527 15.544 221.567 14.584C220.671 13.56 220.223 12.344 220.223 10.936C220.223 9.528 220.671 8.344 221.567 7.384C222.463 6.424 223.711 5.944 225.311 5.944C226.847 5.944 228.063 6.456 228.959 7.48C229.919 8.44 230.399 9.592 230.399 10.936ZM229.535 67H221.087V21.304H229.535V67ZM282.173 67H273.725V40.312C273.725 36.856 272.637 34.008 270.461 31.768C268.349 29.464 265.725 28.312 262.589 28.312C259.581 28.312 256.957 29.464 254.717 31.768C252.541 34.008 251.453 36.856 251.453 40.312V67H243.101V40.312C243.101 34.424 244.925 29.624 248.573 25.912C252.221 22.2 256.893 20.344 262.589 20.344C268.221 20.344 272.893 22.2 276.605 25.912C280.317 29.624 282.173 34.424 282.173 40.312V67ZM346.37 67H335.138C330.85 67 327.522 65.688 325.154 63.064C322.786 60.44 321.602 56.824 321.602 52.216V9.688H329.954V21.304H346.37V29.272H329.954V53.272C329.954 55.384 330.434 56.888 331.394 57.784C332.418 58.616 334.018 59.032 336.194 59.032H346.37V67ZM391.111 67H382.663V40.312C382.663 35.96 381.639 32.888 379.591 31.096C377.607 29.24 374.919 28.312 371.527 28.312C368.391 28.312 365.735 29.464 363.559 31.768C361.447 34.008 360.391 36.856 360.391 40.312V67H352.039V0.183996H360.391V25.24C361.735 23.704 363.399 22.52 365.383 21.688C367.431 20.792 369.671 20.344 372.103 20.344C377.991 20.344 382.631 21.88 386.023 24.952C389.415 27.96 391.111 33.08 391.111 40.312V67ZM446.027 46.744C446.027 52.76 443.691 57.816 439.019 61.912C434.411 65.944 428.779 67.96 422.123 67.96C415.659 67.96 410.091 65.72 405.419 61.24C400.747 56.76 398.411 51.064 398.411 44.152C398.411 37.304 400.715 31.64 405.323 27.16C409.995 22.616 415.595 20.344 422.123 20.344C427.307 20.344 431.723 21.592 435.371 24.088C439.083 26.584 442.059 30.136 444.299 34.744L413.387 51.928L409.931 45.304L432.491 32.728C430.955 31.192 429.451 30.072 427.979 29.368C426.507 28.664 424.555 28.312 422.123 28.312C417.707 28.312 414.091 29.784 411.275 32.728C408.523 35.608 407.147 39.416 407.147 44.152C407.147 48.824 408.555 52.632 411.371 55.576C414.187 58.52 417.771 59.992 422.123 59.992C426.731 59.992 430.187 58.776 432.491 56.344C434.859 53.848 436.523 50.296 437.483 45.688L446.027 46.744ZM518.351 54.232C518.351 58.392 517.039 61.56 514.415 63.736C511.791 65.912 508.367 67 504.143 67H480.719V59.032H504.143C507.791 59.032 509.615 57.56 509.615 54.616C509.615 52.504 506.415 50.456 500.015 48.472C493.679 46.424 488.879 44.568 485.615 42.904C482.351 41.24 480.719 38.168 480.719 33.688C480.719 29.656 482.063 26.584 484.751 24.472C487.439 22.36 491.311 21.304 496.367 21.304H516.047V29.272H494.927C492.879 29.272 491.439 29.592 490.607 30.232C489.839 30.808 489.455 31.832 489.455 33.304C489.455 35.352 492.559 37.304 498.767 39.16C505.039 41.016 509.871 42.84 513.263 44.632C516.655 46.36 518.351 49.56 518.351 54.232ZM561.782 21.304L555.734 31.576C554.326 33.944 553.078 35.864 551.99 37.336C550.902 38.744 549.782 39.608 548.63 39.928C552.15 40.76 554.774 42.264 556.502 44.44C558.23 46.552 559.094 49.592 559.094 53.56V67H550.742V54.52C550.742 51.768 550.07 49.72 548.726 48.376C547.382 46.968 545.558 46.264 543.254 46.264H533.75V67H525.398V0.183996H533.75V38.2H537.302C540.63 38.2 542.966 37.048 544.31 34.744L552.278 21.304H561.782ZM581.117 10.936C581.117 12.408 580.669 13.624 579.773 14.584C578.941 15.544 577.693 16.024 576.029 16.024C574.493 16.024 573.245 15.544 572.285 14.584C571.389 13.56 570.941 12.344 570.941 10.936C570.941 9.528 571.389 8.344 572.285 7.384C573.181 6.424 574.429 5.944 576.029 5.944C577.565 5.944 578.781 6.456 579.677 7.48C580.637 8.44 581.117 9.592 581.117 10.936ZM580.253 67H571.805V21.304H580.253V67ZM639.996 46.744C639.996 52.76 637.66 57.816 632.988 61.912C628.38 65.944 622.748 67.96 616.092 67.96C609.628 67.96 604.06 65.72 599.388 61.24C594.716 56.76 592.38 51.064 592.38 44.152C592.38 37.304 594.684 31.64 599.292 27.16C603.964 22.616 609.564 20.344 616.092 20.344C621.276 20.344 625.692 21.592 629.34 24.088C633.052 26.584 636.028 30.136 638.268 34.744L607.356 51.928L603.9 45.304L626.46 32.728C624.924 31.192 623.42 30.072 621.948 29.368C620.476 28.664 618.524 28.312 616.092 28.312C611.676 28.312 608.06 29.784 605.244 32.728C602.492 35.608 601.116 39.416 601.116 44.152C601.116 48.824 602.524 52.632 605.34 55.576C608.156 58.52 611.74 59.992 616.092 59.992C620.7 59.992 624.156 58.776 626.46 56.344C628.828 53.848 630.492 50.296 631.452 45.688L639.996 46.744ZM682.976 54.232C682.976 58.392 681.664 61.56 679.04 63.736C676.416 65.912 672.992 67 668.768 67H645.344V59.032H668.768C672.416 59.032 674.24 57.56 674.24 54.616C674.24 52.504 671.04 50.456 664.64 48.472C658.304 46.424 653.504 44.568 650.24 42.904C646.976 41.24 645.344 38.168 645.344 33.688C645.344 29.656 646.688 26.584 649.376 24.472C652.064 22.36 655.936 21.304 660.992 21.304H680.672V29.272H659.552C657.504 29.272 656.064 29.592 655.232 30.232C654.464 30.808 654.08 31.832 654.08 33.304C654.08 35.352 657.184 37.304 663.392 39.16C669.664 41.016 674.496 42.84 677.888 44.632C681.28 46.36 682.976 49.56 682.976 54.232ZM699.335 51.736H691.367V0.183996H699.335V51.736ZM701.255 62.2C701.255 63.8 700.679 65.208 699.527 66.424C698.439 67.576 697.031 68.152 695.303 68.152C693.575 68.152 692.167 67.576 691.079 66.424C689.991 65.272 689.447 63.864 689.447 62.2C689.447 60.664 689.991 59.32 691.079 58.168C692.231 56.952 693.639 56.344 695.303 56.344C697.031 56.344 698.439 56.952 699.527 58.168C700.679 59.32 701.255 60.664 701.255 62.2Z" fill="white"/>
</svg>
