<svg width="257" height="104" viewBox="0 0 257 104" fill="none" xmlns="http://www.w3.org/2000/svg">
<path d="M71.2027 65.5C71.2027 76.2067 67.9421 85.21 61.4207 92.51C54.8994 99.81 46.1394 103.46 35.1407 103.46C24.9207 103.46 16.5014 99.956 9.88274 92.948C3.36141 85.8427 0.100743 76.596 0.100743 65.208V0.383994H12.8027V62.872C12.8027 72.0213 14.8954 79.078 19.0807 84.042C23.3634 88.9087 28.7167 91.342 35.1407 91.342C41.9541 91.342 47.5021 89.1033 51.7847 84.626C56.1647 80.0513 58.3547 74.2113 58.3547 67.106C58.3547 59.9033 56.2621 54.112 52.0767 49.732C47.8914 45.352 42.3434 43.162 35.4327 43.162C32.5127 43.162 29.5441 43.6973 26.5267 44.768C23.6067 45.8387 20.7354 47.3473 17.9127 49.294V35.862C20.9301 34.2073 24.0934 32.9907 27.4027 32.212C30.7121 31.4333 34.1187 31.044 37.6227 31.044C46.6747 31.044 54.5101 34.402 61.1287 41.118C67.8447 47.7367 71.2027 55.864 71.2027 65.5ZM97.5865 102H84.8845V0.383994H97.5865V102ZM173.175 72.946C173.175 82.0953 170.352 89.4927 164.707 95.138C159.159 100.686 152.053 103.46 143.391 103.46C134.825 103.46 127.72 100.686 122.075 95.138C116.527 89.4927 113.753 82.0953 113.753 72.946V32.504H126.455V72.946C126.455 78.2993 128.061 82.728 131.273 86.232C134.582 89.6387 138.621 91.342 143.391 91.342C148.16 91.342 152.151 89.6387 155.363 86.232C158.672 82.728 160.327 78.2993 160.327 72.946V32.504H173.175V72.946ZM256.693 71.194C256.693 80.3433 253.141 88.0327 246.035 94.262C239.027 100.394 230.462 103.46 220.339 103.46C210.509 103.46 202.041 100.053 194.935 93.24C187.83 86.4267 184.277 77.764 184.277 67.252C184.277 56.8373 187.781 48.2233 194.789 41.41C201.895 34.4993 210.411 31.044 220.339 31.044C228.223 31.044 234.939 32.942 240.487 36.738C246.133 40.534 250.659 45.936 254.065 52.944L207.053 79.078L201.797 69.004L236.107 49.878C233.771 47.542 231.484 45.8387 229.245 44.768C227.007 43.6973 224.038 43.162 220.339 43.162C213.623 43.162 208.124 45.4007 203.841 49.878C199.656 54.258 197.563 60.0493 197.563 67.252C197.563 74.3573 199.705 80.1487 203.987 84.626C208.27 89.1033 213.721 91.342 220.339 91.342C227.347 91.342 232.603 89.4927 236.107 85.794C239.709 81.998 242.239 76.596 243.699 69.588L256.693 71.194Z" fill="#001B94"/>
</svg>
