<svg width="435" height="120" viewBox="0 0 435 120" fill="none" xmlns="http://www.w3.org/2000/svg">
<path d="M61.861 65.784C61.861 73.464 59.3437 79.608 54.309 84.216C49.3597 88.7387 42.9597 91 35.109 91H17.189V79.864H32.037C38.181 79.864 42.661 78.6267 45.477 76.152C48.3783 73.592 49.829 69.9227 49.829 65.144C49.829 60.3653 48.293 56.7387 45.221 54.264C42.149 51.7893 37.7543 50.552 32.037 50.552H17.189V39.416H29.605C34.725 39.416 38.693 38.136 41.509 35.576C44.325 33.016 45.733 29.7733 45.733 25.848C45.733 21.3253 44.197 17.8267 41.125 15.352C38.1383 12.8773 34.3837 11.64 29.861 11.64C24.3997 11.64 20.133 13.2187 17.061 16.376C14.0743 19.448 12.581 23.672 12.581 29.048V91H0.677001V28.024C0.677001 20.5147 3.365 14.0293 8.741 8.56799C14.117 3.10666 20.8157 0.375999 28.837 0.375999C37.541 0.375999 44.5383 2.59467 49.829 7.032C55.1197 11.4693 57.765 17.5707 57.765 25.336C57.765 33.528 54.7783 39.544 48.805 43.384C57.509 48.248 61.861 55.7147 61.861 65.784ZM99.584 39.416H97.92C92.3733 39.416 88.1067 41.2933 85.12 45.048C82.2187 48.7173 80.768 54.5627 80.768 62.584V91H69.632V30.072H80.256V36.984C82.2187 34.0827 84.5653 31.992 87.296 30.712C90.0267 29.432 93.2693 28.792 97.024 28.792H99.584V39.416ZM123.823 16.248C123.823 18.2107 123.226 19.832 122.031 21.112C120.922 22.392 119.258 23.032 117.039 23.032C114.991 23.032 113.327 22.392 112.047 21.112C110.852 19.7467 110.255 18.1253 110.255 16.248C110.255 14.3707 110.852 12.792 112.047 11.512C113.242 10.232 114.906 9.592 117.039 9.592C119.087 9.592 120.708 10.2747 121.903 11.64C123.183 12.92 123.823 14.456 123.823 16.248ZM122.671 91H111.407V30.072H122.671V91ZM192.856 91H181.592V55.416C181.592 50.808 180.141 47.0107 177.24 44.024C174.424 40.952 170.925 39.416 166.744 39.416C162.733 39.416 159.235 40.952 156.248 44.024C153.347 47.0107 151.896 50.808 151.896 55.416V91H140.76V55.416C140.76 47.5653 143.192 41.1653 148.056 36.216C152.92 31.2667 159.149 28.792 166.744 28.792C174.253 28.792 180.483 31.2667 185.432 36.216C190.381 41.1653 192.856 47.5653 192.856 55.416V91ZM264.414 86.136C264.414 97.144 261.427 105.507 255.454 111.224C249.566 117.027 241.886 119.928 232.414 119.928C229.001 119.928 225.758 119.629 222.686 119.032C219.614 118.52 216.158 117.667 212.318 116.472L215.006 106.232C218.334 107.171 221.363 107.896 224.094 108.408C226.91 109.005 229.513 109.304 231.902 109.304C237.79 109.304 242.782 107.768 246.878 104.696C251.059 101.709 253.15 96.8027 253.15 89.976V61.56C253.15 54.904 251.273 49.5707 247.518 45.56C243.763 41.464 239.198 39.416 233.822 39.416C227.507 39.416 222.601 41.592 219.102 45.944C215.689 50.2107 213.982 55.544 213.982 61.944C213.982 67.832 215.902 72.6107 219.742 76.28C223.667 79.864 228.574 81.656 234.462 81.656C236.766 81.656 239.027 81.2293 241.246 80.376C243.465 79.5227 245.939 78.2853 248.67 76.664V88.184C246.451 89.3787 244.062 90.36 241.502 91.128C238.942 91.896 236.553 92.28 234.334 92.28C225.459 92.28 217.993 89.336 211.934 83.448C205.875 77.56 202.846 70.1787 202.846 61.304C202.846 51.9173 205.705 44.152 211.422 38.008C217.225 31.864 224.862 28.792 234.334 28.792C243.294 28.792 250.547 31.8213 256.094 37.88C261.641 43.8533 264.414 50.8933 264.414 59V86.136ZM294.073 16.248C294.073 18.2107 293.476 19.832 292.281 21.112C291.172 22.392 289.508 23.032 287.289 23.032C285.241 23.032 283.577 22.392 282.297 21.112C281.102 19.7467 280.505 18.1253 280.505 16.248C280.505 14.3707 281.102 12.792 282.297 11.512C283.492 10.232 285.156 9.592 287.289 9.592C289.337 9.592 290.958 10.2747 292.153 11.64C293.433 12.92 294.073 14.456 294.073 16.248ZM292.921 91H281.657V30.072H292.921V91ZM363.106 91H351.842V55.416C351.842 50.808 350.391 47.0107 347.49 44.024C344.674 40.952 341.175 39.416 336.994 39.416C332.983 39.416 329.485 40.952 326.498 44.024C323.597 47.0107 322.146 50.808 322.146 55.416V91H311.01V55.416C311.01 47.5653 313.442 41.1653 318.306 36.216C323.17 31.2667 329.399 28.792 336.994 28.792C344.503 28.792 350.733 31.2667 355.682 36.216C360.631 41.1653 363.106 47.5653 363.106 55.416V91ZM434.664 86.136C434.664 97.144 431.677 105.507 425.704 111.224C419.816 117.027 412.136 119.928 402.664 119.928C399.251 119.928 396.008 119.629 392.936 119.032C389.864 118.52 386.408 117.667 382.568 116.472L385.256 106.232C388.584 107.171 391.613 107.896 394.344 108.408C397.16 109.005 399.763 109.304 402.152 109.304C408.04 109.304 413.032 107.768 417.128 104.696C421.309 101.709 423.4 96.8027 423.4 89.976V61.56C423.4 54.904 421.523 49.5707 417.768 45.56C414.013 41.464 409.448 39.416 404.072 39.416C397.757 39.416 392.851 41.592 389.352 45.944C385.939 50.2107 384.232 55.544 384.232 61.944C384.232 67.832 386.152 72.6107 389.992 76.28C393.917 79.864 398.824 81.656 404.712 81.656C407.016 81.656 409.277 81.2293 411.496 80.376C413.715 79.5227 416.189 78.2853 418.92 76.664V88.184C416.701 89.3787 414.312 90.36 411.752 91.128C409.192 91.896 406.803 92.28 404.584 92.28C395.709 92.28 388.243 89.336 382.184 83.448C376.125 77.56 373.096 70.1787 373.096 61.304C373.096 51.9173 375.955 44.152 381.672 38.008C387.475 31.864 395.112 28.792 404.584 28.792C413.544 28.792 420.797 31.8213 426.344 37.88C431.891 43.8533 434.664 50.8933 434.664 59V86.136Z" fill="white"/>
</svg>
