<svg width="286" height="213" viewBox="0 0 286 213" fill="none" xmlns="http://www.w3.org/2000/svg">
<path d="M109 2.80197C111.076 2.10916 114.594 1.18541 116.786 0.723534C119.67 0.14619 123.649 -0.0270131 130.627 0.0884558C138.182 0.261659 141.412 0.550331 144.757 1.41635C147.121 2.10916 150.87 3.32158 153.119 4.1876C155.368 5.05362 158.944 6.84338 161.193 8.11354C163.443 9.3837 166.788 11.6353 168.691 13.0787C170.594 14.5221 173.65 17.2933 175.554 19.1985C177.399 21.1038 180.225 24.5101 181.782 26.704C183.339 28.8979 185.531 32.4197 186.569 34.4982C187.607 36.5766 188.876 39.2324 189.395 40.3871C190.029 41.8882 190.087 42.4655 189.568 42.1768C189.222 41.9459 188.068 41.8304 187.146 41.8882C186.223 42.0036 183.455 42.581 181.09 43.1583C178.726 43.7357 175.208 44.9481 173.304 45.7564C171.401 46.6224 168.114 48.4699 165.922 49.8555C163.789 51.2412 160.271 54.1279 158.079 56.264C155.945 58.458 152.946 62.0375 151.504 64.2314C150.063 66.4253 148.217 69.8316 147.352 71.7369C146.545 73.6421 145.334 77.1639 144.757 79.531C144.122 81.8981 143.603 84.6117 143.488 85.5931C143.316 87.2591 143.258 87.2674 138.485 87.9499L138.413 87.9602C135.702 88.3067 131.665 89.4036 129.474 90.3274C127.282 91.2511 123.995 92.9254 122.265 94.0801C120.535 95.2348 118.055 97.3132 116.786 98.6989C115.517 100.027 113.902 101.932 111.999 104.646L109.519 102.336C108.135 101.008 105.54 98.9298 103.81 97.6019C102.08 96.274 98.7923 94.311 96.6008 93.1563C94.4092 92.0594 91.0066 90.6738 89.1034 90.0387C87.2003 89.4036 83.4516 88.5953 80.741 88.1912C77.7997 87.7293 73.7627 87.6138 70.6484 87.787C67.7648 88.018 63.4971 88.6531 61.1325 89.2881C58.768 89.9232 55.25 91.1356 53.3468 92.0017C51.4437 92.8099 48.041 94.6574 45.8495 96.1008C43.658 97.5442 39.8516 100.72 37.4871 103.202C35.1225 105.627 32.1236 109.437 30.7971 111.631C29.5283 113.825 27.7405 117.405 26.8754 119.656C26.0103 121.908 25.1453 124.102 24.8569 124.564C24.6262 125.026 23.8188 125.488 23.1267 125.545C22.1463 125.719 21.7426 125.257 21.0506 123.005C20.5892 121.446 19.8394 118.559 19.3204 116.481C18.859 114.403 18.4553 109.957 18.4553 106.493C18.4553 103.087 18.8014 98.4102 19.2627 96.1585C19.7241 93.8492 20.8775 89.8655 21.858 87.3252C22.8384 84.7849 24.9146 80.7434 26.4717 78.3763C28.0289 76.0092 31.0855 72.2565 33.2193 70.0626C35.4109 67.9264 39.1595 64.8665 41.5241 63.3076C43.8886 61.7488 47.868 59.6704 50.2902 58.7466C52.7701 57.7651 57.0378 56.6105 64.8812 55.1094L66.3807 48.9895C67.1881 45.6409 69.0336 40.3871 70.4177 37.3849C71.8595 34.3827 74.0511 30.3413 75.3775 28.4361C76.6463 26.5308 78.8955 23.5286 80.395 21.7966C81.8944 20.0646 84.7204 17.2356 86.6812 15.5613C88.6421 13.887 91.5257 11.6353 93.1405 10.5384C94.6976 9.49917 98.1003 7.59393 100.638 6.32377C103.175 5.11135 106.924 3.49479 109 2.80197Z" fill="#62B5E8"/>
<path d="M181.09 43.1594C183.454 42.5243 186.223 41.9469 187.145 41.8315C188.183 41.716 189.222 42.0047 189.741 42.582C190.202 43.0439 191.24 45.9884 192.047 49.106C192.97 52.7433 193.316 54.8795 192.913 55.1681C192.566 55.4568 190.548 55.9764 188.299 56.3805C186.05 56.7847 182.301 57.8239 179.936 58.7477C177.572 59.6714 173.535 61.7498 170.997 63.4241C168.46 65.0984 164.653 68.1584 162.577 70.2368C160.501 72.3152 157.444 76.1257 155.772 78.666C154.099 81.2063 152.023 85.3055 151.1 87.7881C150.12 90.2129 149.024 94.2543 147.871 101.182L142.969 101.818C140.316 102.222 136.452 103.203 134.375 104.011C132.299 104.82 129.243 106.379 127.57 107.418C125.84 108.399 123.014 110.824 121.169 112.729C119.323 114.635 117.593 116.713 117.247 117.348C116.67 118.445 116.44 118.33 113.268 115.385C111.364 113.653 108.192 111.171 106.116 109.785C104.04 108.457 100.81 106.667 98.9073 105.801C97.0041 104.993 93.3708 103.723 90.8332 103.03C87.1422 102.048 84.6046 101.818 78.4337 101.818C72.7242 101.818 69.5522 102.106 66.611 102.857C64.4194 103.434 60.7284 104.704 58.5369 105.686C56.3454 106.667 52.6544 108.63 50.4628 110.074C48.2713 111.517 44.6956 114.461 42.5618 116.598C40.3702 118.791 37.3713 122.544 35.7565 125.027C34.1993 127.452 32.1808 131.378 31.3157 133.687C30.393 135.996 29.5856 137.902 29.4126 137.844C29.2396 137.844 28.0284 136.227 26.702 134.264C25.3755 132.244 23.9337 129.761 23.4147 128.78C22.8956 127.74 22.4919 126.643 22.4919 126.297C22.4919 126.008 23.011 125.604 23.6454 125.431C24.2798 125.258 24.9718 124.68 25.1449 124.161C25.3755 123.583 26.1829 121.447 26.9904 119.369C27.7978 117.29 29.5279 113.826 30.7967 111.632C32.1232 109.438 35.1221 105.628 37.4866 103.203C39.8512 100.721 43.6575 97.5452 45.8491 96.1018C48.0406 94.6585 51.4433 92.811 53.3464 92.0027C55.2496 91.1367 58.7676 89.9242 61.1321 89.2892C63.4967 88.6541 67.7644 88.019 70.648 87.7881C73.7623 87.6149 77.7993 87.7303 80.7406 88.1922C83.4512 88.5964 87.1999 89.4046 89.103 90.0397C91.0062 90.6748 94.4088 92.0604 96.6004 93.1574C98.7919 94.3121 102.079 96.275 103.809 97.6029C105.54 98.9308 108.135 101.009 111.999 104.647L113.21 102.914C113.902 101.991 115.517 100.028 116.786 98.6999C118.054 97.3143 120.534 95.2358 122.264 94.0811C123.995 92.9264 127.282 91.2521 129.473 90.3284C131.665 89.4046 135.702 88.3077 138.413 87.9613L138.484 87.951C143.258 87.2684 143.316 87.2601 143.488 85.5942C143.603 84.6127 144.122 81.8992 144.756 79.5321C145.333 77.1649 146.544 73.6431 147.352 71.7379C148.217 69.8327 150.062 66.4841 151.504 64.2324C152.946 62.0385 155.945 58.459 158.079 56.3228C160.27 54.1289 163.788 51.2422 165.922 49.8566C168.114 48.4709 171.401 46.6234 173.304 45.7574C175.207 44.9491 178.725 43.7367 181.09 43.1594Z" fill="#44A7D8"/>
<path d="M179.072 59.0955C181.321 58.1718 185.3 57.0171 188.011 56.4397C190.894 55.8047 195.45 55.3428 198.968 55.3428C202.313 55.3428 206.696 55.6892 208.773 56.0933C210.849 56.5552 214.597 57.7099 217.135 58.6337C219.673 59.6151 223.825 61.809 226.363 63.4256C228.9 65.0999 232.649 68.1598 234.725 70.2383C236.801 72.3167 239.858 76.2427 241.53 78.9562C243.203 81.6697 245.279 85.942 246.202 88.4824C247.124 91.0227 248.22 95.0063 249.431 101.473H252.027C253.468 101.473 256.179 101.877 258.082 102.339C259.985 102.8 263.734 104.302 266.387 105.687C269.847 107.419 272.385 109.209 275.038 111.923C277.114 114.001 279.767 117.234 280.863 119.139C281.958 120.987 283.515 124.22 284.265 126.298C285.303 129.185 285.707 131.61 285.938 136.691C286.111 141.713 285.938 144.254 285.246 147.083C284.727 149.161 283.573 152.337 282.708 154.242C281.843 156.089 280.747 157.937 280.286 158.283C279.536 158.861 279.536 158.803 280.286 157.879C281.036 156.955 280.69 157.013 277.979 158.226C276.249 158.976 272.904 160.073 270.655 160.593C266.964 161.401 260.504 161.516 165.23 161.574L163.673 157.648C162.75 155.454 161.078 152.163 159.809 150.258C158.598 148.353 155.945 145.293 153.927 143.446C151.793 141.483 148.275 139.115 145.622 137.788C143.084 136.517 140.258 135.363 139.278 135.247C138.298 135.074 137.259 134.612 136.913 134.266C136.567 133.862 135.933 132.476 135.529 131.206C135.126 129.936 134.03 127.338 133.049 125.432C132.127 123.527 130.223 120.352 128.839 118.389C127.455 116.368 126.302 114.347 126.302 113.886C126.302 113.424 126.936 111.518 127.744 109.671C129.012 106.669 129.416 106.265 132.473 104.879C134.318 104.013 136.452 103.147 137.259 102.916C138.067 102.627 140.777 102.165 147.871 101.184L148.621 96.6806C149.024 94.2558 150.12 90.2144 151.101 87.7895C152.023 85.307 154.1 81.2078 155.772 78.6675C157.445 76.1272 160.501 72.3167 162.577 70.2383C164.654 68.1598 168.345 65.1576 170.709 63.5988C173.074 62.04 176.822 60.0193 179.072 59.0955Z" fill="#98DEEA"/>
<path d="M62.5738 104.068C64.131 103.548 67.3029 102.74 69.4945 102.278C72.0897 101.758 75.8961 101.585 80.1638 101.758C84.2585 101.874 88.4685 102.393 91.1215 103.144C93.486 103.779 97.004 104.991 98.9072 105.857C100.81 106.666 104.213 108.513 106.405 109.957C108.596 111.4 112.114 114.287 114.19 116.423C116.266 118.501 119.323 122.312 120.996 124.852C122.668 127.392 124.687 131.434 125.552 133.801C126.359 136.168 127.339 138.477 127.685 138.882C128.031 139.228 129.07 139.69 130.05 139.863C131.03 139.979 133.972 141.191 136.682 142.577C140.431 144.424 142.622 146.041 145.967 149.332C149.312 152.68 150.87 154.874 152.715 158.627C154.042 161.34 155.541 165.324 156.002 167.576C156.464 169.827 156.867 173.695 156.867 176.236C156.867 178.776 156.464 182.413 156.002 184.319C155.483 186.224 154.215 189.572 153.061 191.824C151.965 194.076 151.216 195.404 151.389 194.826C151.619 193.96 151.216 194.018 148.39 195.346C146.544 196.154 143.372 197.193 141.296 197.655C138.297 198.29 128.608 198.464 92.2749 198.464C54.8458 198.464 46.3104 198.29 42.9654 197.597C40.7739 197.136 36.7368 195.635 34.0262 194.307C30.4506 192.459 27.9707 190.669 24.7411 187.494C21.3384 184.088 19.8389 182.067 17.9934 178.256C16.667 175.543 15.2252 171.559 14.7061 169.308C14.2448 167.056 13.8411 163.592 13.8411 161.513C13.8411 159.435 14.2448 155.971 14.7061 153.719C15.2252 151.468 16.2633 148.292 17.013 146.618C18.2818 144.02 18.3395 143.674 17.4744 143.962C16.8977 144.135 17.8781 143.5 19.6083 142.577C21.3384 141.653 24.2797 140.383 29.4702 138.708L31.2003 134.09C32.1807 131.549 33.9109 127.912 35.0643 126.007C36.2178 124.102 38.5247 120.984 40.1395 119.079C41.7543 117.173 44.9839 114.114 47.3485 112.324C49.713 110.534 53.4617 108.167 55.6532 107.07C57.8447 105.973 60.959 104.645 62.5738 104.068Z" fill="#D6E4E8"/>
<path d="M121.803 112.095C123.476 110.479 125.61 108.631 126.59 107.938C127.57 107.246 128.436 106.668 128.609 106.668C128.782 106.668 128.32 108.112 127.628 109.844C126.878 111.576 126.302 113.423 126.302 113.885C126.302 114.347 127.455 116.368 128.839 118.388C130.223 120.351 132.127 123.527 133.049 125.432C134.03 127.337 135.125 129.935 135.529 131.205C135.933 132.476 136.567 133.861 136.913 134.265C137.259 134.612 138.297 135.074 139.278 135.247C140.258 135.362 143.084 136.517 145.622 137.787C148.275 139.115 151.793 141.482 153.927 143.445C155.945 145.293 158.598 148.353 159.809 150.258C161.078 152.163 162.75 155.454 165.23 161.574L215.809 161.516C260.504 161.516 266.964 161.401 270.597 160.592C272.904 160.073 276.249 158.976 277.979 158.225C280.286 157.186 280.92 157.07 280.286 157.763C279.824 158.283 279.651 158.629 279.997 158.629C280.343 158.572 279.824 159.553 278.844 160.765C277.921 161.978 275.96 164.114 274.461 165.557C272.961 167.001 270.078 169.137 268.059 170.349C266.098 171.562 262.753 173.121 260.677 173.813C256.929 175.084 256.929 175.084 156.868 175.372V173.525C156.868 172.486 156.464 169.83 156.003 167.578C155.541 165.326 154.042 161.343 152.715 158.629C150.87 154.877 149.313 152.683 145.968 149.334C142.623 146.043 140.431 144.427 136.683 142.579C133.972 141.193 131.031 139.981 130.05 139.866C129.07 139.692 128.032 139.231 127.686 138.884C127.34 138.48 126.475 136.459 125.783 134.381C125.033 132.302 123.649 129.185 122.611 127.453C121.63 125.721 119.842 123.065 116.497 118.793L117.593 116.945C118.228 115.906 120.131 113.712 121.803 112.095Z" fill="#82D0D8"/>
<path d="M13.4952 146.498C14.0719 146.036 15.3984 145.17 16.3788 144.593C17.3593 144.073 18.1667 143.611 18.2243 143.611C18.282 143.611 17.7053 144.997 16.9555 146.671C16.2058 148.288 15.2254 151.463 14.7063 153.715C14.245 155.967 13.8413 159.431 13.8413 161.509C13.8413 163.588 14.245 167.052 14.7063 169.303C15.2254 171.555 16.6672 175.539 17.9936 178.252C19.8391 182.063 21.3386 184.083 24.7413 187.49C27.9709 190.665 30.4508 192.455 34.0264 194.302C36.737 195.63 40.7741 197.131 42.9656 197.593C46.3106 198.286 54.846 198.459 92.2751 198.459C128.608 198.459 138.297 198.286 141.296 197.651C143.372 197.189 146.544 196.15 148.39 195.341C151.216 194.071 151.619 193.956 151.331 194.88C151.1 195.399 150.293 196.785 149.428 197.882C148.621 198.979 146.544 201.288 144.757 202.962C142.969 204.694 139.624 206.946 136.971 208.274C134.433 209.544 130.8 210.987 128.897 211.449C125.955 212.2 118.4 212.315 78.4338 212.315C37.6598 212.315 30.9698 212.2 27.9709 211.392C26.0677 210.872 22.5497 209.544 20.1852 208.447C16.7825 206.831 14.8217 205.329 10.9 201.404C7.20899 197.651 5.47883 195.399 3.86402 192.108C2.71058 189.741 1.38413 186.104 0.922751 184.025C0.403704 181.947 0 177.963 0 175.077C0 171.613 0.403704 168.495 1.15344 165.724C1.78783 163.414 3.05661 160.008 3.97936 158.218C4.84444 156.371 7.15132 153.195 8.99682 151.117C10.9 149.038 12.9185 146.96 13.4952 146.498Z" fill="#BACED3"/>
</svg>
