<svg width="428" height="130" viewBox="0 0 428 130" fill="none" xmlns="http://www.w3.org/2000/svg">
<path d="M2.70329 75.3334C1.56206 75.3905 0 75.4404 0 75.4404L0.0356634 83.2863H2.73895L2.70329 75.4404V75.3334Z" fill="#F7FBF7"/>
<path d="M3.89461 75.236C6.07721 74.8936 26.5694 71.149 26.5694 71.149L3.89461 75.236ZM16.3697 33.089L26.5694 71.149L18.9731 42.7894L16.3697 33.089ZM3.88748 75.2431L3.37393 75.293H3.7163L3.88748 75.2431Z" fill="#2C2A6A"/>
<path d="M424.723 90.3738C420.928 87.0642 412.49 83.0699 412.49 83.0699L412.398 82.97L409.844 83.1127C409.239 82.8406 408.683 82.472 408.196 82.0214C407.483 81.3081 404.68 78.1341 404.68 78.1341L407.405 78.1769C405.115 76.1227 402.497 74.0043 400.586 73.1127C396.306 71.1298 385.921 67.4779 367.74 65.9443C366.641 65.8088 365.407 65.7161 364.83 65.6733H315.75L233.189 66.1298L118.595 67.1854C118.595 67.1854 102.111 67.5706 95.2499 66.1369C88.3882 64.7032 81.9759 60.0385 77.0544 54.2039C72.1328 48.3694 44.7291 17.3922 43.5664 15.93C42.4038 14.4678 32.8317 3.56188 32.8317 3.56188C32.8317 3.56188 29.9787 0.28085 26.0914 0.0740025C22.2041 -0.132845 7.54639 0.159595 7.54639 0.159595L9.2511 6.51482C14.8645 8.72595 26.3695 18.4193 35.4066 27.1568C44.4438 35.8943 72.3539 65.1098 74.2655 67.699C79.294 74.4893 81.2199 77.378 93.0387 87.0357C103.965 95.4999 116.59 101.505 130.05 104.639C113.167 101.294 105.635 96.9358 93.4168 89.2753C78.8376 80.1312 73.9445 72.1569 69.7862 67.8773C68.5808 66.6433 55.1499 54.532 40.8988 41.7075C32.5458 34.1314 23.3286 27.5668 13.438 22.1497L16.3695 33.0912C38.0957 42.6775 63.9516 68.8687 63.9516 68.8687C63.9516 68.8687 81.2769 90.2668 108.83 101.964C136.384 113.662 162.868 107.713 173.702 105.531C177.911 104.682 187.697 102.728 199.708 100.538C193.623 98.6404 187.598 96.5567 181.641 94.2896C178.952 96.2368 178.374 98.1056 178.374 98.1056H175.521L175.485 89.7247L170.307 84.8745H172.447L185.871 90.5806L200.136 90.5307H200.386C200.749 90.5307 201.234 90.5307 201.883 90.5806H202.105C203.717 90.6805 206.284 90.8873 210.471 91.244H210.671C212.547 91.4009 227.262 92.5635 240.735 94.0257C247.668 93.1413 254.252 92.4636 259.993 92.1141C287.668 90.438 314.801 95.923 329.73 100.502C344.658 105.081 364.68 111.387 364.68 111.387L372.062 111.273L376.855 111.187H378.282H378.154C375.065 110.866 351.135 104.261 335.5 98.9045C312.062 90.8731 280.479 88.0984 280.479 88.0984C299.655 88.9168 318.726 91.377 337.483 95.4522C362.034 100.994 396.106 109.718 396.106 109.718C405.115 108.526 414.994 106.515 422.283 103.241C429.573 99.9672 429.323 93.826 424.723 90.3738ZM113.866 84.0899C113.868 84.205 113.847 84.3194 113.804 84.4262C113.761 84.533 113.697 84.6302 113.616 84.712C113.535 84.7937 113.438 84.8584 113.332 84.9022C113.225 84.9461 113.111 84.9682 112.996 84.9672C112.765 84.9672 112.542 84.8758 112.378 84.7128C112.214 84.5498 112.121 84.3285 112.119 84.097V83.1484C112.119 82.9169 112.21 82.6948 112.373 82.5305C112.536 82.3662 112.757 82.2729 112.989 82.271C113.221 82.271 113.444 82.3622 113.609 82.525C113.775 82.6878 113.87 82.9091 113.873 83.1412L113.866 84.0899ZM119.843 84.6819C119.681 84.8453 119.46 84.9377 119.23 84.9387C118.999 84.9368 118.778 84.8448 118.614 84.6822C118.45 84.5196 118.356 84.2993 118.353 84.0685V83.1198C118.342 82.9985 118.356 82.8761 118.395 82.7606C118.434 82.6451 118.496 82.539 118.579 82.4491C118.661 82.3591 118.761 82.2872 118.872 82.238C118.984 82.1889 119.104 82.1635 119.226 82.1635C119.348 82.1635 119.469 82.1889 119.58 82.238C119.692 82.2872 119.792 82.3591 119.874 82.4491C119.956 82.539 120.019 82.6451 120.058 82.7606C120.097 82.8761 120.111 82.9985 120.1 83.1198V84.0685C120.098 84.2973 120.009 84.5167 119.85 84.6819H119.843ZM125.457 84.9101C125.226 84.9101 125.005 84.8185 124.841 84.6553C124.678 84.4921 124.587 84.2707 124.587 84.04V83.0913C124.576 82.9699 124.59 82.8476 124.629 82.7321C124.668 82.6166 124.73 82.5105 124.813 82.4205C124.895 82.3305 124.995 82.2587 125.106 82.2095C125.218 82.1604 125.338 82.135 125.46 82.135C125.582 82.135 125.703 82.1604 125.814 82.2095C125.926 82.2587 126.026 82.3305 126.108 82.4205C126.19 82.5105 126.253 82.6166 126.292 82.7321C126.331 82.8476 126.345 82.9699 126.334 83.0913V84.04C126.332 84.2714 126.239 84.4927 126.075 84.6557C125.91 84.8187 125.688 84.9101 125.457 84.9101ZM132.554 84.0043C132.534 84.2224 132.433 84.4252 132.272 84.573C132.11 84.7207 131.899 84.8026 131.68 84.8026C131.461 84.8026 131.25 84.7207 131.088 84.573C130.927 84.4252 130.826 84.2224 130.806 84.0043V83.0556C130.806 82.823 130.899 82.5998 131.063 82.4353C131.228 82.2708 131.451 82.1783 131.684 82.1783C131.916 82.1783 132.139 82.2708 132.304 82.4353C132.468 82.5998 132.561 82.823 132.561 83.0556L132.554 84.0043ZM138.781 84.0043C138.782 84.1192 138.76 84.2331 138.716 84.3395C138.673 84.4459 138.609 84.5427 138.528 84.6242C138.447 84.7058 138.351 84.7705 138.245 84.8147C138.139 84.8589 138.025 84.8816 137.91 84.8816C137.68 84.8798 137.459 84.7877 137.295 84.6251C137.131 84.4625 137.037 84.2423 137.033 84.0114V83.0628C137.022 82.9414 137.037 82.8191 137.076 82.7036C137.114 82.5881 137.177 82.482 137.259 82.392C137.341 82.302 137.441 82.2302 137.553 82.181C137.664 82.1318 137.785 82.1064 137.907 82.1064C138.029 82.1064 138.149 82.1318 138.261 82.181C138.372 82.2302 138.472 82.302 138.555 82.392C138.637 82.482 138.699 82.5881 138.738 82.7036C138.777 82.8191 138.792 82.9414 138.781 83.0628V84.0043ZM144.144 84.8531C143.914 84.8531 143.692 84.7614 143.529 84.5982C143.366 84.435 143.274 84.2137 143.274 83.9829V83.0342C143.263 82.9129 143.278 82.7905 143.317 82.675C143.356 82.5595 143.418 82.4534 143.5 82.3635C143.582 82.2735 143.683 82.2016 143.794 82.1525C143.906 82.1033 144.026 82.0779 144.148 82.0779C144.27 82.0779 144.39 82.1033 144.502 82.1525C144.613 82.2016 144.713 82.2735 144.796 82.3635C144.878 82.4534 144.94 82.5595 144.979 82.675C145.018 82.7905 145.033 82.9129 145.022 83.0342V83.9829C145.011 84.2087 144.914 84.4218 144.751 84.5784C144.587 84.7349 144.371 84.823 144.144 84.8245V84.8531ZM150.985 84.5606C150.906 84.6445 150.811 84.7112 150.705 84.7566C150.6 84.802 150.486 84.8252 150.371 84.8245C150.14 84.8245 149.919 84.7329 149.756 84.5697C149.593 84.4065 149.501 84.1852 149.501 83.9544V83.0057C149.49 82.8843 149.505 82.762 149.543 82.6465C149.582 82.531 149.645 82.4249 149.727 82.3349C149.809 82.2449 149.909 82.1731 150.021 82.1239C150.132 82.0748 150.253 82.0494 150.375 82.0494C150.497 82.0494 150.617 82.0748 150.729 82.1239C150.84 82.1731 150.94 82.2449 151.022 82.3349C151.105 82.4249 151.167 82.531 151.206 82.6465C151.245 82.762 151.26 82.8843 151.249 83.0057V83.9544C151.239 84.174 151.145 84.3814 150.985 84.5321V84.5606ZM157.468 83.9187C157.471 84.0326 157.45 84.1457 157.407 84.2512C157.364 84.3567 157.3 84.4523 157.219 84.5321C157.098 84.6576 156.943 84.744 156.773 84.7804C156.603 84.8167 156.426 84.8013 156.264 84.736C156.103 84.6708 155.965 84.5587 155.868 84.4143C155.771 84.2699 155.72 84.0997 155.721 83.9258V82.9487C155.719 82.8339 155.741 82.7199 155.784 82.6134C155.826 82.5069 155.89 82.41 155.97 82.3281C156.137 82.1654 156.358 82.0712 156.591 82.0642C156.822 82.066 157.043 82.1581 157.207 82.3207C157.371 82.4833 157.465 82.7035 157.468 82.9344V83.9187ZM162.832 84.7675C162.601 84.7675 162.38 84.6758 162.217 84.5126C162.054 84.3494 161.962 84.1281 161.962 83.8973V82.9415C161.961 82.8272 161.983 82.7138 162.027 82.6084C162.071 82.5029 162.136 82.4076 162.219 82.3281C162.298 82.2456 162.393 82.1797 162.499 82.1344C162.604 82.0891 162.717 82.0652 162.832 82.0642C163.063 82.0642 163.286 82.1556 163.45 82.3186C163.614 82.4816 163.707 82.7029 163.709 82.9344V83.883C163.702 84.1114 163.607 84.328 163.443 84.4876C163.279 84.6472 163.061 84.7372 162.832 84.739V84.7675ZM169.672 84.475C169.592 84.5566 169.497 84.6213 169.392 84.6654C169.286 84.7095 169.173 84.7321 169.059 84.7318C168.828 84.7318 168.607 84.6401 168.444 84.477C168.28 84.3138 168.189 84.0924 168.189 83.8616V82.913C168.188 82.7968 168.21 82.6816 168.253 82.574C168.297 82.4663 168.361 82.3683 168.443 82.2855C168.524 82.2027 168.621 82.1368 168.728 82.0914C168.835 82.0461 168.95 82.0223 169.066 82.0214C169.297 82.0214 169.52 82.1128 169.684 82.2758C169.848 82.4388 169.941 82.6601 169.943 82.8916V83.8402C169.941 83.9543 169.916 84.0668 169.87 84.171C169.823 84.2752 169.756 84.3689 169.672 84.4465V84.475ZM176.156 83.826C176.136 84.0441 176.036 84.2469 175.874 84.3946C175.712 84.5424 175.501 84.6243 175.282 84.6243C175.063 84.6243 174.852 84.5424 174.69 84.3946C174.529 84.2469 174.428 84.0441 174.408 83.826V82.8773C174.408 82.6459 174.5 82.4238 174.663 82.2595C174.826 82.0951 175.047 82.0019 175.279 82C175.509 82.0018 175.73 82.0939 175.894 82.2565C176.058 82.4191 176.152 82.6393 176.156 82.8702V83.826ZM181.52 84.6748C181.289 84.6748 181.068 84.5831 180.904 84.4199C180.741 84.2567 180.649 84.0354 180.649 83.8046V82.8559C180.653 82.6256 180.746 82.4056 180.908 82.2421C181.07 82.0785 181.289 81.9841 181.52 81.9786C181.751 81.9786 181.973 82.0701 182.138 82.233C182.302 82.396 182.395 82.6174 182.397 82.8488V83.7974C182.39 84.0251 182.294 84.241 182.13 84.3994C181.966 84.5578 181.747 84.6463 181.52 84.6462V84.6748ZM187.747 84.6748C187.516 84.6748 187.294 84.5831 187.131 84.4199C186.968 84.2567 186.876 84.0354 186.876 83.8046V82.8559C186.877 82.6255 186.97 82.4049 187.133 82.2425C187.212 82.1593 187.307 82.0931 187.413 82.0477C187.518 82.0023 187.632 81.9788 187.747 81.9786C187.978 81.9786 188.2 82.0701 188.364 82.233C188.529 82.396 188.622 82.6174 188.624 82.8488V83.7974C188.611 84.0207 188.513 84.2305 188.349 84.3832C188.186 84.5359 187.97 84.6199 187.747 84.6177V84.6748ZM194.844 83.7689C194.824 83.987 194.723 84.1899 194.562 84.3376C194.4 84.4853 194.189 84.5672 193.97 84.5672C193.751 84.5672 193.54 84.4853 193.378 84.3376C193.216 84.1899 193.116 83.987 193.096 83.7689V82.8203C193.094 82.7064 193.114 82.5932 193.157 82.4877C193.2 82.3822 193.264 82.2867 193.346 82.2069C193.426 82.1228 193.522 82.056 193.629 82.0106C193.735 81.9652 193.85 81.9422 193.966 81.9429C194.197 81.9448 194.418 82.0368 194.582 82.1994C194.746 82.362 194.84 82.5823 194.844 82.8131V83.7689ZM200.971 83.7689C200.972 83.884 200.951 83.9984 200.908 84.1052C200.865 84.2121 200.801 84.3092 200.72 84.391C200.639 84.4727 200.543 84.5374 200.436 84.5813C200.33 84.6251 200.215 84.6472 200.1 84.6462C199.869 84.6462 199.647 84.5548 199.482 84.3918C199.318 84.2288 199.225 84.0075 199.223 83.776V82.7347C199.222 82.6198 199.244 82.5059 199.287 82.3995C199.33 82.2931 199.394 82.1963 199.475 82.1147C199.556 82.0332 199.652 81.9684 199.759 81.9243C199.865 81.8801 199.978 81.8573 200.093 81.8573C200.324 81.8592 200.545 81.9512 200.709 82.1138C200.873 82.2764 200.967 82.4967 200.971 82.7275V83.7689ZM206.263 84.6177C206.149 84.6177 206.036 84.5952 205.93 84.5515C205.824 84.5077 205.728 84.4436 205.648 84.3628C205.567 84.282 205.503 84.1861 205.459 84.0805C205.415 83.9749 205.393 83.8618 205.393 83.7475V82.7347C205.395 82.5024 205.487 82.28 205.65 82.1141C205.771 81.9907 205.926 81.9063 206.096 81.8716C206.265 81.837 206.441 81.8536 206.601 81.9194C206.761 81.9853 206.898 82.0973 206.994 82.2413C207.09 82.3852 207.141 82.5545 207.14 82.7275V83.6762C207.137 83.9057 207.042 84.1245 206.878 84.2848C206.714 84.4451 206.493 84.534 206.263 84.5321V84.6177ZM213.003 84.3324C212.923 84.4139 212.828 84.4787 212.723 84.5228C212.617 84.5669 212.504 84.5895 212.39 84.5892C212.159 84.5892 211.938 84.4975 211.775 84.3343C211.611 84.1711 211.52 83.9498 211.52 83.719V82.7703C211.509 82.649 211.523 82.5266 211.562 82.4111C211.601 82.2956 211.664 82.1895 211.746 82.0995C211.828 82.0096 211.928 81.9377 212.04 81.8885C212.151 81.8394 212.272 81.814 212.393 81.814C212.515 81.814 212.636 81.8394 212.747 81.8885C212.859 81.9377 212.959 82.0096 213.041 82.0995C213.123 82.1895 213.186 82.2956 213.225 82.4111C213.264 82.5266 213.278 82.649 213.267 82.7703V83.719C213.245 83.9206 213.151 84.1077 213.003 84.2468V84.3324ZM219.523 83.6833C219.503 83.9014 219.402 84.1043 219.241 84.252C219.079 84.3997 218.868 84.4816 218.649 84.4816C218.43 84.4816 218.219 84.3997 218.057 84.252C217.895 84.1043 217.795 83.9014 217.775 83.6833V82.7347C217.775 82.5032 217.867 82.2811 218.03 82.1168C218.193 81.9525 218.414 81.8592 218.645 81.8573C218.877 81.8573 219.1 81.9485 219.266 82.1113C219.431 82.2741 219.526 82.4954 219.53 82.7275L219.523 83.6833ZM225.293 84.2753C225.131 84.4388 224.91 84.5311 224.68 84.5321C224.565 84.5321 224.452 84.5096 224.347 84.4659C224.241 84.4221 224.145 84.358 224.064 84.2772C223.983 84.1964 223.919 84.1005 223.876 83.9949C223.832 83.8894 223.809 83.7762 223.809 83.6619V82.7133C223.812 82.481 223.904 82.2586 224.066 82.0927C224.187 81.9693 224.343 81.8849 224.512 81.8502C224.682 81.8156 224.858 81.8322 225.018 81.898C225.178 81.9639 225.315 82.0759 225.411 82.2199C225.507 82.3638 225.558 82.5331 225.557 82.7061V83.6548C225.527 83.8481 225.434 84.0262 225.293 84.1612V84.2753ZM231.712 83.6263C231.693 83.8444 231.592 84.0472 231.43 84.1949C231.269 84.3426 231.058 84.4246 230.839 84.4246C230.62 84.4246 230.409 84.3426 230.247 84.1949C230.085 84.0472 229.985 83.8444 229.965 83.6263V82.6776C229.963 82.5625 229.984 82.4481 230.027 82.3413C230.07 82.2345 230.134 82.1373 230.215 82.0555C230.296 81.9738 230.393 81.9091 230.499 81.8652C230.606 81.8214 230.72 81.7993 230.835 81.8003C231.066 81.8021 231.287 81.8942 231.451 82.0568C231.615 82.2194 231.709 82.4396 231.712 82.6705V83.6263ZM237.975 83.6263C237.977 83.7411 237.955 83.8551 237.913 83.9617C237.87 84.0683 237.806 84.1652 237.725 84.2468C237.644 84.3283 237.547 84.3929 237.44 84.4369C237.334 84.481 237.22 84.5036 237.105 84.5036C236.874 84.5017 236.653 84.4097 236.489 84.2471C236.325 84.0845 236.231 83.8643 236.227 83.6334V82.6847C236.247 82.4666 236.348 82.2638 236.509 82.1161C236.671 81.9684 236.882 81.8864 237.101 81.8864C237.32 81.8864 237.531 81.9684 237.693 82.1161C237.855 82.2638 237.955 82.4666 237.975 82.6847V83.6263ZM243.916 84.2111C243.837 84.2943 243.742 84.3606 243.637 84.4059C243.531 84.4513 243.418 84.4748 243.303 84.475C243.072 84.475 242.851 84.3834 242.688 84.2202C242.524 84.057 242.433 83.8356 242.433 83.6049V82.6562C242.422 82.5348 242.436 82.4125 242.475 82.297C242.514 82.1815 242.577 82.0754 242.659 81.9854C242.741 81.8955 242.841 81.8236 242.953 81.7744C243.064 81.7253 243.185 81.6999 243.307 81.6999C243.428 81.6999 243.549 81.7253 243.66 81.7744C243.772 81.8236 243.872 81.8955 243.954 81.9854C244.036 82.0754 244.099 82.1815 244.138 82.297C244.177 82.4125 244.191 82.5348 244.18 82.6562V83.6049C244.161 83.7882 244.083 83.9605 243.959 84.097L243.916 84.2111ZM250.336 83.5692C250.338 83.6831 250.317 83.7962 250.274 83.9017C250.232 84.0072 250.167 84.1028 250.086 84.1826C250.006 84.2667 249.91 84.3334 249.803 84.3788C249.697 84.4242 249.582 84.4473 249.466 84.4465C249.235 84.4447 249.014 84.3526 248.85 84.19C248.686 84.0274 248.592 83.8072 248.588 83.5763V82.6277C248.586 82.5125 248.608 82.3982 248.65 82.2914C248.693 82.1845 248.757 82.0874 248.838 82.0056C248.92 81.9239 249.016 81.8592 249.123 81.8153C249.229 81.7715 249.343 81.7494 249.458 81.7504C249.573 81.7494 249.687 81.7712 249.794 81.8145C249.9 81.8578 249.997 81.9218 250.078 82.0027C250.16 82.0836 250.225 82.1798 250.269 82.2859C250.313 82.3919 250.336 82.5057 250.336 82.6205V83.5692ZM257.383 83.5335C257.385 83.6485 257.365 83.7628 257.322 83.8694C257.279 83.9761 257.215 84.0729 257.133 84.1541C257.011 84.2764 256.855 84.3599 256.686 84.394C256.516 84.4281 256.34 84.4114 256.18 84.3458C256.02 84.2803 255.883 84.1688 255.786 84.0256C255.689 83.8823 255.637 83.7136 255.635 83.5407V82.592C255.634 82.4771 255.656 82.3632 255.7 82.2568C255.743 82.1504 255.807 82.0536 255.888 81.9721C255.969 81.8905 256.065 81.8258 256.171 81.7816C256.277 81.7374 256.391 81.7147 256.506 81.7147C256.736 81.7165 256.957 81.8086 257.121 81.9712C257.285 82.1338 257.379 82.354 257.383 82.5849V83.5335ZM266.149 84.3681C265.918 84.3681 265.697 84.2764 265.534 84.1132C265.37 83.95 265.279 83.7287 265.279 83.4979V82.5492C265.268 82.4278 265.282 82.3055 265.321 82.19C265.36 82.0745 265.423 81.9684 265.505 81.8784C265.587 81.7885 265.687 81.7166 265.799 81.6674C265.91 81.6183 266.031 81.5929 266.153 81.5929C266.274 81.5929 266.395 81.6183 266.506 81.6674C266.618 81.7166 266.718 81.7885 266.8 81.8784C266.882 81.9684 266.945 82.0745 266.984 82.19C267.023 82.3055 267.037 82.4278 267.026 82.5492V83.4979C266.998 83.6995 266.901 83.8851 266.752 84.0231C266.602 84.161 266.409 84.2426 266.206 84.2539L266.149 84.3681ZM276.342 83.4479C276.344 83.5618 276.323 83.675 276.28 83.7805C276.237 83.886 276.173 83.9816 276.092 84.0613C276.012 84.1454 275.916 84.2122 275.809 84.2576C275.702 84.303 275.587 84.326 275.471 84.3253C275.24 84.3234 275.02 84.2314 274.856 84.0688C274.692 83.9062 274.598 83.6859 274.594 83.4551V82.5064C274.592 82.3913 274.613 82.2769 274.656 82.1701C274.699 82.0633 274.763 81.9661 274.844 81.8844C274.925 81.8026 275.022 81.7379 275.128 81.6941C275.235 81.6502 275.349 81.6281 275.464 81.6291C275.579 81.6282 275.693 81.65 275.799 81.6933C275.906 81.7366 276.003 81.8005 276.084 81.8814C276.166 81.9623 276.23 82.0586 276.275 82.1646C276.319 82.2707 276.342 82.3844 276.342 82.4993V83.4479ZM282.283 84.0328C282.205 84.1167 282.109 84.1834 282.004 84.2288C281.898 84.2742 281.785 84.2973 281.67 84.2967C281.439 84.2967 281.218 84.205 281.054 84.0419C280.891 83.8787 280.799 83.6573 280.799 83.4265V82.4779C280.789 82.3565 280.803 82.2342 280.842 82.1187C280.881 82.0032 280.943 81.8971 281.026 81.8071C281.108 81.7171 281.208 81.6453 281.319 81.5961C281.431 81.5469 281.551 81.5216 281.673 81.5216C281.795 81.5216 281.916 81.5469 282.027 81.5961C282.139 81.6453 282.239 81.7171 282.321 81.8071C282.403 81.8971 282.466 82.0032 282.505 82.1187C282.544 82.2342 282.558 82.3565 282.547 82.4779V83.4265C282.533 83.6087 282.461 83.7814 282.34 83.9187L282.283 84.0328ZM287.832 84.2682C287.602 84.2682 287.38 84.1765 287.217 84.0133C287.054 83.8501 286.962 83.6288 286.962 83.398V82.4494C286.963 82.2168 287.055 81.9939 287.219 81.8288C287.34 81.7054 287.496 81.621 287.665 81.5863C287.835 81.5516 288.011 81.5683 288.171 81.6341C288.331 81.7 288.467 81.812 288.563 81.956C288.659 82.0999 288.71 82.2692 288.71 82.4422V83.3909C288.685 83.5951 288.589 83.7841 288.439 83.9249C288.289 84.0657 288.095 84.1493 287.889 84.1612L287.832 84.2682ZM294.623 83.3623C294.623 83.4776 294.601 83.5919 294.557 83.6984C294.512 83.8049 294.448 83.9016 294.366 83.9829C294.286 84.0645 294.19 84.1292 294.085 84.1733C293.98 84.2174 293.867 84.24 293.752 84.2397C293.521 84.2397 293.299 84.1482 293.135 83.9852C292.97 83.8222 292.877 83.6009 292.875 83.3695V82.3067C292.876 82.0742 292.968 81.8512 293.132 81.6862C293.294 81.5227 293.515 81.4304 293.745 81.4294C293.977 81.4294 294.2 81.5206 294.366 81.6834C294.531 81.8462 294.626 82.0675 294.63 82.2996L294.623 83.3623ZM300.529 84.2111C300.298 84.2111 300.076 84.1195 299.913 83.9563C299.75 83.7931 299.658 83.5717 299.658 83.341V82.3923C299.658 82.2771 299.681 82.163 299.725 82.0565C299.769 81.95 299.834 81.8533 299.915 81.7718C300.078 81.6089 300.298 81.5145 300.529 81.5079C300.76 81.5078 300.982 81.5993 301.146 81.7623C301.311 81.9253 301.404 82.1466 301.406 82.378V83.3267C301.38 83.5303 301.284 83.7186 301.134 83.8591C300.984 83.9997 300.79 84.0838 300.586 84.097L300.529 84.2111ZM306.827 83.9187C306.748 84.0019 306.652 84.0681 306.547 84.1135C306.442 84.1589 306.328 84.1824 306.213 84.1826C306.099 84.1826 305.986 84.1601 305.88 84.1164C305.775 84.0726 305.679 84.0085 305.598 83.9277C305.517 83.8469 305.453 83.751 305.409 83.6454C305.366 83.5398 305.343 83.4267 305.343 83.3124V82.3638C305.363 82.1457 305.463 81.9428 305.625 81.7951C305.787 81.6474 305.998 81.5655 306.217 81.5655C306.436 81.5655 306.647 81.6474 306.809 81.7951C306.97 81.9428 307.071 82.1457 307.091 82.3638V83.3124C307.075 83.4941 307.003 83.6662 306.884 83.8046L306.827 83.9187ZM312.533 83.2768C312.513 83.4949 312.413 83.6977 312.251 83.8454C312.089 83.9931 311.878 84.0751 311.659 84.0751C311.44 84.0751 311.229 83.9931 311.067 83.8454C310.906 83.6977 310.805 83.4949 310.785 83.2768V82.3281C310.783 82.2142 310.804 82.1011 310.847 81.9956C310.89 81.8901 310.954 81.7945 311.035 81.7147C311.115 81.6306 311.211 81.5639 311.318 81.5185C311.425 81.4731 311.54 81.45 311.655 81.4508C311.886 81.4526 312.107 81.5447 312.271 81.7073C312.435 81.8699 312.529 82.0901 312.533 82.321V83.2768ZM318.831 83.2768C318.811 83.4949 318.711 83.6977 318.549 83.8454C318.387 83.9931 318.176 84.0751 317.957 84.0751C317.738 84.0751 317.527 83.9931 317.365 83.8454C317.204 83.6977 317.103 83.4949 317.083 83.2768V82.3281C317.083 82.0954 317.176 81.8723 317.34 81.7077C317.505 81.5432 317.728 81.4508 317.961 81.4508C318.193 81.4508 318.417 81.5432 318.581 81.7077C318.746 81.8723 318.838 82.0954 318.838 82.3281L318.831 83.2768ZM324.259 84.1255C324.028 84.1255 323.807 84.0339 323.644 83.8707C323.48 83.7075 323.389 83.4861 323.389 83.2554V82.1641C323.378 82.0427 323.392 81.9203 323.431 81.8048C323.47 81.6894 323.533 81.5832 323.615 81.4933C323.697 81.4033 323.797 81.3314 323.909 81.2823C324.02 81.2331 324.141 81.2077 324.262 81.2077C324.384 81.2077 324.505 81.2331 324.616 81.2823C324.728 81.3314 324.828 81.4033 324.91 81.4933C324.992 81.5832 325.055 81.6894 325.094 81.8048C325.133 81.9203 325.147 82.0427 325.136 82.1641V83.1127C325.137 83.3363 325.051 83.5514 324.897 83.7134C324.743 83.8754 324.532 83.9719 324.309 83.9829L324.259 84.1255ZM330.557 84.1255C330.326 84.1255 330.105 84.0339 329.942 83.8707C329.779 83.7075 329.687 83.4861 329.687 83.2554V82.3067C329.688 82.0742 329.78 81.8512 329.944 81.6862C330.065 81.5628 330.22 81.4783 330.39 81.4437C330.559 81.409 330.735 81.4256 330.895 81.4915C331.055 81.5573 331.192 81.6694 331.288 81.8133C331.384 81.9573 331.435 82.1265 331.434 82.2996V83.2482C331.396 83.4418 331.293 83.6169 331.143 83.745C330.993 83.8731 330.804 83.9469 330.607 83.9544L330.557 84.1255ZM337.333 83.2197C337.335 83.3345 337.314 83.4486 337.271 83.5551C337.228 83.6617 337.164 83.7586 337.083 83.8402C337.002 83.9217 336.905 83.9863 336.799 84.0304C336.692 84.0744 336.578 84.0971 336.463 84.097C336.232 84.0952 336.011 84.0031 335.847 83.8405C335.683 83.6779 335.589 83.4577 335.586 83.2268V82.2782C335.584 82.163 335.605 82.0487 335.648 81.9419C335.691 81.835 335.755 81.7379 335.836 81.6561C335.917 81.5743 336.014 81.5096 336.12 81.4658C336.227 81.422 336.341 81.3999 336.456 81.4009C336.687 81.4008 336.909 81.4923 337.074 81.6553C337.238 81.8183 337.331 82.0396 337.333 82.271V83.2197ZM343.631 83.2197C343.633 83.3348 343.612 83.4492 343.569 83.556C343.526 83.6629 343.462 83.76 343.381 83.8418C343.3 83.9235 343.203 83.9882 343.097 84.0321C342.99 84.0759 342.876 84.098 342.761 84.097C342.53 84.097 342.308 84.0056 342.143 83.8426C341.979 83.6796 341.886 83.4583 341.884 83.2268V82.2782C341.882 82.163 341.903 82.0487 341.946 81.9419C341.989 81.835 342.053 81.7379 342.134 81.6561C342.215 81.5743 342.312 81.5096 342.418 81.4658C342.525 81.422 342.639 81.3999 342.754 81.4009C342.985 81.4027 343.206 81.4947 343.37 81.6573C343.534 81.8199 343.628 82.0402 343.631 82.271V83.2197ZM349.929 83.2197C349.91 83.4378 349.809 83.6406 349.647 83.7884C349.486 83.9361 349.275 84.018 349.056 84.018C348.837 84.018 348.626 83.9361 348.464 83.7884C348.302 83.6406 348.202 83.4378 348.182 83.2197V82.0214C348.183 81.7888 348.275 81.5659 348.439 81.4009C348.601 81.2374 348.822 81.1451 349.052 81.1441C349.284 81.1441 349.507 81.2353 349.673 81.3981C349.838 81.5609 349.933 81.7822 349.937 82.0143L349.929 83.2197ZM355.971 83.8046C355.892 83.8884 355.797 83.9551 355.692 84.0006C355.586 84.046 355.472 84.0691 355.357 84.0685C355.127 84.0685 354.905 83.9768 354.742 83.8136C354.579 83.6504 354.487 83.4291 354.487 83.1983V82.0214C354.476 81.9 354.491 81.7777 354.53 81.6622C354.569 81.5467 354.631 81.4406 354.713 81.3506C354.796 81.2606 354.896 81.1888 355.007 81.1396C355.119 81.0905 355.239 81.0651 355.361 81.0651C355.483 81.0651 355.603 81.0905 355.715 81.1396C355.826 81.1888 355.927 81.2606 356.009 81.3506C356.091 81.4406 356.153 81.5467 356.192 81.6622C356.231 81.7777 356.246 81.9 356.235 82.0214V82.97C356.246 83.1925 356.17 83.4105 356.021 83.5763L355.971 83.8046ZM361.677 84.04C361.446 84.04 361.225 83.9483 361.062 83.7851C360.898 83.6219 360.807 83.4006 360.807 83.1698V82.0214C360.807 81.7893 360.898 81.5665 361.061 81.401C361.224 81.2355 361.445 81.1407 361.677 81.1369C361.908 81.1369 362.131 81.2284 362.295 81.3914C362.459 81.5544 362.552 81.7757 362.554 82.0071V82.9558C362.547 83.1793 362.456 83.3919 362.298 83.5507C362.141 83.7095 361.929 83.8028 361.706 83.8117L361.677 84.04ZM396.385 84.632C396.032 84.603 395.702 84.4504 395.451 84.201C395.2 83.9517 395.046 83.6218 395.015 83.2696C394.836 82.2288 394.762 81.1726 394.794 80.117L396.085 78.2625L399.58 78.1769L400.293 84.3395L396.385 84.632ZM407.554 83.9187C407.554 83.9187 403.988 84.418 402.562 84.418C401.135 84.418 401.256 83.1912 401.256 83.1912L400.686 78.398H403.838L408.118 82.97C408.61 83.4479 407.583 83.6691 407.583 83.6691L407.554 83.9187Z" fill="#F7FBF7"/>
<path d="M262.262 107.533C259.63 108.182 257.804 108.681 257.804 108.681L247.383 110.193C246.927 111.875 246.635 113.598 246.513 115.336L224.252 115.443C224.252 115.443 220.685 115.685 212.625 115.343C204.565 115.001 194.437 113.731 189.351 113.203C184.266 112.675 146.684 113.168 135.279 112.219C123.873 111.27 91.812 105.557 87.7535 104.68C83.695 103.802 47.0473 95.935 36.0986 92.8252C25.1499 89.7153 2.98154 83.2816 2.98154 83.2816H2.73903L2.70337 75.4357V75.3216L3.34531 75.2859H3.85886C6.04146 74.9435 26.5408 71.1989 26.5408 71.1989L18.9659 42.7894L16.3696 33.089C38.0957 42.6753 63.9517 68.8665 63.9517 68.8665C63.9517 68.8665 81.277 90.2645 108.823 101.955C136.37 113.645 162.868 107.704 173.731 105.521C177.946 104.673 187.732 102.718 199.744 100.528C212.583 104.53 228.881 108.653 244.052 109.744C249.287 110.15 257.162 108.617 262.262 107.533ZM285.001 104.13H285.179C284.63 104.13 284.095 104.18 283.56 104.216C284.159 104.18 284.616 104.13 285.001 104.13Z" fill="#17228A"/>
<path d="M311.163 112.179C311.21 110.539 311.102 108.898 310.842 107.278C310.619 106.412 310.118 105.643 309.416 105.089C308.375 104.447 303.603 103.826 301.27 103.705C300.557 103.669 298.71 103.705 296.242 103.748L301.028 103.534L300.315 103.313C299.395 102.927 296.898 101.886 295.885 101.601C289.794 99.6536 267.597 97.0787 242.861 94.3112L240.721 94.0758C247.654 93.1913 254.23 92.5137 259.979 92.1642C287.661 90.4881 314.787 95.9731 329.723 100.552C337.183 102.835 345.914 105.545 352.776 107.685L364.637 111.408C347.248 111.708 318.489 112.129 311.163 112.179Z" fill="#17228A"/>
<path d="M396.064 109.697L395.707 109.747C394.281 109.932 392.911 110.089 391.563 110.239H391.456L390.493 110.339L389.744 110.417C387.426 110.631 385.137 110.816 383.196 110.945H382.74L382.198 110.981C380.771 111.059 379.437 111.123 378.282 111.159H378.104C375.022 110.845 351.085 104.24 335.457 98.8835C312.019 90.8521 280.429 88.0775 280.429 88.0775C299.606 88.8914 318.677 91.3517 337.433 95.4313C361.984 100.995 396.064 109.697 396.064 109.697Z" fill="#37AFE2"/>
<path d="M412.39 82.9683L409.837 83.1038C409.232 82.834 408.676 82.4678 408.189 82.0196C407.476 81.3063 404.673 78.1252 404.673 78.1252L407.397 78.1751C409.851 80.372 411.934 82.4904 412.39 82.9683ZM407.583 83.6673C407.583 83.6673 404.016 84.1594 402.59 84.1666C401.163 84.1737 401.277 82.9397 401.277 82.9397L400.707 78.1466H403.86L408.139 82.7186C408.61 83.4462 407.583 83.6673 407.583 83.6673ZM400.322 84.1095L396.413 84.4019C396.06 84.3732 395.728 84.2208 395.476 83.9716C395.225 83.7224 395.069 83.3924 395.036 83.0396C394.862 81.9983 394.79 80.9423 394.822 79.8869L396.113 78.0324L399.608 77.9469L400.322 84.1095Z" fill="#262625"/>
<path d="M130.271 104.688C113.224 101.336 105.678 96.9708 93.4026 89.2747C78.8234 80.1306 73.9304 72.1562 69.772 67.8766C68.5666 66.6355 55.1358 54.5242 40.8775 41.6997C32.5286 34.127 23.3162 27.5648 13.431 22.149L9.23694 6.51414C14.8504 8.72528 26.3554 18.4186 35.3925 27.1561C44.4296 35.8937 72.3398 65.1091 74.2442 67.6912C79.2371 74.4886 81.2057 77.3773 93.0174 87.035C104.008 95.5513 116.72 101.575 130.271 104.688ZM131.734 104.967C131.612 104.967 131.113 104.86 130.307 104.688L131.734 104.967Z" fill="#37AFE2"/>
<path d="M370.921 93.8496C370.57 93.872 370.221 93.7922 369.914 93.6201C369.608 93.4479 369.358 93.1907 369.195 92.8796C368.924 92.2802 368.802 91.6246 368.838 90.968C368.474 80.0764 367.74 75.3689 367.412 73.1007V72.9437C367.326 72.595 367.322 72.2309 367.401 71.8805C367.481 71.5301 367.64 71.203 367.868 70.9252C368.061 70.7307 368.293 70.5793 368.549 70.481C368.805 70.3826 369.078 70.3396 369.352 70.3546H376.741C377.397 70.3546 378.624 70.2975 379.045 72.2733C381.092 78.3575 380.957 90.9395 380.949 91.6456C380.975 91.94 380.938 92.2364 380.841 92.5154C380.744 92.7944 380.589 93.0498 380.386 93.2648C379.986 93.6462 379.455 93.8583 378.902 93.8568L370.992 93.8924L370.921 93.8496ZM369.209 71.5885C369.025 71.5836 368.846 71.65 368.71 71.774C368.624 71.9201 368.569 72.0818 368.547 72.2496C368.525 72.4174 368.537 72.588 368.581 72.7512V72.9081C368.945 75.1977 369.687 79.9623 370.051 90.9395C370.023 91.4014 370.096 91.8638 370.265 92.2947C370.343 92.4516 370.464 92.6157 370.899 92.6157L378.831 92.5729C379.05 92.5733 379.261 92.4919 379.423 92.3446C379.504 92.2458 379.564 92.1317 379.599 92.0091C379.635 91.8865 379.645 91.7581 379.63 91.6314C379.63 91.4959 379.78 78.5358 377.775 72.6156V72.5443C377.576 71.5529 377.283 71.56 376.72 71.5814H376.513L369.245 71.6171H369.202L369.209 71.5885Z" fill="#8FBAE4"/>
<path d="M369.994 95.9275C369.241 95.8923 368.532 95.5605 368.023 95.0045C367.514 94.4485 367.245 93.7136 367.276 92.9603H369.751C369.751 93.0958 369.751 93.4453 370.044 93.4667L380.03 93.4168C380.066 93.2773 380.081 93.1328 380.072 92.9888L382.533 92.7249C382.63 93.5784 382.39 94.436 381.863 95.1143C381.637 95.3678 381.358 95.5687 381.047 95.703C380.735 95.8374 380.397 95.9018 380.058 95.8918L369.994 95.9275Z" fill="#95A2A9"/>
<path d="M266.27 90.6962C265.417 90.6906 264.601 90.3504 263.996 89.7487C263.392 89.147 263.048 88.3321 263.039 87.4794V81.2597C263.037 80.8354 263.119 80.4148 263.279 80.0221C263.44 79.6294 263.676 79.2721 263.975 78.9707C264.274 78.6694 264.629 78.4298 265.02 78.2657C265.412 78.1016 265.831 78.0162 266.256 78.0143C267.11 78.0124 267.929 78.3493 268.535 78.951C269.141 79.5527 269.483 80.3702 269.487 81.224V87.4508C269.49 87.8742 269.409 88.294 269.249 88.6858C269.088 89.0777 268.852 89.4337 268.552 89.7333C267.949 90.3434 267.128 90.6897 266.27 90.6962ZM266.27 79.2839C265.742 79.2877 265.236 79.5007 264.865 79.8764C264.493 80.2521 264.285 80.7597 264.287 81.2882V87.5079C264.291 88.0339 264.502 88.5371 264.875 88.9084C265.247 89.2796 265.751 89.4889 266.277 89.4908C266.543 89.4942 266.806 89.4435 267.051 89.3417C267.297 89.2399 267.519 89.0892 267.704 88.8988C267.892 88.7123 268.041 88.49 268.141 88.2449C268.242 87.9998 268.292 87.7371 268.289 87.4722L268.253 81.2454C268.254 80.9817 268.202 80.7204 268.101 80.4767C268.001 80.233 267.852 80.0118 267.665 79.826C267.478 79.6402 267.256 79.4934 267.011 79.3942C266.767 79.295 266.505 79.2454 266.241 79.2483L266.27 79.2839ZM256.455 90.739C255.602 90.7371 254.783 90.3981 254.178 89.7956C253.573 89.1931 253.23 88.376 253.224 87.5222V81.3025C253.226 80.4472 253.565 79.6271 254.167 79.0197C254.769 78.4123 255.586 78.0665 256.441 78.0571C257.296 78.0683 258.113 78.416 258.713 79.0247C259.314 79.6335 259.651 80.4543 259.651 81.3096V87.5293C259.653 87.9536 259.571 88.3741 259.41 88.7669C259.25 89.1596 259.013 89.5169 258.715 89.8182C258.416 90.1196 258.061 90.3592 257.669 90.5233C257.278 90.6874 256.858 90.7728 256.434 90.7747L256.455 90.739ZM256.455 79.3267C255.928 79.3305 255.424 79.5426 255.052 79.9167C254.681 80.2908 254.473 80.7966 254.473 81.3239V87.5507C254.476 88.0767 254.687 88.5799 255.06 88.9512C255.433 89.3224 255.937 89.5317 256.463 89.5336C256.991 89.5298 257.496 89.3168 257.868 88.9411C258.24 88.5654 258.447 88.0577 258.445 87.5293V81.3096C258.442 80.7836 258.231 80.2804 257.858 79.9091C257.485 79.5379 256.981 79.3286 256.455 79.3267ZM86.3766 95.3966C85.8478 95.385 85.3411 95.1823 84.9501 94.826C84.7374 94.6179 84.5704 94.3676 84.4599 94.0913C84.3493 93.815 84.2976 93.5186 84.3081 93.2212C84.3081 92.6149 83.8303 79.7761 84.7076 73.9986C84.9216 71.8089 86.6405 71.8588 87.2896 71.8588H94.6577C94.9314 71.845 95.2052 71.8865 95.4625 71.9809C95.7199 72.0753 95.9556 72.2205 96.1555 72.408C96.3942 72.6764 96.568 72.9962 96.6632 73.3425C96.7584 73.6888 96.7727 74.0524 96.7047 74.4052V74.5692C96.4765 76.8303 95.9915 81.5378 96.2197 92.4009C96.2848 92.8138 96.268 93.2354 96.17 93.6417C96.0721 94.048 95.8951 94.4311 95.6491 94.769C95.4637 94.9557 95.2405 95.1007 94.9944 95.1942C94.7484 95.2877 94.4852 95.3275 94.2226 95.3111C93.0172 95.3111 86.4836 95.418 86.4194 95.418L86.3766 95.3966ZM87.0899 73.0785C86.3766 73.0785 86.0129 73.1855 85.9201 74.1341C85.0571 79.8403 85.5207 93.0215 85.5278 93.157C85.5156 93.4194 85.6079 93.6759 85.7846 93.8703C85.9527 94.012 86.1639 94.0925 86.3838 94.0985C86.4622 94.0985 93.01 93.9986 94.2297 93.9986C94.3204 94.0087 94.4121 94 94.4993 93.973C94.5864 93.946 94.667 93.9013 94.7361 93.8417C94.9795 93.3904 95.0601 92.869 94.9644 92.3653C94.7433 81.3809 95.2283 76.6234 95.4565 74.3338V74.1698C95.5227 73.8259 95.451 73.4698 95.2568 73.1783C95.1092 73.0489 94.9181 72.9801 94.7219 72.9858H87.0828L87.0899 73.0785Z" fill="#8FBAE4"/>
<path d="M85.2068 97.4079C84.8742 97.4196 84.5428 97.3622 84.2334 97.2394C83.9241 97.1167 83.6435 96.9312 83.4094 96.6947C82.8577 96.0389 82.5793 95.1962 82.6319 94.3409L85.0998 94.4907L83.8659 94.4122L85.1069 94.4764C85.0997 94.6417 85.1264 94.8068 85.1854 94.9614L95.1712 94.9115C95.3352 94.9115 95.4279 94.8473 95.4137 94.4621L97.8816 94.3409C97.9144 94.7273 97.868 95.1163 97.7454 95.4843C97.6227 95.8522 97.4264 96.1912 97.1683 96.4807C96.6696 97.0026 95.9917 97.3161 95.271 97.358H95.2282L85.2425 97.4079H85.2068Z" fill="#95A2A9"/>
<path d="M407.298 99.3957C407.26 99.3967 407.223 99.39 407.188 99.376C407.153 99.362 407.121 99.341 407.094 99.3143C407.067 99.2876 407.046 99.2558 407.032 99.2207C407.018 99.1857 407.012 99.1481 407.013 99.1104C407.014 99.0353 407.045 98.9638 407.098 98.9107C407.151 98.8575 407.223 98.8269 407.298 98.8251C407.335 98.8251 407.372 98.8325 407.407 98.8468C407.442 98.8611 407.473 98.8822 407.5 98.9086C407.526 98.9351 407.547 98.9666 407.562 99.0012C407.576 99.0358 407.583 99.0729 407.583 99.1104C407.584 99.1481 407.578 99.1857 407.564 99.2207C407.55 99.2558 407.529 99.2876 407.502 99.3143C407.475 99.341 407.443 99.362 407.408 99.376C407.373 99.39 407.336 99.3967 407.298 99.3957ZM402.505 98.9749C402.504 98.9371 402.51 98.8996 402.524 98.8645C402.538 98.8295 402.559 98.7976 402.586 98.7709C402.613 98.7443 402.645 98.7233 402.68 98.7093C402.715 98.6953 402.752 98.6886 402.79 98.6896C402.846 98.6896 402.902 98.7063 402.949 98.7376C402.995 98.769 403.032 98.8136 403.054 98.8657C403.075 98.9178 403.081 98.9752 403.07 99.0305C403.059 99.0859 403.032 99.1367 402.992 99.1766C402.952 99.2165 402.901 99.2437 402.846 99.2547C402.79 99.2657 402.733 99.2601 402.681 99.2385C402.629 99.2169 402.584 99.1803 402.553 99.1334C402.521 99.0865 402.505 99.0313 402.505 98.9749ZM401.592 98.9749C401.591 98.9377 401.597 98.9008 401.611 98.8662C401.624 98.8316 401.645 98.8001 401.671 98.7735C401.697 98.747 401.728 98.7258 401.762 98.7114C401.796 98.697 401.833 98.6895 401.87 98.6896C401.946 98.6895 402.02 98.7194 402.074 98.7727C402.129 98.826 402.161 98.8986 402.162 98.9749C402.162 99.0123 402.155 99.0494 402.141 99.0841C402.126 99.1187 402.105 99.1501 402.079 99.1766C402.052 99.2031 402.021 99.2241 401.986 99.2385C401.952 99.2528 401.915 99.2602 401.877 99.2602C401.839 99.2612 401.802 99.2544 401.767 99.2405C401.732 99.2265 401.7 99.2055 401.673 99.1788C401.646 99.1521 401.625 99.1203 401.611 99.0852C401.597 99.0501 401.591 99.0126 401.592 98.9749ZM403.732 100.202C403.656 100.202 403.583 100.172 403.53 100.118C403.476 100.065 403.446 99.9921 403.446 99.9164C403.446 99.8407 403.476 99.7681 403.53 99.7146C403.583 99.6611 403.656 99.6311 403.732 99.6311C403.769 99.6301 403.806 99.6366 403.84 99.6502C403.875 99.6637 403.906 99.6841 403.933 99.71C403.96 99.7359 403.981 99.7669 403.995 99.8011C404.009 99.8353 404.017 99.8721 404.017 99.9093C404.017 99.9856 403.987 100.059 403.934 100.114C403.88 100.168 403.808 100.2 403.732 100.202ZM403.732 101.129C403.656 101.129 403.583 101.099 403.53 101.045C403.476 100.992 403.446 100.919 403.446 100.844C403.445 100.807 403.452 100.77 403.465 100.735C403.479 100.7 403.499 100.669 403.525 100.642C403.551 100.616 403.582 100.595 403.616 100.58C403.651 100.566 403.687 100.558 403.724 100.558C403.762 100.557 403.799 100.564 403.834 100.577C403.869 100.591 403.901 100.611 403.928 100.637C403.955 100.663 403.977 100.694 403.992 100.728C404.008 100.762 404.016 100.799 404.017 100.837C404.015 100.912 403.985 100.985 403.932 101.039C403.879 101.093 403.807 101.125 403.732 101.129ZM407.733 94.9378C407.706 94.9112 407.685 94.8796 407.67 94.8447C407.655 94.8098 407.648 94.7723 407.648 94.7345C407.648 94.6967 407.655 94.6592 407.67 94.6243C407.685 94.5894 407.706 94.5578 407.733 94.5312C407.786 94.4789 407.858 94.4497 407.933 94.4497C408.007 94.4497 408.079 94.4789 408.132 94.5312C408.159 94.5578 408.181 94.5894 408.195 94.6243C408.21 94.6592 408.218 94.6967 408.218 94.7345C408.218 94.7723 408.21 94.8098 408.195 94.8447C408.181 94.8796 408.159 94.9112 408.132 94.9378C408.079 94.99 408.007 95.0193 407.933 95.0193C407.858 95.0193 407.786 94.99 407.733 94.9378ZM407.077 95.5726C407.023 95.5187 406.993 95.4455 406.993 95.3693C406.993 95.2931 407.023 95.2199 407.077 95.166C407.131 95.1121 407.204 95.0818 407.28 95.0818C407.356 95.0818 407.429 95.1121 407.483 95.166C407.535 95.2214 407.563 95.2939 407.563 95.3693C407.563 95.4446 407.535 95.5172 407.483 95.5726C407.457 95.5995 407.425 95.6209 407.39 95.6356C407.355 95.6502 407.318 95.6577 407.28 95.6577C407.242 95.6577 407.205 95.6502 407.17 95.6356C407.135 95.6209 407.103 95.5995 407.077 95.5726ZM406.142 96.5426C406.116 96.5159 406.095 96.4842 406.08 96.4494C406.066 96.4145 406.058 96.3771 406.058 96.3393C406.058 96.3016 406.066 96.2642 406.08 96.2293C406.095 96.1945 406.116 96.1628 406.142 96.1361C406.169 96.1094 406.201 96.0882 406.236 96.0737C406.271 96.0593 406.308 96.0519 406.346 96.0519C406.383 96.0519 406.421 96.0593 406.456 96.0737C406.491 96.0882 406.522 96.1094 406.549 96.1361C406.603 96.19 406.633 96.2631 406.633 96.3393C406.633 96.4156 406.603 96.4887 406.549 96.5426C406.495 96.5965 406.422 96.6268 406.346 96.6268C406.269 96.6268 406.196 96.5965 406.142 96.5426ZM405.493 97.1988C405.464 97.1731 405.441 97.1418 405.425 97.1068C405.408 97.0719 405.399 97.0339 405.398 96.9953C405.397 96.9567 405.403 96.9182 405.417 96.8822C405.431 96.8462 405.453 96.8135 405.48 96.7859C405.507 96.7584 405.539 96.7366 405.575 96.7219C405.611 96.7073 405.649 96.7 405.688 96.7006C405.726 96.7012 405.764 96.7096 405.8 96.7254C405.835 96.7411 405.867 96.7639 405.893 96.7923C405.92 96.8182 405.941 96.8492 405.955 96.8835C405.97 96.9179 405.977 96.9547 405.977 96.992C405.977 97.0292 405.97 97.0661 405.955 97.1004C405.941 97.1347 405.92 97.1658 405.893 97.1917C405.839 97.244 405.768 97.2733 405.693 97.2733C405.618 97.2733 405.547 97.244 405.493 97.1917M404.837 97.855C404.798 97.815 404.771 97.7641 404.76 97.7089C404.75 97.6537 404.756 97.5965 404.777 97.5447C404.799 97.4928 404.836 97.4485 404.882 97.4173C404.929 97.3862 404.984 97.3695 405.04 97.3695C405.097 97.3695 405.152 97.3862 405.198 97.4173C405.245 97.4485 405.282 97.4928 405.304 97.5447C405.325 97.5965 405.331 97.6537 405.321 97.7089C405.31 97.7641 405.283 97.815 405.244 97.855C405.189 97.9078 405.116 97.9373 405.04 97.9373C404.965 97.9373 404.892 97.9078 404.837 97.855ZM404.188 98.5112C404.155 98.4867 404.128 98.4554 404.109 98.4196C404.089 98.3837 404.078 98.344 404.075 98.3032C404.072 98.2625 404.078 98.2215 404.092 98.1832C404.106 98.1449 404.129 98.1102 404.158 98.0813C404.186 98.0523 404.221 98.03 404.259 98.0157C404.298 98.0014 404.339 97.9955 404.379 97.9984C404.42 98.0013 404.46 98.0129 404.496 98.0325C404.532 98.0521 404.563 98.0791 404.588 98.1118C404.62 98.1363 404.647 98.1676 404.667 98.2035C404.686 98.2394 404.698 98.2791 404.701 98.3198C404.704 98.3606 404.698 98.4015 404.684 98.4398C404.669 98.4781 404.647 98.5129 404.618 98.5418C404.589 98.5707 404.554 98.5931 404.516 98.6074C404.478 98.6217 404.437 98.6275 404.396 98.6247C404.355 98.6218 404.316 98.6101 404.28 98.5906C404.244 98.571 404.213 98.5439 404.188 98.5112ZM403.532 99.1746C403.479 99.1201 403.45 99.0472 403.45 98.9713C403.45 98.8954 403.479 98.8226 403.532 98.768C403.558 98.7411 403.59 98.7197 403.625 98.705C403.66 98.6904 403.697 98.6829 403.735 98.6829C403.773 98.6829 403.81 98.6904 403.845 98.705C403.88 98.7197 403.912 98.7411 403.938 98.768C403.992 98.8219 404.023 98.8951 404.023 98.9713C404.023 99.0475 403.992 99.1207 403.938 99.1746C403.884 99.2285 403.811 99.2588 403.735 99.2588C403.659 99.2588 403.586 99.2285 403.532 99.1746ZM408.411 94.253C408.359 94.1977 408.331 94.1251 408.331 94.0498C408.331 93.9744 408.359 93.9018 408.411 93.8465C408.437 93.8195 408.469 93.7981 408.504 93.7835C408.539 93.7689 408.576 93.7614 408.614 93.7614C408.652 93.7614 408.689 93.7689 408.724 93.7835C408.759 93.7981 408.791 93.8195 408.817 93.8465C408.871 93.9004 408.901 93.9735 408.901 94.0498C408.901 94.126 408.871 94.1991 408.817 94.253C408.763 94.3069 408.69 94.3372 408.614 94.3372C408.538 94.3372 408.465 94.3069 408.411 94.253ZM406.043 95.4014C406.041 95.3447 406.057 95.2888 406.087 95.241C406.118 95.1931 406.162 95.1555 406.214 95.1328C406.266 95.1101 406.323 95.1034 406.379 95.1136C406.435 95.1238 406.486 95.1504 406.527 95.19C406.568 95.2296 406.595 95.2804 406.607 95.3359C406.619 95.3915 406.613 95.4492 406.592 95.5017C406.571 95.5543 406.534 95.5993 406.487 95.631C406.44 95.6626 406.385 95.6795 406.328 95.6796C406.291 95.6805 406.254 95.674 406.219 95.6605C406.185 95.6469 406.153 95.6266 406.127 95.6007C406.1 95.5747 406.079 95.5437 406.064 95.5095C406.05 95.4753 406.043 95.4385 406.043 95.4014ZM405.115 95.4014C405.115 95.345 405.132 95.2898 405.163 95.2429C405.195 95.196 405.239 95.1594 405.291 95.1378C405.344 95.1162 405.401 95.1106 405.456 95.1216C405.512 95.1326 405.562 95.1598 405.602 95.1997C405.642 95.2396 405.669 95.2904 405.68 95.3457C405.691 95.4011 405.686 95.4584 405.664 95.5106C405.643 95.5627 405.606 95.6073 405.559 95.6386C405.512 95.67 405.457 95.6867 405.401 95.6867C405.325 95.6867 405.252 95.6566 405.199 95.6031C405.145 95.5496 405.115 95.4771 405.115 95.4014ZM404.188 95.4085C404.187 95.3708 404.194 95.3333 404.208 95.2982C404.222 95.2631 404.243 95.2313 404.269 95.2046C404.296 95.1779 404.328 95.1569 404.363 95.1429C404.398 95.1289 404.436 95.1222 404.473 95.1232C404.51 95.1223 404.547 95.1288 404.582 95.1423C404.617 95.1559 404.648 95.1762 404.675 95.2021C404.701 95.2281 404.722 95.2591 404.737 95.2933C404.751 95.3275 404.759 95.3643 404.759 95.4014C404.76 95.4391 404.753 95.4767 404.739 95.5117C404.725 95.5468 404.704 95.5786 404.677 95.6053C404.651 95.632 404.619 95.653 404.584 95.667C404.549 95.681 404.511 95.6877 404.473 95.6867C404.436 95.6877 404.399 95.6812 404.365 95.6676C404.33 95.6541 404.299 95.6337 404.272 95.6078C404.245 95.5819 404.224 95.5509 404.21 95.5167C404.195 95.4824 404.188 95.4457 404.188 95.4085ZM403.261 95.4085C403.261 95.3521 403.278 95.2969 403.309 95.25C403.34 95.2031 403.385 95.1665 403.437 95.1449C403.489 95.1233 403.546 95.1177 403.602 95.1287C403.657 95.1397 403.708 95.1669 403.748 95.2068C403.788 95.2467 403.815 95.2975 403.826 95.3529C403.837 95.4082 403.831 95.4656 403.81 95.5177C403.788 95.5699 403.752 95.6144 403.705 95.6458C403.658 95.6771 403.603 95.6938 403.546 95.6938C403.509 95.6938 403.472 95.6865 403.437 95.6721C403.402 95.6578 403.371 95.6368 403.344 95.6103C403.318 95.5838 403.297 95.5523 403.283 95.5177C403.268 95.4831 403.261 95.446 403.261 95.4085ZM407.298 96.6211C407.222 96.6211 407.15 96.591 407.096 96.5375C407.043 96.484 407.013 96.4115 407.013 96.3358C407.013 96.2601 407.043 96.1875 407.096 96.134C407.15 96.0805 407.222 96.0505 407.298 96.0505C407.336 96.0485 407.373 96.0543 407.409 96.0674C407.444 96.0805 407.477 96.1007 407.504 96.1267C407.531 96.1528 407.553 96.1841 407.568 96.2188C407.583 96.2535 407.59 96.2909 407.59 96.3286C407.59 96.405 407.561 96.4783 407.507 96.533C407.454 96.5876 407.381 96.6192 407.305 96.6211M407.298 97.5483C407.222 97.5483 407.15 97.5183 407.096 97.4648C407.043 97.4113 407.013 97.3387 407.013 97.263C407.013 97.1867 407.042 97.1134 407.096 97.0587C407.149 97.0041 407.222 96.9725 407.298 96.9706C407.374 96.9706 407.446 97.0007 407.5 97.0542C407.553 97.1077 407.583 97.1802 407.583 97.2559C407.582 97.3317 407.551 97.404 407.498 97.4583C407.445 97.5126 407.374 97.5447 407.298 97.5483ZM407.298 98.4684C407.26 98.4694 407.223 98.4627 407.188 98.4487C407.153 98.4347 407.121 98.4138 407.094 98.3871C407.067 98.3604 407.046 98.3285 407.032 98.2935C407.018 98.2584 407.012 98.2209 407.013 98.1831C407.012 98.1454 407.018 98.1079 407.032 98.0728C407.046 98.0377 407.067 98.0059 407.094 97.9792C407.121 97.9525 407.153 97.9315 407.188 97.9176C407.223 97.9036 407.26 97.8969 407.298 97.8978C407.374 97.8978 407.446 97.9279 407.5 97.9814C407.553 98.0349 407.583 98.1075 407.583 98.1831C407.583 98.2588 407.553 98.3314 407.5 98.3849C407.446 98.4384 407.374 98.4684 407.298 98.4684Z" fill="#17228A"/>
<path d="M301.021 103.534L296.235 103.748C293.103 103.819 289.016 103.962 285.172 104.147H284.994C284.637 104.147 284.152 104.147 283.567 104.233C280.85 104.376 278.339 104.547 276.506 104.725C271.72 105.373 266.978 106.309 262.305 107.528C257.205 108.612 249.33 110.146 244.059 109.768C228.845 108.684 212.575 104.561 199.737 100.567C193.651 98.6705 187.626 96.5868 181.67 94.3186C183.558 93.0172 185.658 92.052 187.875 91.4655C187.875 91.4655 198.046 91.5368 200.714 91.5226C203.381 91.5083 205.243 93.8906 205.243 93.8906L217.804 95.0818L226.399 96.1303C235.393 97.2145 248.781 98.805 252.989 99.1902C259.523 99.7894 296.335 103.634 296.335 103.634L300.728 103.491L300.4 103.349L301.021 103.534Z" fill="#CFCFD4"/>
<path d="M276.499 104.724C278.332 104.546 280.842 104.375 283.56 104.232C279.216 104.582 269.38 106.072 266.278 106.679C265.393 106.857 264.002 107.164 262.297 107.527C266.971 106.308 271.713 105.372 276.499 104.724ZM296.242 103.747C292.326 103.918 287.126 104.125 285.179 104.147C289.024 103.961 293.111 103.818 296.242 103.747Z" fill="#CFCFD4"/>
<path d="M187.846 91.4283C185.629 92.0147 183.529 92.98 181.641 94.2814C178.952 96.2286 178.374 98.0973 178.374 98.0973H175.521L175.485 89.7236L170.3 84.8734H172.475L185.892 90.5795H185.678L185.806 90.6294L187.846 91.4283Z" fill="#17228A"/>
<path d="M187.847 91.4308L185.807 90.6462L185.678 90.5962H185.892L187.847 91.4308Z" fill="#2C2A6A"/>
<path d="M300.671 103.457L296.278 103.6C296.278 103.6 259.466 99.7555 252.932 99.1563C248.724 98.7712 235.336 97.1806 226.342 96.0964L225.208 95.9609C225.008 95.9609 224.808 95.9038 224.608 95.8896L220.479 95.3831H220.229L219.837 95.3332L219.48 95.2904L218.695 95.1977L218.396 95.162L218.075 95.1192H217.747L205.186 93.9281C205.186 93.9281 203.296 91.5458 200.657 91.56C198.018 91.5743 187.818 91.503 187.818 91.503L185.778 90.7184L185.65 90.6684L200.122 90.6185H200.364C200.728 90.6185 201.213 90.6185 201.869 90.6756H202.09C203.695 90.7683 206.27 90.9823 210.457 91.3389H210.657C212.526 91.4958 227.24 92.6656 240.721 94.1278L242.861 94.3632C267.597 97.1307 289.794 99.7056 295.885 101.653C296.898 101.974 299.395 102.979 300.315 103.365L300.671 103.457Z" fill="#E5E6EC"/>
<path d="M247.383 110.193L257.247 108.766L250.307 109.786C250.507 110.5 250.899 112.639 250.792 118.395C250.762 120.844 250.603 123.289 250.314 125.721C249.08 125.599 247.96 125.478 247.169 125.385C246.457 122.086 246.236 118.7 246.513 115.335C246.635 113.597 246.927 111.875 247.383 110.193ZM258.403 108.524C258.998 111.736 259.275 115 259.23 118.267C259.18 121.039 258.978 123.806 258.624 126.555L258.403 126.491L257.761 126.434C258.096 123.402 258.263 120.354 258.26 117.304C258.303 112.112 257.846 109.672 257.547 108.745L257.825 108.702L258.403 108.524ZM311.163 112.176C311.106 117.169 310.215 123.203 309.373 125.093C308.988 125.97 307.839 126.648 306.52 127.154C307.09 125.129 307.654 121.841 307.861 116.548C308.146 109.494 307.825 106.099 307.518 104.494C308.188 104.598 308.838 104.798 309.451 105.086C310.154 105.64 310.655 106.409 310.878 107.276C311.126 108.896 311.221 110.537 311.163 112.176Z" fill="#F7FBF7"/>
<path d="M307.825 116.553C307.618 121.846 307.055 125.113 306.484 127.16C306.218 127.26 305.947 127.352 305.671 127.438L305.343 127.538C304.865 127.673 304.387 127.802 303.916 127.909L303.431 128.016L303.224 128.058H303.153C302.689 128.151 302.254 128.23 301.876 128.287L301.57 128.337H301.413L301.092 128.379L300.478 128.458C300.478 128.458 286.676 129.171 276.862 129.078H275.471L274.18 129.028H274.087C268.86 128.726 263.677 127.897 258.616 126.553C258.971 123.804 259.173 121.037 259.223 118.265C259.268 114.998 258.991 111.735 258.395 108.522L258.609 108.465C261.363 107.752 270.485 105.384 276.177 104.756H276.491C281.976 104.242 293.481 103.807 298.774 103.736H302.261L302.975 103.807L303.617 103.871L303.966 103.914C305.164 104.057 306.434 104.242 307.461 104.456C307.789 106.104 308.11 109.499 307.825 116.553Z" fill="#17228A"/>
<path d="M258.261 117.306C258.263 120.356 258.096 123.404 257.761 126.436L257.369 126.4L256.927 126.357H256.278L255.664 126.3L255.372 126.243H255.243L253.753 126.1L253.289 126.057L252.825 126.015L251.884 125.922L251.413 125.872L250.95 125.829L250.35 125.765C250.639 123.333 250.798 120.888 250.828 118.44C250.935 112.662 250.543 110.537 250.343 109.831L257.283 108.811L257.562 108.768C257.847 109.674 258.303 112.113 258.261 117.306Z" fill="#989698"/>
<path d="M272.333 117.28V117.78C272.236 117.833 272.133 117.876 272.026 117.908C271.926 117.936 271.823 117.953 271.72 117.958C271.54 117.963 271.361 117.932 271.195 117.866C271.028 117.8 270.876 117.7 270.749 117.573C270.619 117.452 270.516 117.305 270.447 117.141C270.379 116.978 270.345 116.801 270.35 116.624C270.342 116.441 270.371 116.259 270.435 116.087C270.499 115.916 270.596 115.759 270.721 115.625C270.846 115.49 270.998 115.383 271.168 115.311C271.338 115.24 271.521 115.206 271.705 115.212C271.883 115.208 272.059 115.242 272.222 115.31C272.386 115.379 272.533 115.482 272.654 115.611C272.767 115.733 272.855 115.876 272.911 116.032C272.973 116.184 273.004 116.346 273.003 116.51V117.687C273.016 117.888 272.987 118.09 272.92 118.28C272.853 118.47 272.748 118.644 272.611 118.792C272.481 118.915 272.327 119.009 272.159 119.07C271.991 119.132 271.812 119.158 271.634 119.149C271.337 119.152 271.042 119.101 270.764 118.999L270.878 118.564C271.11 118.635 271.349 118.678 271.591 118.693C271.811 118.701 272.027 118.636 272.205 118.507C272.307 118.433 272.388 118.334 272.439 118.218C272.491 118.103 272.511 117.976 272.497 117.851V116.624C272.51 116.363 272.42 116.107 272.247 115.911C272.172 115.829 272.08 115.765 271.978 115.722C271.876 115.679 271.766 115.658 271.655 115.661C271.533 115.656 271.411 115.68 271.3 115.731C271.188 115.782 271.09 115.858 271.013 115.954C270.868 116.149 270.795 116.388 270.807 116.631C270.802 116.747 270.822 116.863 270.867 116.97C270.911 117.077 270.978 117.173 271.063 117.252C271.148 117.33 271.246 117.39 271.354 117.429C271.462 117.468 271.576 117.486 271.691 117.48C271.919 117.47 272.14 117.401 272.333 117.28ZM273.274 116.574C273.273 116.394 273.306 116.215 273.374 116.048C273.442 115.881 273.542 115.73 273.668 115.602C273.795 115.474 273.946 115.372 274.112 115.303C274.278 115.233 274.457 115.197 274.637 115.198C274.993 115.192 275.336 115.328 275.593 115.576C275.728 115.702 275.835 115.856 275.906 116.027C275.978 116.198 276.012 116.382 276.006 116.567C276.02 116.755 275.995 116.943 275.932 117.121C275.87 117.298 275.771 117.461 275.643 117.599C275.515 117.736 275.36 117.846 275.187 117.921C275.015 117.996 274.829 118.035 274.64 118.035C274.452 118.035 274.266 117.996 274.094 117.921C273.921 117.846 273.766 117.736 273.638 117.599C273.51 117.461 273.411 117.298 273.349 117.121C273.286 116.943 273.261 116.755 273.274 116.567V116.574ZM273.781 116.574C273.775 116.694 273.793 116.814 273.835 116.927C273.877 117.04 273.941 117.143 274.023 117.23C274.189 117.393 274.412 117.485 274.644 117.485C274.876 117.485 275.099 117.393 275.264 117.23C275.427 117.051 275.511 116.815 275.5 116.574C275.506 116.454 275.487 116.334 275.446 116.221C275.404 116.108 275.34 116.005 275.257 115.918C275.092 115.755 274.869 115.664 274.637 115.664C274.405 115.664 274.182 115.755 274.016 115.918C273.854 116.097 273.769 116.333 273.781 116.574ZM276.926 117.879H276.413V114.035H276.926V117.879ZM277.896 117.872H277.419V116.339C277.413 116.184 277.438 116.03 277.493 115.885C277.548 115.74 277.632 115.608 277.74 115.497C277.959 115.297 278.245 115.186 278.542 115.186C278.839 115.186 279.125 115.297 279.344 115.497C279.451 115.608 279.534 115.738 279.589 115.882C279.645 116.025 279.67 116.178 279.665 116.332V117.872H279.18V116.332C279.183 116.146 279.114 115.967 278.988 115.832C278.93 115.771 278.86 115.723 278.783 115.69C278.706 115.657 278.622 115.64 278.538 115.64C278.454 115.64 278.371 115.657 278.294 115.69C278.217 115.723 278.147 115.771 278.089 115.832C277.961 115.969 277.892 116.151 277.896 116.339V117.872ZM282.133 114.013H282.618V116.46C282.639 116.846 282.509 117.225 282.255 117.516C282.133 117.646 281.985 117.75 281.82 117.819C281.655 117.887 281.477 117.92 281.299 117.915C281.111 117.926 280.924 117.893 280.751 117.82C280.578 117.747 280.424 117.636 280.3 117.494C280.056 117.217 279.924 116.858 279.929 116.489C279.929 116.312 279.965 116.137 280.034 115.975C280.104 115.813 280.207 115.668 280.336 115.547C280.448 115.426 280.584 115.328 280.735 115.262C280.886 115.197 281.049 115.163 281.213 115.162C281.475 115.154 281.734 115.218 281.962 115.347V115.847C281.863 115.778 281.755 115.723 281.641 115.683C281.531 115.642 281.416 115.62 281.299 115.618C281.183 115.615 281.067 115.636 280.959 115.679C280.851 115.722 280.753 115.786 280.671 115.868C280.509 116.05 280.425 116.288 280.436 116.531C280.432 116.652 280.452 116.772 280.495 116.884C280.538 116.997 280.602 117.1 280.685 117.188C280.767 117.272 280.866 117.339 280.975 117.383C281.085 117.428 281.202 117.448 281.32 117.444C281.433 117.447 281.545 117.423 281.647 117.376C281.75 117.33 281.84 117.26 281.912 117.173C282.089 116.94 282.178 116.652 282.162 116.36L282.133 114.013ZM283.189 114.627C283.186 114.552 283.212 114.478 283.26 114.42C283.301 114.377 283.353 114.346 283.411 114.334C283.469 114.321 283.53 114.326 283.585 114.349C283.64 114.371 283.687 114.41 283.719 114.459C283.752 114.509 283.768 114.568 283.767 114.627C283.77 114.7 283.745 114.772 283.695 114.827C283.638 114.883 283.562 114.916 283.481 114.919C283.442 114.922 283.402 114.915 283.365 114.9C283.328 114.886 283.295 114.863 283.267 114.834C283.241 114.806 283.22 114.774 283.207 114.738C283.193 114.703 283.187 114.665 283.189 114.627ZM283.731 117.844H283.253V115.212H283.738L283.731 117.844ZM287.861 114.613L287.518 114.984C287.336 114.83 287.143 114.69 286.941 114.563C286.736 114.457 286.508 114.405 286.277 114.413C286.082 114.411 285.887 114.449 285.707 114.525C285.527 114.601 285.364 114.713 285.229 114.855C285.097 114.996 284.992 115.16 284.922 115.34C284.851 115.524 284.815 115.72 284.815 115.918C284.812 116.113 284.848 116.307 284.92 116.488C284.992 116.669 285.1 116.834 285.236 116.974C285.372 117.116 285.536 117.229 285.718 117.305C285.899 117.381 286.095 117.419 286.292 117.416C286.644 117.424 286.987 117.303 287.255 117.073C287.391 116.96 287.502 116.819 287.578 116.659C287.654 116.498 287.695 116.324 287.697 116.146H286.356V115.661H288.232V115.989C288.244 116.259 288.194 116.527 288.087 116.774C287.979 117.022 287.816 117.241 287.611 117.416C287.427 117.572 287.217 117.695 286.991 117.78C286.521 117.964 285.998 117.964 285.528 117.78C285.288 117.68 285.068 117.537 284.879 117.359C284.693 117.177 284.543 116.961 284.437 116.724C284.233 116.228 284.233 115.672 284.437 115.176C284.541 114.937 284.688 114.719 284.872 114.534C285.061 114.353 285.281 114.208 285.521 114.106C285.763 114.006 286.023 113.955 286.284 113.956C286.572 113.949 286.859 114 287.126 114.106C287.401 114.226 287.651 114.398 287.861 114.613ZM288.474 116.503C288.473 116.323 288.509 116.144 288.582 115.98C288.654 115.815 288.761 115.667 288.895 115.547C289.019 115.421 289.166 115.322 289.329 115.254C289.492 115.187 289.667 115.153 289.844 115.155C290.202 115.151 290.547 115.286 290.807 115.533C290.939 115.661 291.045 115.815 291.116 115.986C291.187 116.156 291.223 116.339 291.22 116.524C291.222 116.794 291.145 117.058 290.998 117.283C290.851 117.509 290.64 117.686 290.393 117.793C290.145 117.899 289.872 117.931 289.607 117.883C289.342 117.835 289.097 117.709 288.902 117.523C288.76 117.395 288.647 117.237 288.573 117.061C288.499 116.885 288.466 116.694 288.474 116.503ZM288.973 116.503C288.969 116.623 288.988 116.744 289.031 116.857C289.074 116.969 289.139 117.072 289.223 117.159C289.387 117.321 289.609 117.413 289.84 117.413C290.071 117.413 290.293 117.321 290.457 117.159C290.54 117.072 290.604 116.968 290.645 116.856C290.687 116.743 290.706 116.623 290.7 116.503C290.708 116.261 290.621 116.025 290.457 115.847C290.376 115.763 290.278 115.697 290.17 115.654C290.062 115.611 289.946 115.592 289.829 115.597C289.715 115.593 289.601 115.614 289.495 115.658C289.389 115.703 289.294 115.769 289.216 115.854C289.134 115.94 289.071 116.042 289.029 116.154C288.987 116.265 288.969 116.384 288.973 116.503ZM291.698 117.516C291.697 117.473 291.704 117.431 291.72 117.392C291.736 117.352 291.76 117.317 291.791 117.287C291.821 117.257 291.856 117.234 291.896 117.218C291.935 117.202 291.977 117.194 292.019 117.195C292.103 117.194 292.185 117.224 292.247 117.28C292.278 117.311 292.303 117.348 292.319 117.388C292.334 117.429 292.342 117.472 292.34 117.516C292.343 117.558 292.337 117.601 292.32 117.641C292.304 117.68 292.279 117.716 292.247 117.744C292.218 117.775 292.183 117.799 292.143 117.815C292.104 117.831 292.062 117.838 292.019 117.837C291.977 117.837 291.935 117.83 291.896 117.814C291.856 117.798 291.821 117.774 291.791 117.744C291.76 117.715 291.735 117.679 291.719 117.64C291.703 117.601 291.696 117.558 291.698 117.516ZM293.132 114.577C293.131 114.539 293.138 114.502 293.152 114.467C293.166 114.432 293.187 114.4 293.213 114.373C293.24 114.346 293.272 114.325 293.307 114.311C293.342 114.297 293.379 114.291 293.417 114.292C293.458 114.287 293.499 114.291 293.537 114.305C293.575 114.319 293.61 114.341 293.638 114.37C293.685 114.429 293.71 114.502 293.71 114.577C293.71 114.652 293.685 114.725 293.638 114.784C293.581 114.84 293.504 114.871 293.424 114.871C293.344 114.871 293.268 114.84 293.21 114.784C293.159 114.727 293.131 114.653 293.132 114.577ZM293.681 117.801H293.175V115.169H293.66L293.681 117.801ZM294.822 117.794H294.337V116.26C294.331 116.106 294.357 115.951 294.412 115.807C294.467 115.662 294.551 115.53 294.658 115.419C294.878 115.219 295.164 115.108 295.461 115.108C295.758 115.108 296.044 115.219 296.263 115.419C296.37 115.529 296.453 115.66 296.508 115.803C296.563 115.947 296.589 116.1 296.584 116.253V117.794H296.106V116.26C296.107 116.074 296.036 115.895 295.906 115.761C295.849 115.7 295.779 115.652 295.702 115.619C295.624 115.585 295.541 115.568 295.457 115.568C295.373 115.568 295.29 115.585 295.213 115.619C295.135 115.652 295.066 115.7 295.008 115.761C294.944 115.827 294.895 115.906 294.863 115.991C294.831 116.077 294.817 116.169 294.822 116.26V117.794Z" fill="white"/>
<path fill-rule="evenodd" clip-rule="evenodd" d="M293.318 88.6897L293.232 70.2517H295.942L296.028 88.6897H293.318ZM305.885 88.6255L305.85 81.2361C305.862 80.8274 305.791 80.4204 305.643 80.0394C305.495 79.6583 305.272 79.3109 304.987 79.0178C304.732 78.7314 304.419 78.5039 304.068 78.3511C303.717 78.1984 303.337 78.124 302.954 78.1334C302.57 78.1323 302.191 78.2125 301.84 78.3686C301.49 78.5248 301.177 78.7533 300.921 79.0392C300.638 79.3343 300.419 79.6837 300.275 80.0663C300.132 80.4488 300.068 80.8565 300.086 81.2646V88.6541H297.533V81.2575C297.501 80.5208 297.619 79.7853 297.879 79.0952C298.139 78.4051 298.535 77.7747 299.045 77.2418C299.55 76.7227 300.158 76.3145 300.83 76.0431C301.502 75.7718 302.223 75.6431 302.947 75.6654C303.67 75.6417 304.39 75.7661 305.064 76.0311C305.737 76.296 306.349 76.6959 306.863 77.2061C307.384 77.7303 307.793 78.3557 308.064 79.0438C308.336 79.732 308.463 80.4683 308.439 81.2075L308.474 88.6041L305.885 88.6255ZM321.164 86.8923C320.581 87.5289 319.867 88.0324 319.072 88.3685C318.277 88.7045 317.419 88.8652 316.556 88.8395C315.65 88.8768 314.747 88.714 313.911 88.3627C313.075 88.0113 312.327 87.4801 311.72 86.8067C310.541 85.4683 309.914 83.7323 309.965 81.9493C309.943 81.1242 310.089 80.3032 310.393 79.5358C310.697 78.7684 311.153 78.0706 311.734 77.4843C312.287 76.8926 312.957 76.4217 313.701 76.1013C314.444 75.781 315.247 75.618 316.057 75.6227C317.299 75.6012 318.526 75.8958 319.623 76.4786L319.701 76.5214V79.2746L319.473 79.1248C319.001 78.8242 318.493 78.5846 317.961 78.4115C317.471 78.2124 316.949 78.1036 316.42 78.0906C315.891 78.0718 315.365 78.1636 314.873 78.3601C314.382 78.5566 313.937 78.8535 313.567 79.2318C313.201 79.639 312.918 80.1145 312.736 80.6309C312.554 81.1474 312.475 81.6948 312.504 82.2418C312.464 83.3582 312.866 84.4454 313.624 85.266C314.002 85.6486 314.455 85.9477 314.955 86.1443C315.455 86.3409 315.991 86.4305 316.527 86.4073C317.048 86.4188 317.564 86.311 318.036 86.0922C318.508 85.8733 318.924 85.5493 319.252 85.1448C320.06 84.09 320.451 82.7748 320.35 81.4501L320.293 70.1448H322.875L322.932 81.8709C323.016 83.7253 322.374 85.5395 321.142 86.928M324.708 88.5756L324.651 75.8723H327.233L327.29 88.5685L324.708 88.5756ZM327.055 74.3102C326.912 74.4611 326.738 74.5789 326.544 74.6553C326.351 74.7317 326.143 74.7648 325.935 74.7525C325.729 74.7599 325.523 74.7251 325.331 74.6503C325.138 74.5755 324.963 74.4622 324.815 74.3174C324.548 74.0195 324.401 73.6333 324.402 73.2332C324.393 72.8408 324.536 72.4602 324.801 72.1704C324.944 72.0196 325.119 71.9018 325.312 71.8254C325.506 71.749 325.713 71.7158 325.921 71.7282C326.127 71.7152 326.333 71.7496 326.523 71.8288C326.714 71.9079 326.883 72.0297 327.019 72.1847C327.158 72.3187 327.268 72.4795 327.343 72.6572C327.418 72.835 327.456 73.0261 327.455 73.2189C327.468 73.6208 327.325 74.0122 327.055 74.3102ZM358.938 79.0891C358.183 78.3481 357.168 77.933 356.11 77.933C355.052 77.933 354.037 78.3481 353.282 79.0891C352.582 79.9358 352.203 81.0024 352.212 82.1011C352.221 83.1998 352.618 84.26 353.332 85.0949C354.081 85.8379 355.094 86.2549 356.149 86.2549C357.205 86.2549 358.217 85.8379 358.967 85.0949C359.68 84.2555 360.071 83.1899 360.071 82.0884C360.071 80.987 359.68 79.9214 358.967 79.082M360.85 86.8281C359.603 88.0203 357.947 88.6893 356.222 88.6973C354.497 88.7052 352.835 88.0516 351.577 86.8709C350.329 85.6163 349.623 83.9225 349.609 82.1529C349.596 80.3833 350.277 78.679 351.506 77.4058C352.741 76.1923 354.402 75.5088 356.134 75.5008C357.865 75.4928 359.532 76.161 360.778 77.363C361.427 77.9602 361.941 78.6891 362.286 79.501C362.63 80.3129 362.797 81.189 362.776 82.0706C362.807 82.9544 362.651 83.8347 362.319 84.6544C361.987 85.4741 361.487 86.2147 360.85 86.8281ZM345.044 86.5143C343.194 88.0848 340.828 88.914 338.403 88.8416C335.977 88.7691 333.665 87.8002 331.912 86.122C331.011 85.2458 330.293 84.1986 329.801 83.0418C329.309 81.8849 329.052 80.6415 329.046 79.3844C329.04 78.1272 329.285 76.8814 329.766 75.7199C330.247 74.5584 330.955 73.5045 331.848 72.6198C332.725 71.7138 333.776 70.9941 334.938 70.5039C336.1 70.0136 337.349 69.7629 338.61 69.7667C340.005 69.7197 341.394 69.9625 342.69 70.48C344.028 71.0855 345.238 71.94 346.256 72.9978L346.356 73.0977L344.53 75.0734L344.43 74.9807C343.591 74.2527 342.689 73.601 341.734 73.0335C340.445 72.3908 338.986 72.1737 337.565 72.4134C336.145 72.6531 334.838 73.3372 333.831 74.3673C332.562 75.6983 331.872 77.4784 331.912 79.3174C331.901 80.2237 332.069 81.1234 332.407 81.9644C332.744 82.8055 333.246 83.5713 333.881 84.2175C334.502 84.8779 335.256 85.3992 336.094 85.7472C336.931 86.0951 337.832 86.2617 338.738 86.2361C340.394 86.2714 342.007 85.7093 343.282 84.6526C343.899 84.1549 344.396 83.5245 344.735 82.8082C345.075 82.092 345.249 81.3083 345.243 80.5157H338.91V77.9622L348.089 77.9194V79.6027C348.143 80.8928 347.901 82.1781 347.383 83.3609C346.866 84.5436 346.085 85.5928 345.101 86.4287" fill="#21408F"/>
<path d="M362.569 81.9778C362.567 81.7464 362.474 81.5251 362.309 81.3621C362.145 81.1991 361.923 81.1076 361.692 81.1076C361.459 81.1114 361.238 81.2062 361.075 81.3717C360.913 81.5371 360.821 81.76 360.821 81.9921V82.9407C360.821 83.1715 360.913 83.3929 361.076 83.5561C361.239 83.7192 361.461 83.8109 361.692 83.8109C361.924 83.8072 362.145 83.7124 362.308 83.5469C362.471 83.3814 362.562 83.1586 362.562 82.9265L362.569 81.9778ZM356.271 81.9778C356.251 81.7597 356.15 81.5569 355.989 81.4092C355.827 81.2614 355.616 81.1795 355.397 81.1795C355.178 81.1795 354.967 81.2614 354.805 81.4092C354.644 81.5569 354.543 81.7597 354.523 81.9778V82.9265C354.523 83.1573 354.615 83.3786 354.778 83.5418C354.941 83.705 355.163 83.7967 355.393 83.7967C355.624 83.7912 355.843 83.6967 356.005 83.5332C356.167 83.3697 356.26 83.1497 356.264 82.9193L356.271 81.9778ZM349.095 81.1362C348.865 81.1372 348.644 81.2295 348.482 81.393C348.318 81.558 348.226 81.7809 348.225 82.0135V82.9621C348.245 83.1802 348.345 83.3831 348.507 83.5308C348.669 83.6785 348.88 83.7604 349.099 83.7604C349.318 83.7604 349.529 83.6785 349.691 83.5308C349.852 83.3831 349.953 83.1802 349.973 82.9621V82.0206C349.963 81.7935 349.867 81.5787 349.704 81.4206C349.54 81.2626 349.323 81.1735 349.095 81.1718V81.1362ZM342.804 81.1362C342.689 81.1352 342.575 81.1573 342.468 81.2011C342.362 81.245 342.265 81.3097 342.184 81.3914C342.103 81.4732 342.039 81.5703 341.996 81.6772C341.953 81.784 341.932 81.8984 341.934 82.0135V82.9621C341.935 83.1351 341.988 83.3038 342.085 83.4471C342.182 83.5903 342.319 83.7017 342.479 83.7673C342.639 83.8328 342.815 83.8496 342.984 83.8155C343.154 83.7814 343.31 83.6979 343.432 83.5755C343.592 83.4089 343.682 83.1864 343.682 82.955V82.0064C343.662 81.7869 343.561 81.5826 343.399 81.4335C343.237 81.2844 343.025 81.2013 342.804 81.2004V81.1362ZM336.506 81.1362C336.391 81.1352 336.277 81.1573 336.17 81.2011C336.064 81.245 335.967 81.3097 335.886 81.3914C335.805 81.4732 335.741 81.5703 335.698 81.6772C335.655 81.784 335.634 81.8984 335.636 82.0135V82.9621C335.64 83.193 335.733 83.4133 335.897 83.5758C336.061 83.7384 336.282 83.8305 336.513 83.8323C336.628 83.8324 336.743 83.8097 336.849 83.7657C336.955 83.7216 337.052 83.657 337.134 83.5755C337.215 83.4939 337.278 83.397 337.321 83.2904C337.364 83.1839 337.385 83.0698 337.383 82.955V82.0064C337.359 81.7914 337.256 81.5931 337.094 81.4496C336.932 81.3061 336.722 81.2275 336.506 81.2289V81.1362ZM331.47 82.0349C331.471 81.8619 331.42 81.6926 331.324 81.5486C331.228 81.4047 331.091 81.2926 330.931 81.2268C330.771 81.1609 330.595 81.1443 330.426 81.179C330.256 81.2137 330.101 81.2981 329.98 81.4215C329.816 81.5865 329.724 81.8095 329.723 82.042V82.9907C329.723 83.2215 329.815 83.4428 329.978 83.606C330.141 83.7692 330.362 83.8609 330.593 83.8609C330.824 83.859 331.046 83.7657 331.209 83.6014C331.372 83.4371 331.463 83.215 331.463 82.9835L331.47 82.0349ZM325.172 82.0349C325.183 81.9135 325.169 81.7912 325.13 81.6757C325.091 81.5602 325.028 81.4541 324.946 81.3641C324.864 81.2741 324.764 81.2023 324.652 81.1531C324.541 81.1039 324.42 81.0785 324.298 81.0785C324.177 81.0785 324.056 81.1039 323.945 81.1531C323.833 81.2023 323.733 81.2741 323.651 81.3641C323.569 81.4541 323.506 81.5602 323.467 81.6757C323.428 81.7912 323.414 81.9135 323.425 82.0349V82.9835C323.425 83.2143 323.516 83.4357 323.68 83.5989C323.843 83.762 324.064 83.8537 324.295 83.8537C324.41 83.8537 324.523 83.831 324.63 83.7868C324.736 83.7426 324.832 83.6779 324.913 83.5963C324.994 83.5148 325.058 83.418 325.101 83.3116C325.144 83.2052 325.166 83.0913 325.165 82.9764L325.172 82.0349ZM317.997 81.3074C317.765 81.3092 317.544 81.4025 317.381 81.5668C317.218 81.7312 317.127 81.9532 317.127 82.1847V83.1333C317.128 83.3648 317.222 83.5861 317.386 83.7491C317.55 83.9121 317.772 84.0035 318.004 84.0035C318.119 84.0045 318.233 83.9824 318.34 83.9386C318.446 83.8947 318.543 83.83 318.624 83.7483C318.705 83.6665 318.769 83.5693 318.812 83.4625C318.855 83.3557 318.876 83.2413 318.874 83.1262V82.1775C318.87 81.9467 318.776 81.7264 318.613 81.5638C318.449 81.4012 318.228 81.3092 317.997 81.3074ZM311.706 81.3074C311.59 81.3066 311.475 81.3297 311.368 81.375C311.261 81.4204 311.165 81.4872 311.085 81.5713C311.004 81.6511 310.94 81.7467 310.897 81.8521C310.854 81.9576 310.833 82.0708 310.836 82.1847V83.1333C310.825 83.2547 310.839 83.377 310.878 83.4925C310.917 83.608 310.979 83.7141 311.062 83.8041C311.144 83.8941 311.244 83.9659 311.355 84.0151C311.467 84.0643 311.587 84.0897 311.709 84.0897C311.831 84.0897 311.952 84.0643 312.063 84.0151C312.175 83.9659 312.275 83.8941 312.357 83.8041C312.439 83.7141 312.502 83.608 312.541 83.4925C312.58 83.377 312.594 83.2547 312.583 83.1333V82.1847C312.572 81.9613 312.477 81.7502 312.317 81.594C312.157 81.4379 311.944 81.3482 311.72 81.343L311.706 81.3074ZM307.134 82.2061C307.114 81.988 307.013 81.7851 306.852 81.6374C306.69 81.4897 306.479 81.4078 306.26 81.4078C306.041 81.4078 305.83 81.4897 305.668 81.6374C305.506 81.7851 305.406 81.988 305.386 82.2061V83.1547C305.386 83.3855 305.478 83.6068 305.641 83.77C305.804 83.9332 306.026 84.0249 306.256 84.0249C306.371 84.0247 306.485 84.0012 306.59 83.9558C306.696 83.9105 306.791 83.8442 306.87 83.761C307.033 83.5986 307.126 83.378 307.127 83.1476L307.134 82.2061ZM301.428 82.2061C301.426 81.9746 301.332 81.7533 301.168 81.5903C301.004 81.4273 300.782 81.3359 300.55 81.3359C300.32 81.3425 300.1 81.4369 299.937 81.5998C299.855 81.6813 299.791 81.7781 299.747 81.8845C299.703 81.991 299.68 82.1051 299.68 82.2203V83.169C299.68 83.2833 299.702 83.3964 299.746 83.502C299.79 83.6076 299.854 83.7035 299.935 83.7843C300.016 83.8651 300.112 83.9292 300.217 83.9729C300.323 84.0167 300.436 84.0392 300.55 84.0392C300.782 84.0354 301.004 83.9406 301.166 83.7751C301.329 83.6097 301.42 83.3868 301.42 83.1547L301.428 82.2061ZM293.774 81.3715C293.544 81.3726 293.323 81.4649 293.161 81.6283C292.997 81.7934 292.905 82.0163 292.904 82.2489V83.1975C292.906 83.429 292.999 83.6503 293.163 83.8133C293.328 83.9763 293.55 84.0677 293.781 84.0677C293.895 84.068 294.009 84.0454 294.114 84.0013C294.219 83.9572 294.315 83.8925 294.395 83.8109C294.476 83.7297 294.541 83.633 294.585 83.5264C294.629 83.4199 294.652 83.3057 294.651 83.1904V82.2417C294.634 82.0246 294.537 81.8215 294.379 81.6715C294.221 81.5214 294.013 81.4349 293.796 81.4286L293.774 81.3715ZM288.731 82.2703C288.732 82.0972 288.681 81.9279 288.585 81.784C288.489 81.6401 288.352 81.528 288.192 81.4622C288.032 81.3963 287.856 81.3797 287.687 81.4144C287.517 81.449 287.362 81.5335 287.241 81.6569C287.077 81.8219 286.984 82.0448 286.984 82.2774V83.226C286.984 83.3403 287.006 83.4535 287.05 83.5591C287.094 83.6646 287.158 83.7606 287.239 83.8414C287.32 83.9222 287.415 83.9863 287.521 84.03C287.627 84.0737 287.74 84.0962 287.854 84.0962C288.085 84.0944 288.307 84.0011 288.47 83.8368C288.633 83.6724 288.724 83.4504 288.724 83.2189L288.731 82.2703ZM282.569 82.2703C282.58 82.1489 282.565 82.0266 282.526 81.9111C282.487 81.7956 282.425 81.6895 282.343 81.5995C282.26 81.5095 282.16 81.4376 282.049 81.3885C281.937 81.3393 281.817 81.3139 281.695 81.3139C281.573 81.3139 281.453 81.3393 281.341 81.3885C281.229 81.4376 281.129 81.5095 281.047 81.5995C280.965 81.6895 280.902 81.7956 280.864 81.9111C280.825 82.0266 280.81 82.1489 280.821 82.2703V83.2189C280.821 83.4497 280.913 83.671 281.076 83.8342C281.239 83.9974 281.461 84.0891 281.691 84.0891C281.922 84.0836 282.141 83.9892 282.303 83.8256C282.465 83.6621 282.558 83.4421 282.562 83.2118L282.569 82.2703ZM275.5 81.4286C275.385 81.4276 275.271 81.4497 275.164 81.4936C275.058 81.5374 274.961 81.6021 274.88 81.6839C274.799 81.7656 274.735 81.8628 274.692 81.9696C274.649 82.0764 274.628 82.1908 274.63 82.3059V83.2546C274.634 83.4854 274.728 83.7057 274.891 83.8683C275.055 84.0309 275.276 84.1229 275.507 84.1248C275.623 84.1255 275.738 84.1025 275.845 84.0571C275.952 84.0117 276.048 83.9449 276.128 83.8609C276.209 83.7811 276.273 83.6855 276.316 83.58C276.359 83.4745 276.38 83.3613 276.378 83.2474V82.2988C276.356 82.0856 276.257 81.8876 276.1 81.7429C275.942 81.5981 275.736 81.5167 275.522 81.5142L275.5 81.4286ZM267.048 82.3416C267.059 82.2202 267.045 82.0979 267.006 81.9824C266.967 81.8669 266.904 81.7608 266.822 81.6708C266.74 81.5808 266.64 81.509 266.528 81.4598C266.417 81.4106 266.296 81.3853 266.174 81.3853C266.052 81.3853 265.932 81.4106 265.82 81.4598C265.709 81.509 265.609 81.5808 265.527 81.6708C265.444 81.7608 265.382 81.8669 265.343 81.9824C265.304 82.0979 265.289 82.2202 265.3 82.3416V83.2902C265.3 83.521 265.392 83.7424 265.555 83.9056C265.719 84.0687 265.94 84.1604 266.171 84.1604C266.402 84.1585 266.623 84.0653 266.786 83.901C266.949 83.7366 267.041 83.5146 267.041 83.2831L267.048 82.3416ZM256.542 81.5142C256.427 81.5142 256.313 81.5369 256.207 81.5811C256.101 81.6253 256.005 81.69 255.924 81.7716C255.843 81.8532 255.779 81.9499 255.736 82.0563C255.692 82.1627 255.67 82.2766 255.671 82.3915V83.4472C255.673 83.6201 255.725 83.7888 255.822 83.9321C255.919 84.0753 256.056 84.1868 256.216 84.2523C256.376 84.3179 256.552 84.3346 256.722 84.3005C256.891 84.2664 257.047 84.1829 257.169 84.0606C257.251 83.9794 257.315 83.8826 257.358 83.7759C257.401 83.6693 257.421 83.555 257.419 83.44V82.4914C257.421 82.2604 257.332 82.0379 257.172 81.8713C257.013 81.7047 256.794 81.6072 256.563 81.5998L256.542 81.5142ZM249.494 81.5142C249.379 81.5132 249.265 81.5353 249.159 81.5792C249.052 81.623 248.956 81.6877 248.874 81.7695C248.793 81.8512 248.729 81.9484 248.686 82.0552C248.643 82.162 248.622 82.2764 248.624 82.3915V83.4472C248.628 83.678 248.722 83.8983 248.886 84.0609C249.05 84.2235 249.271 84.3155 249.502 84.3173C249.618 84.3181 249.732 84.2951 249.839 84.2497C249.946 84.2043 250.042 84.1375 250.122 84.0534C250.204 83.9751 250.269 83.8809 250.313 83.7767C250.357 83.6725 250.379 83.5603 250.379 83.4472V82.4985C250.377 82.2702 250.285 82.0518 250.124 81.8903C249.963 81.7289 249.744 81.6373 249.516 81.6355L249.494 81.5142ZM244.173 82.4129C244.184 82.2915 244.17 82.1692 244.131 82.0537C244.092 81.9382 244.03 81.8321 243.947 81.7421C243.865 81.6522 243.765 81.5803 243.654 81.5311C243.542 81.482 243.422 81.4566 243.3 81.4566C243.178 81.4566 243.057 81.482 242.946 81.5311C242.834 81.5803 242.734 81.6522 242.652 81.7421C242.57 81.8321 242.507 81.9382 242.468 82.0537C242.429 82.1692 242.415 82.2915 242.426 82.4129V83.3616C242.426 83.5924 242.518 83.8137 242.681 83.9769C242.844 84.1401 243.065 84.2318 243.296 84.2318C243.411 84.2315 243.524 84.208 243.63 84.1627C243.735 84.1173 243.83 84.051 243.91 83.9678C244.073 83.8054 244.165 83.5848 244.166 83.3544L244.173 82.4129ZM237.105 81.5713C236.99 81.5703 236.876 81.5924 236.769 81.6362C236.663 81.6801 236.566 81.7448 236.485 81.8265C236.404 81.9083 236.34 82.0054 236.297 82.1123C236.254 82.2191 236.233 82.3334 236.235 82.4486V83.3972C236.239 83.6281 236.332 83.8483 236.496 84.0109C236.66 84.1735 236.881 84.2656 237.112 84.2674C237.227 84.2675 237.341 84.2448 237.448 84.2008C237.554 84.1567 237.651 84.0921 237.733 84.0106C237.813 83.929 237.877 83.8321 237.92 83.7255C237.963 83.619 237.984 83.5049 237.982 83.3901V82.4415C237.95 82.2359 237.847 82.0481 237.691 81.9112C237.534 81.7742 237.334 81.6968 237.126 81.6925L237.105 81.5713ZM230.842 81.5713C230.727 81.5703 230.613 81.5924 230.507 81.6362C230.4 81.6801 230.304 81.7448 230.222 81.8265C230.141 81.9083 230.077 82.0054 230.035 82.1123C229.992 82.2191 229.97 82.3334 229.972 82.4486V83.3972C229.961 83.5186 229.976 83.6409 230.015 83.7564C230.054 83.8719 230.116 83.978 230.198 84.068C230.281 84.158 230.381 84.2299 230.492 84.279C230.604 84.3282 230.724 84.3536 230.846 84.3536C230.968 84.3536 231.088 84.3282 231.2 84.279C231.311 84.2299 231.412 84.158 231.494 84.068C231.576 83.978 231.638 83.8719 231.677 83.7564C231.716 83.6409 231.731 83.5186 231.72 83.3972V82.5912C231.716 82.364 231.625 82.1469 231.466 81.9848C231.307 81.8228 231.091 81.7284 230.864 81.7211L230.842 81.5713ZM225.521 82.47C225.522 82.297 225.471 82.1277 225.375 81.9837C225.279 81.8398 225.142 81.7277 224.982 81.6619C224.822 81.596 224.646 81.5794 224.477 81.6141C224.307 81.6488 224.152 81.7332 224.031 81.8566C223.868 82.0225 223.776 82.2449 223.774 82.4771V83.4258C223.751 83.5569 223.758 83.6916 223.795 83.8195C223.831 83.9475 223.897 84.0652 223.987 84.1638C224.076 84.2623 224.187 84.339 224.311 84.3878C224.435 84.4367 224.569 84.4565 224.701 84.4457C224.932 84.4447 225.152 84.3524 225.315 84.189C225.478 84.0239 225.571 83.801 225.571 83.5684L225.521 82.47ZM218.617 81.6283C218.386 81.6302 218.164 81.7235 218.001 81.8878C217.838 82.0521 217.747 82.2742 217.747 82.5056V83.4543C217.767 83.6724 217.867 83.8752 218.029 84.023C218.191 84.1707 218.402 84.2526 218.621 84.2526C218.84 84.2526 219.051 84.1707 219.212 84.023C219.374 83.8752 219.475 83.6724 219.494 83.4543V82.5056C219.458 82.304 219.353 82.1212 219.197 81.9885C219.041 81.8559 218.843 81.7815 218.638 81.7781L218.617 81.6283ZM213.289 82.6768C213.3 82.5555 213.285 82.4331 213.247 82.3176C213.208 82.2021 213.145 82.096 213.063 82.006C212.981 81.9161 212.881 81.8442 212.769 81.795C212.658 81.7459 212.537 81.7205 212.415 81.7205C212.293 81.7205 212.173 81.7459 212.061 81.795C211.95 81.8442 211.85 81.9161 211.767 82.006C211.685 82.096 211.623 82.2021 211.584 82.3176C211.545 82.4331 211.53 82.5555 211.541 82.6768V83.6255C211.541 83.8563 211.633 84.0776 211.796 84.2408C211.959 84.404 212.181 84.4957 212.412 84.4957C212.643 84.4938 212.864 84.4005 213.027 84.2362C213.19 84.0719 213.282 83.8498 213.282 83.6183L213.289 82.6768ZM207.162 82.6768C207.163 82.5038 207.112 82.3345 207.016 82.1906C206.92 82.0466 206.783 81.9346 206.623 81.8687C206.463 81.8029 206.287 81.7862 206.117 81.8209C205.948 81.8556 205.793 81.94 205.671 82.0634C205.509 82.2293 205.417 82.4517 205.414 82.684V83.6326C205.414 83.8634 205.506 84.0847 205.669 84.2479C205.833 84.4111 206.054 84.5028 206.285 84.5028C206.4 84.5028 206.513 84.4801 206.619 84.4359C206.725 84.3917 206.822 84.327 206.902 84.2454C206.983 84.1638 207.047 84.0671 207.091 83.9607C207.134 83.8543 207.156 83.7404 207.155 83.6255L207.162 82.6768ZM200.129 81.8352C200.014 81.8352 199.901 81.8579 199.794 81.9021C199.688 81.9463 199.592 82.011 199.511 82.0926C199.43 82.1741 199.366 82.2709 199.323 82.3773C199.28 82.4837 199.258 82.5976 199.259 82.7125V83.6611C199.261 83.8926 199.354 84.1139 199.518 84.2769C199.683 84.4399 199.905 84.5313 200.136 84.5313C200.251 84.5323 200.366 84.5102 200.472 84.4664C200.579 84.4225 200.675 84.3578 200.756 84.2761C200.837 84.1943 200.901 84.0972 200.944 83.9903C200.987 83.8835 201.008 83.7691 201.006 83.654V82.7339C201.005 82.6165 200.979 82.5007 200.932 82.3931C200.885 82.2856 200.817 82.1885 200.732 82.1075C200.647 82.0265 200.547 81.9632 200.437 81.9213C200.328 81.8795 200.211 81.8599 200.093 81.8637L200.129 81.8352ZM194.002 81.8352C193.886 81.8344 193.771 81.8575 193.665 81.9029C193.558 81.9482 193.462 82.015 193.382 82.0991C193.3 82.1789 193.236 82.2745 193.193 82.38C193.15 82.4855 193.13 82.5986 193.132 82.7125V83.6611C193.134 83.8926 193.227 84.1139 193.391 84.2769C193.556 84.4399 193.778 84.5313 194.009 84.5313C194.124 84.5323 194.239 84.5102 194.345 84.4664C194.452 84.4225 194.548 84.3578 194.629 84.2761C194.71 84.1943 194.774 84.0972 194.817 83.9903C194.86 83.8835 194.881 83.7691 194.879 83.654V82.7339C194.868 82.5018 194.766 82.2834 194.596 82.1259C194.425 81.9684 194.199 81.8845 193.966 81.8922L194.002 81.8352ZM188.646 82.7339C188.644 82.5025 188.55 82.2811 188.386 82.1181C188.222 81.9552 188 81.8637 187.768 81.8637C187.653 81.8639 187.54 81.8874 187.434 81.9328C187.329 81.9782 187.234 82.0444 187.155 82.1276C186.991 82.29 186.899 82.5106 186.898 82.741V83.6897C186.898 83.8039 186.921 83.9171 186.964 84.0227C187.008 84.1283 187.072 84.2242 187.153 84.305C187.234 84.3858 187.33 84.4499 187.435 84.4936C187.541 84.5374 187.654 84.5599 187.768 84.5599C187.883 84.5599 187.997 84.5371 188.103 84.4929C188.209 84.4488 188.305 84.384 188.386 84.3025C188.467 84.2209 188.531 84.1241 188.574 84.0177C188.618 83.9113 188.639 83.7974 188.638 83.6825L188.646 82.7339ZM182.419 82.7339C182.417 82.5025 182.324 82.2811 182.159 82.1181C181.995 81.9552 181.773 81.8637 181.541 81.8637C181.311 81.8692 181.092 81.9636 180.93 82.1272C180.767 82.2907 180.675 82.5107 180.671 82.741V83.6897C180.671 83.9205 180.763 84.1418 180.926 84.305C181.089 84.4682 181.311 84.5599 181.541 84.5599C181.773 84.558 181.994 84.4647 182.157 84.3004C182.32 84.1361 182.412 83.914 182.412 83.6825L182.419 82.7339ZM175.286 81.8922C175.055 81.8941 174.833 81.9874 174.67 82.1517C174.507 82.316 174.416 82.5381 174.416 82.7696V83.7182C174.405 83.8396 174.419 83.9619 174.458 84.0774C174.497 84.1929 174.56 84.299 174.642 84.389C174.724 84.479 174.824 84.5508 174.936 84.6C175.047 84.6492 175.168 84.6745 175.29 84.6745C175.411 84.6745 175.532 84.6492 175.643 84.6C175.755 84.5508 175.855 84.479 175.937 84.389C176.019 84.299 176.082 84.1929 176.121 84.0774C176.16 83.9619 176.174 83.8396 176.163 83.7182V82.7696C176.14 82.5514 176.037 82.3496 175.874 82.2033C175.71 82.057 175.498 81.9766 175.279 81.9778L175.286 81.8922ZM169.929 82.791C169.903 82.5797 169.802 82.3851 169.643 82.2434C169.484 82.1017 169.279 82.0225 169.066 82.0206C168.835 82.0243 168.615 82.1182 168.453 82.2821C168.29 82.446 168.198 82.6671 168.196 82.8979V83.8466C168.196 84.0774 168.288 84.2987 168.451 84.4619C168.614 84.6251 168.836 84.7168 169.066 84.7168C169.181 84.7171 169.294 84.6945 169.399 84.6504C169.504 84.6063 169.6 84.5416 169.68 84.46C169.762 84.3795 169.828 84.2829 169.872 84.1762C169.916 84.0695 169.938 83.9549 169.936 83.8395L169.929 82.791ZM163.703 82.791C163.701 82.5595 163.607 82.3382 163.443 82.1752C163.279 82.0122 163.057 81.9208 162.825 81.9208C162.711 81.9218 162.597 81.9457 162.492 81.991C162.387 82.0363 162.291 82.1021 162.212 82.1847C162.13 82.2641 162.064 82.3595 162.02 82.4649C161.976 82.5704 161.954 82.6838 161.955 82.7981V83.7539C161.955 83.9847 162.047 84.206 162.21 84.3692C162.373 84.5324 162.594 84.6241 162.825 84.6241C163.057 84.6203 163.279 84.5255 163.441 84.36C163.604 84.1946 163.695 83.9717 163.695 83.7396L163.703 82.791ZM156.57 81.9493C156.337 81.9563 156.116 82.0505 155.949 82.2132C155.869 82.2951 155.805 82.392 155.762 82.4985C155.72 82.605 155.698 82.719 155.7 82.8338V83.7824C155.699 83.9563 155.75 84.1265 155.847 84.2709C155.944 84.4153 156.082 84.5273 156.243 84.5926C156.405 84.6579 156.582 84.6733 156.752 84.637C156.922 84.6006 157.077 84.5141 157.198 84.3887C157.279 84.3089 157.343 84.2133 157.386 84.1078C157.429 84.0023 157.45 83.8891 157.447 83.7753V82.8195C157.417 82.6126 157.314 82.4232 157.158 82.2848C157.001 82.1464 156.8 82.068 156.591 82.0634L156.57 81.9493ZM151.235 82.9693C151.215 82.7512 151.114 82.5483 150.953 82.4006C150.791 82.2529 150.58 82.171 150.361 82.171C150.142 82.171 149.931 82.2529 149.769 82.4006C149.607 82.5483 149.507 82.7512 149.487 82.9693V83.9179C149.487 84.1487 149.579 84.37 149.742 84.5332C149.905 84.6964 150.126 84.7881 150.357 84.7881C150.588 84.7826 150.807 84.6882 150.969 84.5246C151.131 84.3611 151.224 84.1411 151.227 83.9108L151.235 82.9693ZM145.008 82.9693C145.019 82.8479 145.004 82.7256 144.965 82.6101C144.926 82.4946 144.864 82.3885 144.782 82.2985C144.699 82.2085 144.599 82.1366 144.488 82.0875C144.376 82.0383 144.256 82.0129 144.134 82.0129C144.012 82.0129 143.892 82.0383 143.78 82.0875C143.669 82.1366 143.569 82.2085 143.486 82.2985C143.404 82.3885 143.342 82.4946 143.303 82.6101C143.264 82.7256 143.249 82.8479 143.26 82.9693V83.9179C143.26 84.1487 143.352 84.37 143.515 84.5332C143.678 84.6964 143.9 84.7881 144.13 84.7881C144.361 84.7844 144.582 84.6905 144.744 84.5266C144.907 84.3627 144.999 84.1417 145.001 83.9108L145.008 82.9693ZM137.875 82.1276C137.76 82.1266 137.646 82.1487 137.539 82.1926C137.433 82.2364 137.336 82.3011 137.255 82.3829C137.174 82.4646 137.11 82.5618 137.067 82.6686C137.024 82.7754 137.003 82.8898 137.005 83.0049V83.9536C137.009 84.1844 137.102 84.4047 137.266 84.5673C137.43 84.7299 137.651 84.8219 137.882 84.8238C137.997 84.8238 138.111 84.801 138.217 84.7569C138.323 84.7127 138.419 84.6479 138.5 84.5664C138.581 84.4848 138.645 84.388 138.688 84.2816C138.732 84.1752 138.753 84.0613 138.752 83.9464V82.9978C138.745 82.7757 138.653 82.5647 138.495 82.4082C138.338 82.2517 138.126 82.1615 137.904 82.1561L137.875 82.1276ZM131.641 82.1276C131.41 82.1295 131.188 82.2228 131.025 82.3871C130.862 82.5514 130.771 82.7735 130.771 83.0049V83.9536C130.791 84.1717 130.891 84.3745 131.053 84.5223C131.215 84.67 131.426 84.7519 131.645 84.7519C131.864 84.7519 132.075 84.67 132.236 84.5223C132.398 84.3745 132.499 84.1717 132.518 83.9536V83.0049C132.503 82.7877 132.408 82.5839 132.251 82.4325C132.094 82.2811 131.887 82.1929 131.67 82.1847L131.641 82.1276ZM126.292 83.0263C126.303 82.905 126.288 82.7826 126.249 82.6671C126.21 82.5516 126.148 82.4455 126.066 82.3555C125.983 82.2656 125.883 82.1937 125.772 82.1445C125.66 82.0954 125.54 82.07 125.418 82.07C125.296 82.07 125.175 82.0954 125.064 82.1445C124.952 82.1937 124.852 82.2656 124.77 82.3555C124.688 82.4455 124.625 82.5516 124.586 82.6671C124.548 82.7826 124.533 82.905 124.544 83.0263V83.975C124.544 84.2058 124.636 84.4271 124.799 84.5903C124.962 84.7535 125.183 84.8452 125.414 84.8452C125.646 84.8433 125.867 84.75 126.03 84.5857C126.193 84.4214 126.284 84.1993 126.284 83.9678L126.292 83.0263ZM120.065 83.0263C120.063 82.7949 119.97 82.5736 119.805 82.4106C119.641 82.2476 119.419 82.1561 119.187 82.1561C119.072 82.1552 118.958 82.1773 118.852 82.2211C118.745 82.2649 118.649 82.3296 118.567 82.4114C118.486 82.4932 118.422 82.5903 118.379 82.6971C118.337 82.804 118.315 82.9183 118.317 83.0335V83.9821C118.321 84.213 118.415 84.4332 118.579 84.5958C118.743 84.7584 118.964 84.8505 119.195 84.8523C119.425 84.8513 119.646 84.7589 119.808 84.5955C119.971 84.4296 120.063 84.2072 120.065 83.975V83.0263ZM112.932 82.1847C112.701 82.1866 112.479 82.2798 112.316 82.4441C112.153 82.6085 112.062 82.8305 112.062 83.062V84.0106C112.064 84.2421 112.157 84.4634 112.321 84.6264C112.486 84.7894 112.708 84.8808 112.939 84.8808C113.054 84.8818 113.169 84.8597 113.275 84.8159C113.381 84.772 113.478 84.7073 113.559 84.6256C113.64 84.5438 113.704 84.4467 113.747 84.3398C113.79 84.233 113.811 84.1186 113.809 84.0035V83.0549C113.786 82.8475 113.69 82.655 113.539 82.5114C113.388 82.3679 113.19 82.2824 112.982 82.2703L112.932 82.1847Z" fill="#23325F"/>
<path d="M33.7306 24.0889L32.8319 23.1687L39.6864 16.2714L40.6137 17.1915L33.7306 24.0889ZM35.685 26.0218L34.8219 25.1588L37.5609 22.3984C37.8248 22.1098 38.1453 21.8786 38.5023 21.7191C38.8594 21.5596 39.2454 21.4752 39.6365 21.4712C40.0107 21.4705 40.3811 21.5468 40.7247 21.6953C41.0682 21.8438 41.3776 22.0612 41.6336 22.3342C41.9071 22.5929 42.1267 22.9032 42.2798 23.2472C42.4328 23.5912 42.5162 23.9621 42.5252 24.3385C42.5111 24.7249 42.4206 25.1048 42.259 25.4561C42.0974 25.8074 41.8679 26.1233 41.5837 26.3856L38.8448 29.1459L37.9746 28.3114L40.7207 25.5511C40.8881 25.3899 41.0222 25.1974 41.1152 24.9844C41.2082 24.7715 41.2583 24.5423 41.2627 24.31C41.2713 24.0966 41.2345 23.8839 41.1545 23.6859C41.0746 23.4879 40.9534 23.3092 40.7991 23.1616C40.6504 23.0093 40.4713 22.89 40.2734 22.8113C40.0756 22.7327 39.8635 22.6965 39.6508 22.7051C39.4174 22.7114 39.1876 22.7638 38.9746 22.8592C38.7616 22.9547 38.5696 23.0914 38.4097 23.2615L35.685 26.0218ZM50.3569 26.9063L51.2271 27.7622L46.8619 32.163C46.2044 32.8807 45.2941 33.3154 44.3227 33.3756C43.8615 33.3786 43.4044 33.2889 42.9786 33.1116C42.5529 32.9343 42.1671 32.6732 41.8443 32.3438C41.5216 32.0144 41.2684 31.6234 41.0998 31.1941C40.9313 30.7648 40.8509 30.306 40.8633 29.8449C40.9184 28.9083 41.3292 28.028 42.0117 27.3842C42.3156 27.0685 42.6801 26.8174 43.0833 26.6458C43.4865 26.4743 43.9201 26.3857 44.3583 26.3856C44.7755 26.3768 45.1903 26.4511 45.5784 26.6042C45.9666 26.7572 46.3205 26.986 46.6194 27.2772C47.0927 27.7377 47.4391 28.3126 47.6251 28.9462L46.7264 29.8521C46.6715 29.5503 46.5755 29.2575 46.4411 28.9819C46.3182 28.7164 46.1492 28.4749 45.9418 28.2686C45.7432 28.0465 45.5004 27.8684 45.2289 27.7455C44.9575 27.6227 44.6634 27.5579 44.3655 27.5553C43.7563 27.6134 43.1878 27.8864 42.7617 28.3256C42.3356 28.7648 42.0798 29.3413 42.0402 29.9519C42.0354 30.2491 42.0925 30.544 42.2079 30.8178C42.3234 31.0917 42.4946 31.3385 42.7107 31.5425C42.9084 31.7493 43.1503 31.9086 43.4184 32.0087C43.6864 32.1087 43.9736 32.1469 44.2585 32.1203C44.9887 32.0273 45.6603 31.6725 46.1486 31.1217L50.3569 26.9063ZM46.5695 36.8492L45.7064 35.9862L50.3997 31.2572L51.2699 32.0917L46.5695 36.8492ZM51.3769 30.1088C51.4417 30.0389 51.52 29.9826 51.607 29.9434C51.694 29.9042 51.7879 29.8828 51.8833 29.8806C52.0858 29.888 52.2773 29.9742 52.4172 30.1207C52.5571 30.2673 52.6342 30.4626 52.6322 30.6652C52.63 30.7606 52.6086 30.8545 52.5694 30.9415C52.5302 31.0285 52.474 31.1068 52.404 31.1716C52.2698 31.3095 52.0895 31.3933 51.8976 31.407C51.7968 31.4078 51.6971 31.3872 51.6049 31.3466C51.5127 31.306 51.4301 31.2464 51.3626 31.1716C51.286 31.106 51.2256 31.0236 51.186 30.9308C51.1464 30.838 51.1287 30.7374 51.1344 30.6367C51.138 30.537 51.1613 30.4391 51.2029 30.3485C51.2445 30.2579 51.3037 30.1765 51.3769 30.1088ZM59.9361 38.6395L58.6522 38.6895C58.6085 38.0885 58.5154 37.4921 58.374 36.9063C58.1985 36.3474 57.8844 35.8419 57.4611 35.437C57.1146 35.0789 56.6969 34.7975 56.235 34.6107C55.7731 34.424 55.2771 34.3361 54.7792 34.3528C54.2873 34.3657 53.8027 34.4748 53.3526 34.6738C52.8941 34.8709 52.4776 35.1542 52.1258 35.5083C51.414 36.2036 51.0063 37.1524 50.9917 38.1474C50.9759 38.6476 51.0655 39.1455 51.2548 39.6088C51.444 40.0721 51.7286 40.4903 52.0902 40.8364C52.7086 41.4796 53.5404 41.8753 54.4297 41.9491C54.8754 41.9879 55.3243 41.931 55.7463 41.7822C56.1682 41.6333 56.5535 41.396 56.8762 41.086L54.4725 38.6966L55.3284 37.7979L58.695 41.1502L58.1101 41.7422C57.648 42.2415 57.0785 42.6293 56.4447 42.8764C55.8109 43.1235 55.1292 43.2235 54.4511 43.1688C53.8427 43.1284 53.2474 42.9735 52.6964 42.7123C52.148 42.4589 51.6483 42.1113 51.22 41.6852C50.7485 41.218 50.373 40.6631 50.1144 40.0518C49.8621 39.4455 49.7265 38.7969 49.715 38.1402C49.7088 37.479 49.8299 36.8228 50.0716 36.2073C50.3174 35.5877 50.6862 35.0243 51.1558 34.5511C51.6253 34.0779 52.1858 33.7047 52.8034 33.4541C53.4181 33.2078 54.0743 33.0819 54.7364 33.0832C55.3953 33.0888 56.0469 33.222 56.6551 33.4755C57.2698 33.7251 57.8278 34.0963 58.2956 34.5668C58.8364 35.0732 59.2642 35.6882 59.5509 36.3713C59.8231 37.0958 59.9538 37.8658 59.9361 38.6395ZM57.7963 43.3114C58.1156 42.9718 58.5031 42.7035 58.9333 42.5241C59.3635 42.3446 59.8268 42.258 60.2927 42.2701C60.7406 42.2709 61.1838 42.3609 61.5964 42.5348C62.0091 42.7087 62.3831 42.963 62.6965 43.2829C63.3485 43.9144 63.7231 44.779 63.7378 45.6866C63.7378 46.6325 63.3621 47.5396 62.6933 48.2084C62.0244 48.8772 61.1173 49.253 60.1715 49.253C59.2734 49.2214 58.4203 48.8519 57.7829 48.2185C57.1455 47.585 56.7707 46.7343 56.7335 45.8364C56.7215 45.3642 56.8101 44.8949 56.9933 44.4596C57.1766 44.0243 57.4503 43.6329 57.7963 43.3114ZM58.7164 44.2173C58.2757 44.6397 58.0194 45.219 58.0031 45.8293C58.0106 46.4158 58.2479 46.9761 58.6641 47.3895C59.0802 47.803 59.6419 48.0367 60.2285 48.0404C60.8377 47.9824 61.4062 47.7093 61.8323 47.2701C62.2584 46.831 62.5142 46.2544 62.5538 45.6438C62.5463 45.056 62.308 44.4947 61.8904 44.0811C61.4727 43.6674 60.9091 43.4345 60.3213 43.4327C60.0151 43.4504 59.7155 43.5289 59.44 43.6637C59.1644 43.7984 58.9185 43.9866 58.7164 44.2173Z" fill="#17228A"/>
</svg>
