<svg width="313" height="273" viewBox="0 0 313 273" fill="none" xmlns="http://www.w3.org/2000/svg">
<path d="M313 132.5C313 193.177 259.559 244.325 186.636 260.028C174.794 262.571 162.762 264.141 150.663 264.723C150.074 264.752 149.486 264.782 148.893 264.803C145.744 264.933 142.571 264.999 139.375 265C133.817 265 128.326 264.803 122.9 264.408C119.889 264.194 116.905 263.921 113.945 263.589C85.1603 260.364 58.671 251.75 36.2973 239.13C33.5017 237.555 30.7719 235.917 28.1079 234.216C23.2298 231.114 18.5203 227.755 13.9993 224.154C-15.8869 200.358 9.03021 149.568 24.6059 117.591C66.6459 31.2876 43.4862 0 139.375 0C235.264 0 313 59.3205 313 132.5Z" fill="#F2F2F2"/>
<path d="M183.94 75.8397C184.823 74.9081 184.921 74.0255 185.068 66.3275L185.215 57.7959L210.56 83.3416C224.483 97.3647 235.954 109.034 236.003 109.28C236.101 109.525 227.522 109.721 215.168 109.721C201.589 109.721 193.549 109.525 192.274 109.181C191.196 108.887 189.578 108.103 188.696 107.465C187.862 106.828 186.735 105.553 186.245 104.72C185.607 103.494 185.362 101.483 185.166 96.188C184.97 90.108 184.774 89.0783 183.94 88.1957C183.401 87.6074 182.568 87.117 182.078 87.1661C181.342 87.1661 181.244 86.5777 181.244 82.0177C181.244 77.4577 181.342 76.8694 182.078 76.8694C182.568 76.9184 183.401 76.4281 183.94 75.8397Z" fill="#A29AA5"/>
<path d="M79.0303 48.5303C80.1088 47.8439 82.3148 46.8142 83.9326 46.1768L86.874 45.0981L178.548 45L181.244 46.0787C182.715 46.6671 184.921 47.8439 186.146 48.7264C187.372 49.609 201.295 63.2889 217.129 79.1753C244.092 106.241 246.004 108.202 249.142 114.871L249.289 133.503C249.387 148.065 249.289 152.38 248.798 153.263C248.455 153.851 247.622 154.537 246.936 154.783C246.249 155.028 245.171 154.979 244.484 154.734C243.798 154.488 243.014 153.9 242.671 153.459C242.229 152.821 242.082 148.016 242.033 117.077H218.404C203.403 117.077 193.647 116.881 191.784 116.538C190.166 116.244 187.764 115.41 186.441 114.724C185.117 113.988 183.058 112.321 181.881 110.948C180.705 109.624 179.283 107.32 178.744 105.947C178.009 103.838 177.812 102.073 177.812 96.3855C177.812 90.943 177.96 89.1288 178.548 88.2953C179.087 87.4617 179.773 87.1675 181.146 87.1675C182.372 87.1185 183.254 87.4617 183.94 88.1972C184.774 89.0798 184.97 90.1095 185.166 96.1894C185.362 101.485 185.607 103.495 186.294 104.721C186.735 105.555 187.862 106.829 188.745 107.467C189.578 108.104 191.196 108.889 192.274 109.183C193.549 109.526 201.589 109.722 215.217 109.722C227.522 109.722 236.101 109.526 236.052 109.281C235.954 109.036 224.483 97.3172 185.166 57.7483L185.068 66.2799C184.921 74.0269 184.823 74.9095 183.94 75.8411C183.303 76.5276 182.372 76.9198 181.244 76.9198C180.264 76.9198 179.234 76.5766 178.793 76.0863C178.205 75.3998 178.009 73.0463 177.567 52.6H132.711C89.5703 52.6 87.7564 52.649 85.4033 53.5316C83.9816 54.0709 81.8736 55.5419 80.3539 56.9638C78.9322 58.3857 77.3145 60.5431 75.5986 64.3676L75.3535 118.891C75.1084 169.934 75.0594 173.513 74.275 174.445C73.6867 175.082 72.8043 175.425 71.6768 175.425C70.5002 175.425 69.6178 175.082 68.9805 174.346C68 173.219 68 172.728 68 119.676C68 82.5585 68.1471 65.2993 68.5393 63.5341C68.8334 62.1122 69.7158 59.6115 70.5002 57.9935C71.2846 56.3754 73.0494 53.8748 74.4711 52.4038C75.8928 50.9329 77.9518 49.2168 79.0303 48.5303Z" fill="black"/>
<path d="M83.4424 54.465C84.2758 54.0237 85.7955 53.3863 86.874 53.0431C87.9525 52.6999 90.0605 52.4057 94.2275 52.3566L91.8254 54.9553C90.4527 56.3282 88.884 58.5837 88.2467 59.9566C87.6584 61.2805 86.923 63.9282 86.6779 65.8405C86.3348 68.0469 86.1387 100.653 86.1387 158.511C86.1387 216.369 86.3348 248.975 86.6779 251.181C86.923 253.094 87.6584 255.692 88.2467 257.065C88.884 258.389 90.4527 260.694 94.2275 264.714L90.7959 264.518C88.7859 264.42 86.3348 263.881 84.9131 263.292C83.5404 262.704 81.4324 261.184 80.1578 259.909C78.8832 258.585 77.3635 256.428 75.5986 252.652L75.5006 220.291L75.4988 219.917C75.3535 188.708 75.3496 187.877 74.373 186.851C73.8338 186.214 72.9514 185.724 72.4121 185.724C71.4807 185.724 71.4316 185.38 71.4316 180.575C71.4316 175.77 71.4807 175.427 72.4121 175.427C72.9514 175.427 73.7848 174.986 74.226 174.446C75.0594 173.515 75.1084 169.935 75.5986 64.3695L76.7262 61.9179C77.3635 60.594 78.7852 58.5347 79.9127 57.3579C81.0402 56.1811 82.658 54.8573 83.4424 54.465Z" fill="#E3E0E4"/>
<path d="M167.272 105.556C166.684 102.811 166.537 97.27 166.586 77.2159V52.3076L177.567 52.6018L177.812 63.9282C178.009 73.0482 178.205 75.4017 178.793 76.0881C179.185 76.5294 179.921 76.9217 180.411 76.8727C181.146 76.8727 181.244 77.412 181.244 82.021C181.244 86.8262 181.195 87.1694 180.264 87.1694C179.724 87.1694 178.94 87.6597 178.548 88.2971C177.96 89.1307 177.812 90.9448 177.812 96.3874C177.812 102.075 178.009 103.84 178.744 105.949C179.283 107.322 180.705 109.626 181.881 110.95C183.058 112.323 185.117 113.99 186.441 114.725C187.764 115.412 190.166 116.245 191.784 116.54C193.647 116.883 203.403 117.079 242.033 117.079V127.866H216.688C195.51 127.866 190.755 127.719 188.107 127.081C186.343 126.689 183.401 125.512 181.489 124.532C179.381 123.453 176.832 121.541 174.871 119.531C172.665 117.373 171.047 115.167 169.822 112.666C168.792 110.656 167.665 107.42 167.272 105.556Z" fill="#E3E0E4"/>
<path d="M88.2467 59.9535C88.884 58.5806 90.5018 56.3251 91.8254 54.9522L94.2766 52.3535H166.537V77.2127C166.537 97.2178 166.684 102.807 167.272 105.553C167.665 107.416 168.792 110.653 169.822 112.663C171.047 115.164 172.665 117.37 174.871 119.527C176.832 121.538 179.381 123.45 181.489 124.529C183.401 125.509 186.343 126.686 188.107 127.078C190.755 127.716 195.51 127.863 242.033 127.863V140.268C242.082 149.192 242.229 152.869 242.671 153.458C243.014 153.899 243.847 154.487 244.631 154.781C245.955 155.321 245.955 155.37 245.955 159.979C245.955 164.588 245.955 164.637 244.631 165.176C243.847 165.47 243.014 166.059 242.671 166.5C242.229 167.088 242.082 170.472 242.033 189.398L234.533 189.447C228.258 189.496 226.346 189.692 222.424 190.722C219.875 191.408 215.904 192.781 213.6 193.762C211.296 194.742 207.668 196.753 205.511 198.175C203.354 199.646 199.726 202.637 197.471 204.892C195.216 207.148 192.225 210.776 190.755 212.933C189.333 215.091 187.421 218.621 186.49 220.778C185.558 222.936 184.627 225.142 184.431 225.682C184.235 226.221 183.989 226.858 183.891 227.153C183.842 227.447 183.401 229.31 182.911 231.32C182.274 234.017 182.029 237.008 182.029 242.598C182.029 248.678 182.225 251.031 183.058 254.365C183.646 256.67 184.578 259.759 185.117 261.23C185.705 262.701 186.146 264.074 186.146 264.319C186.146 264.515 165.459 264.662 94.2275 264.662L91.8254 262.063C90.4527 260.691 88.884 258.435 88.2467 257.062C87.6584 255.738 86.923 253.091 86.6779 251.178C86.3348 248.972 86.1387 216.366 86.1387 158.508C86.1387 100.65 86.3348 68.0438 86.6779 65.8373C86.923 63.9251 87.6584 61.3264 88.2467 59.9535Z" fill="#F9F8F9"/>
<path d="M96.7273 117.224C97.1195 116.488 97.9529 115.606 98.5412 115.262C99.3745 114.772 106.434 114.625 130.112 114.625C156.291 114.625 160.85 114.723 162.125 115.36C162.958 115.753 163.742 116.586 163.889 117.175C164.036 117.812 164.036 118.891 163.889 119.626C163.693 120.607 163.056 121.244 161.879 121.735C160.409 122.372 155.702 122.47 129.916 122.47C106.483 122.47 99.3255 122.323 98.3941 121.833C97.7078 121.489 96.8744 120.607 96.5802 119.871C96.041 118.793 96.09 118.302 96.7273 117.224Z" fill="black"/>
<path d="M95.7468 146.643C96.139 145.907 96.9724 145.025 97.5607 144.682C98.4431 144.191 109.964 144.093 154.33 144.191L154.565 144.192C209.287 144.289 210.071 144.291 211.099 145.27C211.785 145.907 212.177 146.839 212.177 147.967C212.177 149.095 211.785 150.026 211.099 150.664C210.071 151.643 209.287 151.644 154.566 151.742L154.33 151.742C110.062 151.84 98.3941 151.742 97.4136 151.252C96.7273 150.909 95.8939 150.026 95.5997 149.291C95.0605 148.212 95.1095 147.722 95.7468 146.643Z" fill="black"/>
<path d="M95.7468 176.062C96.139 175.327 96.9724 174.444 97.5607 174.101C98.4431 173.611 109.964 173.512 154.33 173.611L154.566 173.611C209.287 173.709 210.071 173.71 211.099 174.689C211.785 175.327 212.177 176.258 212.177 177.386C212.177 178.514 211.785 179.445 211.099 180.083C210.071 181.062 209.287 181.063 154.566 181.161L154.33 181.161C110.062 181.259 98.3941 181.161 97.4136 180.671C96.7273 180.328 95.8939 179.445 95.5997 178.71C95.0605 177.631 95.1095 177.141 95.7468 176.062Z" fill="black"/>
<path d="M96.7273 205.481C97.1195 204.746 97.9529 203.863 98.5412 203.52C99.3745 203.03 106.434 202.883 130.161 202.883C156.291 202.883 160.85 202.981 162.125 203.618C162.958 204.01 163.742 204.844 163.889 205.432C164.036 206.07 164.036 207.148 163.889 207.884C163.693 208.865 163.056 209.502 161.879 209.992C160.409 210.63 155.702 210.728 129.916 210.728C106.483 210.728 99.3255 210.581 98.3941 210.09C97.7078 209.747 96.8744 208.865 96.5802 208.129C96.041 207.05 96.09 206.56 96.7273 205.481Z" fill="black"/>
<path d="M71 184L71 267" stroke="black" stroke-width="8" stroke-linecap="round"/>
<line x1="245" y1="167" x2="245" y2="267" stroke="black" stroke-width="8" stroke-linecap="round"/>
<line x1="245" y1="269" x2="73" y2="269" stroke="black" stroke-width="8" stroke-linecap="round"/>
<rect x="158.266" y="234.234" width="100" height="24" rx="8" transform="rotate(-15.8046 158.266 234.234)" fill="#D93025"/>
<path d="M182.717 234.595C183.59 234.348 184.339 234.25 184.964 234.3C185.594 234.349 186.107 234.547 186.504 234.895C186.9 235.242 187.191 235.74 187.374 236.389C187.498 236.827 187.524 237.234 187.45 237.611C187.377 237.987 187.236 238.327 187.029 238.632C186.821 238.937 186.58 239.207 186.306 239.441L190.32 242.83L188.057 243.47L184.717 240.43L183.632 240.737L184.676 244.427L182.637 245.005L179.915 235.388L182.717 234.595ZM183.046 236.307L182.427 236.482L183.163 239.08L183.821 238.894C184.496 238.703 184.947 238.454 185.173 238.149C185.402 237.837 185.454 237.463 185.33 237.024C185.201 236.568 184.952 236.288 184.581 236.185C184.215 236.08 183.703 236.121 183.046 236.307ZM192.284 234.182C192.964 233.99 193.586 233.955 194.152 234.08C194.716 234.199 195.202 234.469 195.61 234.889C196.018 235.309 196.323 235.876 196.525 236.591L196.801 237.564L192.058 238.906C192.24 239.466 192.535 239.863 192.943 240.098C193.353 240.328 193.842 240.362 194.407 240.202C194.876 240.07 195.293 239.9 195.656 239.693C196.018 239.486 196.379 239.228 196.736 238.918L197.176 240.47C196.863 240.753 196.518 240.993 196.143 241.189C195.772 241.384 195.303 241.561 194.738 241.722C194.001 241.93 193.309 241.979 192.662 241.869C192.02 241.757 191.457 241.468 190.975 241.003C190.497 240.537 190.139 239.881 189.899 239.034C189.656 238.175 189.598 237.419 189.726 236.767C189.858 236.11 190.144 235.565 190.585 235.132C191.025 234.695 191.591 234.378 192.284 234.182ZM192.701 235.606C192.311 235.716 192.022 235.933 191.834 236.256C191.65 236.578 191.614 237.012 191.726 237.558L194.542 236.761C194.453 236.464 194.323 236.215 194.152 236.012C193.985 235.808 193.78 235.667 193.535 235.59C193.295 235.511 193.017 235.516 192.701 235.606ZM199.655 243.683C199.427 243.747 199.185 243.797 198.93 243.831C198.676 243.87 198.461 243.891 198.287 243.893L197.84 242.314C198.014 242.312 198.177 242.299 198.326 242.276C198.473 242.258 198.636 242.224 198.816 242.173C199.088 242.096 199.296 241.954 199.441 241.747C199.588 241.545 199.598 241.222 199.473 240.779L197.25 232.926L199.256 232.358L201.563 240.507C201.689 240.955 201.719 241.387 201.652 241.803C201.587 242.224 201.394 242.599 201.075 242.926C200.755 243.253 200.282 243.505 199.655 243.683ZM196.626 231.049C196.519 230.672 196.552 230.385 196.724 230.19C196.899 229.989 197.138 229.845 197.441 229.76C197.739 229.675 198.015 229.673 198.27 229.752C198.523 229.828 198.703 230.054 198.81 230.431C198.915 230.803 198.881 231.093 198.707 231.298C198.532 231.499 198.295 231.642 197.997 231.726C197.695 231.812 197.416 231.815 197.161 231.736C196.91 231.651 196.732 231.422 196.626 231.049ZM204.36 230.764C205.04 230.571 205.663 230.537 206.228 230.661C206.793 230.781 207.279 231.051 207.686 231.47C208.094 231.89 208.399 232.458 208.601 233.172L208.877 234.146L204.135 235.488C204.317 236.048 204.611 236.445 205.019 236.68C205.43 236.909 205.918 236.944 206.484 236.784C206.953 236.651 207.369 236.481 207.732 236.274C208.095 236.068 208.455 235.809 208.813 235.5L209.252 237.052C208.939 237.335 208.595 237.574 208.219 237.771C207.848 237.966 207.38 238.143 206.814 238.303C206.077 238.512 205.386 238.561 204.739 238.45C204.096 238.338 203.534 238.05 203.051 237.585C202.574 237.119 202.215 236.462 201.976 235.616C201.732 234.757 201.675 234.001 201.803 233.349C201.934 232.691 202.22 232.146 202.661 231.714C203.101 231.276 203.667 230.96 204.36 230.764ZM204.777 232.187C204.387 232.298 204.098 232.515 203.91 232.838C203.727 233.16 203.691 233.594 203.803 234.14L206.618 233.343C206.529 233.046 206.399 232.796 206.228 232.594C206.062 232.39 205.856 232.249 205.611 232.171C205.371 232.093 205.093 232.098 204.777 232.187ZM214.431 236.147C213.703 236.353 213.045 236.397 212.458 236.279C211.869 236.157 211.362 235.855 210.937 235.374C210.512 234.893 210.176 234.218 209.931 233.35C209.676 232.451 209.62 231.676 209.763 231.025C209.908 230.368 210.213 229.829 210.676 229.409C211.145 228.988 211.736 228.676 212.451 228.474C212.959 228.33 213.412 228.256 213.809 228.253C214.209 228.244 214.566 228.268 214.881 228.326L214.729 230.045C214.377 230.008 214.054 229.988 213.76 229.986C213.464 229.979 213.181 230.015 212.909 230.092C212.558 230.191 212.29 230.357 212.105 230.589C211.918 230.817 211.814 231.112 211.794 231.473C211.773 231.834 211.832 232.263 211.973 232.758C212.11 233.245 212.286 233.631 212.499 233.916C212.713 234.201 212.958 234.39 213.235 234.482C213.511 234.57 213.815 234.567 214.149 234.472C214.565 234.354 214.92 234.195 215.214 233.993C215.506 233.787 215.777 233.54 216.027 233.252L216.513 234.968C216.26 235.248 215.977 235.477 215.663 235.656C215.355 235.838 214.944 236.002 214.431 236.147ZM221.023 232.555C221.242 232.493 221.449 232.411 221.642 232.309C221.84 232.205 222.033 232.091 222.221 231.967L222.643 233.46C222.456 233.618 222.211 233.772 221.908 233.924C221.611 234.079 221.274 234.21 220.897 234.317C220.458 234.441 220.044 234.483 219.653 234.442C219.266 234.395 218.922 234.225 218.62 233.931C218.323 233.632 218.084 233.166 217.906 232.535L216.902 228.99L215.942 229.262L215.702 228.413L216.617 227.429L216.756 225.713L218.039 225.35L218.482 226.916L220.541 226.333L220.967 227.839L218.908 228.422L219.912 231.967C219.991 232.248 220.13 232.436 220.327 232.532C220.528 232.622 220.76 232.629 221.023 232.555ZM225.106 224.892C225.785 224.699 226.408 224.665 226.974 224.789C227.538 224.909 228.024 225.178 228.432 225.598C228.84 226.018 229.145 226.585 229.347 227.3L229.622 228.274L224.88 229.616C225.062 230.175 225.357 230.573 225.765 230.808C226.175 231.037 226.663 231.072 227.229 230.912C227.698 230.779 228.114 230.609 228.477 230.402C228.84 230.195 229.201 229.937 229.558 229.627L229.998 231.18C229.684 231.463 229.34 231.702 228.965 231.898C228.594 232.093 228.125 232.271 227.56 232.431C226.823 232.64 226.131 232.689 225.484 232.578C224.841 232.466 224.279 232.178 223.797 231.713C223.319 231.247 222.961 230.59 222.721 229.744C222.478 228.885 222.42 228.129 222.548 227.477C222.679 226.819 222.966 226.274 223.407 225.841C223.847 225.404 224.413 225.088 225.106 224.892ZM225.523 226.315C225.133 226.426 224.844 226.642 224.656 226.966C224.472 227.288 224.436 227.722 224.548 228.268L227.363 227.471C227.275 227.174 227.145 226.924 226.974 226.721C226.807 226.518 226.601 226.377 226.357 226.299C226.117 226.22 225.839 226.226 225.523 226.315ZM234.519 230.461C233.699 230.693 232.939 230.563 232.241 230.069C231.545 229.569 231.021 228.697 230.669 227.452C230.312 226.193 230.304 225.168 230.643 224.376C230.981 223.579 231.571 223.061 232.413 222.823C232.764 222.724 233.087 222.684 233.382 222.705C233.677 222.726 233.943 222.79 234.182 222.898C234.426 223.004 234.644 223.139 234.837 223.302L234.902 223.284C234.836 223.151 234.745 222.954 234.629 222.693C234.516 222.427 234.418 222.149 234.336 221.86L233.669 219.505L235.682 218.935L238.579 229.17L237.04 229.605L236.382 228.762L236.297 228.786C236.226 229.023 236.119 229.253 235.973 229.474C235.83 229.69 235.641 229.883 235.405 230.054C235.169 230.225 234.874 230.361 234.519 230.461ZM234.77 228.664C235.318 228.509 235.658 228.237 235.79 227.849C235.925 227.456 235.906 226.928 235.733 226.267L235.671 226.05C235.469 225.335 235.205 224.82 234.879 224.505C234.552 224.186 234.09 224.11 233.493 224.279C233.051 224.405 232.758 224.693 232.616 225.146C232.474 225.598 232.505 226.184 232.709 226.903C232.912 227.622 233.19 228.128 233.543 228.421C233.901 228.713 234.31 228.794 234.77 228.664Z" fill="white"/>
</svg>
