<svg width="313" height="296" viewBox="0 0 313 296" fill="none" xmlns="http://www.w3.org/2000/svg">
<path d="M313 132.5C313 193.177 259.559 244.325 186.636 260.028C174.794 262.571 162.762 264.141 150.663 264.723C150.074 264.752 149.486 264.782 148.893 264.803C145.744 264.933 142.571 264.999 139.375 265C133.817 265 128.326 264.803 122.9 264.408C119.889 264.194 116.905 263.921 113.945 263.589C85.1603 260.364 58.671 251.75 36.2973 239.13C33.5017 237.555 30.7719 235.917 28.1079 234.216C23.2298 231.114 18.5203 227.755 13.9993 224.154C-15.8869 200.358 9.03021 149.568 24.6059 117.591C66.6459 31.2876 43.4862 0 139.375 0C235.264 0 313 59.3205 313 132.5Z" fill="#F2F2F2"/>
<path d="M183.94 75.8397C184.823 74.9081 184.921 74.0255 185.068 66.3275L185.215 57.7959L210.56 83.3416C224.483 97.3647 235.954 109.034 236.003 109.28C236.101 109.525 227.522 109.721 215.168 109.721C201.589 109.721 193.549 109.525 192.274 109.181C191.196 108.887 189.578 108.103 188.696 107.465C187.862 106.828 186.735 105.553 186.245 104.72C185.607 103.494 185.362 101.483 185.166 96.188C184.97 90.108 184.774 89.0783 183.94 88.1957C183.401 87.6074 182.568 87.117 182.078 87.1661C181.342 87.1661 181.244 86.5777 181.244 82.0177C181.244 77.4577 181.342 76.8694 182.078 76.8694C182.568 76.9184 183.401 76.4281 183.94 75.8397Z" fill="#A29AA5"/>
<path d="M79.0303 48.5303C80.1088 47.8439 82.3148 46.8142 83.9326 46.1768L86.874 45.0981L178.548 45L181.244 46.0787C182.715 46.6671 184.921 47.8439 186.146 48.7264C187.372 49.609 201.295 63.2889 217.129 79.1753C244.092 106.241 246.004 108.202 249.142 114.871L249.289 133.503C249.387 148.065 249.289 152.38 248.798 153.263C248.455 153.851 247.622 154.538 246.936 154.783C246.249 155.028 245.171 154.979 244.484 154.734C243.798 154.488 243.014 153.9 242.671 153.459C242.229 152.821 242.082 148.016 242.033 117.077H218.404C203.403 117.077 193.647 116.881 191.784 116.538C190.166 116.244 187.764 115.41 186.441 114.724C185.117 113.988 183.058 112.321 181.881 110.948C180.705 109.624 179.283 107.32 178.744 105.947C178.009 103.838 177.812 102.073 177.812 96.3855C177.812 90.943 177.96 89.1288 178.548 88.2953C179.087 87.4617 179.773 87.1675 181.146 87.1675C182.372 87.1185 183.254 87.4617 183.94 88.1972C184.774 89.0798 184.97 90.1094 185.166 96.1894C185.362 101.485 185.607 103.495 186.294 104.721C186.735 105.555 187.862 106.829 188.745 107.467C189.578 108.104 191.196 108.889 192.274 109.183C193.549 109.526 201.589 109.722 215.217 109.722C227.522 109.722 236.101 109.526 236.052 109.281C235.954 109.036 224.483 97.3172 185.166 57.7483L185.068 66.2799C184.921 74.027 184.823 74.9095 183.94 75.8411C183.303 76.5276 182.372 76.9198 181.244 76.9198C180.264 76.9198 179.234 76.5766 178.793 76.0863C178.205 75.3998 178.009 73.0463 177.567 52.6H132.711C89.5703 52.6 87.7564 52.649 85.4033 53.5316C83.9816 54.0709 81.8736 55.5419 80.3539 56.9638C78.9322 58.3857 77.3145 60.5431 75.5986 64.3676L75.3535 118.891C75.1084 169.934 75.0594 173.513 74.275 174.445C73.6867 175.082 72.8043 175.425 71.6768 175.425C70.5002 175.425 69.6178 175.082 68.9805 174.346C68 173.219 68 172.728 68 119.676C68 82.5585 68.1471 65.2993 68.5393 63.5341C68.8334 62.1122 69.7158 59.6115 70.5002 57.9935C71.2846 56.3754 73.0494 53.8748 74.4711 52.4038C75.8928 50.9329 77.9518 49.2168 79.0303 48.5303Z" fill="black"/>
<path d="M242.671 166.452C243.014 166.011 243.798 165.423 244.435 165.177C245.171 164.932 246.102 164.932 246.887 165.226C247.573 165.472 248.406 166.06 248.749 166.501C249.191 167.09 249.338 170.62 249.338 190.87L253.652 192.439C256.005 193.322 259.829 195.136 262.133 196.509C264.437 197.882 267.721 200.235 269.486 201.755C271.251 203.226 274.046 206.021 275.712 207.933C277.379 209.895 279.732 213.082 280.958 215.141C282.134 217.151 283.801 220.437 284.635 222.496C285.419 224.506 286.645 228.527 287.331 231.42C288.311 235.538 288.605 237.99 288.605 242.599C288.605 247.159 288.311 249.611 287.331 253.729C286.645 256.622 285.419 260.643 284.635 262.702C283.801 264.712 282.281 267.85 281.203 269.665C280.173 271.479 278.85 273.195 278.311 273.489C277.771 273.734 276.791 273.979 276.104 273.979C275.418 273.979 274.438 273.538 273.898 272.999C273.359 272.459 272.918 271.381 272.918 270.645C272.869 269.91 273.8 267.752 274.879 265.889C275.957 263.977 277.379 260.986 278.065 259.27C278.703 257.505 279.634 254.514 280.124 252.651C280.713 250.199 280.958 247.208 280.958 242.354C280.958 236.813 280.713 234.656 279.83 231.322C279.242 229.017 277.771 225.144 276.595 222.741C275.418 220.289 273.408 216.857 272.036 215.141C270.712 213.376 268.114 210.532 266.251 208.767C264.388 207.051 261.643 204.844 260.172 203.913C258.701 202.981 255.956 201.461 254.044 200.628C252.132 199.745 248.749 198.519 246.445 197.882C243.014 196.95 241.053 196.754 235.17 196.754C229.287 196.754 227.326 196.95 223.895 197.882C221.59 198.519 217.963 199.843 215.806 200.824C213.649 201.853 210.805 203.422 209.433 204.305C208.109 205.237 205.364 207.541 203.354 209.453C201.393 211.366 198.795 214.258 197.667 215.877C196.49 217.495 194.628 220.682 193.549 222.986C192.471 225.242 191.098 229.017 190.461 231.322C189.529 234.754 189.333 236.715 189.333 242.599C189.333 248.434 189.529 250.395 190.461 253.876C191.098 256.132 192.471 259.907 193.549 262.212C194.628 264.467 196.49 267.703 197.618 269.321C198.795 270.939 201.442 273.832 203.501 275.794C205.56 277.755 208.501 280.158 210.07 281.138C211.59 282.168 214.384 283.688 216.296 284.57C218.208 285.404 221.59 286.63 223.895 287.267C227.326 288.199 229.287 288.395 235.17 288.395C241.004 288.395 243.014 288.199 246.445 287.267C248.749 286.63 252.377 285.306 254.534 284.325C256.691 283.296 259.486 281.776 260.809 280.942C262.133 280.01 263.751 279.373 264.584 279.373C265.613 279.373 266.349 279.765 267.035 280.697C267.623 281.432 268.065 282.413 268.016 282.903C268.016 283.394 267.82 284.227 267.525 284.767C267.28 285.306 265.221 286.826 263.015 288.199C260.76 289.523 257.181 291.337 255.024 292.17C252.867 293.004 248.847 294.181 246.102 294.818C242.18 295.75 239.68 296.044 235.072 295.995C230.12 295.995 228.062 295.75 223.404 294.622C220.316 293.837 216.002 292.465 213.845 291.533C211.688 290.601 208.403 288.836 206.491 287.61C204.579 286.385 201.687 284.178 200.02 282.707C198.402 281.285 195.51 278.245 190.313 271.969H139.721C104.719 272.018 88.2957 271.822 86.5309 271.479C85.1092 271.136 82.5109 270.204 80.7951 269.37C79.0303 268.488 76.4811 266.625 74.9123 265.056C73.3436 263.487 71.4807 260.986 70.6473 259.172C69.7648 257.456 68.8334 254.906 68.5393 253.484C68.1961 251.768 68 240.442 68 219.407C68 188.468 68 187.879 68.9805 186.801C69.6178 186.065 70.5002 185.722 71.6768 185.722C72.8533 185.722 73.6867 186.065 74.373 186.801C75.3505 187.876 75.3535 188.659 75.5964 252.063L75.5986 252.651L76.7262 255.102C77.3635 256.426 78.8832 258.583 80.1578 259.858C81.4324 261.133 83.5895 262.702 87.3643 264.418L136.78 264.516C163.939 264.565 186.146 264.467 186.146 264.271C186.146 264.075 185.705 262.702 185.117 261.231C184.578 259.711 183.695 256.769 183.156 254.612C182.617 252.454 182.078 248.14 181.881 245.051C181.685 240.736 181.783 238.137 182.47 234.264C182.96 231.42 183.842 227.644 184.431 225.928C185.019 224.163 186.146 221.417 186.833 219.799C187.568 218.181 189.333 215.092 190.804 212.935C192.225 210.777 195.216 207.149 197.471 204.893C199.726 202.638 203.354 199.598 205.511 198.176C207.668 196.754 211.296 194.744 213.6 193.763C215.904 192.733 219.875 191.41 222.424 190.723C226.346 189.693 228.258 189.497 242.033 189.399V178.367C242.082 170.277 242.229 167.09 242.671 166.452Z" fill="black"/>
<path d="M83.4424 54.465C84.2758 54.0237 85.7955 53.3863 86.874 53.0431C87.9525 52.6999 90.0605 52.4057 94.2275 52.3566L91.8254 54.9553C90.4527 56.3282 88.884 58.5837 88.2467 59.9566C87.6584 61.2805 86.923 63.9282 86.6779 65.8405C86.3348 68.0469 86.1387 100.653 86.1387 158.511C86.1387 216.369 86.3348 248.975 86.6779 251.181C86.923 253.094 87.6584 255.692 88.2467 257.065C88.884 258.389 90.4527 260.694 94.2275 264.714L90.7959 264.518C88.7859 264.42 86.3348 263.881 84.9131 263.292C83.5404 262.704 81.4324 261.184 80.1578 259.909C78.8832 258.585 77.3635 256.428 75.5986 252.652L75.5006 220.291L75.4988 219.917C75.3535 188.708 75.3496 187.877 74.373 186.851C73.8338 186.214 72.9514 185.724 72.4121 185.724C71.4807 185.724 71.4316 185.38 71.4316 180.575C71.4316 175.77 71.4807 175.427 72.4121 175.427C72.9514 175.427 73.7848 174.986 74.226 174.446C75.0594 173.515 75.1084 169.935 75.5986 64.3695L76.7262 61.9179C77.3635 60.594 78.7852 58.5347 79.9127 57.3579C81.0402 56.1811 82.658 54.8573 83.4424 54.465Z" fill="#E3E0E4"/>
<path d="M167.272 105.556C166.684 102.811 166.537 97.27 166.586 77.2159V52.3076L177.567 52.6018L177.812 63.9282C178.009 73.0482 178.205 75.4017 178.793 76.0881C179.185 76.5294 179.921 76.9217 180.411 76.8727C181.146 76.8727 181.244 77.412 181.244 82.021C181.244 86.8262 181.195 87.1694 180.264 87.1694C179.724 87.1694 178.94 87.6597 178.548 88.2971C177.96 89.1307 177.812 90.9448 177.812 96.3874C177.812 102.075 178.009 103.84 178.744 105.949C179.283 107.322 180.705 109.626 181.881 110.95C183.058 112.323 185.117 113.99 186.441 114.725C187.764 115.412 190.166 116.245 191.784 116.54C193.647 116.883 203.403 117.079 242.033 117.079V127.866H216.688C195.51 127.866 190.755 127.719 188.107 127.081C186.343 126.689 183.401 125.512 181.489 124.532C179.381 123.453 176.832 121.541 174.871 119.531C172.665 117.373 171.047 115.167 169.822 112.666C168.792 110.656 167.665 107.42 167.272 105.556Z" fill="#E3E0E4"/>
<path d="M193.549 222.987C194.628 220.683 196.049 218.084 196.736 217.25V217.201C197.422 216.368 198.059 215.632 198.157 215.632C198.255 215.632 198.108 216.074 197.863 216.613C197.618 217.152 197.079 218.967 196.687 220.634C196.294 222.35 195.804 225.586 195.559 227.89C195.314 230.195 195.314 234.264 195.51 236.961C195.706 239.658 196.392 243.63 196.932 245.787C197.52 247.944 198.696 251.23 199.579 253.142C200.461 255.054 202.226 258.241 203.501 260.251C204.824 262.262 207.913 265.89 210.364 268.342C213.06 270.94 216.492 273.686 218.796 275.059C220.904 276.383 224.189 278.05 226.101 278.786C227.963 279.57 231.199 280.6 233.209 281.139C236.15 281.875 238.602 282.071 245.22 282.071C251.789 282.071 254.24 281.875 256.74 281.139C258.505 280.649 260.368 280.158 260.907 280.06C261.446 279.913 262.084 279.717 262.378 279.57C262.623 279.423 262.329 279.766 261.643 280.306C260.956 280.894 258.211 282.463 255.515 283.787C252.818 285.111 248.749 286.68 246.445 287.317C243.063 288.2 240.955 288.396 235.17 288.396C229.287 288.396 227.326 288.2 223.895 287.268C221.59 286.68 218.159 285.454 216.296 284.571C214.384 283.689 211.59 282.169 210.021 281.188C208.501 280.207 205.56 277.756 203.501 275.795C201.442 273.882 198.795 270.94 197.618 269.322C196.49 267.704 194.628 264.517 193.549 262.213C192.471 259.908 191.098 256.182 190.461 253.877C189.529 250.445 189.333 248.484 189.333 242.6C189.333 236.716 189.529 234.755 190.461 231.323C191.098 229.018 192.471 225.292 193.549 222.987Z" fill="#77D192"/>
<path d="M88.2467 59.9535C88.884 58.5806 90.5018 56.3251 91.8254 54.9522L94.2766 52.3535H166.537V77.2127C166.537 97.2178 166.684 102.807 167.272 105.553C167.665 107.416 168.792 110.653 169.822 112.663C171.047 115.164 172.665 117.37 174.871 119.527C176.832 121.538 179.381 123.45 181.489 124.529C183.401 125.509 186.343 126.686 188.107 127.078C190.755 127.716 195.51 127.863 242.033 127.863V140.268C242.082 149.192 242.229 152.869 242.671 153.458C243.014 153.899 243.847 154.487 244.631 154.781C245.955 155.321 245.955 155.37 245.955 159.979C245.955 164.588 245.955 164.637 244.631 165.176C243.847 165.47 243.014 166.059 242.671 166.5C242.229 167.088 242.082 170.472 242.033 189.398L234.533 189.447C228.258 189.496 226.346 189.692 222.424 190.722C219.875 191.408 215.904 192.781 213.6 193.762C211.296 194.742 207.668 196.753 205.511 198.175C203.354 199.646 199.726 202.637 197.471 204.892C195.216 207.148 192.225 210.776 190.755 212.933C189.333 215.091 187.421 218.621 186.49 220.778C185.558 222.936 184.627 225.142 184.431 225.682C184.235 226.221 183.989 226.858 183.891 227.153C183.842 227.447 183.401 229.31 182.911 231.32C182.274 234.017 182.029 237.008 182.029 242.598C182.029 248.678 182.225 251.031 183.058 254.365C183.646 256.67 184.578 259.759 185.117 261.23C185.705 262.701 186.146 264.074 186.146 264.319C186.146 264.515 165.459 264.662 94.2275 264.662L91.8254 262.063C90.4527 260.691 88.884 258.435 88.2467 257.062C87.6584 255.738 86.923 253.091 86.6779 251.178C86.3348 248.972 86.1387 216.366 86.1387 158.508C86.1387 100.65 86.3348 68.0438 86.6779 65.8373C86.923 63.9251 87.6584 61.3264 88.2467 59.9535Z" fill="#F9F8F9"/>
<path d="M223.649 198.03C225.806 197.49 228.257 197 229.042 196.853C229.826 196.755 233.16 196.706 236.395 196.804C240.464 196.853 243.552 197.196 246.445 197.932C248.749 198.52 252.818 200.089 255.514 201.413C258.21 202.737 261.201 204.453 262.132 205.188C263.064 205.924 265.466 208.228 267.525 210.239C269.535 212.298 271.741 214.652 272.427 215.583C273.114 216.466 274.584 218.868 275.712 220.977C276.839 223.036 278.212 226.125 278.8 227.89C279.34 229.655 279.879 231.764 280.075 232.548C280.222 233.333 280.565 235.294 280.81 236.863C281.055 238.383 281.153 241.815 281.055 244.463C280.957 247.062 280.516 250.739 280.075 252.651C279.634 254.564 278.702 257.506 278.065 259.271C277.379 261.036 275.957 263.978 274.878 265.89C273.8 267.802 272.868 269.862 272.918 270.548C272.918 271.235 273.261 272.264 273.653 272.902C274.339 273.882 274.29 274.029 273.555 274.618C272.918 275.108 272.819 275.108 273.065 274.618C273.261 274.275 273.31 273.98 273.163 273.98C273.016 273.98 271.888 274.618 270.613 275.402C269.29 276.236 266.741 277.56 264.829 278.442C262.917 279.276 261.054 280.06 260.662 280.109L260.661 280.109C260.268 280.208 258.504 280.649 256.74 281.139C254.24 281.874 251.788 282.071 245.219 282.071C238.601 282.071 236.15 281.874 233.209 281.139C231.199 280.6 228.012 279.57 226.1 278.785C224.188 278.05 220.904 276.383 218.796 275.059C216.492 273.686 213.06 270.94 210.364 268.342C207.912 265.939 204.824 262.262 203.5 260.251C202.226 258.241 200.461 255.054 199.578 253.142C198.696 251.229 197.519 247.944 196.931 245.787C196.392 243.63 195.706 239.658 195.509 236.961C195.313 234.264 195.313 230.195 195.559 227.89C195.804 225.586 196.343 222.301 196.735 220.535C197.176 218.77 197.568 216.907 197.667 216.368C197.716 215.828 198.01 215.338 198.304 215.289C198.647 215.191 198.892 214.848 198.892 214.554C198.892 214.21 200.706 212.151 202.912 209.945C205.167 207.787 208.059 205.237 209.432 204.355C210.756 203.423 213.648 201.854 215.805 200.874C217.962 199.844 221.492 198.618 223.649 198.03Z" fill="#80E29E"/>
<path d="M96.7274 117.224C97.1196 116.488 97.953 115.606 98.5413 115.262C99.3747 114.772 106.434 114.625 130.112 114.625C156.291 114.625 160.85 114.723 162.125 115.36C162.958 115.753 163.742 116.586 163.89 117.175C164.037 117.812 164.037 118.891 163.89 119.626C163.693 120.607 163.056 121.244 161.88 121.735C160.409 122.372 155.703 122.47 129.916 122.47C106.483 122.47 99.3256 122.323 98.3942 121.833C97.7079 121.489 96.8745 120.607 96.5803 119.871C96.0411 118.793 96.0901 118.302 96.7274 117.224Z" fill="black"/>
<path d="M95.7469 146.643C96.1391 145.907 96.9725 145.025 97.5608 144.682C98.4432 144.191 109.964 144.093 154.33 144.191L154.565 144.192C209.287 144.289 210.071 144.291 211.099 145.27C211.785 145.907 212.178 146.839 212.178 147.967C212.178 149.095 211.785 150.026 211.099 150.664C210.071 151.643 209.287 151.644 154.566 151.742L154.33 151.742C110.062 151.84 98.3942 151.742 97.4137 151.252C96.7274 150.909 95.894 150.026 95.5999 149.291C95.0606 148.212 95.1096 147.722 95.7469 146.643Z" fill="black"/>
<path d="M95.7469 176.062C96.1391 175.327 96.9725 174.444 97.5608 174.101C98.4432 173.611 109.964 173.512 154.33 173.611L154.566 173.611C209.287 173.709 210.071 173.71 211.099 174.689C211.785 175.327 212.178 176.258 212.178 177.386C212.178 178.514 211.785 179.445 211.099 180.083C210.071 181.062 209.287 181.063 154.566 181.161L154.33 181.161C110.062 181.259 98.3942 181.161 97.4137 180.671C96.7274 180.328 95.894 179.445 95.5999 178.71C95.0606 177.631 95.1096 177.141 95.7469 176.062Z" fill="black"/>
<path d="M96.7274 205.481C97.1196 204.746 97.953 203.863 98.5413 203.52C99.3747 203.03 106.434 202.883 130.161 202.883C156.291 202.883 160.85 202.981 162.125 203.618C162.958 204.01 163.742 204.844 163.89 205.432C164.037 206.07 164.037 207.148 163.89 207.884C163.693 208.865 163.056 209.502 161.88 209.992C160.409 210.63 155.703 210.728 129.916 210.728C106.483 210.728 99.3256 210.581 98.3942 210.09C97.7079 209.747 96.8745 208.865 96.5803 208.129C96.0411 207.05 96.0901 206.56 96.7274 205.481Z" fill="black"/>
<path d="M266.3 277.704C268.211 276.772 270.614 275.449 271.692 274.762C272.771 274.076 273.702 273.487 273.751 273.487C273.8 273.487 273.261 274.419 272.476 275.547C271.741 276.723 270.172 278.391 269.094 279.224C267.28 280.646 266.986 280.744 266.447 280.107C266.103 279.665 265.123 279.322 264.339 279.371C263.113 279.371 263.407 279.126 266.3 277.704Z" fill="#77D192"/>
<path fill-rule="evenodd" clip-rule="evenodd" d="M239.668 230.824L230.313 240.131C224.141 234.002 222.16 232.186 221.9 232.186C221.64 232.186 219.139 234.488 216.281 237.31C213.032 240.52 211.148 242.628 211.148 243.05C211.148 243.471 214.527 247.071 220.471 253.006C226.48 259.005 230.053 262.345 230.475 262.345C230.897 262.345 236.224 257.254 245.807 247.687C255.389 238.121 260.521 232.77 260.521 232.348C260.521 231.927 258.604 229.786 255.421 226.608C252.303 223.495 250.029 221.484 249.639 221.484C249.25 221.484 245.579 224.922 239.668 230.824Z" fill="black"/>
<path d="M230.313 243.86C230.93 243.86 233.171 241.817 240.382 234.618L249.64 225.375L256.623 232.348L230.475 258.453L215.046 243.049L221.868 236.239L225.668 240.033C228.526 242.855 229.696 243.86 230.313 243.86Z" fill="white"/>
</svg>
