<svg width="69" height="66" viewBox="0 0 69 66" fill="none" xmlns="http://www.w3.org/2000/svg">
<g clip-path="url(#clip0_168_1160)">
<path d="M34.9791 0.000531672C35.2699 0.339822 35.6739 0.129785 36.0131 0.194412C38.9698 0.759895 41.1671 2.97336 41.4903 6.02697C41.668 7.72342 41.7003 9.45218 41.4256 11.1648C40.9248 14.2022 38.3397 16.4965 35.2538 16.6096C33.622 16.6742 31.974 16.7873 30.4553 15.9795C28.161 14.7677 26.8362 12.9097 26.7392 10.2923C26.6746 8.78976 26.6423 7.28719 26.7877 5.78462C27.0785 2.92489 29.5182 0.582172 32.4748 0.162098C32.6687 0.129785 32.9111 0.275195 33.0403 -0.015625C33.6866 0.000531672 34.3329 0.000531672 34.9791 0.000531672ZM29.9544 8.38584C29.9544 8.9998 29.9382 9.61375 29.9544 10.2439C30.0352 11.9565 31.4085 13.3136 33.1211 13.3944C33.7351 13.4267 34.349 13.4106 34.9791 13.3944C36.8533 13.3459 38.2589 11.9726 38.3235 10.0823C38.3559 8.95133 38.3559 7.82036 38.3235 6.70555C38.2589 4.78291 36.821 3.40959 34.8983 3.37728C34.3329 3.36112 33.7674 3.36112 33.2019 3.37728C31.4085 3.42575 30.019 4.81522 29.9544 6.60861C29.9382 7.20641 29.9544 7.78805 29.9544 8.38584Z" fill="#666666" fill-opacity="0.6"/>
<path d="M43.3804 56.321C43.3804 59.3746 43.3642 62.2989 43.3965 65.2233C43.3965 65.7726 43.2834 65.9827 42.7018 65.9342C42.0878 65.8857 41.4577 65.8857 40.8438 65.9342C40.2783 65.9827 40.1329 65.8049 40.1329 65.2233C40.1652 62.1051 40.149 59.003 40.149 55.8847C40.149 53.8167 40.1814 51.7486 40.1329 49.6806C40.1167 49.0505 40.3106 48.8889 40.9084 48.9535C41.3285 49.002 41.7647 48.9697 42.2009 48.9535C43.6874 48.8889 44.7699 47.871 44.7699 46.4008C44.8022 40.0351 44.8022 33.6693 44.7699 27.3198C44.7699 25.7364 43.6389 24.6054 42.0717 24.4277C41.6678 24.3792 41.2639 24.3954 40.8599 24.3954C36.2714 24.3954 31.683 24.4439 27.0945 24.3792C24.9133 24.3469 23.4592 25.6395 23.5077 27.9822C23.6046 33.9601 23.54 39.9543 23.54 45.9484C23.54 48.0003 24.4932 48.9697 26.5128 48.9697C28.1123 48.9697 28.1123 48.9697 28.1123 50.6015C28.1123 55.4647 28.0962 60.3117 28.1285 65.1748C28.1285 65.7565 28.0315 65.9988 27.4014 65.9342C26.5936 65.8373 25.4949 66.2735 25.0264 65.7565C24.6225 65.3041 24.8972 64.2216 24.8972 63.4299C24.8972 61.168 24.8972 58.9222 24.8972 56.5956C24.3801 56.7734 23.9278 56.9511 23.4592 57.0965C23.0391 57.2257 23.1684 57.5489 23.1684 57.8235C23.1684 60.2955 23.1522 62.7675 23.1845 65.2395C23.2007 65.8211 23.023 65.9665 22.4737 65.9342C21.8112 65.8857 21.1326 65.9019 20.4541 65.9342C20.0178 65.9504 19.9209 65.7888 19.9209 65.3687C19.9371 61.7981 19.9371 58.2275 19.9209 54.6568C19.9209 54.2045 20.034 54.0267 20.5025 54.059C21.0034 54.0914 21.5204 54.0752 22.0374 54.059C22.7322 54.0267 23.3461 53.8005 23.8308 53.2835C24.6225 52.4434 24.5579 52.1041 23.5723 51.5871C21.5527 50.5369 20.3733 48.8728 20.3571 46.5785C20.3087 40.1158 20.3087 33.637 20.3571 27.1743C20.3733 24.1046 22.6998 21.6164 25.7535 21.2448C26.2058 21.1964 26.6582 21.1641 27.1106 21.1641C31.8284 21.1641 36.5623 21.1641 41.28 21.1641C45.4646 21.1641 48.0497 23.7491 48.0497 27.9499C48.0497 33.944 48.0335 39.922 48.0497 45.9161C48.0658 48.5173 47.0479 50.4723 44.6729 51.6517C44.3498 51.8133 44.3336 51.9264 44.4629 52.2495C45.1253 53.7682 45.5777 54.0752 47.2741 54.0914C48.809 54.0914 48.809 54.0914 48.809 55.6586C48.809 58.8576 48.7929 62.0404 48.8252 65.2395C48.8252 65.7888 48.7121 66.015 48.1304 65.9665C47.5165 65.918 46.8864 65.918 46.2724 65.9665C45.7231 66.015 45.5454 65.8534 45.5615 65.2718C45.5938 62.8483 45.5615 60.4409 45.5777 58.0174C45.5777 57.4843 45.5292 57.1288 44.8829 56.9996C44.3821 56.8703 43.9459 56.5633 43.3804 56.321Z" fill="#666666" fill-opacity="0.6"/>
<path d="M4.58849 61.494C4.58849 60.2338 4.57234 58.9736 4.58849 57.7134C4.58849 57.3256 4.4754 57.1641 4.10379 57.0348C1.42179 56.0977 0 54.0943 0 51.2507C0 45.8059 0 40.345 0 34.9002C0 31.0872 2.60122 28.4698 6.39804 28.4537C10.0171 28.4375 13.6524 28.4698 17.2715 28.4375C17.8854 28.4375 18.0793 28.5991 18.0147 29.1969C17.9662 29.73 17.9501 30.2794 18.0147 30.8125C18.0955 31.5073 17.8854 31.7173 17.1584 31.7173C13.6362 31.6688 10.1302 31.7011 6.60808 31.7011C4.3623 31.685 3.23133 32.7998 3.23133 35.0294C3.23133 40.3934 3.23133 45.7736 3.23133 51.1376C3.23133 53.0764 4.21689 54.0458 6.15569 54.062C7.83598 54.0781 7.83599 54.0781 7.83599 55.7261C7.83599 58.8928 7.81983 62.0595 7.85214 65.2262C7.85214 65.8079 7.69058 65.9694 7.14125 65.921C6.49498 65.8725 5.84871 65.8725 5.20245 65.921C4.68543 65.9533 4.57234 65.7594 4.58849 65.2747C4.60465 64.0145 4.58849 62.7543 4.58849 61.494Z" fill="#666666" fill-opacity="0.6"/>
<path d="M68.6654 43.0763C68.6654 45.8714 68.6816 48.6504 68.6654 51.4455C68.6493 54.0952 67.1467 56.1955 64.6263 57.0195C64.1577 57.1811 64.0769 57.3911 64.0769 57.8274C64.0931 60.2993 64.0608 62.7713 64.0931 65.2271C64.0931 65.7926 63.9315 65.9703 63.3822 65.938C62.7198 65.8896 62.0412 65.9057 61.3788 65.938C60.9425 65.9542 60.8456 65.7926 60.8456 65.3887C60.8618 61.7858 60.8618 58.199 60.8456 54.596C60.8456 54.1598 61.0072 54.0467 61.4111 54.0629C61.8958 54.0952 62.3805 54.079 62.8652 54.0629C64.4485 53.9982 65.4503 52.9642 65.4503 51.3809C65.4503 45.823 65.4664 40.2651 65.4503 34.7233C65.4503 32.9299 64.2223 31.702 62.3966 31.702C59.1815 31.6859 55.9501 31.6859 52.735 31.7182C52.1372 31.7182 51.9271 31.5728 51.9756 30.9588C52.0402 30.1672 51.7332 29.117 52.121 28.6323C52.5411 28.1153 53.6236 28.4707 54.4152 28.4707C56.968 28.4545 59.5208 28.4545 62.0574 28.4707C66.0804 28.4707 68.6493 31.0396 68.6654 35.0465C68.6654 37.7123 68.6654 40.3943 68.6654 43.0763Z" fill="#666666" fill-opacity="0.6"/>
<path d="M6.4461 15.3619C6.47841 14.6187 6.36531 13.5685 6.60767 12.5345C7.27009 9.64243 9.87131 7.47743 12.8441 7.41281C14.4275 7.38049 16.0108 7.28355 17.4811 8.04292C19.8884 9.28698 21.1971 11.2419 21.2618 13.9401C21.2941 15.5235 21.4395 17.1068 21.1325 18.674C20.567 21.4853 18.1112 23.6826 15.2353 23.8603C13.5066 23.9734 11.7455 24.0703 10.1298 23.214C7.83557 21.9861 6.59151 20.0958 6.46225 17.4946C6.41378 16.8806 6.4461 16.2667 6.4461 15.3619ZM9.67743 15.6689C9.67743 16.2343 9.66128 16.7998 9.67743 17.3653C9.7259 19.1749 11.0669 20.5805 12.8603 20.6613C13.5227 20.6936 14.2013 20.6936 14.8799 20.6613C16.6248 20.5643 17.9981 19.191 18.0466 17.4299C18.0789 16.2505 18.0789 15.0711 18.0466 13.8916C17.9981 12.3729 16.9802 11.1127 15.4938 10.7734C14.4113 10.531 13.2965 10.531 12.2302 10.7734C10.7115 11.1288 9.7259 12.4214 9.69359 13.9886C9.66128 14.5379 9.67743 15.1034 9.67743 15.6689Z" fill="#666666" fill-opacity="0.6"/>
<path d="M62.2194 15.9133C62.1709 16.6727 62.3001 17.6906 62.0739 18.7084C61.4277 21.5843 59.0203 23.7008 56.0637 23.8786C54.8358 23.9594 53.5917 24.024 52.3799 23.7008C49.4556 22.9576 47.4037 20.3887 47.3875 17.3836C47.3875 15.8325 47.226 14.2654 47.5168 12.7305C48.0984 9.70917 50.7481 7.47955 53.8179 7.41492C55.2074 7.38261 56.5968 7.30183 57.9378 7.835C60.4906 8.83671 62.1386 11.1633 62.2032 13.8937C62.2355 14.4915 62.2194 15.0732 62.2194 15.9133ZM58.988 15.671C58.988 15.1055 59.0042 14.54 58.988 13.9745C58.9395 12.2942 57.7763 10.9048 56.1283 10.6947C55.2558 10.5816 54.3511 10.5816 53.4786 10.6947C51.8629 10.9048 50.6673 12.2781 50.6189 13.8937C50.5865 15.0732 50.5865 16.2526 50.6189 17.4321C50.6673 19.1931 52.0406 20.5665 53.8017 20.6634C54.4965 20.6957 55.1912 20.6957 55.8859 20.6634C57.5985 20.5503 58.9234 19.1608 58.988 17.4482C59.0042 16.8504 58.988 16.2526 58.988 15.671Z" fill="#666666" fill-opacity="0.6"/>
</g>
<defs>
<clipPath id="clip0_168_1160">
<rect width="68.6658" height="66" fill="white"/>
</clipPath>
</defs>
</svg>
