<svg width="47" height="66" viewBox="0 0 47 66" fill="none" xmlns="http://www.w3.org/2000/svg">
<g clip-path="url(#clip0_168_1167)">
<path d="M47 4.26185C47 18.713 47 33.1816 47 47.6328C46.7726 47.6852 46.8076 47.8949 46.7552 48.0522C45.8809 50.4286 44.1149 51.6693 41.5971 51.6693C40.548 51.6693 39.5163 51.6518 38.4672 51.6518C33.6238 51.5819 28.7805 51.5295 23.9371 51.4596C23.5874 51.4596 23.2377 51.3723 23.0104 51.8615C22.3984 53.242 21.4892 54.4652 20.4925 55.601C20.0029 56.1602 20.0904 56.7893 20.2302 57.3135C20.3526 57.8028 20.9821 57.4707 21.3668 57.5406C21.629 57.5756 21.8913 57.5406 22.1536 57.5581C23.1677 57.5931 23.6224 58.0299 23.6398 59.0609C23.6573 60.8957 23.6573 62.713 23.6398 64.5478C23.6398 65.4739 23.0803 66.0506 22.2935 66.0156C21.5241 65.9807 21.0695 65.4565 21.0695 64.5303C21.052 63.2547 21.052 61.9791 21.0695 60.7035C21.087 60.2491 20.9646 60.1094 20.4925 60.1094C14.7224 60.1268 8.95234 60.1268 3.18225 60.1094C2.72763 60.1094 2.58775 60.2142 2.58775 60.686C2.62272 62.014 2.62272 63.3596 2.58775 64.6876C2.57027 65.4914 2.01074 66.0331 1.27637 66.0156C0.576963 65.9981 0.0174386 65.4914 0.0174386 64.74C-0.0175316 62.7654 -0.0175316 60.7908 0.0174386 58.8163C0.0349237 58.0474 0.489537 57.5931 1.29385 57.5581C1.87086 57.5406 2.44787 57.5232 3.02488 57.5581C3.46201 57.5756 3.61937 57.4533 3.65434 56.9815C3.79422 54.937 3.74177 52.9275 3.33961 50.9179C2.69266 47.7376 1.52116 44.6971 0.646903 41.5867C-0.437174 37.7249 0.139834 34.2126 2.51781 30.9624C5.03567 27.52 7.51856 24.0601 10.0364 20.6177C10.4036 20.1284 10.5435 19.6217 10.5435 19.0101C10.526 14.5192 10.526 10.0109 10.526 5.51999C10.526 2.49696 12.1521 0.557325 15.1246 0.015625C23.9546 0.015625 32.7846 0.015625 41.632 0.015625C44.3073 0.015625 46.1607 1.48346 46.8251 4.08711C46.8601 4.13953 46.9475 4.19196 47 4.26185ZM13.1138 40.8528C14.9497 39.717 16.0688 38.2491 16.5234 36.3445C16.8381 35.0514 17.013 33.7233 17.2403 32.4128C17.4151 31.4167 17.7474 30.4731 18.4992 29.8091C19.0413 29.3373 18.9713 29.0402 18.6216 28.4811C15.9114 24.0776 16.3835 18.4509 19.7581 14.5541C23.1153 10.6749 28.5706 9.38179 33.2916 11.3389C34.5506 11.8631 35.0052 12.5271 34.6205 13.3659C34.2708 14.1522 33.5889 14.2571 32.295 13.7329C28.5007 12.1777 24.0944 13.331 21.5416 16.5113C18.9189 19.7789 18.7615 24.2873 21.1395 27.6773C21.4367 28.0966 21.7514 28.3588 22.311 28.4112C23.9196 28.5684 25.1436 29.3897 25.8779 30.8401C26.0878 31.242 26.3675 31.3643 26.7522 31.4342C30.6164 32.1332 33.8162 30.9974 36.1942 27.8695C38.135 25.3182 38.5022 22.435 37.558 19.377C37.2607 18.4334 37.4356 17.8393 38.1 17.5073C38.9043 17.1054 39.6387 17.5248 40.0059 18.5557C41.6145 23.1514 40.0584 28.551 36.2291 31.5915C33.5364 33.7233 30.459 34.597 27.032 34.0903C26.6298 34.0379 26.2626 33.933 26.1227 34.5271C25.7381 36.1522 25.3009 37.7773 24.8638 39.4898C25.2135 39.4898 25.5107 39.4898 25.7905 39.4898C31.683 39.4898 37.5755 39.4723 43.4505 39.5073C44.1849 39.5073 44.3947 39.3675 44.3947 38.5812C44.3597 27.6423 44.3772 16.686 44.3772 5.74716C44.3772 3.49299 43.4505 2.56686 41.2299 2.56686C32.907 2.56686 24.584 2.56686 16.2611 2.56686C14.023 2.56686 13.0963 3.51046 13.0963 5.74716C13.0963 17.1229 13.0963 28.4985 13.0963 39.8917C13.1138 40.1364 13.1138 40.381 13.1138 40.8528ZM10.5435 24.5843C10.4735 24.5669 10.4211 24.5494 10.3511 24.5319C8.23545 27.4676 6.08478 30.3683 4.03902 33.3564C2.95494 34.9291 2.60524 36.7464 2.74512 38.6685C2.86751 40.3635 3.46201 41.9537 3.96908 43.5438C5.36789 47.9473 6.7667 52.3333 6.25963 57.0514C6.18969 57.6455 6.59184 57.5232 6.92406 57.5232C10.2637 57.5232 13.5859 57.5057 16.9256 57.5406C17.555 57.5406 17.6599 57.296 17.6075 56.7893C17.4501 55.5835 17.8348 54.6399 18.6741 53.7313C20.9296 51.3198 21.8913 48.4191 21.6116 45.1165C21.5416 44.1379 21.5416 43.1419 21.699 42.1634C22.1536 39.2452 23.0279 36.4144 23.7447 33.5661C24.0595 32.3254 23.4125 31.2245 22.2585 30.9449C21.1569 30.6828 20.0904 31.4167 19.8456 32.6225C19.6008 33.8456 19.4259 35.0863 19.1462 36.292C18.3418 39.8742 16.4185 42.5303 12.834 43.736C11.2079 44.2777 10.5435 43.7535 10.5435 42.041C10.5435 36.5017 10.5435 30.9624 10.5435 25.4056C10.5435 25.1435 10.5435 24.8639 10.5435 24.5843ZM31.122 49.0831C31.122 49.0831 32.1128 49.0831 33.2217 49.0831C36.0368 49.0831 38.8519 49.0831 41.667 49.0831C43.3456 49.0831 44.3772 48.0522 44.3947 46.3746C44.4122 45.1864 44.3597 43.9981 44.4122 42.8099C44.4471 42.1808 44.2198 42.0585 43.6428 42.0585C37.4706 42.076 31.2808 42.0935 25.1086 42.0585C24.3917 42.0585 24.2343 42.3032 24.1994 42.9497C24.1119 44.767 24.3742 46.6018 24.0595 48.4191C23.9546 48.9783 24.3392 48.9667 24.6365 48.9667C27.4866 48.9667 28.2544 49.0831 31.122 49.0831Z" fill="#666666" fill-opacity="0.6"/>
<path d="M13.1143 40.8563C13.1143 40.4019 13.1143 40.1398 13.1143 39.8952C13.1143 28.5195 13.1143 17.1438 13.1143 5.75061C13.1143 3.49644 14.041 2.57031 16.2791 2.57031C24.602 2.57031 32.9249 2.57031 41.2478 2.57031C43.4859 2.57031 44.3951 3.49644 44.3951 5.75061C44.3951 16.6895 44.3777 27.6458 44.4126 38.5846C44.4126 39.3709 44.2028 39.5107 43.4684 39.5107C37.5759 39.4758 31.6835 39.4933 25.8085 39.4933C25.5287 39.4933 25.2314 39.4933 24.8817 39.4933C25.3189 37.7808 25.756 36.1557 26.1407 34.5306C26.2806 33.9365 26.6477 34.0238 27.0499 34.0937C30.477 34.6005 33.5544 33.7268 36.2471 31.5949C40.0763 28.5544 41.6325 23.1549 40.0239 18.5592C39.6567 17.5282 38.9223 17.1088 38.118 17.5107C37.4361 17.8428 37.2787 18.4194 37.5759 19.3805C38.5201 22.4385 38.153 25.3217 36.2121 27.8729C33.8341 31.0008 30.6169 32.1366 26.7701 31.4377C26.4029 31.3678 26.1057 31.2455 25.8959 30.8435C25.1615 29.3932 23.9375 28.5719 22.3289 28.4146C21.7694 28.3622 21.4547 28.1176 21.1574 27.6807C18.7794 24.2733 18.9368 19.7824 21.5596 16.5147C24.1124 13.3344 28.5361 12.1986 32.3129 13.7363C33.6068 14.2605 34.2887 14.1557 34.6384 13.3694C35.0056 12.5481 34.5685 11.8841 33.3096 11.3424C28.5886 9.36777 23.1332 10.6609 19.7761 14.5576C16.4189 18.4543 15.9294 24.081 18.6396 28.4845C18.9718 29.0437 19.0592 29.3408 18.5172 29.8126C17.7478 30.4766 17.4156 31.4202 17.2582 32.4162C17.0309 33.7268 16.8561 35.0548 16.5413 36.3479C16.0692 38.2526 14.9502 39.7204 13.1143 40.8563ZM27.9591 23.749C27.0149 22.6132 26.1407 21.5298 25.2489 20.4639C24.6195 19.7125 23.9201 19.5727 23.2906 20.0445C22.6436 20.5513 22.6262 21.3026 23.2556 22.089C24.4271 23.5219 25.5986 24.9547 26.7876 26.3876C27.557 27.3138 28.3263 27.3138 29.0957 26.4051C29.8125 25.5314 30.512 24.6402 31.2288 23.7665C33.974 20.359 36.7192 16.9516 39.4643 13.5441C40.1987 12.6354 40.2162 11.8666 39.5518 11.3424C38.8698 10.8007 38.2054 10.9929 37.4361 11.9365C37.0339 12.4258 36.6317 12.9325 36.2296 13.4218C33.5019 16.8642 30.7567 20.2717 27.9591 23.749Z" fill="#FCFCFC"/>
<path d="M10.5435 24.5818C10.5435 24.8614 10.5435 25.141 10.5435 25.4206C10.5435 30.9599 10.5435 36.4992 10.5435 42.056C10.5435 43.7685 11.1904 44.3102 12.834 43.751C16.4185 42.5453 18.3418 39.8892 19.1462 36.307C19.4259 35.0838 19.5833 33.8606 19.8456 32.6374C20.0904 31.4317 21.1569 30.6978 22.2585 30.9599C23.43 31.2395 24.0595 32.3404 23.7447 33.581C23.0279 36.4468 22.1536 39.2601 21.699 42.1783C21.5416 43.1569 21.5241 44.1529 21.6116 45.1315C21.8738 48.4341 20.9296 51.3348 18.6741 53.7462C17.8348 54.6549 17.4501 55.5985 17.6075 56.8042C17.6774 57.311 17.5725 57.5731 16.9255 57.5556C13.5859 57.5207 10.2637 57.5381 6.92406 57.5381C6.59184 57.5381 6.18969 57.6605 6.25963 57.0663C6.76669 52.3483 5.3504 47.9623 3.96908 43.5588C3.46201 41.9686 2.86751 40.3785 2.74512 38.6835C2.60524 36.7788 2.95494 34.944 4.03902 33.3713C6.08477 30.4007 8.25293 27.4825 10.3511 24.5469C10.4211 24.5469 10.4735 24.5643 10.5435 24.5818Z" fill="#FCFCFC"/>
<path d="M27.4865 45.567C27.4691 46.266 28.0286 46.8601 28.7105 46.895C29.4099 46.93 30.0568 46.3009 30.0568 45.5845C30.0568 44.8855 29.4973 44.3263 28.7804 44.3263C28.0635 44.3089 27.504 44.8506 27.4865 45.567Z" fill="#FCFCFC"/>
<path d="M27.9588 23.7488C30.7564 20.2715 33.5016 16.864 36.2467 13.4566C36.6489 12.9673 37.051 12.4605 37.4532 11.9712C38.2225 11.0276 38.887 10.8354 39.5689 11.3771C40.2333 11.9013 40.2158 12.6702 39.4815 13.5789C36.7363 16.9863 33.9911 20.3938 31.246 23.8013C30.5291 24.675 29.8472 25.5662 29.1128 26.4399C28.3435 27.3485 27.5741 27.3485 26.8048 26.4224C25.6158 24.9895 24.4443 23.5741 23.2728 22.1237C22.6258 21.3374 22.6608 20.5685 23.3077 20.0793C23.9372 19.59 24.6366 19.7298 25.2661 20.4986C26.1403 21.5296 27.0146 22.613 27.9588 23.7488Z" fill="#666666" fill-opacity="0.6"/>
<path d="M27.4867 45.5688C27.5042 44.8698 28.0637 44.3281 28.7631 44.3281C29.48 44.3281 30.0396 44.8873 30.0396 45.5863C30.0396 46.2852 29.3926 46.9318 28.6932 46.8968C28.0288 46.8619 27.4692 46.2503 27.4867 45.5688Z" fill="white"/>
</g>
<defs>
<clipPath id="clip0_168_1167">
<rect width="47" height="66" fill="white"/>
</clipPath>
</defs>
</svg>
