<svg width="24" height="24" viewBox="0 0 24 24" fill="none" xmlns="http://www.w3.org/2000/svg">
<path d="M23.6972 0.267788C24.0555 0.624926 24.0555 1.20311 23.6972 1.56025C23.3388 1.91739 22.7586 1.91739 22.4003 1.56025C22.0419 1.20311 22.0419 0.624926 22.4003 0.267788C22.7586 -0.0892627 23.3388 -0.0892627 23.6972 0.267788Z" fill="#001B94"/>
<path d="M21.5354 3.71191C21.8937 3.35477 21.8937 2.77658 21.5354 2.41944C21.177 2.06239 20.5977 2.06239 20.2384 2.41944C19.8801 2.77658 19.8801 3.35477 20.2384 3.71191C20.5968 4.06904 21.177 4.06904 21.5354 3.71191Z" fill="#001B94"/>
<path d="M12.6151 6.13207C13.1211 6.13207 13.5312 5.72336 13.5312 5.21912C13.5312 4.71488 13.1211 4.30617 12.6151 4.30617C12.1092 4.30617 11.6991 4.71488 11.6991 5.21912C11.6991 5.72336 12.1092 6.13207 12.6151 6.13207Z" fill="#001B94"/>
<path d="M15.6724 6.13207C16.1783 6.13207 16.5885 5.72336 16.5885 5.21912C16.5885 4.71488 16.1783 4.30617 15.6724 4.30617C15.1664 4.30617 14.7563 4.71488 14.7563 5.21912C14.7563 5.72336 15.1664 6.13207 15.6724 6.13207Z" fill="#001B94"/>
<path d="M18.7269 9.17788C19.2329 9.17788 19.643 8.76909 19.643 8.26494C19.643 7.76069 19.2329 7.35199 18.7269 7.35199C18.2209 7.35199 17.8108 7.76069 17.8108 8.26494C17.8108 8.76909 18.2209 9.17788 18.7269 9.17788Z" fill="#001B94"/>
<path d="M19.643 5.21912C19.643 5.72336 19.2329 6.13207 18.7269 6.13207C18.2209 6.13207 17.8108 5.72336 17.8108 5.21912C17.8108 4.71488 18.2209 4.30617 18.7269 4.30617C19.2329 4.30617 19.643 4.71488 19.643 5.21912Z" fill="#001B94"/>
<path d="M10.4749 5.21912C10.4749 5.72336 10.0648 6.13207 9.55881 6.13207C9.05287 6.13207 8.6427 5.72336 8.6427 5.21912C8.6427 4.71488 9.05287 4.30617 9.55881 4.30617C10.0648 4.30617 10.4749 4.71488 10.4749 5.21912Z" fill="#001B94"/>
<path d="M6.50425 6.13207C7.01019 6.13207 7.42036 5.72336 7.42036 5.21912C7.42036 4.71488 7.01019 4.30617 6.50425 4.30617C5.99831 4.30617 5.58818 4.71488 5.58818 5.21912C5.58818 5.72336 5.99831 6.13207 6.50425 6.13207Z" fill="#001B94"/>
<path d="M19.643 11.3116C19.643 11.8158 19.2329 12.2245 18.7269 12.2245C18.2209 12.2245 17.8108 11.8158 17.8108 11.3116C17.8108 10.8074 18.2209 10.3987 18.7269 10.3987C19.2329 10.3987 19.643 10.8074 19.643 11.3116Z" fill="#001B94"/>
<path d="M7.02699 20.8374C7.53294 20.8374 7.94306 20.4287 7.94306 19.9245C7.94306 19.4203 7.53294 19.0115 7.02699 19.0115C6.52105 19.0115 6.11088 19.4203 6.11088 19.9245C6.11088 20.4287 6.52105 20.8374 7.02699 20.8374Z" fill="#001B94"/>
<path d="M4.88941 16.8778C4.88941 17.382 4.47929 17.7907 3.97335 17.7907C3.4674 17.7907 3.05724 17.382 3.05724 16.8778C3.05724 16.3736 3.4674 15.9648 3.97335 15.9648C4.47929 15.9648 4.88941 16.3736 4.88941 16.8778Z" fill="#001B94"/>
<path d="M7.02699 17.7907C7.53294 17.7907 7.94306 17.382 7.94306 16.8778C7.94306 16.3736 7.53294 15.9648 7.02699 15.9648C6.52105 15.9648 6.11088 16.3736 6.11088 16.8778C6.11088 17.382 6.52105 17.7907 7.02699 17.7907Z" fill="#001B94"/>
<path d="M1.83218 16.8778C1.83218 17.382 1.42205 17.7907 0.916111 17.7907C0.410167 17.7907 0 17.382 0 16.8778C0 16.3736 0.410167 15.9648 0.916111 15.9648C1.42205 15.9648 1.83218 16.3736 1.83218 16.8778Z" fill="#001B94"/>
<path d="M7.02699 23.8832C7.53294 23.8832 7.94306 23.4744 7.94306 22.9703C7.94306 22.466 7.53294 22.0573 7.02699 22.0573C6.52105 22.0573 6.11088 22.466 6.11088 22.9703C6.11088 23.4744 6.52105 23.8832 7.02699 23.8832Z" fill="#001B94"/>
<path d="M19.643 14.3556C19.643 14.8598 19.2329 15.2685 18.7269 15.2685C18.2209 15.2685 17.8108 14.8598 17.8108 14.3556C17.8108 13.8514 18.2209 13.4426 18.7269 13.4426C19.2329 13.4426 19.643 13.8514 19.643 14.3556Z" fill="#001B94"/>
<path d="M18.7269 16.4885C19.2334 16.4885 19.643 16.8966 19.643 17.4014C19.643 17.9062 19.2334 18.3143 18.7269 18.3143C18.2204 18.3143 17.8108 17.9062 17.8108 17.4014C17.8108 16.8966 18.2195 16.4885 18.7269 16.4885Z" fill="#001B94"/>
<path d="M12.2649 12.5718C12.2649 13.076 11.8547 13.4847 11.3488 13.4847C10.8428 13.4847 10.4327 13.076 10.4327 12.5718C10.4327 12.0676 10.8428 11.6589 11.3488 11.6589C11.8547 11.6589 12.2649 12.0676 12.2649 12.5718Z" fill="#001B94"/>
<path d="M14.1599 9.77215C14.5183 10.1293 14.5183 10.7075 14.1599 11.0645C13.8016 11.4217 13.2214 11.4217 12.863 11.0645C12.5047 10.7075 12.5047 10.1293 12.863 9.77215C13.2223 9.41501 13.8016 9.41501 14.1599 9.77215Z" fill="#001B94"/>
<path d="M16.319 8.91025C16.6774 8.55311 16.6774 7.97492 16.319 7.61779C15.9607 7.26065 15.3814 7.26065 15.0221 7.61779C14.6638 7.97492 14.6638 8.55311 15.0221 8.91025C15.3805 9.26739 15.9607 9.26739 16.319 8.91025Z" fill="#001B94"/>
<path d="M9.83632 14.0782C10.1947 14.4352 10.1947 15.0134 9.83632 15.3705C9.47795 15.7277 8.89776 15.7277 8.53943 15.3705C8.18105 15.0134 8.18105 14.4352 8.53943 14.0782C8.89776 13.721 9.47795 13.721 9.83632 14.0782Z" fill="#001B94"/>
</svg>
