<svg width="371" height="125" viewBox="0 0 371 125" fill="none" xmlns="http://www.w3.org/2000/svg">
<path d="M8 9.53523H16H29.2252H37.2252V17.5352V47.5587C37.6178 47.1148 38.0246 46.6784 38.4456 46.2497L38.4457 46.2496C45.0852 39.4883 53.5975 36.2627 63.2177 36.2627C72.8217 36.2627 81.2652 39.5227 87.9393 46.1986L8 9.53523ZM8 9.53523V17.5352V107.477V115.477H16H28.7074M8 9.53523L28.7074 115.477M28.7074 115.477V115.495H36.7074H49.1739H57.1739V107.495V71.423C57.1739 68.8135 57.9103 67.3037 59.0197 66.164C59.0204 66.1633 59.0211 66.1626 59.0218 66.1618C60.5323 64.6133 61.6508 64.2083 63.2298 64.2083C64.9695 64.2083 66.1208 64.7268 67.2416 65.9547L67.3289 66.0503L67.4192 66.143C68.5439 67.2977 69.2856 68.8335 69.2856 71.4048V104.792L61.1873 115.501H77.2674H89.8727H97.8727V107.501V101.652C98.4904 102.461 99.1428 103.253 99.8303 104.028L99.8405 104.039L99.8508 104.051C107.509 112.61 117.612 116.747 129.355 116.747C139.284 116.747 148.062 113.667 155.124 107.366H155.356L157.729 104.819C159.057 103.393 160.259 101.897 161.337 100.336V107.477V115.477H169.337H181.93H189.93V107.477V90.1362C192.312 94.1096 195.266 97.8316 198.788 101.285L198.814 101.31L198.84 101.335C209.597 111.697 222.6 117 237.437 117C251.141 117 263.332 112.623 273.609 103.866L277.739 100.347L277.634 100.039C280.486 97.0444 282.883 93.7972 284.829 90.317C286.776 95.977 290.021 101.061 294.595 105.437C302.399 112.906 311.834 116.747 322.747 116.747C333.631 116.747 343.2 112.921 351.024 105.437L351.028 105.434C359.075 97.7282 363 87.7599 363 76.5049C363 65.1966 358.983 55.3676 350.909 47.7097C343.105 40.124 333.572 36.2445 322.747 36.2445C311.82 36.2445 302.239 40.1563 294.427 47.7404L294.421 47.7454L294.416 47.7504C293.241 48.8952 292.155 50.0845 291.156 51.3171V48.3164H283.156H271.35L271.977 47.6405L280.903 38.007L286.139 32.3572L280.691 26.9117L280.232 26.4529C280.229 26.4497 280.226 26.4465 280.223 26.4434C273.94 20.1407 267.373 15.3237 260.476 12.3905C253.576 9.38673 245.834 8 237.437 8C222.55 8 209.533 13.4301 198.788 23.9677L28.7074 115.477ZM191.048 33.3351C193.216 30.0263 195.798 26.9004 198.788 23.968L191.048 33.3351ZM191.048 33.3351C191.061 33.0525 191.068 32.7691 191.068 32.4854C191.068 28.4771 189.582 24.8136 186.805 21.9491M191.048 33.3351L186.805 21.9491M186.805 21.9491C183.763 18.6103 179.721 17.1702 175.628 17.1702C173.302 17.1702 170.922 17.6024 168.711 18.6363V17.5352V9.53523H160.711H148.118H140.118V17.5352V38.0204C136.013 36.8272 131.698 36.2445 127.206 36.2445C116.826 36.2445 107.743 40.1587 100.401 47.6147L100.401 47.6152C98.0355 50.0176 96.0509 52.6097 94.4468 55.3732C92.8538 52.0298 90.6931 48.9531 87.9394 46.1988L186.805 21.9491ZM238.382 76.7859H259.378C258.26 79.0087 256.64 80.9818 254.49 82.7712L254.483 82.777L254.476 82.7828C250.014 86.5131 244.52 88.5124 237.419 88.5124C230.055 88.5124 224.31 86.045 219.573 81.0493L219.573 81.0491C214.694 75.9035 212.299 69.9165 212.299 62.6085C212.299 55.1798 214.696 49.1702 219.566 44.049L219.566 44.0488C224.314 39.0552 230.05 36.5776 237.419 36.5776C241.682 36.5776 245.411 37.5047 248.738 39.2578C251.035 40.4829 254.836 43.2065 260.438 47.8791L260.904 48.2784L260.948 48.3164H238.382H230.382V56.3164V68.7859V76.7859H238.382ZM139.476 68.0337L140.118 68.4728V72.6877C140.118 79.5127 138.529 83.2959 136.694 85.3817L136.662 85.4187L136.63 85.4562C134.649 87.7641 132.419 88.7893 129.367 88.7893C125.599 88.7893 123.052 87.6475 121.031 85.6155C119.053 83.478 117.858 80.7108 117.858 76.3721C117.858 71.8872 119.1 69.1436 120.915 67.2439L120.922 67.2363L120.929 67.2288C122.676 65.391 125.101 64.2083 129.114 64.2083C130.167 64.2083 131.653 64.4507 133.695 65.2569L133.822 65.307L133.95 65.3526C136.31 66.1927 138.112 67.1004 139.471 68.0305L139.476 68.0337ZM330.697 67.3797L331.082 67.783C332.822 69.7862 333.895 72.4754 333.895 76.5049C333.895 80.8101 332.67 83.5859 330.714 85.6302L330.714 85.6304C328.745 87.6889 326.316 88.7958 322.747 88.7958C319.186 88.7958 316.772 87.6945 314.798 85.6304L314.797 85.6302C312.831 83.5742 311.616 80.882 311.616 76.5049C311.616 72.0078 312.865 69.2601 314.66 67.3909L314.673 67.378L314.685 67.365C316.592 65.3616 319.115 64.2141 322.747 64.2141C326.308 64.2141 328.722 65.3153 330.697 67.3797Z" fill="white" stroke="#001B94" stroke-width="16"/>
</svg>
