<svg width="373" height="125" viewBox="0 0 373 125" fill="none" xmlns="http://www.w3.org/2000/svg">
<path d="M17.5 17.5352V107.477H30.7252V17.5352H17.5Z" fill="#001B94"/>
<path d="M78.7856 71.4048V107.477L78.7674 107.501H91.3727V71.4289C91.3727 63.4752 88.8443 56.9185 83.7818 51.8548C78.7195 46.7911 72.3627 44.2627 64.7177 44.2627C57.0186 44.2627 50.6378 46.7793 45.6537 51.8548C40.6813 56.9185 38.2074 63.4752 38.2074 71.4289V107.495H50.6739V71.423C50.6739 66.9978 52.0466 63.397 54.7916 60.5793C57.6447 57.6529 60.7688 56.2083 64.7298 56.2083C68.6907 56.2083 71.9953 57.6529 74.6501 60.5611C77.395 63.3793 78.7856 66.9978 78.7856 71.4048Z" fill="#001B94"/>
<path d="M130.855 108.747C140.017 108.747 147.553 105.622 153.368 99.3664H153.375C159.286 93.0203 162.211 84.7838 162.211 74.7163V17.5352H149.618V72.6877C149.618 80.635 147.776 86.6019 144.201 90.666C140.697 94.7484 136.249 96.7893 130.867 96.7893C125.107 96.7893 120.423 94.893 116.757 91.154C113.163 87.3245 111.358 82.4959 111.358 76.3721C111.358 70.2488 113.127 65.3838 116.631 61.7171C120.116 58.0504 124.763 56.2083 130.614 56.2083C132.896 56.2083 135.388 56.7321 138.133 57.8158C140.974 58.8271 143.43 60.0196 145.489 61.4284L146.572 62.1687V48.7238L146.211 48.525C141.01 45.6715 135.177 44.2445 128.706 44.2445C120.537 44.2445 113.489 47.2491 107.602 53.2278C101.78 59.1405 98.8731 66.4016 98.8731 74.9697C98.8731 84.4404 101.678 92.37 107.313 98.7161C113.314 105.423 121.17 108.747 130.855 108.747Z" fill="#001B94"/>
<path d="M170.837 45.5269V107.477H183.43V45.5269H170.837Z" fill="#001B94"/>
<path d="M177.128 39.9275C179.457 39.9275 181.335 39.2407 182.6 37.7961C183.918 36.369 184.568 34.5809 184.568 32.4854C184.568 30.5168 183.864 28.8187 182.473 27.4281C181.137 25.9105 179.331 25.1702 177.128 25.1702C174.852 25.1702 173.01 25.8564 171.656 27.3011C170.338 28.7105 169.687 30.4621 169.687 32.4854C169.687 34.5086 170.356 36.3149 171.656 37.7961C173.083 39.2231 174.943 39.9275 177.128 39.9275Z" fill="#001B94"/>
<path fill-rule="evenodd" clip-rule="evenodd" d="M324.247 108.747C333.084 108.747 340.668 105.707 346.995 99.6557C353.34 93.5801 356.5 85.7593 356.5 76.5049C356.5 67.2506 353.285 59.5498 346.869 53.4806C340.542 47.315 332.993 44.2445 324.247 44.2445C315.41 44.2445 307.825 47.3391 301.499 53.4806C295.244 59.5739 292.12 67.1601 292.12 76.5049C292.12 85.8492 295.281 93.5865 301.625 99.6557C307.952 105.713 315.41 108.747 324.247 108.747ZM324.247 56.2141C329.827 56.2141 334.384 58.0928 337.978 61.85H337.996C341.589 65.6066 343.395 70.4716 343.395 76.5049C343.395 82.5377 341.589 87.4027 337.996 91.1599C334.402 94.9172 329.827 96.7958 324.247 96.7958C318.667 96.7958 314.11 94.9172 310.516 91.1599C306.922 87.4027 305.116 82.6282 305.116 76.5049C305.116 70.3817 306.887 65.4984 310.39 61.85C313.965 58.0928 318.667 56.2141 324.247 56.2141Z" fill="#001B94"/>
<path d="M238.937 109C250.802 109 261.137 105.261 269.92 97.7771L269.914 97.7589C279.744 89.3895 284.656 78.2748 284.656 64.523V56.3164H239.882V68.7859H270.775C270.594 76.9924 267.38 83.7001 261.107 88.9203C255.051 93.9834 247.684 96.5124 238.919 96.5124C229.45 96.5124 221.577 93.2073 215.268 86.5536C208.96 79.9006 205.799 71.9351 205.799 62.6085C205.799 53.1913 208.941 45.19 215.268 38.5363C221.577 31.9015 229.432 28.5776 238.919 28.5776C244.409 28.5776 249.435 29.7883 253.986 32.1902C257.074 33.8342 261.432 37.0376 267.103 41.7697L267.609 42.203L276.535 32.5694L276.066 32.1002C270.269 26.2839 264.52 22.1597 258.814 19.739C253.101 17.2465 246.474 16 238.937 16C226.2 16 215.178 20.5698 205.889 29.6795C196.673 38.7174 192.068 49.7057 192.068 62.6267C192.068 75.5477 196.673 86.536 205.889 95.5733C215.178 104.52 226.2 109 238.937 109Z" fill="#001B94"/>
<path fill-rule="evenodd" clip-rule="evenodd" d="M1.5 123.477V1.53523H46.7252V31.9319C52.2899 29.4537 58.3679 28.2627 64.7177 28.2627C76.2807 28.2627 86.8109 32.2543 95.0968 40.5424M83.6863 51.7597C78.6423 46.7621 72.3214 44.2654 64.7298 44.2627C64.7258 44.2627 64.7217 44.2627 64.7177 44.2627C57.5597 44.2627 51.5412 46.438 46.7252 50.8226C46.3932 51.1248 46.067 51.4375 45.7465 51.7608L45.7431 51.7642C45.7132 51.7943 45.6834 51.8245 45.6537 51.8548C40.6826 56.9173 38.2086 63.4719 38.2074 71.423V71.4289V107.495H50.6739V71.423C50.6739 67.0645 52.0055 63.5057 54.6684 60.7072C54.7091 60.6645 54.7503 60.6217 54.7916 60.5793C57.6418 57.6559 60.7625 56.2112 64.7177 56.2083C64.7217 56.2083 64.7258 56.2083 64.7298 56.2083C68.6907 56.2083 71.9953 57.6529 74.6501 60.5611C74.7198 60.6327 74.7886 60.7048 74.8566 60.7774C77.4646 63.5636 78.7856 67.1099 78.7856 71.4048V107.477L78.7674 107.501H91.3727V71.4289C91.3727 71.4208 91.3727 71.4128 91.3727 71.4048C91.3688 65.2876 89.8682 59.9975 86.8684 55.578C86.0229 54.3323 85.0582 53.1558 83.9744 52.0494C83.9106 51.9843 83.8464 51.9194 83.7818 51.8548C83.75 51.823 83.7182 51.7913 83.6863 51.7597ZM107.373 118.992C114.403 122.868 122.353 124.747 130.855 124.747C139.556 124.747 147.695 122.71 154.837 118.525V123.477H199.43V111.19C210.736 120.29 224.086 125 238.937 125C254.48 125 268.526 119.986 280.297 109.955L285.488 105.532C286.993 107.52 288.683 109.417 290.561 111.213C290.562 111.215 290.564 111.216 290.565 111.218C299.846 120.1 311.257 124.747 324.247 124.747C337.179 124.747 348.732 120.135 358.054 111.219L358.061 111.212C367.81 101.876 372.5 89.7606 372.5 76.5049C372.5 63.1418 367.681 51.1861 357.95 41.9389C348.668 32.9326 337.15 28.2445 324.247 28.2445C312.065 28.2445 301.144 32.3863 292.171 40.3164H291.17L298.742 32.145L287.399 20.8056C287.395 20.8015 287.391 20.7974 287.386 20.7932C280.612 13.9984 273.225 8.48713 265.137 5.0415C257.05 1.52738 248.195 0 238.937 0C222.161 0 207.346 6.09986 195.247 17.7124C194.893 17.2881 194.523 16.8741 194.136 16.4711C189.675 11.6244 183.868 9.43891 178.211 9.19366V1.53523H133.618V28.4514C131.996 28.3129 130.358 28.2445 128.706 28.2445C116.185 28.2445 105.123 33.0138 96.3505 41.8503C95.9445 41.4084 95.5264 40.9722 95.0968 40.5424M104.944 56.2827C101.579 60.6913 99.6135 65.7446 99.046 71.4289C98.9307 72.5832 98.8731 73.7635 98.8731 74.9697C98.8731 75.441 98.88 75.9084 98.8939 76.3721C99.1592 85.2257 101.958 92.6858 107.313 98.7161C107.333 98.7385 107.353 98.7608 107.373 98.7831C107.565 98.9969 107.759 99.2073 107.955 99.4141C108.016 99.4781 108.077 99.5417 108.138 99.6049C114.028 105.717 121.608 108.747 130.855 108.747C130.859 108.747 130.863 108.747 130.867 108.747C140.023 108.744 147.556 105.619 153.368 99.3664H153.375C153.482 99.251 153.589 99.135 153.694 99.0183C153.729 98.9798 153.764 98.9411 153.798 98.9024C154.156 98.5031 154.503 98.0964 154.837 97.6825C156.668 95.4195 158.155 92.9397 159.302 90.2452C161.245 85.6809 162.211 80.5008 162.211 74.7163V17.5352H149.618V72.6877C149.618 73.3789 149.604 74.0551 149.577 74.7163C149.451 77.7029 149.043 80.385 148.358 82.7673C148.3 82.9692 148.24 83.1689 148.178 83.3664C147.272 86.2568 145.942 88.687 144.201 90.666C144.176 90.6948 144.151 90.7235 144.126 90.7521C144.123 90.7563 144.119 90.7606 144.115 90.7649C140.625 94.7814 136.205 96.7893 130.867 96.7893C130.863 96.7893 130.859 96.7893 130.855 96.7893C125.1 96.7867 120.421 94.8904 116.757 91.154C116.616 91.0038 116.478 90.852 116.343 90.6987C116.332 90.6871 116.322 90.6754 116.312 90.6638C113.014 86.9146 111.358 82.2375 111.358 76.3721C111.358 75.8971 111.368 75.4296 111.39 74.9697C111.637 69.6129 113.328 65.2796 116.435 61.9256L116.435 61.9249C116.5 61.8552 116.565 61.7859 116.631 61.7171C119.729 58.4583 123.744 56.6407 128.706 56.2766C129.314 56.232 129.936 56.2092 130.572 56.2083C130.586 56.2083 130.6 56.2083 130.614 56.2083C131.577 56.2083 132.577 56.3015 133.618 56.4908C135.044 56.7501 136.546 57.1894 138.133 57.8158C138.981 58.1177 139.795 58.4358 140.574 58.7709C140.578 58.7727 140.582 58.7744 140.586 58.7762C140.71 58.8293 140.832 58.8827 140.954 58.9367C142.632 59.6816 144.145 60.5089 145.489 61.4284L146.572 62.1687V48.7238L146.211 48.5251C145.006 47.8638 143.766 47.279 142.493 46.7709C142.368 46.721 142.242 46.6717 142.117 46.6233C139.434 45.5899 136.601 44.8932 133.618 44.5331C132.633 44.4143 131.632 44.3321 130.614 44.2867C129.985 44.2586 129.349 44.2445 128.706 44.2445C120.57 44.2445 113.545 47.2252 107.672 53.1565C107.664 53.1642 107.657 53.1718 107.649 53.1795C107.633 53.1955 107.617 53.2116 107.602 53.2278C106.635 54.209 105.75 55.2274 104.944 56.2827ZM170.837 107.477H183.43V45.5269H170.837V107.477ZM193.961 49.0744C192.701 53.3211 192.07 57.8327 192.068 62.6085C192.068 62.6146 192.068 62.6206 192.068 62.6267C192.068 72.0574 194.522 80.4586 199.43 87.823C201.231 90.5244 203.362 93.0863 205.823 95.5084C205.845 95.5299 205.868 95.5518 205.889 95.5733C215.173 104.516 226.189 108.996 238.919 109C238.925 109 238.931 109 238.937 109C250.42 109 260.472 105.497 269.069 98.4867C269.076 98.4808 269.083 98.4748 269.091 98.4689C269.369 98.242 269.645 98.0114 269.92 97.7771L269.914 97.7589C272.966 95.16 275.545 92.2963 277.649 89.1712C280.228 85.3401 282.096 81.116 283.251 76.5049C283.592 75.1425 283.871 73.7463 284.088 72.3164C284.249 71.2583 284.375 70.1819 284.468 69.087C284.593 67.5995 284.656 66.0781 284.656 64.523V56.3164H239.882V68.7859H270.775C270.748 69.9953 270.656 71.1721 270.497 72.3164C269.846 77.0218 268.079 81.1775 265.191 84.7859C264.207 86.0157 263.092 87.182 261.847 88.2847C261.844 88.2874 261.841 88.2901 261.838 88.2928C261.599 88.5043 261.356 88.7134 261.107 88.9203C258.306 91.2623 255.224 93.062 251.853 94.3201C247.942 95.78 243.64 96.5105 238.937 96.5124C238.931 96.5124 238.925 96.5124 238.919 96.5124C229.45 96.5124 221.577 93.2073 215.268 86.5536C215.18 86.4612 215.093 86.3685 215.007 86.2756C214.98 86.2471 214.954 86.2186 214.928 86.1901C208.85 79.6153 205.803 71.7763 205.799 62.6267C205.799 62.6206 205.799 62.6146 205.799 62.6085C205.799 53.361 208.829 45.4788 214.929 38.8973C215.041 38.7767 215.154 38.6561 215.268 38.5363C221.577 31.9015 229.432 28.5776 238.919 28.5776C238.925 28.5776 238.931 28.5776 238.937 28.5776C244.222 28.5802 249.077 29.7051 253.492 31.9352C253.533 31.9557 253.573 31.9763 253.614 31.997C253.738 32.0605 253.862 32.1249 253.986 32.1902C256.747 33.6599 260.523 36.376 265.344 40.3164C265.787 40.6788 266.239 41.0515 266.7 41.4345C266.707 41.4397 266.713 41.445 266.719 41.4502C266.846 41.5559 266.974 41.6624 267.103 41.7697L267.608 42.2029L276.535 32.5694L276.066 32.1002C275.944 31.9777 275.822 31.8559 275.7 31.7349C275.659 31.6946 275.618 31.6543 275.578 31.6142C274.041 30.0968 272.508 28.6984 270.977 27.4193C268.675 25.4949 266.381 23.8405 264.093 22.4567C262.815 21.6839 261.54 20.9956 260.267 20.3917C260.253 20.385 260.238 20.3782 260.224 20.3714C259.754 20.1491 259.284 19.9383 258.814 19.739C253.101 17.2465 246.474 16 238.937 16C238.931 16 238.925 16 238.919 16C226.204 16.0043 215.198 20.5637 205.921 29.6485C205.911 29.6588 205.9 29.6693 205.889 29.6795C203.785 31.7429 201.922 33.908 200.298 36.1745C200.001 36.5897 199.712 37.0082 199.43 37.4302C197.716 40.0027 196.301 42.7017 195.185 45.5269C194.861 46.3485 194.562 47.1809 194.288 48.0238C194.24 48.1701 194.194 48.3168 194.148 48.4637C194.084 48.6667 194.022 48.8702 193.961 49.0744ZM185.087 29.5269C184.724 28.6379 184.229 27.866 183.681 27.2414L182.918 27.9109C182.779 27.7461 182.63 27.5851 182.473 27.4281C182.403 27.3484 182.332 27.2709 182.259 27.1955L182.971 26.4836C182.115 25.627 181.05 24.9271 179.879 24.4742C179.266 24.2372 178.701 24.0971 178.211 24.0181V25.2339C177.862 25.1914 177.5 25.1702 177.128 25.1702C174.852 25.1702 173.01 25.8564 171.656 27.3011C171.591 27.3704 171.528 27.4405 171.466 27.5114C171.377 27.6149 171.29 27.7201 171.207 27.827C170.799 28.3531 170.474 28.9208 170.23 29.5269C169.868 30.431 169.687 31.4205 169.687 32.4854C169.687 34.0283 170.076 35.4451 170.837 36.6877C170.967 36.8987 171.107 37.1048 171.257 37.3055C171.383 37.4727 171.516 37.6363 171.656 37.7961C171.731 37.8713 171.808 37.9446 171.885 38.0159C173.28 39.2955 175.058 39.9275 177.128 39.9275C177.501 39.9275 177.862 39.9099 178.211 39.8744C179.018 39.7924 179.76 39.6147 180.428 39.3379C181.276 38.9864 182.006 38.4749 182.6 37.7961C182.639 37.7539 182.677 37.7115 182.715 37.6688C182.718 37.6644 182.722 37.66 182.726 37.6555C182.989 37.3562 183.224 37.0416 183.43 36.7122C184.191 35.4971 184.568 34.0803 184.568 32.4854C184.568 32.0385 184.532 31.6056 184.459 31.1871C184.359 30.6056 184.189 30.0518 183.949 29.5269H185.087ZM223.882 53.604C222.484 56.1927 221.799 59.1058 221.799 62.6085C221.799 66.0186 222.477 68.8964 223.882 71.4857V53.604ZM298.953 102.219L301.537 99.7482L301.625 99.6557L301.538 99.7474L301.629 99.6596L301.53 99.7554L299.064 102.334L299.063 102.333L301.529 99.7563L298.953 102.219ZM300.656 54.3305C300.038 54.9762 299.453 55.6381 298.902 56.3164C296.866 58.8224 295.289 61.5529 294.17 64.523C292.803 68.1506 292.12 72.1355 292.12 76.5049C292.12 81.7503 293.116 86.4894 295.112 90.7112M300.656 54.3305C300.93 54.044 301.211 53.7607 301.499 53.4806C301.515 53.4651 301.531 53.4497 301.547 53.4343C301.56 53.4216 301.573 53.409 301.586 53.3963C307.895 47.3108 315.451 44.2445 324.247 44.2445C329.211 44.2445 333.79 45.2336 337.978 47.2164C337.984 47.2192 337.99 47.2221 337.996 47.2249C341.152 48.722 344.087 50.7839 346.799 53.4126C346.801 53.4153 346.804 53.4179 346.807 53.4206C346.828 53.4405 346.848 53.4605 346.869 53.4806C353.285 59.5498 356.5 67.2506 356.5 76.5049C356.5 85.7593 353.34 93.5801 346.995 99.6557C346.976 99.6743 346.956 99.6929 346.937 99.7114M337.996 91.1599C338.14 91.0089 338.282 90.856 338.42 90.7014C338.422 90.6995 338.424 90.6976 338.426 90.6957C341.733 87.0048 343.395 82.2921 343.395 76.5049C343.395 70.7421 341.748 66.0452 338.468 62.362C338.428 62.3165 338.387 62.2712 338.346 62.226C338.231 62.0994 338.114 61.9741 337.996 61.85H337.978C334.384 58.0928 329.827 56.2141 324.247 56.2141C318.667 56.2141 313.965 58.0928 310.39 61.85C310.268 61.9774 310.147 62.1062 310.029 62.2366C310.024 62.242 310.019 62.2474 310.015 62.2528C306.76 65.8551 305.116 70.6043 305.116 76.5049C305.116 82.4104 306.796 87.0613 310.139 90.7551L310.143 90.7587C310.265 90.8937 310.389 91.0274 310.516 91.1599C314.11 94.9172 318.667 96.7958 324.247 96.7958C329.827 96.7958 334.402 94.9172 337.996 91.1599ZM326.643 73.148L326.415 72.9095C326.076 72.5542 325.878 72.4645 325.776 72.4224C325.65 72.3707 325.216 72.2141 324.247 72.2141C323.267 72.2141 322.766 72.3747 322.572 72.4535C322.405 72.521 322.229 72.6181 321.98 72.8801L321.956 72.906L321.931 72.9318C321.928 72.9351 321.923 72.9391 321.919 72.944C321.792 73.07 321.116 73.74 321.116 76.5049C321.116 79.0964 321.721 79.7269 322.063 80.0843L322.079 80.1004C322.418 80.4552 322.615 80.5454 322.718 80.5875C322.844 80.6392 323.278 80.7958 324.247 80.7958C325.217 80.7958 325.66 80.6387 325.795 80.5833C325.907 80.5377 326.103 80.4461 326.433 80.1009C326.75 79.7695 327.395 79.0825 327.395 76.5049C327.395 74.4168 326.972 73.5699 326.643 73.148ZM298.953 102.219C298.99 102.257 299.026 102.295 299.063 102.333L298.953 102.219ZM107.373 118.992V123.501H46.6072L46.6116 123.495H22.2074V123.477H1.5M30.7252 107.477H17.5V17.5352H30.7252V107.477Z" fill="#001B94"/>
<path d="M0 123L95.5 39.5L108.5 120.5L0 123Z" fill="#001B94"/>
<path d="M355.5 80.5C355.5 95.1355 343.636 107 329 107C314.364 107 302.5 95.1355 302.5 80.5C302.5 65.8645 314.364 54 329 54C343.636 54 355.5 65.8645 355.5 80.5Z" fill="#001B94"/>
<path d="M263.5 66.5C263.5 81.1355 251.636 93 237 93C222.364 93 210.5 81.1355 210.5 66.5C210.5 51.8645 222.364 40 237 40C251.636 40 263.5 51.8645 263.5 66.5Z" fill="#001B94"/>
<path d="M202.5 42.5C202.5 57.1355 190.636 69 176 69C161.364 69 149.5 57.1355 149.5 42.5C149.5 27.8645 161.364 16 176 16C190.636 16 202.5 27.8645 202.5 42.5Z" fill="#001B94"/>
<path d="M16.5 17.5352V107.477H29.7252V17.5352H16.5Z" fill="white"/>
<path d="M77.7856 71.4048V107.477L77.7674 107.501H90.3727V71.4289C90.3727 63.4752 87.8443 56.9185 82.7818 51.8548C77.7195 46.7911 71.3627 44.2627 63.7177 44.2627C56.0186 44.2627 49.6378 46.7793 44.6537 51.8548C39.6813 56.9185 37.2074 63.4752 37.2074 71.4289V107.495H49.6739V71.423C49.6739 66.9978 51.0466 63.397 53.7916 60.5793C56.6447 57.6529 59.7688 56.2083 63.7298 56.2083C67.6907 56.2083 70.9953 57.6529 73.6501 60.5611C76.395 63.3793 77.7856 66.9978 77.7856 71.4048Z" fill="white"/>
<path d="M129.855 108.747C139.017 108.747 146.553 105.622 152.368 99.3664H152.375C158.286 93.0203 161.211 84.7838 161.211 74.7163V17.5352H148.618V72.6877C148.618 80.635 146.776 86.6019 143.201 90.666C139.697 94.7484 135.249 96.7893 129.867 96.7893C124.107 96.7893 119.423 94.893 115.757 91.154C112.163 87.3245 110.358 82.4959 110.358 76.3721C110.358 70.2488 112.127 65.3838 115.631 61.7171C119.116 58.0504 123.763 56.2083 129.614 56.2083C131.896 56.2083 134.388 56.7321 137.133 57.8158C139.974 58.8271 142.43 60.0196 144.489 61.4284L145.572 62.1687V48.7238L145.211 48.525C140.01 45.6715 134.177 44.2445 127.706 44.2445C119.537 44.2445 112.489 47.2491 106.602 53.2278C100.78 59.1405 97.8731 66.4016 97.8731 74.9697C97.8731 84.4404 100.678 92.37 106.313 98.7161C112.314 105.423 120.17 108.747 129.855 108.747Z" fill="white"/>
<path d="M169.837 45.5269V107.477H182.43V45.5269H169.837Z" fill="white"/>
<path d="M176.128 39.9275C178.457 39.9275 180.335 39.2407 181.6 37.7961C182.918 36.369 183.568 34.5809 183.568 32.4854C183.568 30.5168 182.864 28.8187 181.473 27.4281C180.137 25.9105 178.331 25.1702 176.128 25.1702C173.852 25.1702 172.01 25.8564 170.656 27.3011C169.338 28.7105 168.687 30.4621 168.687 32.4854C168.687 34.5086 169.356 36.3149 170.656 37.7961C172.083 39.2231 173.943 39.9275 176.128 39.9275Z" fill="white"/>
<path fill-rule="evenodd" clip-rule="evenodd" d="M323.247 108.747C332.084 108.747 339.668 105.707 345.995 99.6557C352.34 93.5801 355.5 85.7593 355.5 76.5049C355.5 67.2506 352.285 59.5498 345.869 53.4806C339.542 47.315 331.993 44.2445 323.247 44.2445C314.41 44.2445 306.825 47.3391 300.499 53.4806C294.244 59.5739 291.12 67.1601 291.12 76.5049C291.12 85.8492 294.281 93.5865 300.625 99.6557C306.952 105.713 314.41 108.747 323.247 108.747ZM323.247 56.2141C328.827 56.2141 333.384 58.0928 336.978 61.85H336.996C340.589 65.6066 342.395 70.4716 342.395 76.5049C342.395 82.5377 340.589 87.4027 336.996 91.1599C333.402 94.9172 328.827 96.7958 323.247 96.7958C317.667 96.7958 313.11 94.9172 309.516 91.1599C305.922 87.4027 304.116 82.6282 304.116 76.5049C304.116 70.3817 305.887 65.4984 309.39 61.85C312.965 58.0928 317.667 56.2141 323.247 56.2141Z" fill="white"/>
<path d="M237.937 109C249.802 109 260.137 105.261 268.92 97.7771L268.914 97.7589C278.744 89.3895 283.656 78.2748 283.656 64.523V56.3164H238.882V68.7859H269.775C269.594 76.9924 266.38 83.7001 260.107 88.9203C254.051 93.9834 246.684 96.5124 237.919 96.5124C228.45 96.5124 220.577 93.2073 214.268 86.5536C207.96 79.9006 204.799 71.9351 204.799 62.6085C204.799 53.1913 207.941 45.19 214.268 38.5363C220.577 31.9015 228.432 28.5776 237.919 28.5776C243.409 28.5776 248.435 29.7883 252.986 32.1902C256.074 33.8342 260.432 37.0376 266.103 41.7697L266.609 42.203L275.535 32.5694L275.066 32.1002C269.269 26.2839 263.52 22.1597 257.814 19.739C252.101 17.2465 245.474 16 237.937 16C225.2 16 214.178 20.5698 204.889 29.6795C195.673 38.7174 191.068 49.7057 191.068 62.6267C191.068 75.5477 195.673 86.536 204.889 95.5733C214.178 104.52 225.2 109 237.937 109Z" fill="white"/>
</svg>
