<svg width="650" height="916" viewBox="0 0 650 916" fill="none" xmlns="http://www.w3.org/2000/svg">
<path d="M351.35 244.65C352.217 245.518 352.217 246.922 351.35 247.789C350.482 248.656 349.078 248.656 348.211 247.789C347.344 246.922 347.344 245.518 348.211 244.65C349.078 243.783 350.482 243.783 351.35 244.65Z" fill="#E0FFCB"/>
<path d="M346.118 253.014C346.985 252.147 346.985 250.743 346.118 249.876C345.251 249.008 343.849 249.008 342.979 249.876C342.112 250.743 342.112 252.147 342.979 253.014C343.846 253.882 345.251 253.882 346.118 253.014Z" fill="#E0FFCB"/>
<path d="M324.53 258.892C325.754 258.892 326.747 257.899 326.747 256.675C326.747 255.45 325.754 254.457 324.53 254.457C323.305 254.457 322.313 255.45 322.313 256.675C322.313 257.899 323.305 258.892 324.53 258.892Z" fill="#E0FFCB"/>
<path d="M331.929 258.892C333.153 258.892 334.146 257.899 334.146 256.675C334.146 255.45 333.153 254.457 331.929 254.457C330.704 254.457 329.712 255.45 329.712 256.675C329.712 257.899 330.704 258.892 331.929 258.892Z" fill="#E0FFCB"/>
<path d="M339.321 266.288C340.546 266.288 341.538 265.296 341.538 264.071C341.538 262.847 340.546 261.854 339.321 261.854C338.097 261.854 337.104 262.847 337.104 264.071C337.104 265.296 338.097 266.288 339.321 266.288Z" fill="#E0FFCB"/>
<path d="M341.538 256.675C341.538 257.899 340.546 258.892 339.321 258.892C338.097 258.892 337.104 257.899 337.104 256.675C337.104 255.45 338.097 254.457 339.321 254.457C340.546 254.457 341.538 255.45 341.538 256.675Z" fill="#E0FFCB"/>
<path d="M319.35 256.675C319.35 257.899 318.358 258.892 317.133 258.892C315.909 258.892 314.916 257.899 314.916 256.675C314.916 255.45 315.909 254.457 317.133 254.457C318.358 254.457 319.35 255.45 319.35 256.675Z" fill="#E0FFCB"/>
<path d="M309.741 258.892C310.965 258.892 311.958 257.899 311.958 256.675C311.958 255.45 310.965 254.457 309.741 254.457C308.517 254.457 307.524 255.45 307.524 256.675C307.524 257.899 308.517 258.892 309.741 258.892Z" fill="#E0FFCB"/>
<path d="M341.538 271.47C341.538 272.694 340.546 273.687 339.321 273.687C338.097 273.687 337.104 272.694 337.104 271.47C337.104 270.246 338.097 269.253 339.321 269.253C340.546 269.253 341.538 270.246 341.538 271.47Z" fill="#E0FFCB"/>
<path d="M311.006 294.603C312.23 294.603 313.223 293.611 313.223 292.386C313.223 291.162 312.23 290.169 311.006 290.169C309.782 290.169 308.789 291.162 308.789 292.386C308.789 293.611 309.782 294.603 311.006 294.603Z" fill="#E0FFCB"/>
<path d="M305.833 284.987C305.833 286.212 304.84 287.204 303.616 287.204C302.391 287.204 301.399 286.212 301.399 284.987C301.399 283.763 302.391 282.77 303.616 282.77C304.84 282.77 305.833 283.763 305.833 284.987Z" fill="#E0FFCB"/>
<path d="M311.006 287.204C312.23 287.204 313.223 286.212 313.223 284.987C313.223 283.763 312.23 282.77 311.006 282.77C309.782 282.77 308.789 283.763 308.789 284.987C308.789 286.212 309.782 287.204 311.006 287.204Z" fill="#E0FFCB"/>
<path d="M298.434 284.987C298.434 286.212 297.442 287.204 296.217 287.204C294.993 287.204 294 286.212 294 284.987C294 283.763 294.993 282.77 296.217 282.77C297.442 282.77 298.434 283.763 298.434 284.987Z" fill="#E0FFCB"/>
<path d="M311.006 302C312.23 302 313.223 301.007 313.223 299.783C313.223 298.558 312.23 297.566 311.006 297.566C309.782 297.566 308.789 298.558 308.789 299.783C308.789 301.007 309.782 302 311.006 302Z" fill="#E0FFCB"/>
<path d="M341.538 278.862C341.538 280.087 340.546 281.079 339.321 281.079C338.097 281.079 337.104 280.087 337.104 278.862C337.104 277.638 338.097 276.645 339.321 276.645C340.546 276.645 341.538 277.638 341.538 278.862Z" fill="#E0FFCB"/>
<path d="M339.321 284.042C340.547 284.042 341.538 285.033 341.538 286.259C341.538 287.485 340.547 288.476 339.321 288.476C338.095 288.476 337.104 287.485 337.104 286.259C337.104 285.033 338.093 284.042 339.321 284.042Z" fill="#E0FFCB"/>
<path d="M323.682 274.53C323.682 275.755 322.69 276.747 321.465 276.747C320.241 276.747 319.248 275.755 319.248 274.53C319.248 273.306 320.241 272.313 321.465 272.313C322.69 272.313 323.682 273.306 323.682 274.53Z" fill="#E0FFCB"/>
<path d="M328.269 267.732C329.136 268.599 329.136 270.003 328.269 270.87C327.401 271.737 325.997 271.737 325.13 270.87C324.263 270.003 324.263 268.599 325.13 267.732C325.999 266.864 327.401 266.864 328.269 267.732Z" fill="#E0FFCB"/>
<path d="M333.494 265.638C334.361 264.771 334.361 263.367 333.494 262.5C332.626 261.632 331.225 261.632 330.355 262.5C329.488 263.367 329.488 264.771 330.355 265.638C331.222 266.506 332.626 266.506 333.494 265.638Z" fill="#E0FFCB"/>
<path d="M317.805 278.189C318.672 279.056 318.672 280.46 317.805 281.327C316.938 282.194 315.533 282.194 314.666 281.327C313.799 280.46 313.799 279.056 314.666 278.189C315.533 277.321 316.938 277.321 317.805 278.189Z" fill="#E0FFCB"/>
<path d="M635.35 308.65C636.217 309.518 636.217 310.922 635.35 311.789C634.482 312.656 633.078 312.656 632.211 311.789C631.344 310.922 631.344 309.518 632.211 308.65C633.078 307.783 634.482 307.783 635.35 308.65Z" fill="#E0FFCB"/>
<path d="M630.118 317.014C630.985 316.147 630.985 314.743 630.118 313.876C629.251 313.008 627.849 313.008 626.979 313.876C626.112 314.743 626.112 316.147 626.979 317.014C627.846 317.882 629.251 317.882 630.118 317.014Z" fill="#E0FFCB"/>
<path d="M608.53 322.892C609.754 322.892 610.747 321.899 610.747 320.675C610.747 319.45 609.754 318.457 608.53 318.457C607.305 318.457 606.313 319.45 606.313 320.675C606.313 321.899 607.305 322.892 608.53 322.892Z" fill="#E0FFCB"/>
<path d="M615.929 322.892C617.153 322.892 618.146 321.899 618.146 320.675C618.146 319.45 617.153 318.457 615.929 318.457C614.704 318.457 613.712 319.45 613.712 320.675C613.712 321.899 614.704 322.892 615.929 322.892Z" fill="#E0FFCB"/>
<path d="M623.321 330.288C624.546 330.288 625.538 329.296 625.538 328.071C625.538 326.847 624.546 325.854 623.321 325.854C622.097 325.854 621.104 326.847 621.104 328.071C621.104 329.296 622.097 330.288 623.321 330.288Z" fill="#E0FFCB"/>
<path d="M625.538 320.675C625.538 321.899 624.546 322.892 623.321 322.892C622.097 322.892 621.104 321.899 621.104 320.675C621.104 319.45 622.097 318.457 623.321 318.457C624.546 318.457 625.538 319.45 625.538 320.675Z" fill="#E0FFCB"/>
<path d="M603.35 320.675C603.35 321.899 602.358 322.892 601.133 322.892C599.909 322.892 598.916 321.899 598.916 320.675C598.916 319.45 599.909 318.457 601.133 318.457C602.358 318.457 603.35 319.45 603.35 320.675Z" fill="#E0FFCB"/>
<path d="M593.741 322.892C594.965 322.892 595.958 321.899 595.958 320.675C595.958 319.45 594.965 318.457 593.741 318.457C592.517 318.457 591.524 319.45 591.524 320.675C591.524 321.899 592.517 322.892 593.741 322.892Z" fill="#E0FFCB"/>
<path d="M625.538 335.47C625.538 336.694 624.546 337.687 623.321 337.687C622.097 337.687 621.104 336.694 621.104 335.47C621.104 334.246 622.097 333.253 623.321 333.253C624.546 333.253 625.538 334.246 625.538 335.47Z" fill="#E0FFCB"/>
<path d="M595.006 358.603C596.23 358.603 597.223 357.611 597.223 356.386C597.223 355.162 596.23 354.169 595.006 354.169C593.782 354.169 592.789 355.162 592.789 356.386C592.789 357.611 593.782 358.603 595.006 358.603Z" fill="#E0FFCB"/>
<path d="M589.833 348.987C589.833 350.212 588.84 351.204 587.616 351.204C586.391 351.204 585.399 350.212 585.399 348.987C585.399 347.763 586.391 346.77 587.616 346.77C588.84 346.77 589.833 347.763 589.833 348.987Z" fill="#E0FFCB"/>
<path d="M595.006 351.204C596.23 351.204 597.223 350.212 597.223 348.987C597.223 347.763 596.23 346.77 595.006 346.77C593.782 346.77 592.789 347.763 592.789 348.987C592.789 350.212 593.782 351.204 595.006 351.204Z" fill="#E0FFCB"/>
<path d="M582.434 348.987C582.434 350.212 581.442 351.204 580.217 351.204C578.993 351.204 578 350.212 578 348.987C578 347.763 578.993 346.77 580.217 346.77C581.442 346.77 582.434 347.763 582.434 348.987Z" fill="#E0FFCB"/>
<path d="M595.006 366C596.23 366 597.223 365.007 597.223 363.783C597.223 362.558 596.23 361.566 595.006 361.566C593.782 361.566 592.789 362.558 592.789 363.783C592.789 365.007 593.782 366 595.006 366Z" fill="#E0FFCB"/>
<path d="M625.538 342.862C625.538 344.087 624.546 345.079 623.321 345.079C622.097 345.079 621.104 344.087 621.104 342.862C621.104 341.638 622.097 340.645 623.321 340.645C624.546 340.645 625.538 341.638 625.538 342.862Z" fill="#E0FFCB"/>
<path d="M623.321 348.042C624.547 348.042 625.538 349.033 625.538 350.259C625.538 351.485 624.547 352.476 623.321 352.476C622.095 352.476 621.104 351.485 621.104 350.259C621.104 349.033 622.093 348.042 623.321 348.042Z" fill="#E0FFCB"/>
<path d="M607.682 338.53C607.682 339.755 606.69 340.747 605.465 340.747C604.241 340.747 603.248 339.755 603.248 338.53C603.248 337.306 604.241 336.313 605.465 336.313C606.69 336.313 607.682 337.306 607.682 338.53Z" fill="#E0FFCB"/>
<path d="M612.269 331.732C613.136 332.599 613.136 334.003 612.269 334.87C611.401 335.737 609.997 335.737 609.13 334.87C608.263 334.003 608.263 332.599 609.13 331.732C609.999 330.864 611.401 330.864 612.269 331.732Z" fill="#E0FFCB"/>
<path d="M617.494 329.638C618.361 328.771 618.361 327.367 617.494 326.5C616.626 325.632 615.225 325.632 614.355 326.5C613.488 327.367 613.488 328.771 614.355 329.638C615.222 330.506 616.626 330.506 617.494 329.638Z" fill="#E0FFCB"/>
<path d="M601.805 342.189C602.672 343.056 602.672 344.46 601.805 345.327C600.938 346.194 599.533 346.194 598.666 345.327C597.799 344.46 597.799 343.056 598.666 342.189C599.533 341.321 600.938 341.321 601.805 342.189Z" fill="#E0FFCB"/>
<path d="M412.35 329.65C413.217 330.518 413.217 331.922 412.35 332.789C411.482 333.656 410.078 333.656 409.211 332.789C408.344 331.922 408.344 330.518 409.211 329.65C410.078 328.783 411.482 328.783 412.35 329.65Z" fill="#FFD2BF"/>
<path d="M407.118 338.014C407.985 337.147 407.985 335.743 407.118 334.876C406.251 334.008 404.849 334.008 403.979 334.876C403.112 335.743 403.112 337.147 403.979 338.014C404.846 338.882 406.251 338.882 407.118 338.014Z" fill="#FFD2BF"/>
<path d="M385.53 343.892C386.754 343.892 387.747 342.899 387.747 341.675C387.747 340.45 386.754 339.457 385.53 339.457C384.305 339.457 383.313 340.45 383.313 341.675C383.313 342.899 384.305 343.892 385.53 343.892Z" fill="#FFD2BF"/>
<path d="M392.929 343.892C394.153 343.892 395.146 342.899 395.146 341.675C395.146 340.45 394.153 339.457 392.929 339.457C391.704 339.457 390.712 340.45 390.712 341.675C390.712 342.899 391.704 343.892 392.929 343.892Z" fill="#FFD2BF"/>
<path d="M400.321 351.288C401.546 351.288 402.538 350.296 402.538 349.071C402.538 347.847 401.546 346.854 400.321 346.854C399.097 346.854 398.104 347.847 398.104 349.071C398.104 350.296 399.097 351.288 400.321 351.288Z" fill="#FFD2BF"/>
<path d="M402.538 341.675C402.538 342.899 401.546 343.892 400.321 343.892C399.097 343.892 398.104 342.899 398.104 341.675C398.104 340.45 399.097 339.457 400.321 339.457C401.546 339.457 402.538 340.45 402.538 341.675Z" fill="#FFD2BF"/>
<path d="M380.35 341.675C380.35 342.899 379.358 343.892 378.133 343.892C376.909 343.892 375.916 342.899 375.916 341.675C375.916 340.45 376.909 339.457 378.133 339.457C379.358 339.457 380.35 340.45 380.35 341.675Z" fill="#FFD2BF"/>
<path d="M370.741 343.892C371.965 343.892 372.958 342.899 372.958 341.675C372.958 340.45 371.965 339.457 370.741 339.457C369.517 339.457 368.524 340.45 368.524 341.675C368.524 342.899 369.517 343.892 370.741 343.892Z" fill="#FFD2BF"/>
<path d="M402.538 356.47C402.538 357.694 401.546 358.687 400.321 358.687C399.097 358.687 398.104 357.694 398.104 356.47C398.104 355.246 399.097 354.253 400.321 354.253C401.546 354.253 402.538 355.246 402.538 356.47Z" fill="#FFD2BF"/>
<path d="M372.006 379.603C373.23 379.603 374.223 378.611 374.223 377.386C374.223 376.162 373.23 375.169 372.006 375.169C370.782 375.169 369.789 376.162 369.789 377.386C369.789 378.611 370.782 379.603 372.006 379.603Z" fill="#FFD2BF"/>
<path d="M366.833 369.987C366.833 371.212 365.84 372.204 364.616 372.204C363.391 372.204 362.399 371.212 362.399 369.987C362.399 368.763 363.391 367.77 364.616 367.77C365.84 367.77 366.833 368.763 366.833 369.987Z" fill="#FFD2BF"/>
<path d="M372.006 372.204C373.23 372.204 374.223 371.212 374.223 369.987C374.223 368.763 373.23 367.77 372.006 367.77C370.782 367.77 369.789 368.763 369.789 369.987C369.789 371.212 370.782 372.204 372.006 372.204Z" fill="#FFD2BF"/>
<path d="M359.434 369.987C359.434 371.212 358.442 372.204 357.217 372.204C355.993 372.204 355 371.212 355 369.987C355 368.763 355.993 367.77 357.217 367.77C358.442 367.77 359.434 368.763 359.434 369.987Z" fill="#FFD2BF"/>
<path d="M372.006 387C373.23 387 374.223 386.007 374.223 384.783C374.223 383.558 373.23 382.566 372.006 382.566C370.782 382.566 369.789 383.558 369.789 384.783C369.789 386.007 370.782 387 372.006 387Z" fill="#FFD2BF"/>
<path d="M402.538 363.862C402.538 365.087 401.546 366.079 400.321 366.079C399.097 366.079 398.104 365.087 398.104 363.862C398.104 362.638 399.097 361.645 400.321 361.645C401.546 361.645 402.538 362.638 402.538 363.862Z" fill="#FFD2BF"/>
<path d="M400.321 369.042C401.547 369.042 402.538 370.033 402.538 371.259C402.538 372.485 401.547 373.476 400.321 373.476C399.095 373.476 398.104 372.485 398.104 371.259C398.104 370.033 399.093 369.042 400.321 369.042Z" fill="#FFD2BF"/>
<path d="M384.682 359.53C384.682 360.755 383.69 361.747 382.465 361.747C381.241 361.747 380.248 360.755 380.248 359.53C380.248 358.306 381.241 357.313 382.465 357.313C383.69 357.313 384.682 358.306 384.682 359.53Z" fill="#FFD2BF"/>
<path d="M389.269 352.732C390.136 353.599 390.136 355.003 389.269 355.87C388.401 356.737 386.997 356.737 386.13 355.87C385.263 355.003 385.263 353.599 386.13 352.732C386.999 351.864 388.401 351.864 389.269 352.732Z" fill="#FFD2BF"/>
<path d="M394.494 350.638C395.361 349.771 395.361 348.367 394.494 347.5C393.626 346.632 392.225 346.632 391.355 347.5C390.488 348.367 390.488 349.771 391.355 350.638C392.222 351.506 393.626 351.506 394.494 350.638Z" fill="#FFD2BF"/>
<path d="M378.805 363.189C379.672 364.056 379.672 365.46 378.805 366.327C377.938 367.194 376.533 367.194 375.666 366.327C374.799 365.46 374.799 364.056 375.666 363.189C376.533 362.321 377.938 362.321 378.805 363.189Z" fill="#FFD2BF"/>
<path d="M316.35 345.65C317.217 346.518 317.217 347.922 316.35 348.789C315.482 349.656 314.078 349.656 313.211 348.789C312.344 347.922 312.344 346.518 313.211 345.65C314.078 344.783 315.482 344.783 316.35 345.65Z" fill="#C4DFFF"/>
<path d="M311.118 354.014C311.985 353.147 311.985 351.743 311.118 350.876C310.251 350.008 308.849 350.008 307.979 350.876C307.112 351.743 307.112 353.147 307.979 354.014C308.846 354.882 310.251 354.882 311.118 354.014Z" fill="#C4DFFF"/>
<path d="M289.53 359.892C290.754 359.892 291.747 358.899 291.747 357.675C291.747 356.45 290.754 355.457 289.53 355.457C288.305 355.457 287.313 356.45 287.313 357.675C287.313 358.899 288.305 359.892 289.53 359.892Z" fill="#C4DFFF"/>
<path d="M296.929 359.892C298.153 359.892 299.146 358.899 299.146 357.675C299.146 356.45 298.153 355.457 296.929 355.457C295.704 355.457 294.712 356.45 294.712 357.675C294.712 358.899 295.704 359.892 296.929 359.892Z" fill="#C4DFFF"/>
<path d="M304.321 367.288C305.546 367.288 306.538 366.296 306.538 365.071C306.538 363.847 305.546 362.854 304.321 362.854C303.097 362.854 302.104 363.847 302.104 365.071C302.104 366.296 303.097 367.288 304.321 367.288Z" fill="#C4DFFF"/>
<path d="M306.538 357.675C306.538 358.899 305.546 359.892 304.321 359.892C303.097 359.892 302.104 358.899 302.104 357.675C302.104 356.45 303.097 355.457 304.321 355.457C305.546 355.457 306.538 356.45 306.538 357.675Z" fill="#C4DFFF"/>
<path d="M284.35 357.675C284.35 358.899 283.358 359.892 282.133 359.892C280.909 359.892 279.916 358.899 279.916 357.675C279.916 356.45 280.909 355.457 282.133 355.457C283.358 355.457 284.35 356.45 284.35 357.675Z" fill="#C4DFFF"/>
<path d="M274.741 359.892C275.965 359.892 276.958 358.899 276.958 357.675C276.958 356.45 275.965 355.457 274.741 355.457C273.517 355.457 272.524 356.45 272.524 357.675C272.524 358.899 273.517 359.892 274.741 359.892Z" fill="#C4DFFF"/>
<path d="M306.538 372.47C306.538 373.694 305.546 374.687 304.321 374.687C303.097 374.687 302.104 373.694 302.104 372.47C302.104 371.246 303.097 370.253 304.321 370.253C305.546 370.253 306.538 371.246 306.538 372.47Z" fill="#C4DFFF"/>
<path d="M276.006 395.603C277.23 395.603 278.223 394.611 278.223 393.386C278.223 392.162 277.23 391.169 276.006 391.169C274.782 391.169 273.789 392.162 273.789 393.386C273.789 394.611 274.782 395.603 276.006 395.603Z" fill="#C4DFFF"/>
<path d="M270.833 385.987C270.833 387.212 269.84 388.204 268.616 388.204C267.391 388.204 266.399 387.212 266.399 385.987C266.399 384.763 267.391 383.77 268.616 383.77C269.84 383.77 270.833 384.763 270.833 385.987Z" fill="#C4DFFF"/>
<path d="M276.006 388.204C277.23 388.204 278.223 387.212 278.223 385.987C278.223 384.763 277.23 383.77 276.006 383.77C274.782 383.77 273.789 384.763 273.789 385.987C273.789 387.212 274.782 388.204 276.006 388.204Z" fill="#C4DFFF"/>
<path d="M263.434 385.987C263.434 387.212 262.442 388.204 261.217 388.204C259.993 388.204 259 387.212 259 385.987C259 384.763 259.993 383.77 261.217 383.77C262.442 383.77 263.434 384.763 263.434 385.987Z" fill="#C4DFFF"/>
<path d="M276.006 403C277.23 403 278.223 402.007 278.223 400.783C278.223 399.558 277.23 398.566 276.006 398.566C274.782 398.566 273.789 399.558 273.789 400.783C273.789 402.007 274.782 403 276.006 403Z" fill="#C4DFFF"/>
<path d="M306.538 379.862C306.538 381.087 305.546 382.079 304.321 382.079C303.097 382.079 302.104 381.087 302.104 379.862C302.104 378.638 303.097 377.645 304.321 377.645C305.546 377.645 306.538 378.638 306.538 379.862Z" fill="#C4DFFF"/>
<path d="M304.321 385.042C305.547 385.042 306.538 386.033 306.538 387.259C306.538 388.485 305.547 389.476 304.321 389.476C303.095 389.476 302.104 388.485 302.104 387.259C302.104 386.033 303.093 385.042 304.321 385.042Z" fill="#C4DFFF"/>
<path d="M288.682 375.53C288.682 376.755 287.69 377.747 286.465 377.747C285.241 377.747 284.248 376.755 284.248 375.53C284.248 374.306 285.241 373.313 286.465 373.313C287.69 373.313 288.682 374.306 288.682 375.53Z" fill="#C4DFFF"/>
<path d="M293.269 368.732C294.136 369.599 294.136 371.003 293.269 371.87C292.401 372.737 290.997 372.737 290.13 371.87C289.263 371.003 289.263 369.599 290.13 368.732C290.999 367.864 292.401 367.864 293.269 368.732Z" fill="#C4DFFF"/>
<path d="M298.494 366.638C299.361 365.771 299.361 364.367 298.494 363.5C297.626 362.632 296.225 362.632 295.355 363.5C294.488 364.367 294.488 365.771 295.355 366.638C296.222 367.506 297.626 367.506 298.494 366.638Z" fill="#C4DFFF"/>
<path d="M282.805 379.189C283.672 380.056 283.672 381.46 282.805 382.327C281.938 383.194 280.533 383.194 279.666 382.327C278.799 381.46 278.799 380.056 279.666 379.189C280.533 378.321 281.938 378.321 282.805 379.189Z" fill="#C4DFFF"/>
<path d="M519.35 359.65C520.217 360.518 520.217 361.922 519.35 362.789C518.482 363.656 517.078 363.656 516.211 362.789C515.344 361.922 515.344 360.518 516.211 359.65C517.078 358.783 518.482 358.783 519.35 359.65Z" fill="#C3DFFF"/>
<path d="M514.118 368.014C514.985 367.147 514.985 365.743 514.118 364.876C513.251 364.008 511.849 364.008 510.979 364.876C510.112 365.743 510.112 367.147 510.979 368.014C511.846 368.882 513.251 368.882 514.118 368.014Z" fill="#C3DFFF"/>
<path d="M492.53 373.892C493.754 373.892 494.747 372.899 494.747 371.675C494.747 370.45 493.754 369.457 492.53 369.457C491.305 369.457 490.313 370.45 490.313 371.675C490.313 372.899 491.305 373.892 492.53 373.892Z" fill="#C3DFFF"/>
<path d="M499.929 373.892C501.153 373.892 502.146 372.899 502.146 371.675C502.146 370.45 501.153 369.457 499.929 369.457C498.704 369.457 497.712 370.45 497.712 371.675C497.712 372.899 498.704 373.892 499.929 373.892Z" fill="#C3DFFF"/>
<path d="M507.321 381.288C508.546 381.288 509.538 380.296 509.538 379.071C509.538 377.847 508.546 376.854 507.321 376.854C506.097 376.854 505.104 377.847 505.104 379.071C505.104 380.296 506.097 381.288 507.321 381.288Z" fill="#C3DFFF"/>
<path d="M509.538 371.675C509.538 372.899 508.546 373.892 507.321 373.892C506.097 373.892 505.104 372.899 505.104 371.675C505.104 370.45 506.097 369.457 507.321 369.457C508.546 369.457 509.538 370.45 509.538 371.675Z" fill="#C3DFFF"/>
<path d="M487.35 371.675C487.35 372.899 486.358 373.892 485.133 373.892C483.909 373.892 482.916 372.899 482.916 371.675C482.916 370.45 483.909 369.457 485.133 369.457C486.358 369.457 487.35 370.45 487.35 371.675Z" fill="#C3DFFF"/>
<path d="M477.741 373.892C478.965 373.892 479.958 372.899 479.958 371.675C479.958 370.45 478.965 369.457 477.741 369.457C476.517 369.457 475.524 370.45 475.524 371.675C475.524 372.899 476.517 373.892 477.741 373.892Z" fill="#C3DFFF"/>
<path d="M509.538 386.47C509.538 387.694 508.546 388.687 507.321 388.687C506.097 388.687 505.104 387.694 505.104 386.47C505.104 385.246 506.097 384.253 507.321 384.253C508.546 384.253 509.538 385.246 509.538 386.47Z" fill="#C3DFFF"/>
<path d="M479.006 409.603C480.23 409.603 481.223 408.611 481.223 407.386C481.223 406.162 480.23 405.169 479.006 405.169C477.782 405.169 476.789 406.162 476.789 407.386C476.789 408.611 477.782 409.603 479.006 409.603Z" fill="#C3DFFF"/>
<path d="M473.833 399.987C473.833 401.212 472.84 402.204 471.616 402.204C470.391 402.204 469.399 401.212 469.399 399.987C469.399 398.763 470.391 397.77 471.616 397.77C472.84 397.77 473.833 398.763 473.833 399.987Z" fill="#C3DFFF"/>
<path d="M479.006 402.204C480.23 402.204 481.223 401.212 481.223 399.987C481.223 398.763 480.23 397.77 479.006 397.77C477.782 397.77 476.789 398.763 476.789 399.987C476.789 401.212 477.782 402.204 479.006 402.204Z" fill="#C3DFFF"/>
<path d="M466.434 399.987C466.434 401.212 465.442 402.204 464.217 402.204C462.993 402.204 462 401.212 462 399.987C462 398.763 462.993 397.77 464.217 397.77C465.442 397.77 466.434 398.763 466.434 399.987Z" fill="#C3DFFF"/>
<path d="M479.006 417C480.23 417 481.223 416.007 481.223 414.783C481.223 413.558 480.23 412.566 479.006 412.566C477.782 412.566 476.789 413.558 476.789 414.783C476.789 416.007 477.782 417 479.006 417Z" fill="#C3DFFF"/>
<path d="M509.538 393.862C509.538 395.087 508.546 396.079 507.321 396.079C506.097 396.079 505.104 395.087 505.104 393.862C505.104 392.638 506.097 391.645 507.321 391.645C508.546 391.645 509.538 392.638 509.538 393.862Z" fill="#C3DFFF"/>
<path d="M507.321 399.042C508.547 399.042 509.538 400.033 509.538 401.259C509.538 402.485 508.547 403.476 507.321 403.476C506.095 403.476 505.104 402.485 505.104 401.259C505.104 400.033 506.093 399.042 507.321 399.042Z" fill="#C3DFFF"/>
<path d="M491.682 389.53C491.682 390.755 490.69 391.747 489.465 391.747C488.241 391.747 487.248 390.755 487.248 389.53C487.248 388.306 488.241 387.313 489.465 387.313C490.69 387.313 491.682 388.306 491.682 389.53Z" fill="#C3DFFF"/>
<path d="M496.269 382.732C497.136 383.599 497.136 385.003 496.269 385.87C495.401 386.737 493.997 386.737 493.13 385.87C492.263 385.003 492.263 383.599 493.13 382.732C493.999 381.864 495.401 381.864 496.269 382.732Z" fill="#C3DFFF"/>
<path d="M501.494 380.638C502.361 379.771 502.361 378.367 501.494 377.5C500.626 376.632 499.225 376.632 498.355 377.5C497.488 378.367 497.488 379.771 498.355 380.638C499.222 381.506 500.626 381.506 501.494 380.638Z" fill="#C3DFFF"/>
<path d="M485.805 393.189C486.672 394.056 486.672 395.46 485.805 396.327C484.938 397.194 483.533 397.194 482.666 396.327C481.799 395.46 481.799 394.056 482.666 393.189C483.533 392.321 484.938 392.321 485.805 393.189Z" fill="#C3DFFF"/>
<path d="M301.35 80.6503C302.217 81.5176 302.217 82.9217 301.35 83.789C300.482 84.6563 299.078 84.6563 298.211 83.789C297.344 82.9217 297.344 81.5176 298.211 80.6503C299.078 79.7832 300.482 79.7832 301.35 80.6503Z" fill="white"/>
<path d="M296.118 89.0143C296.985 88.147 296.985 86.7429 296.118 85.8756C295.251 85.0085 293.849 85.0085 292.979 85.8756C292.112 86.7429 292.112 88.147 292.979 89.0143C293.846 89.8816 295.251 89.8816 296.118 89.0143Z" fill="white"/>
<path d="M274.53 94.8916C275.754 94.8916 276.747 93.8991 276.747 92.6746C276.747 91.45 275.754 90.4575 274.53 90.4575C273.305 90.4575 272.313 91.45 272.313 92.6746C272.313 93.8991 273.305 94.8916 274.53 94.8916Z" fill="white"/>
<path d="M281.929 94.8916C283.153 94.8916 284.146 93.8991 284.146 92.6746C284.146 91.45 283.153 90.4575 281.929 90.4575C280.704 90.4575 279.712 91.45 279.712 92.6746C279.712 93.8991 280.704 94.8916 281.929 94.8916Z" fill="white"/>
<path d="M289.321 102.288C290.546 102.288 291.538 101.296 291.538 100.071C291.538 98.8467 290.546 97.8542 289.321 97.8542C288.097 97.8542 287.104 98.8467 287.104 100.071C287.104 101.296 288.097 102.288 289.321 102.288Z" fill="white"/>
<path d="M291.538 92.6746C291.538 93.8991 290.546 94.8916 289.321 94.8916C288.097 94.8916 287.104 93.8991 287.104 92.6746C287.104 91.45 288.097 90.4575 289.321 90.4575C290.546 90.4575 291.538 91.45 291.538 92.6746Z" fill="white"/>
<path d="M269.35 92.6746C269.35 93.8991 268.358 94.8916 267.133 94.8916C265.909 94.8916 264.916 93.8991 264.916 92.6746C264.916 91.45 265.909 90.4575 267.133 90.4575C268.358 90.4575 269.35 91.45 269.35 92.6746Z" fill="white"/>
<path d="M259.741 94.8916C260.965 94.8916 261.958 93.8991 261.958 92.6746C261.958 91.45 260.965 90.4575 259.741 90.4575C258.517 90.4575 257.524 91.45 257.524 92.6746C257.524 93.8991 258.517 94.8916 259.741 94.8916Z" fill="white"/>
<path d="M291.538 107.47C291.538 108.694 290.546 109.687 289.321 109.687C288.097 109.687 287.104 108.694 287.104 107.47C287.104 106.246 288.097 105.253 289.321 105.253C290.546 105.253 291.538 106.246 291.538 107.47Z" fill="white"/>
<path d="M261.006 130.603C262.23 130.603 263.223 129.611 263.223 128.386C263.223 127.162 262.23 126.169 261.006 126.169C259.782 126.169 258.789 127.162 258.789 128.386C258.789 129.611 259.782 130.603 261.006 130.603Z" fill="white"/>
<path d="M255.833 120.987C255.833 122.212 254.84 123.204 253.616 123.204C252.391 123.204 251.399 122.212 251.399 120.987C251.399 119.763 252.391 118.77 253.616 118.77C254.84 118.77 255.833 119.763 255.833 120.987Z" fill="white"/>
<path d="M261.006 123.204C262.23 123.204 263.223 122.212 263.223 120.987C263.223 119.763 262.23 118.77 261.006 118.77C259.782 118.77 258.789 119.763 258.789 120.987C258.789 122.212 259.782 123.204 261.006 123.204Z" fill="white"/>
<path d="M248.434 120.987C248.434 122.212 247.442 123.204 246.217 123.204C244.993 123.204 244 122.212 244 120.987C244 119.763 244.993 118.77 246.217 118.77C247.442 118.77 248.434 119.763 248.434 120.987Z" fill="white"/>
<path d="M261.006 138C262.23 138 263.223 137.007 263.223 135.783C263.223 134.558 262.23 133.566 261.006 133.566C259.782 133.566 258.789 134.558 258.789 135.783C258.789 137.007 259.782 138 261.006 138Z" fill="white"/>
<path d="M291.538 114.862C291.538 116.087 290.546 117.079 289.321 117.079C288.097 117.079 287.104 116.087 287.104 114.862C287.104 113.638 288.097 112.645 289.321 112.645C290.546 112.645 291.538 113.638 291.538 114.862Z" fill="white"/>
<path d="M289.321 120.042C290.547 120.042 291.538 121.033 291.538 122.259C291.538 123.485 290.547 124.476 289.321 124.476C288.095 124.476 287.104 123.485 287.104 122.259C287.104 121.033 288.093 120.042 289.321 120.042Z" fill="white"/>
<path d="M273.682 110.53C273.682 111.755 272.69 112.747 271.465 112.747C270.241 112.747 269.248 111.755 269.248 110.53C269.248 109.306 270.241 108.313 271.465 108.313C272.69 108.313 273.682 109.306 273.682 110.53Z" fill="white"/>
<path d="M278.269 103.732C279.136 104.599 279.136 106.003 278.269 106.87C277.401 107.737 275.997 107.737 275.13 106.87C274.263 106.003 274.263 104.599 275.13 103.732C275.999 102.864 277.401 102.864 278.269 103.732Z" fill="white"/>
<path d="M283.494 101.638C284.361 100.771 284.361 99.367 283.494 98.4997C282.626 97.6324 281.225 97.6324 280.355 98.4997C279.488 99.367 279.488 100.771 280.355 101.638C281.222 102.506 282.626 102.506 283.494 101.638Z" fill="white"/>
<path d="M267.805 114.189C268.672 115.056 268.672 116.46 267.805 117.327C266.938 118.194 265.533 118.194 264.666 117.327C263.799 116.46 263.799 115.056 264.666 114.189C265.533 113.321 266.938 113.321 267.805 114.189Z" fill="white"/>
<path d="M362.35 158.65C363.217 159.518 363.217 160.922 362.35 161.789C361.482 162.656 360.078 162.656 359.211 161.789C358.344 160.922 358.344 159.518 359.211 158.65C360.078 157.783 361.482 157.783 362.35 158.65Z" fill="white"/>
<path d="M357.118 167.014C357.985 166.147 357.985 164.743 357.118 163.876C356.251 163.008 354.849 163.008 353.979 163.876C353.112 164.743 353.112 166.147 353.979 167.014C354.846 167.882 356.251 167.882 357.118 167.014Z" fill="white"/>
<path d="M335.53 172.892C336.754 172.892 337.747 171.899 337.747 170.675C337.747 169.45 336.754 168.457 335.53 168.457C334.305 168.457 333.313 169.45 333.313 170.675C333.313 171.899 334.305 172.892 335.53 172.892Z" fill="white"/>
<path d="M342.929 172.892C344.153 172.892 345.146 171.899 345.146 170.675C345.146 169.45 344.153 168.457 342.929 168.457C341.704 168.457 340.712 169.45 340.712 170.675C340.712 171.899 341.704 172.892 342.929 172.892Z" fill="white"/>
<path d="M350.321 180.288C351.546 180.288 352.538 179.296 352.538 178.071C352.538 176.847 351.546 175.854 350.321 175.854C349.097 175.854 348.104 176.847 348.104 178.071C348.104 179.296 349.097 180.288 350.321 180.288Z" fill="white"/>
<path d="M352.538 170.675C352.538 171.899 351.546 172.892 350.321 172.892C349.097 172.892 348.104 171.899 348.104 170.675C348.104 169.45 349.097 168.457 350.321 168.457C351.546 168.457 352.538 169.45 352.538 170.675Z" fill="white"/>
<path d="M330.35 170.675C330.35 171.899 329.358 172.892 328.133 172.892C326.909 172.892 325.916 171.899 325.916 170.675C325.916 169.45 326.909 168.457 328.133 168.457C329.358 168.457 330.35 169.45 330.35 170.675Z" fill="white"/>
<path d="M320.741 172.892C321.965 172.892 322.958 171.899 322.958 170.675C322.958 169.45 321.965 168.457 320.741 168.457C319.517 168.457 318.524 169.45 318.524 170.675C318.524 171.899 319.517 172.892 320.741 172.892Z" fill="white"/>
<path d="M352.538 185.47C352.538 186.694 351.546 187.687 350.321 187.687C349.097 187.687 348.104 186.694 348.104 185.47C348.104 184.246 349.097 183.253 350.321 183.253C351.546 183.253 352.538 184.246 352.538 185.47Z" fill="white"/>
<path d="M322.006 208.603C323.23 208.603 324.223 207.611 324.223 206.386C324.223 205.162 323.23 204.169 322.006 204.169C320.782 204.169 319.789 205.162 319.789 206.386C319.789 207.611 320.782 208.603 322.006 208.603Z" fill="white"/>
<path d="M316.833 198.987C316.833 200.212 315.84 201.204 314.616 201.204C313.391 201.204 312.399 200.212 312.399 198.987C312.399 197.763 313.391 196.77 314.616 196.77C315.84 196.77 316.833 197.763 316.833 198.987Z" fill="white"/>
<path d="M322.006 201.204C323.23 201.204 324.223 200.212 324.223 198.987C324.223 197.763 323.23 196.77 322.006 196.77C320.782 196.77 319.789 197.763 319.789 198.987C319.789 200.212 320.782 201.204 322.006 201.204Z" fill="white"/>
<path d="M309.434 198.987C309.434 200.212 308.442 201.204 307.217 201.204C305.993 201.204 305 200.212 305 198.987C305 197.763 305.993 196.77 307.217 196.77C308.442 196.77 309.434 197.763 309.434 198.987Z" fill="white"/>
<path d="M322.006 216C323.23 216 324.223 215.007 324.223 213.783C324.223 212.558 323.23 211.566 322.006 211.566C320.782 211.566 319.789 212.558 319.789 213.783C319.789 215.007 320.782 216 322.006 216Z" fill="white"/>
<path d="M352.538 192.862C352.538 194.087 351.546 195.079 350.321 195.079C349.097 195.079 348.104 194.087 348.104 192.862C348.104 191.638 349.097 190.645 350.321 190.645C351.546 190.645 352.538 191.638 352.538 192.862Z" fill="white"/>
<path d="M350.321 198.042C351.547 198.042 352.538 199.033 352.538 200.259C352.538 201.485 351.547 202.476 350.321 202.476C349.095 202.476 348.104 201.485 348.104 200.259C348.104 199.033 349.093 198.042 350.321 198.042Z" fill="white"/>
<path d="M334.682 188.53C334.682 189.755 333.69 190.747 332.465 190.747C331.241 190.747 330.248 189.755 330.248 188.53C330.248 187.306 331.241 186.313 332.465 186.313C333.69 186.313 334.682 187.306 334.682 188.53Z" fill="white"/>
<path d="M339.269 181.732C340.136 182.599 340.136 184.003 339.269 184.87C338.401 185.737 336.997 185.737 336.13 184.87C335.263 184.003 335.263 182.599 336.13 181.732C336.999 180.864 338.401 180.864 339.269 181.732Z" fill="white"/>
<path d="M344.494 179.638C345.361 178.771 345.361 177.367 344.494 176.5C343.626 175.632 342.225 175.632 341.355 176.5C340.488 177.367 340.488 178.771 341.355 179.638C342.222 180.506 343.626 180.506 344.494 179.638Z" fill="white"/>
<path d="M328.805 192.189C329.672 193.056 329.672 194.46 328.805 195.327C327.938 196.194 326.533 196.194 325.666 195.327C324.799 194.46 324.799 193.056 325.666 192.189C326.533 191.321 327.938 191.321 328.805 192.189Z" fill="white"/>
<path d="M250.35 197.65C251.217 198.518 251.217 199.922 250.35 200.789C249.482 201.656 248.078 201.656 247.211 200.789C246.344 199.922 246.344 198.518 247.211 197.65C248.078 196.783 249.482 196.783 250.35 197.65Z" fill="#EFC1FF"/>
<path d="M245.118 206.014C245.985 205.147 245.985 203.743 245.118 202.876C244.251 202.008 242.849 202.008 241.979 202.876C241.112 203.743 241.112 205.147 241.979 206.014C242.846 206.882 244.251 206.882 245.118 206.014Z" fill="#EFC1FF"/>
<path d="M223.53 211.892C224.754 211.892 225.747 210.899 225.747 209.675C225.747 208.45 224.754 207.457 223.53 207.457C222.305 207.457 221.313 208.45 221.313 209.675C221.313 210.899 222.305 211.892 223.53 211.892Z" fill="#EFC1FF"/>
<path d="M230.929 211.892C232.153 211.892 233.146 210.899 233.146 209.675C233.146 208.45 232.153 207.457 230.929 207.457C229.704 207.457 228.712 208.45 228.712 209.675C228.712 210.899 229.704 211.892 230.929 211.892Z" fill="#EFC1FF"/>
<path d="M238.321 219.288C239.546 219.288 240.538 218.296 240.538 217.071C240.538 215.847 239.546 214.854 238.321 214.854C237.097 214.854 236.104 215.847 236.104 217.071C236.104 218.296 237.097 219.288 238.321 219.288Z" fill="#EFC1FF"/>
<path d="M240.538 209.675C240.538 210.899 239.546 211.892 238.321 211.892C237.097 211.892 236.104 210.899 236.104 209.675C236.104 208.45 237.097 207.457 238.321 207.457C239.546 207.457 240.538 208.45 240.538 209.675Z" fill="#EFC1FF"/>
<path d="M218.35 209.675C218.35 210.899 217.358 211.892 216.133 211.892C214.909 211.892 213.916 210.899 213.916 209.675C213.916 208.45 214.909 207.457 216.133 207.457C217.358 207.457 218.35 208.45 218.35 209.675Z" fill="#EFC1FF"/>
<path d="M208.741 211.892C209.965 211.892 210.958 210.899 210.958 209.675C210.958 208.45 209.965 207.457 208.741 207.457C207.517 207.457 206.524 208.45 206.524 209.675C206.524 210.899 207.517 211.892 208.741 211.892Z" fill="#EFC1FF"/>
<path d="M240.538 224.47C240.538 225.694 239.546 226.687 238.321 226.687C237.097 226.687 236.104 225.694 236.104 224.47C236.104 223.246 237.097 222.253 238.321 222.253C239.546 222.253 240.538 223.246 240.538 224.47Z" fill="#EFC1FF"/>
<path d="M210.006 247.603C211.23 247.603 212.223 246.611 212.223 245.386C212.223 244.162 211.23 243.169 210.006 243.169C208.782 243.169 207.789 244.162 207.789 245.386C207.789 246.611 208.782 247.603 210.006 247.603Z" fill="#EFC1FF"/>
<path d="M204.833 237.987C204.833 239.212 203.84 240.204 202.616 240.204C201.391 240.204 200.399 239.212 200.399 237.987C200.399 236.763 201.391 235.77 202.616 235.77C203.84 235.77 204.833 236.763 204.833 237.987Z" fill="#EFC1FF"/>
<path d="M210.006 240.204C211.23 240.204 212.223 239.212 212.223 237.987C212.223 236.763 211.23 235.77 210.006 235.77C208.782 235.77 207.789 236.763 207.789 237.987C207.789 239.212 208.782 240.204 210.006 240.204Z" fill="#EFC1FF"/>
<path d="M197.434 237.987C197.434 239.212 196.442 240.204 195.217 240.204C193.993 240.204 193 239.212 193 237.987C193 236.763 193.993 235.77 195.217 235.77C196.442 235.77 197.434 236.763 197.434 237.987Z" fill="#EFC1FF"/>
<path d="M210.006 255C211.23 255 212.223 254.007 212.223 252.783C212.223 251.558 211.23 250.566 210.006 250.566C208.782 250.566 207.789 251.558 207.789 252.783C207.789 254.007 208.782 255 210.006 255Z" fill="#EFC1FF"/>
<path d="M240.538 231.862C240.538 233.087 239.546 234.079 238.321 234.079C237.097 234.079 236.104 233.087 236.104 231.862C236.104 230.638 237.097 229.645 238.321 229.645C239.546 229.645 240.538 230.638 240.538 231.862Z" fill="#EFC1FF"/>
<path d="M238.321 237.042C239.547 237.042 240.538 238.033 240.538 239.259C240.538 240.485 239.547 241.476 238.321 241.476C237.095 241.476 236.104 240.485 236.104 239.259C236.104 238.033 237.093 237.042 238.321 237.042Z" fill="#EFC1FF"/>
<path d="M222.682 227.53C222.682 228.755 221.69 229.747 220.465 229.747C219.241 229.747 218.248 228.755 218.248 227.53C218.248 226.306 219.241 225.313 220.465 225.313C221.69 225.313 222.682 226.306 222.682 227.53Z" fill="#EFC1FF"/>
<path d="M227.269 220.732C228.136 221.599 228.136 223.003 227.269 223.87C226.401 224.737 224.997 224.737 224.13 223.87C223.263 223.003 223.263 221.599 224.13 220.732C224.999 219.864 226.401 219.864 227.269 220.732Z" fill="#EFC1FF"/>
<path d="M232.494 218.638C233.361 217.771 233.361 216.367 232.494 215.5C231.626 214.632 230.225 214.632 229.355 215.5C228.488 216.367 228.488 217.771 229.355 218.638C230.222 219.506 231.626 219.506 232.494 218.638Z" fill="#EFC1FF"/>
<path d="M216.805 231.189C217.672 232.056 217.672 233.46 216.805 234.327C215.938 235.194 214.533 235.194 213.666 234.327C212.799 233.46 212.799 232.056 213.666 231.189C214.533 230.321 215.938 230.321 216.805 231.189Z" fill="#EFC1FF"/>
<path d="M231.35 0.650319C232.217 1.51762 232.217 2.92174 231.35 3.78904C230.482 4.65635 229.078 4.65635 228.211 3.78904C227.344 2.92174 227.344 1.51762 228.211 0.650319C229.078 -0.216773 230.482 -0.216773 231.35 0.650319Z" fill="#EFC1FF"/>
<path d="M226.118 9.01431C226.985 8.147 226.985 6.74289 226.118 5.87558C225.251 5.00849 223.849 5.00849 222.979 5.87558C222.112 6.74289 222.112 8.147 222.979 9.01431C223.846 9.88161 225.251 9.88161 226.118 9.01431Z" fill="#EFC1FF"/>
<path d="M204.53 14.8916C205.754 14.8916 206.747 13.8991 206.747 12.6746C206.747 11.45 205.754 10.4575 204.53 10.4575C203.305 10.4575 202.313 11.45 202.313 12.6746C202.313 13.8991 203.305 14.8916 204.53 14.8916Z" fill="#EFC1FF"/>
<path d="M211.929 14.8916C213.153 14.8916 214.146 13.8991 214.146 12.6746C214.146 11.45 213.153 10.4575 211.929 10.4575C210.704 10.4575 209.712 11.45 209.712 12.6746C209.712 13.8991 210.704 14.8916 211.929 14.8916Z" fill="#EFC1FF"/>
<path d="M219.321 22.2883C220.546 22.2883 221.538 21.2956 221.538 20.0713C221.538 18.8467 220.546 17.8542 219.321 17.8542C218.097 17.8542 217.104 18.8467 217.104 20.0713C217.104 21.2956 218.097 22.2883 219.321 22.2883Z" fill="#EFC1FF"/>
<path d="M221.538 12.6746C221.538 13.8991 220.546 14.8916 219.321 14.8916C218.097 14.8916 217.104 13.8991 217.104 12.6746C217.104 11.45 218.097 10.4575 219.321 10.4575C220.546 10.4575 221.538 11.45 221.538 12.6746Z" fill="#EFC1FF"/>
<path d="M199.35 12.6746C199.35 13.8991 198.358 14.8916 197.133 14.8916C195.909 14.8916 194.916 13.8991 194.916 12.6746C194.916 11.45 195.909 10.4575 197.133 10.4575C198.358 10.4575 199.35 11.45 199.35 12.6746Z" fill="#EFC1FF"/>
<path d="M189.741 14.8916C190.965 14.8916 191.958 13.8991 191.958 12.6746C191.958 11.45 190.965 10.4575 189.741 10.4575C188.517 10.4575 187.524 11.45 187.524 12.6746C187.524 13.8991 188.517 14.8916 189.741 14.8916Z" fill="#EFC1FF"/>
<path d="M221.538 27.4701C221.538 28.6944 220.546 29.687 219.321 29.687C218.097 29.687 217.104 28.6944 217.104 27.4701C217.104 26.2456 218.097 25.253 219.321 25.253C220.546 25.253 221.538 26.2456 221.538 27.4701Z" fill="#EFC1FF"/>
<path d="M191.006 50.6033C192.23 50.6033 193.223 49.6108 193.223 48.3862C193.223 47.1619 192.23 46.1691 191.006 46.1691C189.782 46.1691 188.789 47.1619 188.789 48.3862C188.789 49.6108 189.782 50.6033 191.006 50.6033Z" fill="#EFC1FF"/>
<path d="M185.833 40.9874C185.833 42.2119 184.84 43.2045 183.616 43.2045C182.391 43.2045 181.399 42.2119 181.399 40.9874C181.399 39.7631 182.391 38.7703 183.616 38.7703C184.84 38.7703 185.833 39.7631 185.833 40.9874Z" fill="#EFC1FF"/>
<path d="M191.006 43.2045C192.23 43.2045 193.223 42.2119 193.223 40.9874C193.223 39.7631 192.23 38.7703 191.006 38.7703C189.782 38.7703 188.789 39.7631 188.789 40.9874C188.789 42.2119 189.782 43.2045 191.006 43.2045Z" fill="#EFC1FF"/>
<path d="M178.434 40.9874C178.434 42.2119 177.442 43.2045 176.217 43.2045C174.993 43.2045 174 42.2119 174 40.9874C174 39.7631 174.993 38.7703 176.217 38.7703C177.442 38.7703 178.434 39.7631 178.434 40.9874Z" fill="#EFC1FF"/>
<path d="M191.006 58C192.23 58 193.223 57.0073 193.223 55.7829C193.223 54.5584 192.23 53.5658 191.006 53.5658C189.782 53.5658 188.789 54.5584 188.789 55.7829C188.789 57.0073 189.782 58 191.006 58Z" fill="#EFC1FF"/>
<path d="M221.538 34.8623C221.538 36.0867 220.546 37.0794 219.321 37.0794C218.097 37.0794 217.104 36.0867 217.104 34.8623C217.104 33.6378 218.097 32.6453 219.321 32.6453C220.546 32.6453 221.538 33.6378 221.538 34.8623Z" fill="#EFC1FF"/>
<path d="M219.321 40.042C220.547 40.042 221.538 41.033 221.538 42.2591C221.538 43.4849 220.547 44.4759 219.321 44.4759C218.095 44.4759 217.104 43.4849 217.104 42.2591C217.104 41.033 218.093 40.042 219.321 40.042Z" fill="#EFC1FF"/>
<path d="M203.682 30.5305C203.682 31.7548 202.69 32.7474 201.465 32.7474C200.241 32.7474 199.248 31.7548 199.248 30.5305C199.248 29.306 200.241 28.3134 201.465 28.3134C202.69 28.3134 203.682 29.306 203.682 30.5305Z" fill="#EFC1FF"/>
<path d="M208.269 23.7315C209.136 24.5988 209.136 26.0029 208.269 26.87C207.401 27.7373 205.997 27.7373 205.13 26.87C204.263 26.0029 204.263 24.5988 205.13 23.7315C205.999 22.8642 207.401 22.8642 208.269 23.7315Z" fill="#EFC1FF"/>
<path d="M213.494 21.6384C214.361 20.7711 214.361 19.367 213.494 18.4997C212.626 17.6324 211.225 17.6324 210.355 18.4997C209.488 19.367 209.488 20.7711 210.355 21.6384C211.222 22.5057 212.626 22.5057 213.494 21.6384Z" fill="#EFC1FF"/>
<path d="M197.805 34.1886C198.672 35.0557 198.672 36.4598 197.805 37.3271C196.938 38.1944 195.533 38.1944 194.666 37.3271C193.799 36.4598 193.799 35.0557 194.666 34.1886C195.533 33.3213 196.938 33.3213 197.805 34.1886Z" fill="#EFC1FF"/>
<path d="M221.35 86.6503C222.217 87.5176 222.217 88.9217 221.35 89.789C220.482 90.6563 219.078 90.6563 218.211 89.789C217.344 88.9217 217.344 87.5176 218.211 86.6503C219.078 85.7832 220.482 85.7832 221.35 86.6503Z" fill="#FFD2BF"/>
<path d="M216.118 95.0143C216.985 94.147 216.985 92.7429 216.118 91.8756C215.251 91.0085 213.849 91.0085 212.979 91.8756C212.112 92.7429 212.112 94.147 212.979 95.0143C213.846 95.8816 215.251 95.8816 216.118 95.0143Z" fill="#FFD2BF"/>
<path d="M194.53 100.892C195.754 100.892 196.747 99.8991 196.747 98.6746C196.747 97.45 195.754 96.4575 194.53 96.4575C193.305 96.4575 192.313 97.45 192.313 98.6746C192.313 99.8991 193.305 100.892 194.53 100.892Z" fill="#FFD2BF"/>
<path d="M201.929 100.892C203.153 100.892 204.146 99.8991 204.146 98.6746C204.146 97.45 203.153 96.4575 201.929 96.4575C200.704 96.4575 199.712 97.45 199.712 98.6746C199.712 99.8991 200.704 100.892 201.929 100.892Z" fill="#FFD2BF"/>
<path d="M209.321 108.288C210.546 108.288 211.538 107.296 211.538 106.071C211.538 104.847 210.546 103.854 209.321 103.854C208.097 103.854 207.104 104.847 207.104 106.071C207.104 107.296 208.097 108.288 209.321 108.288Z" fill="#FFD2BF"/>
<path d="M211.538 98.6746C211.538 99.8991 210.546 100.892 209.321 100.892C208.097 100.892 207.104 99.8991 207.104 98.6746C207.104 97.45 208.097 96.4575 209.321 96.4575C210.546 96.4575 211.538 97.45 211.538 98.6746Z" fill="#FFD2BF"/>
<path d="M189.35 98.6746C189.35 99.8991 188.358 100.892 187.133 100.892C185.909 100.892 184.916 99.8991 184.916 98.6746C184.916 97.45 185.909 96.4575 187.133 96.4575C188.358 96.4575 189.35 97.45 189.35 98.6746Z" fill="#FFD2BF"/>
<path d="M179.741 100.892C180.965 100.892 181.958 99.8991 181.958 98.6746C181.958 97.45 180.965 96.4575 179.741 96.4575C178.517 96.4575 177.524 97.45 177.524 98.6746C177.524 99.8991 178.517 100.892 179.741 100.892Z" fill="#FFD2BF"/>
<path d="M211.538 113.47C211.538 114.694 210.546 115.687 209.321 115.687C208.097 115.687 207.104 114.694 207.104 113.47C207.104 112.246 208.097 111.253 209.321 111.253C210.546 111.253 211.538 112.246 211.538 113.47Z" fill="#FFD2BF"/>
<path d="M181.006 136.603C182.23 136.603 183.223 135.611 183.223 134.386C183.223 133.162 182.23 132.169 181.006 132.169C179.782 132.169 178.789 133.162 178.789 134.386C178.789 135.611 179.782 136.603 181.006 136.603Z" fill="#FFD2BF"/>
<path d="M175.833 126.987C175.833 128.212 174.84 129.204 173.616 129.204C172.391 129.204 171.399 128.212 171.399 126.987C171.399 125.763 172.391 124.77 173.616 124.77C174.84 124.77 175.833 125.763 175.833 126.987Z" fill="#FFD2BF"/>
<path d="M181.006 129.204C182.23 129.204 183.223 128.212 183.223 126.987C183.223 125.763 182.23 124.77 181.006 124.77C179.782 124.77 178.789 125.763 178.789 126.987C178.789 128.212 179.782 129.204 181.006 129.204Z" fill="#FFD2BF"/>
<path d="M168.434 126.987C168.434 128.212 167.442 129.204 166.217 129.204C164.993 129.204 164 128.212 164 126.987C164 125.763 164.993 124.77 166.217 124.77C167.442 124.77 168.434 125.763 168.434 126.987Z" fill="#FFD2BF"/>
<path d="M181.006 144C182.23 144 183.223 143.007 183.223 141.783C183.223 140.558 182.23 139.566 181.006 139.566C179.782 139.566 178.789 140.558 178.789 141.783C178.789 143.007 179.782 144 181.006 144Z" fill="#FFD2BF"/>
<path d="M211.538 120.862C211.538 122.087 210.546 123.079 209.321 123.079C208.097 123.079 207.104 122.087 207.104 120.862C207.104 119.638 208.097 118.645 209.321 118.645C210.546 118.645 211.538 119.638 211.538 120.862Z" fill="#FFD2BF"/>
<path d="M209.321 126.042C210.547 126.042 211.538 127.033 211.538 128.259C211.538 129.485 210.547 130.476 209.321 130.476C208.095 130.476 207.104 129.485 207.104 128.259C207.104 127.033 208.093 126.042 209.321 126.042Z" fill="#FFD2BF"/>
<path d="M193.682 116.53C193.682 117.755 192.69 118.747 191.465 118.747C190.241 118.747 189.248 117.755 189.248 116.53C189.248 115.306 190.241 114.313 191.465 114.313C192.69 114.313 193.682 115.306 193.682 116.53Z" fill="#FFD2BF"/>
<path d="M198.269 109.732C199.136 110.599 199.136 112.003 198.269 112.87C197.401 113.737 195.997 113.737 195.13 112.87C194.263 112.003 194.263 110.599 195.13 109.732C195.999 108.864 197.401 108.864 198.269 109.732Z" fill="#FFD2BF"/>
<path d="M203.494 107.638C204.361 106.771 204.361 105.367 203.494 104.5C202.626 103.632 201.225 103.632 200.355 104.5C199.488 105.367 199.488 106.771 200.355 107.638C201.222 108.506 202.626 108.506 203.494 107.638Z" fill="#FFD2BF"/>
<path d="M187.805 120.189C188.672 121.056 188.672 122.46 187.805 123.327C186.938 124.194 185.533 124.194 184.666 123.327C183.799 122.46 183.799 121.056 184.666 120.189C185.533 119.321 186.938 119.321 187.805 120.189Z" fill="#FFD2BF"/>
<line x1="302.354" y1="293.354" x2="199.354" y2="396.354" stroke="#E0FFCB"/>
<line x1="586.354" y1="359.354" x2="520.354" y2="425.354" stroke="#E0FFCB"/>
<line x1="172.354" y1="423.354" x2="24.3536" y2="571.354" stroke="#E0FFCB"/>
<line x1="363.354" y1="378.354" x2="338.354" y2="403.354" stroke="#FFD2BF"/>
<line x1="267.354" y1="394.354" x2="238.354" y2="423.354" stroke="#C3DFFF"/>
<line x1="470.354" y1="408.354" x2="441.354" y2="437.354" stroke="#C3DFFF"/>
<line x1="252.354" y1="129.354" x2="3.35355" y2="378.354" stroke="white"/>
<line x1="313.354" y1="207.354" x2="12.3536" y2="508.354" stroke="white"/>
<line x1="201.354" y1="246.354" x2="39.3536" y2="408.354" stroke="#EFC1FF"/>
<line x1="182.354" y1="49.3536" x2="41.3536" y2="190.354" stroke="#EFC1FF"/>
<line x1="172.354" y1="135.354" x2="-76.6465" y2="384.354" stroke="#FFD2BF"/>
<path d="M649.35 149.65C650.217 150.518 650.217 151.922 649.35 152.789C648.482 153.656 647.078 153.656 646.211 152.789C645.344 151.922 645.344 150.518 646.211 149.65C647.078 148.783 648.482 148.783 649.35 149.65Z" fill="white"/>
<path d="M644.118 158.014C644.985 157.147 644.985 155.743 644.118 154.876C643.251 154.008 641.849 154.008 640.979 154.876C640.112 155.743 640.112 157.147 640.979 158.014C641.846 158.882 643.251 158.882 644.118 158.014Z" fill="white"/>
<path d="M622.53 163.892C623.754 163.892 624.747 162.899 624.747 161.675C624.747 160.45 623.754 159.457 622.53 159.457C621.305 159.457 620.313 160.45 620.313 161.675C620.313 162.899 621.305 163.892 622.53 163.892Z" fill="white"/>
<path d="M629.929 163.892C631.153 163.892 632.146 162.899 632.146 161.675C632.146 160.45 631.153 159.457 629.929 159.457C628.704 159.457 627.712 160.45 627.712 161.675C627.712 162.899 628.704 163.892 629.929 163.892Z" fill="white"/>
<path d="M637.321 171.288C638.546 171.288 639.538 170.296 639.538 169.071C639.538 167.847 638.546 166.854 637.321 166.854C636.097 166.854 635.104 167.847 635.104 169.071C635.104 170.296 636.097 171.288 637.321 171.288Z" fill="white"/>
<path d="M639.538 161.675C639.538 162.899 638.546 163.892 637.321 163.892C636.097 163.892 635.104 162.899 635.104 161.675C635.104 160.45 636.097 159.457 637.321 159.457C638.546 159.457 639.538 160.45 639.538 161.675Z" fill="white"/>
<path d="M617.35 161.675C617.35 162.899 616.358 163.892 615.133 163.892C613.909 163.892 612.916 162.899 612.916 161.675C612.916 160.45 613.909 159.457 615.133 159.457C616.358 159.457 617.35 160.45 617.35 161.675Z" fill="white"/>
<path d="M607.741 163.892C608.965 163.892 609.958 162.899 609.958 161.675C609.958 160.45 608.965 159.457 607.741 159.457C606.517 159.457 605.524 160.45 605.524 161.675C605.524 162.899 606.517 163.892 607.741 163.892Z" fill="white"/>
<path d="M639.538 176.47C639.538 177.694 638.546 178.687 637.321 178.687C636.097 178.687 635.104 177.694 635.104 176.47C635.104 175.246 636.097 174.253 637.321 174.253C638.546 174.253 639.538 175.246 639.538 176.47Z" fill="white"/>
<path d="M609.006 199.603C610.23 199.603 611.223 198.611 611.223 197.386C611.223 196.162 610.23 195.169 609.006 195.169C607.782 195.169 606.789 196.162 606.789 197.386C606.789 198.611 607.782 199.603 609.006 199.603Z" fill="white"/>
<path d="M603.833 189.987C603.833 191.212 602.84 192.204 601.616 192.204C600.391 192.204 599.399 191.212 599.399 189.987C599.399 188.763 600.391 187.77 601.616 187.77C602.84 187.77 603.833 188.763 603.833 189.987Z" fill="white"/>
<path d="M609.006 192.204C610.23 192.204 611.223 191.212 611.223 189.987C611.223 188.763 610.23 187.77 609.006 187.77C607.782 187.77 606.789 188.763 606.789 189.987C606.789 191.212 607.782 192.204 609.006 192.204Z" fill="white"/>
<path d="M596.434 189.987C596.434 191.212 595.442 192.204 594.217 192.204C592.993 192.204 592 191.212 592 189.987C592 188.763 592.993 187.77 594.217 187.77C595.442 187.77 596.434 188.763 596.434 189.987Z" fill="white"/>
<path d="M609.006 207C610.23 207 611.223 206.007 611.223 204.783C611.223 203.558 610.23 202.566 609.006 202.566C607.782 202.566 606.789 203.558 606.789 204.783C606.789 206.007 607.782 207 609.006 207Z" fill="white"/>
<path d="M639.538 183.862C639.538 185.087 638.546 186.079 637.321 186.079C636.097 186.079 635.104 185.087 635.104 183.862C635.104 182.638 636.097 181.645 637.321 181.645C638.546 181.645 639.538 182.638 639.538 183.862Z" fill="white"/>
<path d="M637.321 189.042C638.547 189.042 639.538 190.033 639.538 191.259C639.538 192.485 638.547 193.476 637.321 193.476C636.095 193.476 635.104 192.485 635.104 191.259C635.104 190.033 636.093 189.042 637.321 189.042Z" fill="white"/>
<path d="M621.682 179.53C621.682 180.755 620.69 181.747 619.465 181.747C618.241 181.747 617.248 180.755 617.248 179.53C617.248 178.306 618.241 177.313 619.465 177.313C620.69 177.313 621.682 178.306 621.682 179.53Z" fill="white"/>
<path d="M626.269 172.732C627.136 173.599 627.136 175.003 626.269 175.87C625.401 176.737 623.997 176.737 623.13 175.87C622.263 175.003 622.263 173.599 623.13 172.732C623.999 171.864 625.401 171.864 626.269 172.732Z" fill="white"/>
<path d="M631.494 170.638C632.361 169.771 632.361 168.367 631.494 167.5C630.626 166.632 629.225 166.632 628.355 167.5C627.488 168.367 627.488 169.771 628.355 170.638C629.222 171.506 630.626 171.506 631.494 170.638Z" fill="white"/>
<path d="M615.805 183.189C616.672 184.056 616.672 185.46 615.805 186.327C614.938 187.194 613.533 187.194 612.666 186.327C611.799 185.46 611.799 184.056 612.666 183.189C613.533 182.321 614.938 182.321 615.805 183.189Z" fill="white"/>
<line x1="599.354" y1="201.354" x2="407.354" y2="393.354" stroke="white"/>
<path d="M137.35 634.65C138.217 635.518 138.217 636.922 137.35 637.789C136.482 638.656 135.078 638.656 134.211 637.789C133.344 636.922 133.344 635.518 134.211 634.65C135.078 633.783 136.482 633.783 137.35 634.65Z" fill="#C3DFFF"/>
<path d="M132.118 643.014C132.985 642.147 132.985 640.743 132.118 639.876C131.251 639.008 129.849 639.008 128.979 639.876C128.112 640.743 128.112 642.147 128.979 643.014C129.846 643.882 131.251 643.882 132.118 643.014Z" fill="#C3DFFF"/>
<path d="M110.53 648.892C111.754 648.892 112.747 647.899 112.747 646.675C112.747 645.45 111.754 644.457 110.53 644.457C109.305 644.457 108.313 645.45 108.313 646.675C108.313 647.899 109.305 648.892 110.53 648.892Z" fill="#C3DFFF"/>
<path d="M117.929 648.892C119.153 648.892 120.146 647.899 120.146 646.675C120.146 645.45 119.153 644.457 117.929 644.457C116.704 644.457 115.712 645.45 115.712 646.675C115.712 647.899 116.704 648.892 117.929 648.892Z" fill="#C3DFFF"/>
<path d="M125.321 656.288C126.546 656.288 127.538 655.296 127.538 654.071C127.538 652.847 126.546 651.854 125.321 651.854C124.097 651.854 123.104 652.847 123.104 654.071C123.104 655.296 124.097 656.288 125.321 656.288Z" fill="#C3DFFF"/>
<path d="M127.538 646.675C127.538 647.899 126.546 648.892 125.321 648.892C124.097 648.892 123.104 647.899 123.104 646.675C123.104 645.45 124.097 644.457 125.321 644.457C126.546 644.457 127.538 645.45 127.538 646.675Z" fill="#C3DFFF"/>
<path d="M105.35 646.675C105.35 647.899 104.358 648.892 103.133 648.892C101.909 648.892 100.916 647.899 100.916 646.675C100.916 645.45 101.909 644.457 103.133 644.457C104.358 644.457 105.35 645.45 105.35 646.675Z" fill="#C3DFFF"/>
<path d="M95.741 648.892C96.9654 648.892 97.958 647.899 97.958 646.675C97.958 645.45 96.9654 644.457 95.741 644.457C94.5165 644.457 93.524 645.45 93.524 646.675C93.524 647.899 94.5165 648.892 95.741 648.892Z" fill="#C3DFFF"/>
<path d="M127.538 661.47C127.538 662.694 126.546 663.687 125.321 663.687C124.097 663.687 123.104 662.694 123.104 661.47C123.104 660.246 124.097 659.253 125.321 659.253C126.546 659.253 127.538 660.246 127.538 661.47Z" fill="#C3DFFF"/>
<path d="M97.006 684.603C98.2305 684.603 99.223 683.611 99.223 682.386C99.223 681.162 98.2305 680.169 97.006 680.169C95.7816 680.169 94.789 681.162 94.789 682.386C94.789 683.611 95.7816 684.603 97.006 684.603Z" fill="#C3DFFF"/>
<path d="M91.8329 674.987C91.8329 676.212 90.8403 677.204 89.6159 677.204C88.3915 677.204 87.3988 676.212 87.3988 674.987C87.3988 673.763 88.3915 672.77 89.6159 672.77C90.8403 672.77 91.8329 673.763 91.8329 674.987Z" fill="#C3DFFF"/>
<path d="M97.006 677.204C98.2305 677.204 99.223 676.212 99.223 674.987C99.223 673.763 98.2305 672.77 97.006 672.77C95.7816 672.77 94.789 673.763 94.789 674.987C94.789 676.212 95.7816 677.204 97.006 677.204Z" fill="#C3DFFF"/>
<path d="M84.4341 674.987C84.4341 676.212 83.4415 677.204 82.2171 677.204C80.9926 677.204 80 676.212 80 674.987C80 673.763 80.9926 672.77 82.2171 672.77C83.4415 672.77 84.4341 673.763 84.4341 674.987Z" fill="#C3DFFF"/>
<path d="M97.006 692C98.2305 692 99.223 691.007 99.223 689.783C99.223 688.558 98.2305 687.566 97.006 687.566C95.7816 687.566 94.789 688.558 94.789 689.783C94.789 691.007 95.7816 692 97.006 692Z" fill="#C3DFFF"/>
<path d="M127.538 668.862C127.538 670.087 126.546 671.079 125.321 671.079C124.097 671.079 123.104 670.087 123.104 668.862C123.104 667.638 124.097 666.645 125.321 666.645C126.546 666.645 127.538 667.638 127.538 668.862Z" fill="#C3DFFF"/>
<path d="M125.321 674.042C126.547 674.042 127.538 675.033 127.538 676.259C127.538 677.485 126.547 678.476 125.321 678.476C124.095 678.476 123.104 677.485 123.104 676.259C123.104 675.033 124.093 674.042 125.321 674.042Z" fill="#C3DFFF"/>
<path d="M109.682 664.53C109.682 665.755 108.69 666.747 107.465 666.747C106.241 666.747 105.248 665.755 105.248 664.53C105.248 663.306 106.241 662.313 107.465 662.313C108.69 662.313 109.682 663.306 109.682 664.53Z" fill="#C3DFFF"/>
<path d="M114.269 657.732C115.136 658.599 115.136 660.003 114.269 660.87C113.401 661.737 111.997 661.737 111.13 660.87C110.263 660.003 110.263 658.599 111.13 657.732C111.999 656.864 113.401 656.864 114.269 657.732Z" fill="#C3DFFF"/>
<path d="M119.494 655.638C120.361 654.771 120.361 653.367 119.494 652.5C118.626 651.632 117.225 651.632 116.355 652.5C115.488 653.367 115.488 654.771 116.355 655.638C117.222 656.506 118.626 656.506 119.494 655.638Z" fill="#C3DFFF"/>
<path d="M103.805 668.189C104.672 669.056 104.672 670.46 103.805 671.327C102.938 672.194 101.533 672.194 100.666 671.327C99.799 670.46 99.799 669.056 100.666 668.189C101.533 667.321 102.938 667.321 103.805 668.189Z" fill="#C3DFFF"/>
<path d="M614.35 814.65C615.217 815.518 615.217 816.922 614.35 817.789C613.482 818.656 612.078 818.656 611.211 817.789C610.344 816.922 610.344 815.518 611.211 814.65C612.078 813.783 613.482 813.783 614.35 814.65Z" fill="#C3DFFF"/>
<path d="M609.118 823.014C609.985 822.147 609.985 820.743 609.118 819.876C608.251 819.008 606.849 819.008 605.979 819.876C605.112 820.743 605.112 822.147 605.979 823.014C606.846 823.882 608.251 823.882 609.118 823.014Z" fill="#C3DFFF"/>
<path d="M587.53 828.892C588.754 828.892 589.747 827.899 589.747 826.675C589.747 825.45 588.754 824.457 587.53 824.457C586.305 824.457 585.313 825.45 585.313 826.675C585.313 827.899 586.305 828.892 587.53 828.892Z" fill="#C3DFFF"/>
<path d="M594.929 828.892C596.153 828.892 597.146 827.899 597.146 826.675C597.146 825.45 596.153 824.457 594.929 824.457C593.704 824.457 592.712 825.45 592.712 826.675C592.712 827.899 593.704 828.892 594.929 828.892Z" fill="#C3DFFF"/>
<path d="M602.321 836.288C603.546 836.288 604.538 835.296 604.538 834.071C604.538 832.847 603.546 831.854 602.321 831.854C601.097 831.854 600.104 832.847 600.104 834.071C600.104 835.296 601.097 836.288 602.321 836.288Z" fill="#C3DFFF"/>
<path d="M604.538 826.675C604.538 827.899 603.546 828.892 602.321 828.892C601.097 828.892 600.104 827.899 600.104 826.675C600.104 825.45 601.097 824.457 602.321 824.457C603.546 824.457 604.538 825.45 604.538 826.675Z" fill="#C3DFFF"/>
<path d="M582.35 826.675C582.35 827.899 581.358 828.892 580.133 828.892C578.909 828.892 577.916 827.899 577.916 826.675C577.916 825.45 578.909 824.457 580.133 824.457C581.358 824.457 582.35 825.45 582.35 826.675Z" fill="#C3DFFF"/>
<path d="M572.741 828.892C573.965 828.892 574.958 827.899 574.958 826.675C574.958 825.45 573.965 824.457 572.741 824.457C571.517 824.457 570.524 825.45 570.524 826.675C570.524 827.899 571.517 828.892 572.741 828.892Z" fill="#C3DFFF"/>
<path d="M604.538 841.47C604.538 842.694 603.546 843.687 602.321 843.687C601.097 843.687 600.104 842.694 600.104 841.47C600.104 840.246 601.097 839.253 602.321 839.253C603.546 839.253 604.538 840.246 604.538 841.47Z" fill="#C3DFFF"/>
<path d="M574.006 864.603C575.23 864.603 576.223 863.611 576.223 862.386C576.223 861.162 575.23 860.169 574.006 860.169C572.782 860.169 571.789 861.162 571.789 862.386C571.789 863.611 572.782 864.603 574.006 864.603Z" fill="#C3DFFF"/>
<path d="M568.833 854.987C568.833 856.212 567.84 857.204 566.616 857.204C565.391 857.204 564.399 856.212 564.399 854.987C564.399 853.763 565.391 852.77 566.616 852.77C567.84 852.77 568.833 853.763 568.833 854.987Z" fill="#C3DFFF"/>
<path d="M574.006 857.204C575.23 857.204 576.223 856.212 576.223 854.987C576.223 853.763 575.23 852.77 574.006 852.77C572.782 852.77 571.789 853.763 571.789 854.987C571.789 856.212 572.782 857.204 574.006 857.204Z" fill="#C3DFFF"/>
<path d="M561.434 854.987C561.434 856.212 560.442 857.204 559.217 857.204C557.993 857.204 557 856.212 557 854.987C557 853.763 557.993 852.77 559.217 852.77C560.442 852.77 561.434 853.763 561.434 854.987Z" fill="#C3DFFF"/>
<path d="M574.006 872C575.23 872 576.223 871.007 576.223 869.783C576.223 868.558 575.23 867.566 574.006 867.566C572.782 867.566 571.789 868.558 571.789 869.783C571.789 871.007 572.782 872 574.006 872Z" fill="#C3DFFF"/>
<path d="M604.538 848.862C604.538 850.087 603.546 851.079 602.321 851.079C601.097 851.079 600.104 850.087 600.104 848.862C600.104 847.638 601.097 846.645 602.321 846.645C603.546 846.645 604.538 847.638 604.538 848.862Z" fill="#C3DFFF"/>
<path d="M602.321 854.042C603.547 854.042 604.538 855.033 604.538 856.259C604.538 857.485 603.547 858.476 602.321 858.476C601.095 858.476 600.104 857.485 600.104 856.259C600.104 855.033 601.093 854.042 602.321 854.042Z" fill="#C3DFFF"/>
<path d="M586.682 844.53C586.682 845.755 585.69 846.747 584.465 846.747C583.241 846.747 582.248 845.755 582.248 844.53C582.248 843.306 583.241 842.313 584.465 842.313C585.69 842.313 586.682 843.306 586.682 844.53Z" fill="#C3DFFF"/>
<path d="M591.269 837.732C592.136 838.599 592.136 840.003 591.269 840.87C590.401 841.737 588.997 841.737 588.13 840.87C587.263 840.003 587.263 838.599 588.13 837.732C588.999 836.864 590.401 836.864 591.269 837.732Z" fill="#C3DFFF"/>
<path d="M596.494 835.638C597.361 834.771 597.361 833.367 596.494 832.5C595.626 831.632 594.225 831.632 593.355 832.5C592.488 833.367 592.488 834.771 593.355 835.638C594.222 836.506 595.626 836.506 596.494 835.638Z" fill="#C3DFFF"/>
<path d="M580.805 848.189C581.672 849.056 581.672 850.46 580.805 851.327C579.938 852.194 578.533 852.194 577.666 851.327C576.799 850.46 576.799 849.056 577.666 848.189C578.533 847.321 579.938 847.321 580.805 848.189Z" fill="#C3DFFF"/>
<path d="M523.35 631.65C524.217 632.518 524.217 633.922 523.35 634.789C522.482 635.656 521.078 635.656 520.211 634.789C519.344 633.922 519.344 632.518 520.211 631.65C521.078 630.783 522.482 630.783 523.35 631.65Z" fill="#C3DFFF"/>
<path d="M518.118 640.014C518.985 639.147 518.985 637.743 518.118 636.876C517.251 636.008 515.849 636.008 514.979 636.876C514.112 637.743 514.112 639.147 514.979 640.014C515.846 640.882 517.251 640.882 518.118 640.014Z" fill="#C3DFFF"/>
<path d="M496.53 645.892C497.754 645.892 498.747 644.899 498.747 643.675C498.747 642.45 497.754 641.457 496.53 641.457C495.305 641.457 494.313 642.45 494.313 643.675C494.313 644.899 495.305 645.892 496.53 645.892Z" fill="#C3DFFF"/>
<path d="M503.929 645.892C505.153 645.892 506.146 644.899 506.146 643.675C506.146 642.45 505.153 641.457 503.929 641.457C502.704 641.457 501.712 642.45 501.712 643.675C501.712 644.899 502.704 645.892 503.929 645.892Z" fill="#C3DFFF"/>
<path d="M511.321 653.288C512.546 653.288 513.538 652.296 513.538 651.071C513.538 649.847 512.546 648.854 511.321 648.854C510.097 648.854 509.104 649.847 509.104 651.071C509.104 652.296 510.097 653.288 511.321 653.288Z" fill="#C3DFFF"/>
<path d="M513.538 643.675C513.538 644.899 512.546 645.892 511.321 645.892C510.097 645.892 509.104 644.899 509.104 643.675C509.104 642.45 510.097 641.457 511.321 641.457C512.546 641.457 513.538 642.45 513.538 643.675Z" fill="#C3DFFF"/>
<path d="M491.35 643.675C491.35 644.899 490.358 645.892 489.133 645.892C487.909 645.892 486.916 644.899 486.916 643.675C486.916 642.45 487.909 641.457 489.133 641.457C490.358 641.457 491.35 642.45 491.35 643.675Z" fill="#C3DFFF"/>
<path d="M481.741 645.892C482.965 645.892 483.958 644.899 483.958 643.675C483.958 642.45 482.965 641.457 481.741 641.457C480.517 641.457 479.524 642.45 479.524 643.675C479.524 644.899 480.517 645.892 481.741 645.892Z" fill="#C3DFFF"/>
<path d="M513.538 658.47C513.538 659.694 512.546 660.687 511.321 660.687C510.097 660.687 509.104 659.694 509.104 658.47C509.104 657.246 510.097 656.253 511.321 656.253C512.546 656.253 513.538 657.246 513.538 658.47Z" fill="#C3DFFF"/>
<path d="M483.006 681.603C484.23 681.603 485.223 680.611 485.223 679.386C485.223 678.162 484.23 677.169 483.006 677.169C481.782 677.169 480.789 678.162 480.789 679.386C480.789 680.611 481.782 681.603 483.006 681.603Z" fill="#C3DFFF"/>
<path d="M477.833 671.987C477.833 673.212 476.84 674.204 475.616 674.204C474.391 674.204 473.399 673.212 473.399 671.987C473.399 670.763 474.391 669.77 475.616 669.77C476.84 669.77 477.833 670.763 477.833 671.987Z" fill="#C3DFFF"/>
<path d="M483.006 674.204C484.23 674.204 485.223 673.212 485.223 671.987C485.223 670.763 484.23 669.77 483.006 669.77C481.782 669.77 480.789 670.763 480.789 671.987C480.789 673.212 481.782 674.204 483.006 674.204Z" fill="#C3DFFF"/>
<path d="M470.434 671.987C470.434 673.212 469.442 674.204 468.217 674.204C466.993 674.204 466 673.212 466 671.987C466 670.763 466.993 669.77 468.217 669.77C469.442 669.77 470.434 670.763 470.434 671.987Z" fill="#C3DFFF"/>
<path d="M483.006 689C484.23 689 485.223 688.007 485.223 686.783C485.223 685.558 484.23 684.566 483.006 684.566C481.782 684.566 480.789 685.558 480.789 686.783C480.789 688.007 481.782 689 483.006 689Z" fill="#C3DFFF"/>
<path d="M513.538 665.862C513.538 667.087 512.546 668.079 511.321 668.079C510.097 668.079 509.104 667.087 509.104 665.862C509.104 664.638 510.097 663.645 511.321 663.645C512.546 663.645 513.538 664.638 513.538 665.862Z" fill="#C3DFFF"/>
<path d="M511.321 671.042C512.547 671.042 513.538 672.033 513.538 673.259C513.538 674.485 512.547 675.476 511.321 675.476C510.095 675.476 509.104 674.485 509.104 673.259C509.104 672.033 510.093 671.042 511.321 671.042Z" fill="#C3DFFF"/>
<path d="M495.682 661.53C495.682 662.755 494.69 663.747 493.465 663.747C492.241 663.747 491.248 662.755 491.248 661.53C491.248 660.306 492.241 659.313 493.465 659.313C494.69 659.313 495.682 660.306 495.682 661.53Z" fill="#C3DFFF"/>
<path d="M500.269 654.732C501.136 655.599 501.136 657.003 500.269 657.87C499.401 658.737 497.997 658.737 497.13 657.87C496.263 657.003 496.263 655.599 497.13 654.732C497.999 653.864 499.401 653.864 500.269 654.732Z" fill="#C3DFFF"/>
<path d="M505.494 652.638C506.361 651.771 506.361 650.367 505.494 649.5C504.626 648.632 503.225 648.632 502.355 649.5C501.488 650.367 501.488 651.771 502.355 652.638C503.222 653.506 504.626 653.506 505.494 652.638Z" fill="#C3DFFF"/>
<path d="M489.805 665.189C490.672 666.056 490.672 667.46 489.805 668.327C488.938 669.194 487.533 669.194 486.666 668.327C485.799 667.46 485.799 666.056 486.666 665.189C487.533 664.321 488.938 664.321 489.805 665.189Z" fill="#C3DFFF"/>
<path d="M288.35 716.65C289.217 717.518 289.217 718.922 288.35 719.789C287.482 720.656 286.078 720.656 285.211 719.789C284.344 718.922 284.344 717.518 285.211 716.65C286.078 715.783 287.482 715.783 288.35 716.65Z" fill="#FFD2BF"/>
<path d="M283.118 725.014C283.985 724.147 283.985 722.743 283.118 721.876C282.251 721.008 280.849 721.008 279.979 721.876C279.112 722.743 279.112 724.147 279.979 725.014C280.846 725.882 282.251 725.882 283.118 725.014Z" fill="#FFD2BF"/>
<path d="M261.53 730.892C262.754 730.892 263.747 729.899 263.747 728.675C263.747 727.45 262.754 726.457 261.53 726.457C260.305 726.457 259.313 727.45 259.313 728.675C259.313 729.899 260.305 730.892 261.53 730.892Z" fill="#FFD2BF"/>
<path d="M268.929 730.892C270.153 730.892 271.146 729.899 271.146 728.675C271.146 727.45 270.153 726.457 268.929 726.457C267.704 726.457 266.712 727.45 266.712 728.675C266.712 729.899 267.704 730.892 268.929 730.892Z" fill="#FFD2BF"/>
<path d="M276.321 738.288C277.546 738.288 278.538 737.296 278.538 736.071C278.538 734.847 277.546 733.854 276.321 733.854C275.097 733.854 274.104 734.847 274.104 736.071C274.104 737.296 275.097 738.288 276.321 738.288Z" fill="#FFD2BF"/>
<path d="M278.538 728.675C278.538 729.899 277.546 730.892 276.321 730.892C275.097 730.892 274.104 729.899 274.104 728.675C274.104 727.45 275.097 726.457 276.321 726.457C277.546 726.457 278.538 727.45 278.538 728.675Z" fill="#FFD2BF"/>
<path d="M256.35 728.675C256.35 729.899 255.358 730.892 254.133 730.892C252.909 730.892 251.916 729.899 251.916 728.675C251.916 727.45 252.909 726.457 254.133 726.457C255.358 726.457 256.35 727.45 256.35 728.675Z" fill="#FFD2BF"/>
<path d="M246.741 730.892C247.965 730.892 248.958 729.899 248.958 728.675C248.958 727.45 247.965 726.457 246.741 726.457C245.517 726.457 244.524 727.45 244.524 728.675C244.524 729.899 245.517 730.892 246.741 730.892Z" fill="#FFD2BF"/>
<path d="M278.538 743.47C278.538 744.694 277.546 745.687 276.321 745.687C275.097 745.687 274.104 744.694 274.104 743.47C274.104 742.246 275.097 741.253 276.321 741.253C277.546 741.253 278.538 742.246 278.538 743.47Z" fill="#FFD2BF"/>
<path d="M248.006 766.603C249.23 766.603 250.223 765.611 250.223 764.386C250.223 763.162 249.23 762.169 248.006 762.169C246.782 762.169 245.789 763.162 245.789 764.386C245.789 765.611 246.782 766.603 248.006 766.603Z" fill="#FFD2BF"/>
<path d="M242.833 756.987C242.833 758.212 241.84 759.204 240.616 759.204C239.391 759.204 238.399 758.212 238.399 756.987C238.399 755.763 239.391 754.77 240.616 754.77C241.84 754.77 242.833 755.763 242.833 756.987Z" fill="#FFD2BF"/>
<path d="M248.006 759.204C249.23 759.204 250.223 758.212 250.223 756.987C250.223 755.763 249.23 754.77 248.006 754.77C246.782 754.77 245.789 755.763 245.789 756.987C245.789 758.212 246.782 759.204 248.006 759.204Z" fill="#FFD2BF"/>
<path d="M235.434 756.987C235.434 758.212 234.442 759.204 233.217 759.204C231.993 759.204 231 758.212 231 756.987C231 755.763 231.993 754.77 233.217 754.77C234.442 754.77 235.434 755.763 235.434 756.987Z" fill="#FFD2BF"/>
<path d="M248.006 774C249.23 774 250.223 773.007 250.223 771.783C250.223 770.558 249.23 769.566 248.006 769.566C246.782 769.566 245.789 770.558 245.789 771.783C245.789 773.007 246.782 774 248.006 774Z" fill="#FFD2BF"/>
<path d="M278.538 750.862C278.538 752.087 277.546 753.079 276.321 753.079C275.097 753.079 274.104 752.087 274.104 750.862C274.104 749.638 275.097 748.645 276.321 748.645C277.546 748.645 278.538 749.638 278.538 750.862Z" fill="#FFD2BF"/>
<path d="M276.321 756.042C277.547 756.042 278.538 757.033 278.538 758.259C278.538 759.485 277.547 760.476 276.321 760.476C275.095 760.476 274.104 759.485 274.104 758.259C274.104 757.033 275.093 756.042 276.321 756.042Z" fill="#FFD2BF"/>
<path d="M260.682 746.53C260.682 747.755 259.69 748.747 258.465 748.747C257.241 748.747 256.248 747.755 256.248 746.53C256.248 745.306 257.241 744.313 258.465 744.313C259.69 744.313 260.682 745.306 260.682 746.53Z" fill="#FFD2BF"/>
<path d="M265.269 739.732C266.136 740.599 266.136 742.003 265.269 742.87C264.401 743.737 262.997 743.737 262.13 742.87C261.263 742.003 261.263 740.599 262.13 739.732C262.999 738.864 264.401 738.864 265.269 739.732Z" fill="#FFD2BF"/>
<path d="M270.494 737.638C271.361 736.771 271.361 735.367 270.494 734.5C269.626 733.632 268.225 733.632 267.355 734.5C266.488 735.367 266.488 736.771 267.355 737.638C268.222 738.506 269.626 738.506 270.494 737.638Z" fill="#FFD2BF"/>
<path d="M254.805 750.189C255.672 751.056 255.672 752.46 254.805 753.327C253.938 754.194 252.533 754.194 251.666 753.327C250.799 752.46 250.799 751.056 251.666 750.189C252.533 749.321 253.938 749.321 254.805 750.189Z" fill="#FFD2BF"/>
<path d="M386.35 540.65C387.217 541.518 387.217 542.922 386.35 543.789C385.482 544.656 384.078 544.656 383.211 543.789C382.344 542.922 382.344 541.518 383.211 540.65C384.078 539.783 385.482 539.783 386.35 540.65Z" fill="#C3DFFF"/>
<path d="M381.118 549.014C381.985 548.147 381.985 546.743 381.118 545.876C380.251 545.008 378.849 545.008 377.979 545.876C377.112 546.743 377.112 548.147 377.979 549.014C378.846 549.882 380.251 549.882 381.118 549.014Z" fill="#C3DFFF"/>
<path d="M359.53 554.892C360.754 554.892 361.747 553.899 361.747 552.675C361.747 551.45 360.754 550.457 359.53 550.457C358.305 550.457 357.313 551.45 357.313 552.675C357.313 553.899 358.305 554.892 359.53 554.892Z" fill="#C3DFFF"/>
<path d="M366.929 554.892C368.153 554.892 369.146 553.899 369.146 552.675C369.146 551.45 368.153 550.457 366.929 550.457C365.704 550.457 364.712 551.45 364.712 552.675C364.712 553.899 365.704 554.892 366.929 554.892Z" fill="#C3DFFF"/>
<path d="M374.321 562.288C375.546 562.288 376.538 561.296 376.538 560.071C376.538 558.847 375.546 557.854 374.321 557.854C373.097 557.854 372.104 558.847 372.104 560.071C372.104 561.296 373.097 562.288 374.321 562.288Z" fill="#C3DFFF"/>
<path d="M376.538 552.675C376.538 553.899 375.546 554.892 374.321 554.892C373.097 554.892 372.104 553.899 372.104 552.675C372.104 551.45 373.097 550.457 374.321 550.457C375.546 550.457 376.538 551.45 376.538 552.675Z" fill="#C3DFFF"/>
<path d="M354.35 552.675C354.35 553.899 353.358 554.892 352.133 554.892C350.909 554.892 349.916 553.899 349.916 552.675C349.916 551.45 350.909 550.457 352.133 550.457C353.358 550.457 354.35 551.45 354.35 552.675Z" fill="#C3DFFF"/>
<path d="M344.741 554.892C345.965 554.892 346.958 553.899 346.958 552.675C346.958 551.45 345.965 550.457 344.741 550.457C343.517 550.457 342.524 551.45 342.524 552.675C342.524 553.899 343.517 554.892 344.741 554.892Z" fill="#C3DFFF"/>
<path d="M376.538 567.47C376.538 568.694 375.546 569.687 374.321 569.687C373.097 569.687 372.104 568.694 372.104 567.47C372.104 566.246 373.097 565.253 374.321 565.253C375.546 565.253 376.538 566.246 376.538 567.47Z" fill="#C3DFFF"/>
<path d="M346.006 590.603C347.23 590.603 348.223 589.611 348.223 588.386C348.223 587.162 347.23 586.169 346.006 586.169C344.782 586.169 343.789 587.162 343.789 588.386C343.789 589.611 344.782 590.603 346.006 590.603Z" fill="#C3DFFF"/>
<path d="M340.833 580.987C340.833 582.212 339.84 583.204 338.616 583.204C337.391 583.204 336.399 582.212 336.399 580.987C336.399 579.763 337.391 578.77 338.616 578.77C339.84 578.77 340.833 579.763 340.833 580.987Z" fill="#C3DFFF"/>
<path d="M346.006 583.204C347.23 583.204 348.223 582.212 348.223 580.987C348.223 579.763 347.23 578.77 346.006 578.77C344.782 578.77 343.789 579.763 343.789 580.987C343.789 582.212 344.782 583.204 346.006 583.204Z" fill="#C3DFFF"/>
<path d="M333.434 580.987C333.434 582.212 332.442 583.204 331.217 583.204C329.993 583.204 329 582.212 329 580.987C329 579.763 329.993 578.77 331.217 578.77C332.442 578.77 333.434 579.763 333.434 580.987Z" fill="#C3DFFF"/>
<path d="M346.006 598C347.23 598 348.223 597.007 348.223 595.783C348.223 594.558 347.23 593.566 346.006 593.566C344.782 593.566 343.789 594.558 343.789 595.783C343.789 597.007 344.782 598 346.006 598Z" fill="#C3DFFF"/>
<path d="M376.538 574.862C376.538 576.087 375.546 577.079 374.321 577.079C373.097 577.079 372.104 576.087 372.104 574.862C372.104 573.638 373.097 572.645 374.321 572.645C375.546 572.645 376.538 573.638 376.538 574.862Z" fill="#C3DFFF"/>
<path d="M374.321 580.042C375.547 580.042 376.538 581.033 376.538 582.259C376.538 583.485 375.547 584.476 374.321 584.476C373.095 584.476 372.104 583.485 372.104 582.259C372.104 581.033 373.093 580.042 374.321 580.042Z" fill="#C3DFFF"/>
<path d="M358.682 570.53C358.682 571.755 357.69 572.747 356.465 572.747C355.241 572.747 354.248 571.755 354.248 570.53C354.248 569.306 355.241 568.313 356.465 568.313C357.69 568.313 358.682 569.306 358.682 570.53Z" fill="#C3DFFF"/>
<path d="M363.269 563.732C364.136 564.599 364.136 566.003 363.269 566.87C362.401 567.737 360.997 567.737 360.13 566.87C359.263 566.003 359.263 564.599 360.13 563.732C360.999 562.864 362.401 562.864 363.269 563.732Z" fill="#C3DFFF"/>
<path d="M368.494 561.638C369.361 560.771 369.361 559.367 368.494 558.5C367.626 557.632 366.225 557.632 365.355 558.5C364.488 559.367 364.488 560.771 365.355 561.638C366.222 562.506 367.626 562.506 368.494 561.638Z" fill="#C3DFFF"/>
<path d="M352.805 574.189C353.672 575.056 353.672 576.46 352.805 577.327C351.938 578.194 350.533 578.194 349.666 577.327C348.799 576.46 348.799 575.056 349.666 574.189C350.533 573.321 351.938 573.321 352.805 574.189Z" fill="#C3DFFF"/>
<path d="M270.35 580.65C271.217 581.518 271.217 582.922 270.35 583.789C269.482 584.656 268.078 584.656 267.211 583.789C266.344 582.922 266.344 581.518 267.211 580.65C268.078 579.783 269.482 579.783 270.35 580.65Z" fill="#E0FFCB"/>
<path d="M265.118 589.014C265.985 588.147 265.985 586.743 265.118 585.876C264.251 585.008 262.849 585.008 261.979 585.876C261.112 586.743 261.112 588.147 261.979 589.014C262.846 589.882 264.251 589.882 265.118 589.014Z" fill="#E0FFCB"/>
<path d="M243.53 594.892C244.754 594.892 245.747 593.899 245.747 592.675C245.747 591.45 244.754 590.457 243.53 590.457C242.305 590.457 241.313 591.45 241.313 592.675C241.313 593.899 242.305 594.892 243.53 594.892Z" fill="#E0FFCB"/>
<path d="M250.929 594.892C252.153 594.892 253.146 593.899 253.146 592.675C253.146 591.45 252.153 590.457 250.929 590.457C249.704 590.457 248.712 591.45 248.712 592.675C248.712 593.899 249.704 594.892 250.929 594.892Z" fill="#E0FFCB"/>
<path d="M258.321 602.288C259.546 602.288 260.538 601.296 260.538 600.071C260.538 598.847 259.546 597.854 258.321 597.854C257.097 597.854 256.104 598.847 256.104 600.071C256.104 601.296 257.097 602.288 258.321 602.288Z" fill="#E0FFCB"/>
<path d="M260.538 592.675C260.538 593.899 259.546 594.892 258.321 594.892C257.097 594.892 256.104 593.899 256.104 592.675C256.104 591.45 257.097 590.457 258.321 590.457C259.546 590.457 260.538 591.45 260.538 592.675Z" fill="#E0FFCB"/>
<path d="M238.35 592.675C238.35 593.899 237.358 594.892 236.133 594.892C234.909 594.892 233.916 593.899 233.916 592.675C233.916 591.45 234.909 590.457 236.133 590.457C237.358 590.457 238.35 591.45 238.35 592.675Z" fill="#E0FFCB"/>
<path d="M228.741 594.892C229.965 594.892 230.958 593.899 230.958 592.675C230.958 591.45 229.965 590.457 228.741 590.457C227.517 590.457 226.524 591.45 226.524 592.675C226.524 593.899 227.517 594.892 228.741 594.892Z" fill="#E0FFCB"/>
<path d="M260.538 607.47C260.538 608.694 259.546 609.687 258.321 609.687C257.097 609.687 256.104 608.694 256.104 607.47C256.104 606.246 257.097 605.253 258.321 605.253C259.546 605.253 260.538 606.246 260.538 607.47Z" fill="#E0FFCB"/>
<path d="M230.006 630.603C231.23 630.603 232.223 629.611 232.223 628.386C232.223 627.162 231.23 626.169 230.006 626.169C228.782 626.169 227.789 627.162 227.789 628.386C227.789 629.611 228.782 630.603 230.006 630.603Z" fill="#E0FFCB"/>
<path d="M224.833 620.987C224.833 622.212 223.84 623.204 222.616 623.204C221.391 623.204 220.399 622.212 220.399 620.987C220.399 619.763 221.391 618.77 222.616 618.77C223.84 618.77 224.833 619.763 224.833 620.987Z" fill="#E0FFCB"/>
<path d="M230.006 623.204C231.23 623.204 232.223 622.212 232.223 620.987C232.223 619.763 231.23 618.77 230.006 618.77C228.782 618.77 227.789 619.763 227.789 620.987C227.789 622.212 228.782 623.204 230.006 623.204Z" fill="#E0FFCB"/>
<path d="M217.434 620.987C217.434 622.212 216.442 623.204 215.217 623.204C213.993 623.204 213 622.212 213 620.987C213 619.763 213.993 618.77 215.217 618.77C216.442 618.77 217.434 619.763 217.434 620.987Z" fill="#E0FFCB"/>
<path d="M230.006 638C231.23 638 232.223 637.007 232.223 635.783C232.223 634.558 231.23 633.566 230.006 633.566C228.782 633.566 227.789 634.558 227.789 635.783C227.789 637.007 228.782 638 230.006 638Z" fill="#E0FFCB"/>
<path d="M260.538 614.862C260.538 616.087 259.546 617.079 258.321 617.079C257.097 617.079 256.104 616.087 256.104 614.862C256.104 613.638 257.097 612.645 258.321 612.645C259.546 612.645 260.538 613.638 260.538 614.862Z" fill="#E0FFCB"/>
<path d="M258.321 620.042C259.547 620.042 260.538 621.033 260.538 622.259C260.538 623.485 259.547 624.476 258.321 624.476C257.095 624.476 256.104 623.485 256.104 622.259C256.104 621.033 257.093 620.042 258.321 620.042Z" fill="#E0FFCB"/>
<path d="M242.682 610.53C242.682 611.755 241.69 612.747 240.465 612.747C239.241 612.747 238.248 611.755 238.248 610.53C238.248 609.306 239.241 608.313 240.465 608.313C241.69 608.313 242.682 609.306 242.682 610.53Z" fill="#E0FFCB"/>
<path d="M247.269 603.732C248.136 604.599 248.136 606.003 247.269 606.87C246.401 607.737 244.997 607.737 244.13 606.87C243.263 606.003 243.263 604.599 244.13 603.732C244.999 602.864 246.401 602.864 247.269 603.732Z" fill="#E0FFCB"/>
<path d="M252.494 601.638C253.361 600.771 253.361 599.367 252.494 598.5C251.626 597.632 250.225 597.632 249.355 598.5C248.488 599.367 248.488 600.771 249.355 601.638C250.222 602.506 251.626 602.506 252.494 601.638Z" fill="#E0FFCB"/>
<path d="M236.805 614.189C237.672 615.056 237.672 616.46 236.805 617.327C235.938 618.194 234.533 618.194 233.666 617.327C232.799 616.46 232.799 615.056 233.666 614.189C234.533 613.321 235.938 613.321 236.805 614.189Z" fill="#E0FFCB"/>
<path d="M622.35 616.65C623.217 617.518 623.217 618.922 622.35 619.789C621.482 620.656 620.078 620.656 619.211 619.789C618.344 618.922 618.344 617.518 619.211 616.65C620.078 615.783 621.482 615.783 622.35 616.65Z" fill="#E0FFCB"/>
<path d="M617.118 625.014C617.985 624.147 617.985 622.743 617.118 621.876C616.251 621.008 614.849 621.008 613.979 621.876C613.112 622.743 613.112 624.147 613.979 625.014C614.846 625.882 616.251 625.882 617.118 625.014Z" fill="#E0FFCB"/>
<path d="M595.53 630.892C596.754 630.892 597.747 629.899 597.747 628.675C597.747 627.45 596.754 626.457 595.53 626.457C594.305 626.457 593.313 627.45 593.313 628.675C593.313 629.899 594.305 630.892 595.53 630.892Z" fill="#E0FFCB"/>
<path d="M602.929 630.892C604.153 630.892 605.146 629.899 605.146 628.675C605.146 627.45 604.153 626.457 602.929 626.457C601.704 626.457 600.712 627.45 600.712 628.675C600.712 629.899 601.704 630.892 602.929 630.892Z" fill="#E0FFCB"/>
<path d="M610.321 638.288C611.546 638.288 612.538 637.296 612.538 636.071C612.538 634.847 611.546 633.854 610.321 633.854C609.097 633.854 608.104 634.847 608.104 636.071C608.104 637.296 609.097 638.288 610.321 638.288Z" fill="#E0FFCB"/>
<path d="M612.538 628.675C612.538 629.899 611.546 630.892 610.321 630.892C609.097 630.892 608.104 629.899 608.104 628.675C608.104 627.45 609.097 626.457 610.321 626.457C611.546 626.457 612.538 627.45 612.538 628.675Z" fill="#E0FFCB"/>
<path d="M590.35 628.675C590.35 629.899 589.358 630.892 588.133 630.892C586.909 630.892 585.916 629.899 585.916 628.675C585.916 627.45 586.909 626.457 588.133 626.457C589.358 626.457 590.35 627.45 590.35 628.675Z" fill="#E0FFCB"/>
<path d="M580.741 630.892C581.965 630.892 582.958 629.899 582.958 628.675C582.958 627.45 581.965 626.457 580.741 626.457C579.517 626.457 578.524 627.45 578.524 628.675C578.524 629.899 579.517 630.892 580.741 630.892Z" fill="#E0FFCB"/>
<path d="M612.538 643.47C612.538 644.694 611.546 645.687 610.321 645.687C609.097 645.687 608.104 644.694 608.104 643.47C608.104 642.246 609.097 641.253 610.321 641.253C611.546 641.253 612.538 642.246 612.538 643.47Z" fill="#E0FFCB"/>
<path d="M582.006 666.603C583.23 666.603 584.223 665.611 584.223 664.386C584.223 663.162 583.23 662.169 582.006 662.169C580.782 662.169 579.789 663.162 579.789 664.386C579.789 665.611 580.782 666.603 582.006 666.603Z" fill="#E0FFCB"/>
<path d="M576.833 656.987C576.833 658.212 575.84 659.204 574.616 659.204C573.391 659.204 572.399 658.212 572.399 656.987C572.399 655.763 573.391 654.77 574.616 654.77C575.84 654.77 576.833 655.763 576.833 656.987Z" fill="#E0FFCB"/>
<path d="M582.006 659.204C583.23 659.204 584.223 658.212 584.223 656.987C584.223 655.763 583.23 654.77 582.006 654.77C580.782 654.77 579.789 655.763 579.789 656.987C579.789 658.212 580.782 659.204 582.006 659.204Z" fill="#E0FFCB"/>
<path d="M569.434 656.987C569.434 658.212 568.442 659.204 567.217 659.204C565.993 659.204 565 658.212 565 656.987C565 655.763 565.993 654.77 567.217 654.77C568.442 654.77 569.434 655.763 569.434 656.987Z" fill="#E0FFCB"/>
<path d="M582.006 674C583.23 674 584.223 673.007 584.223 671.783C584.223 670.558 583.23 669.566 582.006 669.566C580.782 669.566 579.789 670.558 579.789 671.783C579.789 673.007 580.782 674 582.006 674Z" fill="#E0FFCB"/>
<path d="M612.538 650.862C612.538 652.087 611.546 653.079 610.321 653.079C609.097 653.079 608.104 652.087 608.104 650.862C608.104 649.638 609.097 648.645 610.321 648.645C611.546 648.645 612.538 649.638 612.538 650.862Z" fill="#E0FFCB"/>
<path d="M610.321 656.042C611.547 656.042 612.538 657.033 612.538 658.259C612.538 659.485 611.547 660.476 610.321 660.476C609.095 660.476 608.104 659.485 608.104 658.259C608.104 657.033 609.093 656.042 610.321 656.042Z" fill="#E0FFCB"/>
<path d="M594.682 646.53C594.682 647.755 593.69 648.747 592.465 648.747C591.241 648.747 590.248 647.755 590.248 646.53C590.248 645.306 591.241 644.313 592.465 644.313C593.69 644.313 594.682 645.306 594.682 646.53Z" fill="#E0FFCB"/>
<path d="M599.269 639.732C600.136 640.599 600.136 642.003 599.269 642.87C598.401 643.737 596.997 643.737 596.13 642.87C595.263 642.003 595.263 640.599 596.13 639.732C596.999 638.864 598.401 638.864 599.269 639.732Z" fill="#E0FFCB"/>
<path d="M604.494 637.638C605.361 636.771 605.361 635.367 604.494 634.5C603.626 633.632 602.225 633.632 601.355 634.5C600.488 635.367 600.488 636.771 601.355 637.638C602.222 638.506 603.626 638.506 604.494 637.638Z" fill="#E0FFCB"/>
<path d="M588.805 650.189C589.672 651.056 589.672 652.46 588.805 653.327C587.938 654.194 586.533 654.194 585.666 653.327C584.799 652.46 584.799 651.056 585.666 650.189C586.533 649.321 587.938 649.321 588.805 650.189Z" fill="#E0FFCB"/>
<path d="M557.35 517.65C558.217 518.518 558.217 519.922 557.35 520.789C556.482 521.656 555.078 521.656 554.211 520.789C553.344 519.922 553.344 518.518 554.211 517.65C555.078 516.783 556.482 516.783 557.35 517.65Z" fill="#C3DFFF"/>
<path d="M552.118 526.014C552.985 525.147 552.985 523.743 552.118 522.876C551.251 522.008 549.849 522.008 548.979 522.876C548.112 523.743 548.112 525.147 548.979 526.014C549.846 526.882 551.251 526.882 552.118 526.014Z" fill="#C3DFFF"/>
<path d="M530.53 531.892C531.754 531.892 532.747 530.899 532.747 529.675C532.747 528.45 531.754 527.457 530.53 527.457C529.305 527.457 528.313 528.45 528.313 529.675C528.313 530.899 529.305 531.892 530.53 531.892Z" fill="#C3DFFF"/>
<path d="M537.929 531.892C539.153 531.892 540.146 530.899 540.146 529.675C540.146 528.45 539.153 527.457 537.929 527.457C536.704 527.457 535.712 528.45 535.712 529.675C535.712 530.899 536.704 531.892 537.929 531.892Z" fill="#C3DFFF"/>
<path d="M545.321 539.288C546.546 539.288 547.538 538.296 547.538 537.071C547.538 535.847 546.546 534.854 545.321 534.854C544.097 534.854 543.104 535.847 543.104 537.071C543.104 538.296 544.097 539.288 545.321 539.288Z" fill="#C3DFFF"/>
<path d="M547.538 529.675C547.538 530.899 546.546 531.892 545.321 531.892C544.097 531.892 543.104 530.899 543.104 529.675C543.104 528.45 544.097 527.457 545.321 527.457C546.546 527.457 547.538 528.45 547.538 529.675Z" fill="#C3DFFF"/>
<path d="M525.35 529.675C525.35 530.899 524.358 531.892 523.133 531.892C521.909 531.892 520.916 530.899 520.916 529.675C520.916 528.45 521.909 527.457 523.133 527.457C524.358 527.457 525.35 528.45 525.35 529.675Z" fill="#C3DFFF"/>
<path d="M515.741 531.892C516.965 531.892 517.958 530.899 517.958 529.675C517.958 528.45 516.965 527.457 515.741 527.457C514.517 527.457 513.524 528.45 513.524 529.675C513.524 530.899 514.517 531.892 515.741 531.892Z" fill="#C3DFFF"/>
<path d="M547.538 544.47C547.538 545.694 546.546 546.687 545.321 546.687C544.097 546.687 543.104 545.694 543.104 544.47C543.104 543.246 544.097 542.253 545.321 542.253C546.546 542.253 547.538 543.246 547.538 544.47Z" fill="#C3DFFF"/>
<path d="M517.006 567.603C518.23 567.603 519.223 566.611 519.223 565.386C519.223 564.162 518.23 563.169 517.006 563.169C515.782 563.169 514.789 564.162 514.789 565.386C514.789 566.611 515.782 567.603 517.006 567.603Z" fill="#C3DFFF"/>
<path d="M511.833 557.987C511.833 559.212 510.84 560.204 509.616 560.204C508.391 560.204 507.399 559.212 507.399 557.987C507.399 556.763 508.391 555.77 509.616 555.77C510.84 555.77 511.833 556.763 511.833 557.987Z" fill="#C3DFFF"/>
<path d="M517.006 560.204C518.23 560.204 519.223 559.212 519.223 557.987C519.223 556.763 518.23 555.77 517.006 555.77C515.782 555.77 514.789 556.763 514.789 557.987C514.789 559.212 515.782 560.204 517.006 560.204Z" fill="#C3DFFF"/>
<path d="M504.434 557.987C504.434 559.212 503.442 560.204 502.217 560.204C500.993 560.204 500 559.212 500 557.987C500 556.763 500.993 555.77 502.217 555.77C503.442 555.77 504.434 556.763 504.434 557.987Z" fill="#C3DFFF"/>
<path d="M517.006 575C518.23 575 519.223 574.007 519.223 572.783C519.223 571.558 518.23 570.566 517.006 570.566C515.782 570.566 514.789 571.558 514.789 572.783C514.789 574.007 515.782 575 517.006 575Z" fill="#C3DFFF"/>
<path d="M547.538 551.862C547.538 553.087 546.546 554.079 545.321 554.079C544.097 554.079 543.104 553.087 543.104 551.862C543.104 550.638 544.097 549.645 545.321 549.645C546.546 549.645 547.538 550.638 547.538 551.862Z" fill="#C3DFFF"/>
<path d="M545.321 557.042C546.547 557.042 547.538 558.033 547.538 559.259C547.538 560.485 546.547 561.476 545.321 561.476C544.095 561.476 543.104 560.485 543.104 559.259C543.104 558.033 544.093 557.042 545.321 557.042Z" fill="#C3DFFF"/>
<path d="M529.682 547.53C529.682 548.755 528.69 549.747 527.465 549.747C526.241 549.747 525.248 548.755 525.248 547.53C525.248 546.306 526.241 545.313 527.465 545.313C528.69 545.313 529.682 546.306 529.682 547.53Z" fill="#C3DFFF"/>
<path d="M534.269 540.732C535.136 541.599 535.136 543.003 534.269 543.87C533.401 544.737 531.997 544.737 531.13 543.87C530.263 543.003 530.263 541.599 531.13 540.732C531.999 539.864 533.401 539.864 534.269 540.732Z" fill="#C3DFFF"/>
<path d="M539.494 538.638C540.361 537.771 540.361 536.367 539.494 535.5C538.626 534.632 537.225 534.632 536.355 535.5C535.488 536.367 535.488 537.771 536.355 538.638C537.222 539.506 538.626 539.506 539.494 538.638Z" fill="#C3DFFF"/>
<path d="M523.805 551.189C524.672 552.056 524.672 553.46 523.805 554.327C522.938 555.194 521.533 555.194 520.666 554.327C519.799 553.46 519.799 552.056 520.666 551.189C521.533 550.321 522.938 550.321 523.805 551.189Z" fill="#C3DFFF"/>
<line x1="88.3536" y1="683.354" x2="-14.6464" y2="786.354" stroke="#C3DFFF"/>
<line x1="565.354" y1="863.354" x2="518.354" y2="910.354" stroke="#C3DFFF"/>
<line x1="474.354" y1="680.354" x2="239.354" y2="915.354" stroke="#C3DFFF"/>
<line x1="239.354" y1="765.354" x2="92.3535" y2="912.354" stroke="#FFD2BF"/>
<line x1="337.354" y1="589.354" x2="44.3535" y2="882.354" stroke="#C3DFFF"/>
<line x1="221.354" y1="629.354" x2="34.3535" y2="816.354" stroke="#E0FFCB"/>
<line x1="573.354" y1="665.354" x2="324.354" y2="914.354" stroke="#E0FFCB"/>
<line x1="503.354" y1="571.354" x2="161.354" y2="913.354" stroke="#C3DFFF"/>
<line x1="273.354" y1="499.354" x2="143.354" y2="629.354" stroke="#C3DFFF"/>
<path d="M175.35 513.65C176.217 514.518 176.217 515.922 175.35 516.789C174.482 517.656 173.078 517.656 172.211 516.789C171.344 515.922 171.344 514.518 172.211 513.65C173.078 512.783 174.482 512.783 175.35 513.65Z" fill="#EFC1FF"/>
<path d="M170.118 522.014C170.985 521.147 170.985 519.743 170.118 518.876C169.251 518.008 167.849 518.008 166.979 518.876C166.112 519.743 166.112 521.147 166.979 522.014C167.846 522.882 169.251 522.882 170.118 522.014Z" fill="#EFC1FF"/>
<path d="M148.53 527.892C149.754 527.892 150.747 526.899 150.747 525.675C150.747 524.45 149.754 523.457 148.53 523.457C147.305 523.457 146.313 524.45 146.313 525.675C146.313 526.899 147.305 527.892 148.53 527.892Z" fill="#EFC1FF"/>
<path d="M155.929 527.892C157.153 527.892 158.146 526.899 158.146 525.675C158.146 524.45 157.153 523.457 155.929 523.457C154.704 523.457 153.712 524.45 153.712 525.675C153.712 526.899 154.704 527.892 155.929 527.892Z" fill="#EFC1FF"/>
<path d="M163.321 535.288C164.546 535.288 165.538 534.296 165.538 533.071C165.538 531.847 164.546 530.854 163.321 530.854C162.097 530.854 161.104 531.847 161.104 533.071C161.104 534.296 162.097 535.288 163.321 535.288Z" fill="#EFC1FF"/>
<path d="M165.538 525.675C165.538 526.899 164.546 527.892 163.321 527.892C162.097 527.892 161.104 526.899 161.104 525.675C161.104 524.45 162.097 523.457 163.321 523.457C164.546 523.457 165.538 524.45 165.538 525.675Z" fill="#EFC1FF"/>
<path d="M143.35 525.675C143.35 526.899 142.358 527.892 141.133 527.892C139.909 527.892 138.916 526.899 138.916 525.675C138.916 524.45 139.909 523.457 141.133 523.457C142.358 523.457 143.35 524.45 143.35 525.675Z" fill="#EFC1FF"/>
<path d="M133.741 527.892C134.965 527.892 135.958 526.899 135.958 525.675C135.958 524.45 134.965 523.457 133.741 523.457C132.517 523.457 131.524 524.45 131.524 525.675C131.524 526.899 132.517 527.892 133.741 527.892Z" fill="#EFC1FF"/>
<path d="M165.538 540.47C165.538 541.694 164.546 542.687 163.321 542.687C162.097 542.687 161.104 541.694 161.104 540.47C161.104 539.246 162.097 538.253 163.321 538.253C164.546 538.253 165.538 539.246 165.538 540.47Z" fill="#EFC1FF"/>
<path d="M135.006 563.603C136.23 563.603 137.223 562.611 137.223 561.386C137.223 560.162 136.23 559.169 135.006 559.169C133.782 559.169 132.789 560.162 132.789 561.386C132.789 562.611 133.782 563.603 135.006 563.603Z" fill="#EFC1FF"/>
<path d="M129.833 553.987C129.833 555.212 128.84 556.204 127.616 556.204C126.391 556.204 125.399 555.212 125.399 553.987C125.399 552.763 126.391 551.77 127.616 551.77C128.84 551.77 129.833 552.763 129.833 553.987Z" fill="#EFC1FF"/>
<path d="M135.006 556.204C136.23 556.204 137.223 555.212 137.223 553.987C137.223 552.763 136.23 551.77 135.006 551.77C133.782 551.77 132.789 552.763 132.789 553.987C132.789 555.212 133.782 556.204 135.006 556.204Z" fill="#EFC1FF"/>
<path d="M122.434 553.987C122.434 555.212 121.442 556.204 120.217 556.204C118.993 556.204 118 555.212 118 553.987C118 552.763 118.993 551.77 120.217 551.77C121.442 551.77 122.434 552.763 122.434 553.987Z" fill="#EFC1FF"/>
<path d="M135.006 571C136.23 571 137.223 570.007 137.223 568.783C137.223 567.558 136.23 566.566 135.006 566.566C133.782 566.566 132.789 567.558 132.789 568.783C132.789 570.007 133.782 571 135.006 571Z" fill="#EFC1FF"/>
<path d="M165.538 547.862C165.538 549.087 164.546 550.079 163.321 550.079C162.097 550.079 161.104 549.087 161.104 547.862C161.104 546.638 162.097 545.645 163.321 545.645C164.546 545.645 165.538 546.638 165.538 547.862Z" fill="#EFC1FF"/>
<path d="M163.321 553.042C164.547 553.042 165.538 554.033 165.538 555.259C165.538 556.485 164.547 557.476 163.321 557.476C162.095 557.476 161.104 556.485 161.104 555.259C161.104 554.033 162.093 553.042 163.321 553.042Z" fill="#EFC1FF"/>
<path d="M147.682 543.53C147.682 544.755 146.69 545.747 145.465 545.747C144.241 545.747 143.248 544.755 143.248 543.53C143.248 542.306 144.241 541.313 145.465 541.313C146.69 541.313 147.682 542.306 147.682 543.53Z" fill="#EFC1FF"/>
<path d="M152.269 536.732C153.136 537.599 153.136 539.003 152.269 539.87C151.401 540.737 149.997 540.737 149.13 539.87C148.263 539.003 148.263 537.599 149.13 536.732C149.999 535.864 151.401 535.864 152.269 536.732Z" fill="#EFC1FF"/>
<path d="M157.494 534.638C158.361 533.771 158.361 532.367 157.494 531.5C156.626 530.632 155.225 530.632 154.355 531.5C153.488 532.367 153.488 533.771 154.355 534.638C155.222 535.506 156.626 535.506 157.494 534.638Z" fill="#EFC1FF"/>
<path d="M141.805 547.189C142.672 548.056 142.672 549.46 141.805 550.327C140.938 551.194 139.533 551.194 138.666 550.327C137.799 549.46 137.799 548.056 138.666 547.189C139.533 546.321 140.938 546.321 141.805 547.189Z" fill="#EFC1FF"/>
<path d="M612.35 722.65C613.217 723.518 613.217 724.922 612.35 725.789C611.482 726.656 610.078 726.656 609.211 725.789C608.344 724.922 608.344 723.518 609.211 722.65C610.078 721.783 611.482 721.783 612.35 722.65Z" fill="#EFC1FF"/>
<path d="M607.118 731.014C607.985 730.147 607.985 728.743 607.118 727.876C606.251 727.008 604.849 727.008 603.979 727.876C603.112 728.743 603.112 730.147 603.979 731.014C604.846 731.882 606.251 731.882 607.118 731.014Z" fill="#EFC1FF"/>
<path d="M585.53 736.892C586.754 736.892 587.747 735.899 587.747 734.675C587.747 733.45 586.754 732.457 585.53 732.457C584.305 732.457 583.313 733.45 583.313 734.675C583.313 735.899 584.305 736.892 585.53 736.892Z" fill="#EFC1FF"/>
<path d="M592.929 736.892C594.153 736.892 595.146 735.899 595.146 734.675C595.146 733.45 594.153 732.457 592.929 732.457C591.704 732.457 590.712 733.45 590.712 734.675C590.712 735.899 591.704 736.892 592.929 736.892Z" fill="#EFC1FF"/>
<path d="M600.321 744.288C601.546 744.288 602.538 743.296 602.538 742.071C602.538 740.847 601.546 739.854 600.321 739.854C599.097 739.854 598.104 740.847 598.104 742.071C598.104 743.296 599.097 744.288 600.321 744.288Z" fill="#EFC1FF"/>
<path d="M602.538 734.675C602.538 735.899 601.546 736.892 600.321 736.892C599.097 736.892 598.104 735.899 598.104 734.675C598.104 733.45 599.097 732.457 600.321 732.457C601.546 732.457 602.538 733.45 602.538 734.675Z" fill="#EFC1FF"/>
<path d="M580.35 734.675C580.35 735.899 579.358 736.892 578.133 736.892C576.909 736.892 575.916 735.899 575.916 734.675C575.916 733.45 576.909 732.457 578.133 732.457C579.358 732.457 580.35 733.45 580.35 734.675Z" fill="#EFC1FF"/>
<path d="M570.741 736.892C571.965 736.892 572.958 735.899 572.958 734.675C572.958 733.45 571.965 732.457 570.741 732.457C569.517 732.457 568.524 733.45 568.524 734.675C568.524 735.899 569.517 736.892 570.741 736.892Z" fill="#EFC1FF"/>
<path d="M602.538 749.47C602.538 750.694 601.546 751.687 600.321 751.687C599.097 751.687 598.104 750.694 598.104 749.47C598.104 748.246 599.097 747.253 600.321 747.253C601.546 747.253 602.538 748.246 602.538 749.47Z" fill="#EFC1FF"/>
<path d="M572.006 772.603C573.23 772.603 574.223 771.611 574.223 770.386C574.223 769.162 573.23 768.169 572.006 768.169C570.782 768.169 569.789 769.162 569.789 770.386C569.789 771.611 570.782 772.603 572.006 772.603Z" fill="#EFC1FF"/>
<path d="M566.833 762.987C566.833 764.212 565.84 765.204 564.616 765.204C563.391 765.204 562.399 764.212 562.399 762.987C562.399 761.763 563.391 760.77 564.616 760.77C565.84 760.77 566.833 761.763 566.833 762.987Z" fill="#EFC1FF"/>
<path d="M572.006 765.204C573.23 765.204 574.223 764.212 574.223 762.987C574.223 761.763 573.23 760.77 572.006 760.77C570.782 760.77 569.789 761.763 569.789 762.987C569.789 764.212 570.782 765.204 572.006 765.204Z" fill="#EFC1FF"/>
<path d="M559.434 762.987C559.434 764.212 558.442 765.204 557.217 765.204C555.993 765.204 555 764.212 555 762.987C555 761.763 555.993 760.77 557.217 760.77C558.442 760.77 559.434 761.763 559.434 762.987Z" fill="#EFC1FF"/>
<path d="M572.006 780C573.23 780 574.223 779.007 574.223 777.783C574.223 776.558 573.23 775.566 572.006 775.566C570.782 775.566 569.789 776.558 569.789 777.783C569.789 779.007 570.782 780 572.006 780Z" fill="#EFC1FF"/>
<path d="M602.538 756.862C602.538 758.087 601.546 759.079 600.321 759.079C599.097 759.079 598.104 758.087 598.104 756.862C598.104 755.638 599.097 754.645 600.321 754.645C601.546 754.645 602.538 755.638 602.538 756.862Z" fill="#EFC1FF"/>
<path d="M600.321 762.042C601.547 762.042 602.538 763.033 602.538 764.259C602.538 765.485 601.547 766.476 600.321 766.476C599.095 766.476 598.104 765.485 598.104 764.259C598.104 763.033 599.093 762.042 600.321 762.042Z" fill="#EFC1FF"/>
<path d="M584.682 752.53C584.682 753.755 583.69 754.747 582.465 754.747C581.241 754.747 580.248 753.755 580.248 752.53C580.248 751.306 581.241 750.313 582.465 750.313C583.69 750.313 584.682 751.306 584.682 752.53Z" fill="#EFC1FF"/>
<path d="M589.269 745.732C590.136 746.599 590.136 748.003 589.269 748.87C588.401 749.737 586.997 749.737 586.13 748.87C585.263 748.003 585.263 746.599 586.13 745.732C586.999 744.864 588.401 744.864 589.269 745.732Z" fill="#EFC1FF"/>
<path d="M594.494 743.638C595.361 742.771 595.361 741.367 594.494 740.5C593.626 739.632 592.225 739.632 591.355 740.5C590.488 741.367 590.488 742.771 591.355 743.638C592.222 744.506 593.626 744.506 594.494 743.638Z" fill="#EFC1FF"/>
<path d="M578.805 756.189C579.672 757.056 579.672 758.46 578.805 759.327C577.938 760.194 576.533 760.194 575.666 759.327C574.799 758.46 574.799 757.056 575.666 756.189C576.533 755.321 577.938 755.321 578.805 756.189Z" fill="#EFC1FF"/>
<line x1="126.354" y1="562.354" x2="-4.64645" y2="693.354" stroke="#EFC1FF"/>
<line x1="563.354" y1="771.354" x2="420.354" y2="914.354" stroke="#EFC1FF"/>
</svg>
