<svg width="603" height="916" viewBox="0 0 603 916" fill="none" xmlns="http://www.w3.org/2000/svg">
<path d="M317.35 244.65C318.217 245.518 318.217 246.922 317.35 247.789C316.482 248.656 315.078 248.656 314.211 247.789C313.344 246.922 313.344 245.518 314.211 244.65C315.078 243.783 316.482 243.783 317.35 244.65Z" fill="#E0FFCB"/>
<path d="M312.118 253.014C312.985 252.147 312.985 250.743 312.118 249.876C311.251 249.008 309.849 249.008 308.979 249.876C308.112 250.743 308.112 252.147 308.979 253.014C309.846 253.882 311.251 253.882 312.118 253.014Z" fill="#E0FFCB"/>
<path d="M290.53 258.892C291.754 258.892 292.747 257.899 292.747 256.675C292.747 255.45 291.754 254.457 290.53 254.457C289.305 254.457 288.313 255.45 288.313 256.675C288.313 257.899 289.305 258.892 290.53 258.892Z" fill="#E0FFCB"/>
<path d="M297.929 258.892C299.153 258.892 300.146 257.899 300.146 256.675C300.146 255.45 299.153 254.457 297.929 254.457C296.704 254.457 295.712 255.45 295.712 256.675C295.712 257.899 296.704 258.892 297.929 258.892Z" fill="#E0FFCB"/>
<path d="M305.321 266.288C306.546 266.288 307.538 265.296 307.538 264.071C307.538 262.847 306.546 261.854 305.321 261.854C304.097 261.854 303.104 262.847 303.104 264.071C303.104 265.296 304.097 266.288 305.321 266.288Z" fill="#E0FFCB"/>
<path d="M307.538 256.675C307.538 257.899 306.546 258.892 305.321 258.892C304.097 258.892 303.104 257.899 303.104 256.675C303.104 255.45 304.097 254.457 305.321 254.457C306.546 254.457 307.538 255.45 307.538 256.675Z" fill="#E0FFCB"/>
<path d="M285.35 256.675C285.35 257.899 284.358 258.892 283.133 258.892C281.909 258.892 280.916 257.899 280.916 256.675C280.916 255.45 281.909 254.457 283.133 254.457C284.358 254.457 285.35 255.45 285.35 256.675Z" fill="#E0FFCB"/>
<path d="M275.741 258.892C276.965 258.892 277.958 257.899 277.958 256.675C277.958 255.45 276.965 254.457 275.741 254.457C274.517 254.457 273.524 255.45 273.524 256.675C273.524 257.899 274.517 258.892 275.741 258.892Z" fill="#E0FFCB"/>
<path d="M307.538 271.47C307.538 272.694 306.546 273.687 305.321 273.687C304.097 273.687 303.104 272.694 303.104 271.47C303.104 270.246 304.097 269.253 305.321 269.253C306.546 269.253 307.538 270.246 307.538 271.47Z" fill="#E0FFCB"/>
<path d="M277.006 294.603C278.23 294.603 279.223 293.611 279.223 292.386C279.223 291.162 278.23 290.169 277.006 290.169C275.782 290.169 274.789 291.162 274.789 292.386C274.789 293.611 275.782 294.603 277.006 294.603Z" fill="#E0FFCB"/>
<path d="M271.833 284.987C271.833 286.212 270.84 287.204 269.616 287.204C268.391 287.204 267.399 286.212 267.399 284.987C267.399 283.763 268.391 282.77 269.616 282.77C270.84 282.77 271.833 283.763 271.833 284.987Z" fill="#E0FFCB"/>
<path d="M277.006 287.204C278.23 287.204 279.223 286.212 279.223 284.987C279.223 283.763 278.23 282.77 277.006 282.77C275.782 282.77 274.789 283.763 274.789 284.987C274.789 286.212 275.782 287.204 277.006 287.204Z" fill="#E0FFCB"/>
<path d="M264.434 284.987C264.434 286.212 263.442 287.204 262.217 287.204C260.993 287.204 260 286.212 260 284.987C260 283.763 260.993 282.77 262.217 282.77C263.442 282.77 264.434 283.763 264.434 284.987Z" fill="#E0FFCB"/>
<path d="M277.006 302C278.23 302 279.223 301.007 279.223 299.783C279.223 298.558 278.23 297.566 277.006 297.566C275.782 297.566 274.789 298.558 274.789 299.783C274.789 301.007 275.782 302 277.006 302Z" fill="#E0FFCB"/>
<path d="M307.538 278.862C307.538 280.087 306.546 281.079 305.321 281.079C304.097 281.079 303.104 280.087 303.104 278.862C303.104 277.638 304.097 276.645 305.321 276.645C306.546 276.645 307.538 277.638 307.538 278.862Z" fill="#E0FFCB"/>
<path d="M305.321 284.042C306.547 284.042 307.538 285.033 307.538 286.259C307.538 287.485 306.547 288.476 305.321 288.476C304.095 288.476 303.104 287.485 303.104 286.259C303.104 285.033 304.093 284.042 305.321 284.042Z" fill="#E0FFCB"/>
<path d="M289.682 274.53C289.682 275.755 288.69 276.747 287.465 276.747C286.241 276.747 285.248 275.755 285.248 274.53C285.248 273.306 286.241 272.313 287.465 272.313C288.69 272.313 289.682 273.306 289.682 274.53Z" fill="#E0FFCB"/>
<path d="M294.269 267.732C295.136 268.599 295.136 270.003 294.269 270.87C293.401 271.737 291.997 271.737 291.13 270.87C290.263 270.003 290.263 268.599 291.13 267.732C291.999 266.864 293.401 266.864 294.269 267.732Z" fill="#E0FFCB"/>
<path d="M299.494 265.638C300.361 264.771 300.361 263.367 299.494 262.5C298.626 261.632 297.225 261.632 296.355 262.5C295.488 263.367 295.488 264.771 296.355 265.638C297.222 266.506 298.626 266.506 299.494 265.638Z" fill="#E0FFCB"/>
<path d="M283.805 278.189C284.672 279.056 284.672 280.46 283.805 281.327C282.938 282.194 281.533 282.194 280.666 281.327C279.799 280.46 279.799 279.056 280.666 278.189C281.533 277.321 282.938 277.321 283.805 278.189Z" fill="#E0FFCB"/>
<path d="M581.35 308.65C582.217 309.518 582.217 310.922 581.35 311.789C580.482 312.656 579.078 312.656 578.211 311.789C577.344 310.922 577.344 309.518 578.211 308.65C579.078 307.783 580.482 307.783 581.35 308.65Z" fill="#E0FFCB"/>
<path d="M576.118 317.014C576.985 316.147 576.985 314.743 576.118 313.876C575.251 313.008 573.849 313.008 572.979 313.876C572.112 314.743 572.112 316.147 572.979 317.014C573.846 317.882 575.251 317.882 576.118 317.014Z" fill="#E0FFCB"/>
<path d="M554.53 322.892C555.754 322.892 556.747 321.899 556.747 320.675C556.747 319.45 555.754 318.457 554.53 318.457C553.305 318.457 552.313 319.45 552.313 320.675C552.313 321.899 553.305 322.892 554.53 322.892Z" fill="#E0FFCB"/>
<path d="M561.929 322.892C563.153 322.892 564.146 321.899 564.146 320.675C564.146 319.45 563.153 318.457 561.929 318.457C560.704 318.457 559.712 319.45 559.712 320.675C559.712 321.899 560.704 322.892 561.929 322.892Z" fill="#E0FFCB"/>
<path d="M569.321 330.288C570.546 330.288 571.538 329.296 571.538 328.071C571.538 326.847 570.546 325.854 569.321 325.854C568.097 325.854 567.104 326.847 567.104 328.071C567.104 329.296 568.097 330.288 569.321 330.288Z" fill="#E0FFCB"/>
<path d="M571.538 320.675C571.538 321.899 570.546 322.892 569.321 322.892C568.097 322.892 567.104 321.899 567.104 320.675C567.104 319.45 568.097 318.457 569.321 318.457C570.546 318.457 571.538 319.45 571.538 320.675Z" fill="#E0FFCB"/>
<path d="M549.35 320.675C549.35 321.899 548.358 322.892 547.133 322.892C545.909 322.892 544.916 321.899 544.916 320.675C544.916 319.45 545.909 318.457 547.133 318.457C548.358 318.457 549.35 319.45 549.35 320.675Z" fill="#E0FFCB"/>
<path d="M539.741 322.892C540.965 322.892 541.958 321.899 541.958 320.675C541.958 319.45 540.965 318.457 539.741 318.457C538.517 318.457 537.524 319.45 537.524 320.675C537.524 321.899 538.517 322.892 539.741 322.892Z" fill="#E0FFCB"/>
<path d="M571.538 335.47C571.538 336.694 570.546 337.687 569.321 337.687C568.097 337.687 567.104 336.694 567.104 335.47C567.104 334.246 568.097 333.253 569.321 333.253C570.546 333.253 571.538 334.246 571.538 335.47Z" fill="#E0FFCB"/>
<path d="M541.006 358.603C542.23 358.603 543.223 357.611 543.223 356.386C543.223 355.162 542.23 354.169 541.006 354.169C539.782 354.169 538.789 355.162 538.789 356.386C538.789 357.611 539.782 358.603 541.006 358.603Z" fill="#E0FFCB"/>
<path d="M535.833 348.987C535.833 350.212 534.84 351.204 533.616 351.204C532.391 351.204 531.399 350.212 531.399 348.987C531.399 347.763 532.391 346.77 533.616 346.77C534.84 346.77 535.833 347.763 535.833 348.987Z" fill="#E0FFCB"/>
<path d="M541.006 351.204C542.23 351.204 543.223 350.212 543.223 348.987C543.223 347.763 542.23 346.77 541.006 346.77C539.782 346.77 538.789 347.763 538.789 348.987C538.789 350.212 539.782 351.204 541.006 351.204Z" fill="#E0FFCB"/>
<path d="M528.434 348.987C528.434 350.212 527.442 351.204 526.217 351.204C524.993 351.204 524 350.212 524 348.987C524 347.763 524.993 346.77 526.217 346.77C527.442 346.77 528.434 347.763 528.434 348.987Z" fill="#E0FFCB"/>
<path d="M541.006 366C542.23 366 543.223 365.007 543.223 363.783C543.223 362.558 542.23 361.566 541.006 361.566C539.782 361.566 538.789 362.558 538.789 363.783C538.789 365.007 539.782 366 541.006 366Z" fill="#E0FFCB"/>
<path d="M571.538 342.862C571.538 344.087 570.546 345.079 569.321 345.079C568.097 345.079 567.104 344.087 567.104 342.862C567.104 341.638 568.097 340.645 569.321 340.645C570.546 340.645 571.538 341.638 571.538 342.862Z" fill="#E0FFCB"/>
<path d="M569.321 348.042C570.547 348.042 571.538 349.033 571.538 350.259C571.538 351.485 570.547 352.476 569.321 352.476C568.095 352.476 567.104 351.485 567.104 350.259C567.104 349.033 568.093 348.042 569.321 348.042Z" fill="#E0FFCB"/>
<path d="M553.682 338.53C553.682 339.755 552.69 340.747 551.465 340.747C550.241 340.747 549.248 339.755 549.248 338.53C549.248 337.306 550.241 336.313 551.465 336.313C552.69 336.313 553.682 337.306 553.682 338.53Z" fill="#E0FFCB"/>
<path d="M558.269 331.732C559.136 332.599 559.136 334.003 558.269 334.87C557.401 335.737 555.997 335.737 555.13 334.87C554.263 334.003 554.263 332.599 555.13 331.732C555.999 330.864 557.401 330.864 558.269 331.732Z" fill="#E0FFCB"/>
<path d="M563.494 329.638C564.361 328.771 564.361 327.367 563.494 326.5C562.626 325.632 561.225 325.632 560.355 326.5C559.488 327.367 559.488 328.771 560.355 329.638C561.222 330.506 562.626 330.506 563.494 329.638Z" fill="#E0FFCB"/>
<path d="M547.805 342.189C548.672 343.056 548.672 344.46 547.805 345.327C546.938 346.194 545.533 346.194 544.666 345.327C543.799 344.46 543.799 343.056 544.666 342.189C545.533 341.321 546.938 341.321 547.805 342.189Z" fill="#E0FFCB"/>
<path d="M410.35 328.65C411.217 329.518 411.217 330.922 410.35 331.789C409.482 332.656 408.078 332.656 407.211 331.789C406.344 330.922 406.344 329.518 407.211 328.65C408.078 327.783 409.482 327.783 410.35 328.65Z" fill="#FFD2BF"/>
<path d="M405.118 337.014C405.985 336.147 405.985 334.743 405.118 333.876C404.251 333.008 402.849 333.008 401.979 333.876C401.112 334.743 401.112 336.147 401.979 337.014C402.846 337.882 404.251 337.882 405.118 337.014Z" fill="#FFD2BF"/>
<path d="M383.53 342.892C384.754 342.892 385.747 341.899 385.747 340.675C385.747 339.45 384.754 338.457 383.53 338.457C382.305 338.457 381.313 339.45 381.313 340.675C381.313 341.899 382.305 342.892 383.53 342.892Z" fill="#FFD2BF"/>
<path d="M390.929 342.892C392.153 342.892 393.146 341.899 393.146 340.675C393.146 339.45 392.153 338.457 390.929 338.457C389.704 338.457 388.712 339.45 388.712 340.675C388.712 341.899 389.704 342.892 390.929 342.892Z" fill="#FFD2BF"/>
<path d="M398.321 350.288C399.546 350.288 400.538 349.296 400.538 348.071C400.538 346.847 399.546 345.854 398.321 345.854C397.097 345.854 396.104 346.847 396.104 348.071C396.104 349.296 397.097 350.288 398.321 350.288Z" fill="#FFD2BF"/>
<path d="M400.538 340.675C400.538 341.899 399.546 342.892 398.321 342.892C397.097 342.892 396.104 341.899 396.104 340.675C396.104 339.45 397.097 338.457 398.321 338.457C399.546 338.457 400.538 339.45 400.538 340.675Z" fill="#FFD2BF"/>
<path d="M378.35 340.675C378.35 341.899 377.358 342.892 376.133 342.892C374.909 342.892 373.916 341.899 373.916 340.675C373.916 339.45 374.909 338.457 376.133 338.457C377.358 338.457 378.35 339.45 378.35 340.675Z" fill="#FFD2BF"/>
<path d="M368.741 342.892C369.965 342.892 370.958 341.899 370.958 340.675C370.958 339.45 369.965 338.457 368.741 338.457C367.517 338.457 366.524 339.45 366.524 340.675C366.524 341.899 367.517 342.892 368.741 342.892Z" fill="#FFD2BF"/>
<path d="M400.538 355.47C400.538 356.694 399.546 357.687 398.321 357.687C397.097 357.687 396.104 356.694 396.104 355.47C396.104 354.246 397.097 353.253 398.321 353.253C399.546 353.253 400.538 354.246 400.538 355.47Z" fill="#FFD2BF"/>
<path d="M370.006 378.603C371.23 378.603 372.223 377.611 372.223 376.386C372.223 375.162 371.23 374.169 370.006 374.169C368.782 374.169 367.789 375.162 367.789 376.386C367.789 377.611 368.782 378.603 370.006 378.603Z" fill="#FFD2BF"/>
<path d="M364.833 368.987C364.833 370.212 363.84 371.204 362.616 371.204C361.391 371.204 360.399 370.212 360.399 368.987C360.399 367.763 361.391 366.77 362.616 366.77C363.84 366.77 364.833 367.763 364.833 368.987Z" fill="#FFD2BF"/>
<path d="M370.006 371.204C371.23 371.204 372.223 370.212 372.223 368.987C372.223 367.763 371.23 366.77 370.006 366.77C368.782 366.77 367.789 367.763 367.789 368.987C367.789 370.212 368.782 371.204 370.006 371.204Z" fill="#FFD2BF"/>
<path d="M357.434 368.987C357.434 370.212 356.442 371.204 355.217 371.204C353.993 371.204 353 370.212 353 368.987C353 367.763 353.993 366.77 355.217 366.77C356.442 366.77 357.434 367.763 357.434 368.987Z" fill="#FFD2BF"/>
<path d="M370.006 386C371.23 386 372.223 385.007 372.223 383.783C372.223 382.558 371.23 381.566 370.006 381.566C368.782 381.566 367.789 382.558 367.789 383.783C367.789 385.007 368.782 386 370.006 386Z" fill="#FFD2BF"/>
<path d="M400.538 362.862C400.538 364.087 399.546 365.079 398.321 365.079C397.097 365.079 396.104 364.087 396.104 362.862C396.104 361.638 397.097 360.645 398.321 360.645C399.546 360.645 400.538 361.638 400.538 362.862Z" fill="#FFD2BF"/>
<path d="M398.321 368.042C399.547 368.042 400.538 369.033 400.538 370.259C400.538 371.485 399.547 372.476 398.321 372.476C397.095 372.476 396.104 371.485 396.104 370.259C396.104 369.033 397.093 368.042 398.321 368.042Z" fill="#FFD2BF"/>
<path d="M382.682 358.53C382.682 359.755 381.69 360.747 380.465 360.747C379.241 360.747 378.248 359.755 378.248 358.53C378.248 357.306 379.241 356.313 380.465 356.313C381.69 356.313 382.682 357.306 382.682 358.53Z" fill="#FFD2BF"/>
<path d="M387.269 351.732C388.136 352.599 388.136 354.003 387.269 354.87C386.401 355.737 384.997 355.737 384.13 354.87C383.263 354.003 383.263 352.599 384.13 351.732C384.999 350.864 386.401 350.864 387.269 351.732Z" fill="#FFD2BF"/>
<path d="M392.494 349.638C393.361 348.771 393.361 347.367 392.494 346.5C391.626 345.632 390.225 345.632 389.355 346.5C388.488 347.367 388.488 348.771 389.355 349.638C390.222 350.506 391.626 350.506 392.494 349.638Z" fill="#FFD2BF"/>
<path d="M376.805 362.189C377.672 363.056 377.672 364.46 376.805 365.327C375.938 366.194 374.533 366.194 373.666 365.327C372.799 364.46 372.799 363.056 373.666 362.189C374.533 361.321 375.938 361.321 376.805 362.189Z" fill="#FFD2BF"/>
<path d="M282.35 345.65C283.217 346.518 283.217 347.922 282.35 348.789C281.482 349.656 280.078 349.656 279.211 348.789C278.344 347.922 278.344 346.518 279.211 345.65C280.078 344.783 281.482 344.783 282.35 345.65Z" fill="#C4DFFF"/>
<path d="M277.118 354.014C277.985 353.147 277.985 351.743 277.118 350.876C276.251 350.008 274.849 350.008 273.979 350.876C273.112 351.743 273.112 353.147 273.979 354.014C274.846 354.882 276.251 354.882 277.118 354.014Z" fill="#C4DFFF"/>
<path d="M255.53 359.892C256.754 359.892 257.747 358.899 257.747 357.675C257.747 356.45 256.754 355.457 255.53 355.457C254.305 355.457 253.313 356.45 253.313 357.675C253.313 358.899 254.305 359.892 255.53 359.892Z" fill="#C4DFFF"/>
<path d="M262.929 359.892C264.153 359.892 265.146 358.899 265.146 357.675C265.146 356.45 264.153 355.457 262.929 355.457C261.704 355.457 260.712 356.45 260.712 357.675C260.712 358.899 261.704 359.892 262.929 359.892Z" fill="#C4DFFF"/>
<path d="M270.321 367.288C271.546 367.288 272.538 366.296 272.538 365.071C272.538 363.847 271.546 362.854 270.321 362.854C269.097 362.854 268.104 363.847 268.104 365.071C268.104 366.296 269.097 367.288 270.321 367.288Z" fill="#C4DFFF"/>
<path d="M272.538 357.675C272.538 358.899 271.546 359.892 270.321 359.892C269.097 359.892 268.104 358.899 268.104 357.675C268.104 356.45 269.097 355.457 270.321 355.457C271.546 355.457 272.538 356.45 272.538 357.675Z" fill="#C4DFFF"/>
<path d="M250.35 357.675C250.35 358.899 249.358 359.892 248.133 359.892C246.909 359.892 245.916 358.899 245.916 357.675C245.916 356.45 246.909 355.457 248.133 355.457C249.358 355.457 250.35 356.45 250.35 357.675Z" fill="#C4DFFF"/>
<path d="M240.741 359.892C241.965 359.892 242.958 358.899 242.958 357.675C242.958 356.45 241.965 355.457 240.741 355.457C239.517 355.457 238.524 356.45 238.524 357.675C238.524 358.899 239.517 359.892 240.741 359.892Z" fill="#C4DFFF"/>
<path d="M272.538 372.47C272.538 373.694 271.546 374.687 270.321 374.687C269.097 374.687 268.104 373.694 268.104 372.47C268.104 371.246 269.097 370.253 270.321 370.253C271.546 370.253 272.538 371.246 272.538 372.47Z" fill="#C4DFFF"/>
<path d="M242.006 395.603C243.23 395.603 244.223 394.611 244.223 393.386C244.223 392.162 243.23 391.169 242.006 391.169C240.782 391.169 239.789 392.162 239.789 393.386C239.789 394.611 240.782 395.603 242.006 395.603Z" fill="#C4DFFF"/>
<path d="M236.833 385.987C236.833 387.212 235.84 388.204 234.616 388.204C233.391 388.204 232.399 387.212 232.399 385.987C232.399 384.763 233.391 383.77 234.616 383.77C235.84 383.77 236.833 384.763 236.833 385.987Z" fill="#C4DFFF"/>
<path d="M242.006 388.204C243.23 388.204 244.223 387.212 244.223 385.987C244.223 384.763 243.23 383.77 242.006 383.77C240.782 383.77 239.789 384.763 239.789 385.987C239.789 387.212 240.782 388.204 242.006 388.204Z" fill="#C4DFFF"/>
<path d="M229.434 385.987C229.434 387.212 228.442 388.204 227.217 388.204C225.993 388.204 225 387.212 225 385.987C225 384.763 225.993 383.77 227.217 383.77C228.442 383.77 229.434 384.763 229.434 385.987Z" fill="#C4DFFF"/>
<path d="M242.006 403C243.23 403 244.223 402.007 244.223 400.783C244.223 399.558 243.23 398.566 242.006 398.566C240.782 398.566 239.789 399.558 239.789 400.783C239.789 402.007 240.782 403 242.006 403Z" fill="#C4DFFF"/>
<path d="M272.538 379.862C272.538 381.087 271.546 382.079 270.321 382.079C269.097 382.079 268.104 381.087 268.104 379.862C268.104 378.638 269.097 377.645 270.321 377.645C271.546 377.645 272.538 378.638 272.538 379.862Z" fill="#C4DFFF"/>
<path d="M270.321 385.042C271.547 385.042 272.538 386.033 272.538 387.259C272.538 388.485 271.547 389.476 270.321 389.476C269.095 389.476 268.104 388.485 268.104 387.259C268.104 386.033 269.093 385.042 270.321 385.042Z" fill="#C4DFFF"/>
<path d="M254.682 375.53C254.682 376.755 253.69 377.747 252.465 377.747C251.241 377.747 250.248 376.755 250.248 375.53C250.248 374.306 251.241 373.313 252.465 373.313C253.69 373.313 254.682 374.306 254.682 375.53Z" fill="#C4DFFF"/>
<path d="M259.269 368.732C260.136 369.599 260.136 371.003 259.269 371.87C258.401 372.737 256.997 372.737 256.13 371.87C255.263 371.003 255.263 369.599 256.13 368.732C256.999 367.864 258.401 367.864 259.269 368.732Z" fill="#C4DFFF"/>
<path d="M264.494 366.638C265.361 365.771 265.361 364.367 264.494 363.5C263.626 362.632 262.225 362.632 261.355 363.5C260.488 364.367 260.488 365.771 261.355 366.638C262.222 367.506 263.626 367.506 264.494 366.638Z" fill="#C4DFFF"/>
<path d="M248.805 379.189C249.672 380.056 249.672 381.46 248.805 382.327C247.938 383.194 246.533 383.194 245.666 382.327C244.799 381.46 244.799 380.056 245.666 379.189C246.533 378.321 247.938 378.321 248.805 379.189Z" fill="#C4DFFF"/>
<path d="M267.35 80.6503C268.217 81.5176 268.217 82.9217 267.35 83.789C266.482 84.6563 265.078 84.6563 264.211 83.789C263.344 82.9217 263.344 81.5176 264.211 80.6503C265.078 79.7832 266.482 79.7832 267.35 80.6503Z" fill="white"/>
<path d="M262.118 89.0143C262.985 88.147 262.985 86.7429 262.118 85.8756C261.251 85.0085 259.849 85.0085 258.979 85.8756C258.112 86.7429 258.112 88.147 258.979 89.0143C259.846 89.8816 261.251 89.8816 262.118 89.0143Z" fill="white"/>
<path d="M240.53 94.8916C241.754 94.8916 242.747 93.8991 242.747 92.6746C242.747 91.45 241.754 90.4575 240.53 90.4575C239.305 90.4575 238.313 91.45 238.313 92.6746C238.313 93.8991 239.305 94.8916 240.53 94.8916Z" fill="white"/>
<path d="M247.929 94.8916C249.153 94.8916 250.146 93.8991 250.146 92.6746C250.146 91.45 249.153 90.4575 247.929 90.4575C246.704 90.4575 245.712 91.45 245.712 92.6746C245.712 93.8991 246.704 94.8916 247.929 94.8916Z" fill="white"/>
<path d="M255.321 102.288C256.546 102.288 257.538 101.296 257.538 100.071C257.538 98.8467 256.546 97.8542 255.321 97.8542C254.097 97.8542 253.104 98.8467 253.104 100.071C253.104 101.296 254.097 102.288 255.321 102.288Z" fill="white"/>
<path d="M257.538 92.6746C257.538 93.8991 256.546 94.8916 255.321 94.8916C254.097 94.8916 253.104 93.8991 253.104 92.6746C253.104 91.45 254.097 90.4575 255.321 90.4575C256.546 90.4575 257.538 91.45 257.538 92.6746Z" fill="white"/>
<path d="M235.35 92.6746C235.35 93.8991 234.358 94.8916 233.133 94.8916C231.909 94.8916 230.916 93.8991 230.916 92.6746C230.916 91.45 231.909 90.4575 233.133 90.4575C234.358 90.4575 235.35 91.45 235.35 92.6746Z" fill="white"/>
<path d="M225.741 94.8916C226.965 94.8916 227.958 93.8991 227.958 92.6746C227.958 91.45 226.965 90.4575 225.741 90.4575C224.517 90.4575 223.524 91.45 223.524 92.6746C223.524 93.8991 224.517 94.8916 225.741 94.8916Z" fill="white"/>
<path d="M257.538 107.47C257.538 108.694 256.546 109.687 255.321 109.687C254.097 109.687 253.104 108.694 253.104 107.47C253.104 106.246 254.097 105.253 255.321 105.253C256.546 105.253 257.538 106.246 257.538 107.47Z" fill="white"/>
<path d="M227.006 130.603C228.23 130.603 229.223 129.611 229.223 128.386C229.223 127.162 228.23 126.169 227.006 126.169C225.782 126.169 224.789 127.162 224.789 128.386C224.789 129.611 225.782 130.603 227.006 130.603Z" fill="white"/>
<path d="M221.833 120.987C221.833 122.212 220.84 123.204 219.616 123.204C218.391 123.204 217.399 122.212 217.399 120.987C217.399 119.763 218.391 118.77 219.616 118.77C220.84 118.77 221.833 119.763 221.833 120.987Z" fill="white"/>
<path d="M227.006 123.204C228.23 123.204 229.223 122.212 229.223 120.987C229.223 119.763 228.23 118.77 227.006 118.77C225.782 118.77 224.789 119.763 224.789 120.987C224.789 122.212 225.782 123.204 227.006 123.204Z" fill="white"/>
<path d="M214.434 120.987C214.434 122.212 213.442 123.204 212.217 123.204C210.993 123.204 210 122.212 210 120.987C210 119.763 210.993 118.77 212.217 118.77C213.442 118.77 214.434 119.763 214.434 120.987Z" fill="white"/>
<path d="M227.006 138C228.23 138 229.223 137.007 229.223 135.783C229.223 134.558 228.23 133.566 227.006 133.566C225.782 133.566 224.789 134.558 224.789 135.783C224.789 137.007 225.782 138 227.006 138Z" fill="white"/>
<path d="M257.538 114.862C257.538 116.087 256.546 117.079 255.321 117.079C254.097 117.079 253.104 116.087 253.104 114.862C253.104 113.638 254.097 112.645 255.321 112.645C256.546 112.645 257.538 113.638 257.538 114.862Z" fill="white"/>
<path d="M255.321 120.042C256.547 120.042 257.538 121.033 257.538 122.259C257.538 123.485 256.547 124.476 255.321 124.476C254.095 124.476 253.104 123.485 253.104 122.259C253.104 121.033 254.093 120.042 255.321 120.042Z" fill="white"/>
<path d="M239.682 110.53C239.682 111.755 238.69 112.747 237.465 112.747C236.241 112.747 235.248 111.755 235.248 110.53C235.248 109.306 236.241 108.313 237.465 108.313C238.69 108.313 239.682 109.306 239.682 110.53Z" fill="white"/>
<path d="M244.269 103.732C245.136 104.599 245.136 106.003 244.269 106.87C243.401 107.737 241.997 107.737 241.13 106.87C240.263 106.003 240.263 104.599 241.13 103.732C241.999 102.864 243.401 102.864 244.269 103.732Z" fill="white"/>
<path d="M249.494 101.638C250.361 100.771 250.361 99.367 249.494 98.4997C248.626 97.6324 247.225 97.6324 246.355 98.4997C245.488 99.367 245.488 100.771 246.355 101.638C247.222 102.506 248.626 102.506 249.494 101.638Z" fill="white"/>
<path d="M233.805 114.189C234.672 115.056 234.672 116.46 233.805 117.327C232.938 118.194 231.533 118.194 230.666 117.327C229.799 116.46 229.799 115.056 230.666 114.189C231.533 113.321 232.938 113.321 233.805 114.189Z" fill="white"/>
<path d="M328.35 158.65C329.217 159.518 329.217 160.922 328.35 161.789C327.482 162.656 326.078 162.656 325.211 161.789C324.344 160.922 324.344 159.518 325.211 158.65C326.078 157.783 327.482 157.783 328.35 158.65Z" fill="white"/>
<path d="M323.118 167.014C323.985 166.147 323.985 164.743 323.118 163.876C322.251 163.008 320.849 163.008 319.979 163.876C319.112 164.743 319.112 166.147 319.979 167.014C320.846 167.882 322.251 167.882 323.118 167.014Z" fill="white"/>
<path d="M301.53 172.892C302.754 172.892 303.747 171.899 303.747 170.675C303.747 169.45 302.754 168.457 301.53 168.457C300.305 168.457 299.313 169.45 299.313 170.675C299.313 171.899 300.305 172.892 301.53 172.892Z" fill="white"/>
<path d="M308.929 172.892C310.153 172.892 311.146 171.899 311.146 170.675C311.146 169.45 310.153 168.457 308.929 168.457C307.704 168.457 306.712 169.45 306.712 170.675C306.712 171.899 307.704 172.892 308.929 172.892Z" fill="white"/>
<path d="M316.321 180.288C317.546 180.288 318.538 179.296 318.538 178.071C318.538 176.847 317.546 175.854 316.321 175.854C315.097 175.854 314.104 176.847 314.104 178.071C314.104 179.296 315.097 180.288 316.321 180.288Z" fill="white"/>
<path d="M318.538 170.675C318.538 171.899 317.546 172.892 316.321 172.892C315.097 172.892 314.104 171.899 314.104 170.675C314.104 169.45 315.097 168.457 316.321 168.457C317.546 168.457 318.538 169.45 318.538 170.675Z" fill="white"/>
<path d="M296.35 170.675C296.35 171.899 295.358 172.892 294.133 172.892C292.909 172.892 291.916 171.899 291.916 170.675C291.916 169.45 292.909 168.457 294.133 168.457C295.358 168.457 296.35 169.45 296.35 170.675Z" fill="white"/>
<path d="M286.741 172.892C287.965 172.892 288.958 171.899 288.958 170.675C288.958 169.45 287.965 168.457 286.741 168.457C285.517 168.457 284.524 169.45 284.524 170.675C284.524 171.899 285.517 172.892 286.741 172.892Z" fill="white"/>
<path d="M318.538 185.47C318.538 186.694 317.546 187.687 316.321 187.687C315.097 187.687 314.104 186.694 314.104 185.47C314.104 184.246 315.097 183.253 316.321 183.253C317.546 183.253 318.538 184.246 318.538 185.47Z" fill="white"/>
<path d="M288.006 208.603C289.23 208.603 290.223 207.611 290.223 206.386C290.223 205.162 289.23 204.169 288.006 204.169C286.782 204.169 285.789 205.162 285.789 206.386C285.789 207.611 286.782 208.603 288.006 208.603Z" fill="white"/>
<path d="M282.833 198.987C282.833 200.212 281.84 201.204 280.616 201.204C279.391 201.204 278.399 200.212 278.399 198.987C278.399 197.763 279.391 196.77 280.616 196.77C281.84 196.77 282.833 197.763 282.833 198.987Z" fill="white"/>
<path d="M288.006 201.204C289.23 201.204 290.223 200.212 290.223 198.987C290.223 197.763 289.23 196.77 288.006 196.77C286.782 196.77 285.789 197.763 285.789 198.987C285.789 200.212 286.782 201.204 288.006 201.204Z" fill="white"/>
<path d="M275.434 198.987C275.434 200.212 274.442 201.204 273.217 201.204C271.993 201.204 271 200.212 271 198.987C271 197.763 271.993 196.77 273.217 196.77C274.442 196.77 275.434 197.763 275.434 198.987Z" fill="white"/>
<path d="M288.006 216C289.23 216 290.223 215.007 290.223 213.783C290.223 212.558 289.23 211.566 288.006 211.566C286.782 211.566 285.789 212.558 285.789 213.783C285.789 215.007 286.782 216 288.006 216Z" fill="white"/>
<path d="M318.538 192.862C318.538 194.087 317.546 195.079 316.321 195.079C315.097 195.079 314.104 194.087 314.104 192.862C314.104 191.638 315.097 190.645 316.321 190.645C317.546 190.645 318.538 191.638 318.538 192.862Z" fill="white"/>
<path d="M316.321 198.042C317.547 198.042 318.538 199.033 318.538 200.259C318.538 201.485 317.547 202.476 316.321 202.476C315.095 202.476 314.104 201.485 314.104 200.259C314.104 199.033 315.093 198.042 316.321 198.042Z" fill="white"/>
<path d="M300.682 188.53C300.682 189.755 299.69 190.747 298.465 190.747C297.241 190.747 296.248 189.755 296.248 188.53C296.248 187.306 297.241 186.313 298.465 186.313C299.69 186.313 300.682 187.306 300.682 188.53Z" fill="white"/>
<path d="M305.269 181.732C306.136 182.599 306.136 184.003 305.269 184.87C304.401 185.737 302.997 185.737 302.13 184.87C301.263 184.003 301.263 182.599 302.13 181.732C302.999 180.864 304.401 180.864 305.269 181.732Z" fill="white"/>
<path d="M310.494 179.638C311.361 178.771 311.361 177.367 310.494 176.5C309.626 175.632 308.225 175.632 307.355 176.5C306.488 177.367 306.488 178.771 307.355 179.638C308.222 180.506 309.626 180.506 310.494 179.638Z" fill="white"/>
<path d="M294.805 192.189C295.672 193.056 295.672 194.46 294.805 195.327C293.938 196.194 292.533 196.194 291.666 195.327C290.799 194.46 290.799 193.056 291.666 192.189C292.533 191.321 293.938 191.321 294.805 192.189Z" fill="white"/>
<path d="M216.35 197.65C217.217 198.518 217.217 199.922 216.35 200.789C215.482 201.656 214.078 201.656 213.211 200.789C212.344 199.922 212.344 198.518 213.211 197.65C214.078 196.783 215.482 196.783 216.35 197.65Z" fill="#EFC1FF"/>
<path d="M211.118 206.014C211.985 205.147 211.985 203.743 211.118 202.876C210.251 202.008 208.849 202.008 207.979 202.876C207.112 203.743 207.112 205.147 207.979 206.014C208.846 206.882 210.251 206.882 211.118 206.014Z" fill="#EFC1FF"/>
<path d="M189.53 211.892C190.754 211.892 191.747 210.899 191.747 209.675C191.747 208.45 190.754 207.457 189.53 207.457C188.305 207.457 187.313 208.45 187.313 209.675C187.313 210.899 188.305 211.892 189.53 211.892Z" fill="#EFC1FF"/>
<path d="M196.929 211.892C198.153 211.892 199.146 210.899 199.146 209.675C199.146 208.45 198.153 207.457 196.929 207.457C195.704 207.457 194.712 208.45 194.712 209.675C194.712 210.899 195.704 211.892 196.929 211.892Z" fill="#EFC1FF"/>
<path d="M204.321 219.288C205.546 219.288 206.538 218.296 206.538 217.071C206.538 215.847 205.546 214.854 204.321 214.854C203.097 214.854 202.104 215.847 202.104 217.071C202.104 218.296 203.097 219.288 204.321 219.288Z" fill="#EFC1FF"/>
<path d="M206.538 209.675C206.538 210.899 205.546 211.892 204.321 211.892C203.097 211.892 202.104 210.899 202.104 209.675C202.104 208.45 203.097 207.457 204.321 207.457C205.546 207.457 206.538 208.45 206.538 209.675Z" fill="#EFC1FF"/>
<path d="M184.35 209.675C184.35 210.899 183.358 211.892 182.133 211.892C180.909 211.892 179.916 210.899 179.916 209.675C179.916 208.45 180.909 207.457 182.133 207.457C183.358 207.457 184.35 208.45 184.35 209.675Z" fill="#EFC1FF"/>
<path d="M174.741 211.892C175.965 211.892 176.958 210.899 176.958 209.675C176.958 208.45 175.965 207.457 174.741 207.457C173.517 207.457 172.524 208.45 172.524 209.675C172.524 210.899 173.517 211.892 174.741 211.892Z" fill="#EFC1FF"/>
<path d="M206.538 224.47C206.538 225.694 205.546 226.687 204.321 226.687C203.097 226.687 202.104 225.694 202.104 224.47C202.104 223.246 203.097 222.253 204.321 222.253C205.546 222.253 206.538 223.246 206.538 224.47Z" fill="#EFC1FF"/>
<path d="M176.006 247.603C177.23 247.603 178.223 246.611 178.223 245.386C178.223 244.162 177.23 243.169 176.006 243.169C174.782 243.169 173.789 244.162 173.789 245.386C173.789 246.611 174.782 247.603 176.006 247.603Z" fill="#EFC1FF"/>
<path d="M170.833 237.987C170.833 239.212 169.84 240.204 168.616 240.204C167.391 240.204 166.399 239.212 166.399 237.987C166.399 236.763 167.391 235.77 168.616 235.77C169.84 235.77 170.833 236.763 170.833 237.987Z" fill="#EFC1FF"/>
<path d="M176.006 240.204C177.23 240.204 178.223 239.212 178.223 237.987C178.223 236.763 177.23 235.77 176.006 235.77C174.782 235.77 173.789 236.763 173.789 237.987C173.789 239.212 174.782 240.204 176.006 240.204Z" fill="#EFC1FF"/>
<path d="M163.434 237.987C163.434 239.212 162.442 240.204 161.217 240.204C159.993 240.204 159 239.212 159 237.987C159 236.763 159.993 235.77 161.217 235.77C162.442 235.77 163.434 236.763 163.434 237.987Z" fill="#EFC1FF"/>
<path d="M176.006 255C177.23 255 178.223 254.007 178.223 252.783C178.223 251.558 177.23 250.566 176.006 250.566C174.782 250.566 173.789 251.558 173.789 252.783C173.789 254.007 174.782 255 176.006 255Z" fill="#EFC1FF"/>
<path d="M206.538 231.862C206.538 233.087 205.546 234.079 204.321 234.079C203.097 234.079 202.104 233.087 202.104 231.862C202.104 230.638 203.097 229.645 204.321 229.645C205.546 229.645 206.538 230.638 206.538 231.862Z" fill="#EFC1FF"/>
<path d="M204.321 237.042C205.547 237.042 206.538 238.033 206.538 239.259C206.538 240.485 205.547 241.476 204.321 241.476C203.095 241.476 202.104 240.485 202.104 239.259C202.104 238.033 203.093 237.042 204.321 237.042Z" fill="#EFC1FF"/>
<path d="M188.682 227.53C188.682 228.755 187.69 229.747 186.465 229.747C185.241 229.747 184.248 228.755 184.248 227.53C184.248 226.306 185.241 225.313 186.465 225.313C187.69 225.313 188.682 226.306 188.682 227.53Z" fill="#EFC1FF"/>
<path d="M193.269 220.732C194.136 221.599 194.136 223.003 193.269 223.87C192.401 224.737 190.997 224.737 190.13 223.87C189.263 223.003 189.263 221.599 190.13 220.732C190.999 219.864 192.401 219.864 193.269 220.732Z" fill="#EFC1FF"/>
<path d="M198.494 218.638C199.361 217.771 199.361 216.367 198.494 215.5C197.626 214.632 196.225 214.632 195.355 215.5C194.488 216.367 194.488 217.771 195.355 218.638C196.222 219.506 197.626 219.506 198.494 218.638Z" fill="#EFC1FF"/>
<path d="M182.805 231.189C183.672 232.056 183.672 233.46 182.805 234.327C181.938 235.194 180.533 235.194 179.666 234.327C178.799 233.46 178.799 232.056 179.666 231.189C180.533 230.321 181.938 230.321 182.805 231.189Z" fill="#EFC1FF"/>
<path d="M197.35 0.650319C198.217 1.51762 198.217 2.92174 197.35 3.78904C196.482 4.65635 195.078 4.65635 194.211 3.78904C193.344 2.92174 193.344 1.51762 194.211 0.650319C195.078 -0.216773 196.482 -0.216773 197.35 0.650319Z" fill="#EFC1FF"/>
<path d="M192.118 9.01431C192.985 8.147 192.985 6.74289 192.118 5.87558C191.251 5.00849 189.849 5.00849 188.979 5.87558C188.112 6.74289 188.112 8.147 188.979 9.01431C189.846 9.88161 191.251 9.88161 192.118 9.01431Z" fill="#EFC1FF"/>
<path d="M170.53 14.8916C171.754 14.8916 172.747 13.8991 172.747 12.6746C172.747 11.45 171.754 10.4575 170.53 10.4575C169.305 10.4575 168.313 11.45 168.313 12.6746C168.313 13.8991 169.305 14.8916 170.53 14.8916Z" fill="#EFC1FF"/>
<path d="M177.929 14.8916C179.153 14.8916 180.146 13.8991 180.146 12.6746C180.146 11.45 179.153 10.4575 177.929 10.4575C176.704 10.4575 175.712 11.45 175.712 12.6746C175.712 13.8991 176.704 14.8916 177.929 14.8916Z" fill="#EFC1FF"/>
<path d="M185.321 22.2883C186.546 22.2883 187.538 21.2956 187.538 20.0713C187.538 18.8467 186.546 17.8542 185.321 17.8542C184.097 17.8542 183.104 18.8467 183.104 20.0713C183.104 21.2956 184.097 22.2883 185.321 22.2883Z" fill="#EFC1FF"/>
<path d="M187.538 12.6746C187.538 13.8991 186.546 14.8916 185.321 14.8916C184.097 14.8916 183.104 13.8991 183.104 12.6746C183.104 11.45 184.097 10.4575 185.321 10.4575C186.546 10.4575 187.538 11.45 187.538 12.6746Z" fill="#EFC1FF"/>
<path d="M165.35 12.6746C165.35 13.8991 164.358 14.8916 163.133 14.8916C161.909 14.8916 160.916 13.8991 160.916 12.6746C160.916 11.45 161.909 10.4575 163.133 10.4575C164.358 10.4575 165.35 11.45 165.35 12.6746Z" fill="#EFC1FF"/>
<path d="M155.741 14.8916C156.965 14.8916 157.958 13.8991 157.958 12.6746C157.958 11.45 156.965 10.4575 155.741 10.4575C154.517 10.4575 153.524 11.45 153.524 12.6746C153.524 13.8991 154.517 14.8916 155.741 14.8916Z" fill="#EFC1FF"/>
<path d="M187.538 27.4701C187.538 28.6944 186.546 29.687 185.321 29.687C184.097 29.687 183.104 28.6944 183.104 27.4701C183.104 26.2456 184.097 25.253 185.321 25.253C186.546 25.253 187.538 26.2456 187.538 27.4701Z" fill="#EFC1FF"/>
<path d="M157.006 50.6033C158.23 50.6033 159.223 49.6108 159.223 48.3862C159.223 47.1619 158.23 46.1691 157.006 46.1691C155.782 46.1691 154.789 47.1619 154.789 48.3862C154.789 49.6108 155.782 50.6033 157.006 50.6033Z" fill="#EFC1FF"/>
<path d="M151.833 40.9874C151.833 42.2119 150.84 43.2045 149.616 43.2045C148.391 43.2045 147.399 42.2119 147.399 40.9874C147.399 39.7631 148.391 38.7703 149.616 38.7703C150.84 38.7703 151.833 39.7631 151.833 40.9874Z" fill="#EFC1FF"/>
<path d="M157.006 43.2045C158.23 43.2045 159.223 42.2119 159.223 40.9874C159.223 39.7631 158.23 38.7703 157.006 38.7703C155.782 38.7703 154.789 39.7631 154.789 40.9874C154.789 42.2119 155.782 43.2045 157.006 43.2045Z" fill="#EFC1FF"/>
<path d="M144.434 40.9874C144.434 42.2119 143.442 43.2045 142.217 43.2045C140.993 43.2045 140 42.2119 140 40.9874C140 39.7631 140.993 38.7703 142.217 38.7703C143.442 38.7703 144.434 39.7631 144.434 40.9874Z" fill="#EFC1FF"/>
<path d="M157.006 58C158.23 58 159.223 57.0073 159.223 55.7829C159.223 54.5584 158.23 53.5658 157.006 53.5658C155.782 53.5658 154.789 54.5584 154.789 55.7829C154.789 57.0073 155.782 58 157.006 58Z" fill="#EFC1FF"/>
<path d="M187.538 34.8623C187.538 36.0867 186.546 37.0794 185.321 37.0794C184.097 37.0794 183.104 36.0867 183.104 34.8623C183.104 33.6378 184.097 32.6453 185.321 32.6453C186.546 32.6453 187.538 33.6378 187.538 34.8623Z" fill="#EFC1FF"/>
<path d="M185.321 40.042C186.547 40.042 187.538 41.033 187.538 42.2591C187.538 43.4849 186.547 44.4759 185.321 44.4759C184.095 44.4759 183.104 43.4849 183.104 42.2591C183.104 41.033 184.093 40.042 185.321 40.042Z" fill="#EFC1FF"/>
<path d="M169.682 30.5305C169.682 31.7548 168.69 32.7474 167.465 32.7474C166.241 32.7474 165.248 31.7548 165.248 30.5305C165.248 29.306 166.241 28.3134 167.465 28.3134C168.69 28.3134 169.682 29.306 169.682 30.5305Z" fill="#EFC1FF"/>
<path d="M174.269 23.7315C175.136 24.5988 175.136 26.0029 174.269 26.87C173.401 27.7373 171.997 27.7373 171.13 26.87C170.263 26.0029 170.263 24.5988 171.13 23.7315C171.999 22.8642 173.401 22.8642 174.269 23.7315Z" fill="#EFC1FF"/>
<path d="M179.494 21.6384C180.361 20.7711 180.361 19.367 179.494 18.4997C178.626 17.6324 177.225 17.6324 176.355 18.4997C175.488 19.367 175.488 20.7711 176.355 21.6384C177.222 22.5057 178.626 22.5057 179.494 21.6384Z" fill="#EFC1FF"/>
<path d="M163.805 34.1886C164.672 35.0557 164.672 36.4598 163.805 37.3271C162.938 38.1944 161.533 38.1944 160.666 37.3271C159.799 36.4598 159.799 35.0557 160.666 34.1886C161.533 33.3213 162.938 33.3213 163.805 34.1886Z" fill="#EFC1FF"/>
<path d="M187.35 86.6503C188.217 87.5176 188.217 88.9217 187.35 89.789C186.482 90.6563 185.078 90.6563 184.211 89.789C183.344 88.9217 183.344 87.5176 184.211 86.6503C185.078 85.7832 186.482 85.7832 187.35 86.6503Z" fill="#FFD2BF"/>
<path d="M182.118 95.0143C182.985 94.147 182.985 92.7429 182.118 91.8756C181.251 91.0085 179.849 91.0085 178.979 91.8756C178.112 92.7429 178.112 94.147 178.979 95.0143C179.846 95.8816 181.251 95.8816 182.118 95.0143Z" fill="#FFD2BF"/>
<path d="M160.53 100.892C161.754 100.892 162.747 99.8991 162.747 98.6746C162.747 97.45 161.754 96.4575 160.53 96.4575C159.305 96.4575 158.313 97.45 158.313 98.6746C158.313 99.8991 159.305 100.892 160.53 100.892Z" fill="#FFD2BF"/>
<path d="M167.929 100.892C169.153 100.892 170.146 99.8991 170.146 98.6746C170.146 97.45 169.153 96.4575 167.929 96.4575C166.704 96.4575 165.712 97.45 165.712 98.6746C165.712 99.8991 166.704 100.892 167.929 100.892Z" fill="#FFD2BF"/>
<path d="M175.321 108.288C176.546 108.288 177.538 107.296 177.538 106.071C177.538 104.847 176.546 103.854 175.321 103.854C174.097 103.854 173.104 104.847 173.104 106.071C173.104 107.296 174.097 108.288 175.321 108.288Z" fill="#FFD2BF"/>
<path d="M177.538 98.6746C177.538 99.8991 176.546 100.892 175.321 100.892C174.097 100.892 173.104 99.8991 173.104 98.6746C173.104 97.45 174.097 96.4575 175.321 96.4575C176.546 96.4575 177.538 97.45 177.538 98.6746Z" fill="#FFD2BF"/>
<path d="M155.35 98.6746C155.35 99.8991 154.358 100.892 153.133 100.892C151.909 100.892 150.916 99.8991 150.916 98.6746C150.916 97.45 151.909 96.4575 153.133 96.4575C154.358 96.4575 155.35 97.45 155.35 98.6746Z" fill="#FFD2BF"/>
<path d="M145.741 100.892C146.965 100.892 147.958 99.8991 147.958 98.6746C147.958 97.45 146.965 96.4575 145.741 96.4575C144.517 96.4575 143.524 97.45 143.524 98.6746C143.524 99.8991 144.517 100.892 145.741 100.892Z" fill="#FFD2BF"/>
<path d="M177.538 113.47C177.538 114.694 176.546 115.687 175.321 115.687C174.097 115.687 173.104 114.694 173.104 113.47C173.104 112.246 174.097 111.253 175.321 111.253C176.546 111.253 177.538 112.246 177.538 113.47Z" fill="#FFD2BF"/>
<path d="M147.006 136.603C148.23 136.603 149.223 135.611 149.223 134.386C149.223 133.162 148.23 132.169 147.006 132.169C145.782 132.169 144.789 133.162 144.789 134.386C144.789 135.611 145.782 136.603 147.006 136.603Z" fill="#FFD2BF"/>
<path d="M141.833 126.987C141.833 128.212 140.84 129.204 139.616 129.204C138.391 129.204 137.399 128.212 137.399 126.987C137.399 125.763 138.391 124.77 139.616 124.77C140.84 124.77 141.833 125.763 141.833 126.987Z" fill="#FFD2BF"/>
<path d="M147.006 129.204C148.23 129.204 149.223 128.212 149.223 126.987C149.223 125.763 148.23 124.77 147.006 124.77C145.782 124.77 144.789 125.763 144.789 126.987C144.789 128.212 145.782 129.204 147.006 129.204Z" fill="#FFD2BF"/>
<path d="M134.434 126.987C134.434 128.212 133.442 129.204 132.217 129.204C130.993 129.204 130 128.212 130 126.987C130 125.763 130.993 124.77 132.217 124.77C133.442 124.77 134.434 125.763 134.434 126.987Z" fill="#FFD2BF"/>
<path d="M147.006 144C148.23 144 149.223 143.007 149.223 141.783C149.223 140.558 148.23 139.566 147.006 139.566C145.782 139.566 144.789 140.558 144.789 141.783C144.789 143.007 145.782 144 147.006 144Z" fill="#FFD2BF"/>
<path d="M177.538 120.862C177.538 122.087 176.546 123.079 175.321 123.079C174.097 123.079 173.104 122.087 173.104 120.862C173.104 119.638 174.097 118.645 175.321 118.645C176.546 118.645 177.538 119.638 177.538 120.862Z" fill="#FFD2BF"/>
<path d="M175.321 126.042C176.547 126.042 177.538 127.033 177.538 128.259C177.538 129.485 176.547 130.476 175.321 130.476C174.095 130.476 173.104 129.485 173.104 128.259C173.104 127.033 174.093 126.042 175.321 126.042Z" fill="#FFD2BF"/>
<path d="M159.682 116.53C159.682 117.755 158.69 118.747 157.465 118.747C156.241 118.747 155.248 117.755 155.248 116.53C155.248 115.306 156.241 114.313 157.465 114.313C158.69 114.313 159.682 115.306 159.682 116.53Z" fill="#FFD2BF"/>
<path d="M164.269 109.732C165.136 110.599 165.136 112.003 164.269 112.87C163.401 113.737 161.997 113.737 161.13 112.87C160.263 112.003 160.263 110.599 161.13 109.732C161.999 108.864 163.401 108.864 164.269 109.732Z" fill="#FFD2BF"/>
<path d="M169.494 107.638C170.361 106.771 170.361 105.367 169.494 104.5C168.626 103.632 167.225 103.632 166.355 104.5C165.488 105.367 165.488 106.771 166.355 107.638C167.222 108.506 168.626 108.506 169.494 107.638Z" fill="#FFD2BF"/>
<path d="M153.805 120.189C154.672 121.056 154.672 122.46 153.805 123.327C152.938 124.194 151.533 124.194 150.666 123.327C149.799 122.46 149.799 121.056 150.666 120.189C151.533 119.321 152.938 119.321 153.805 120.189Z" fill="#FFD2BF"/>
<line x1="268.354" y1="293.354" x2="3.35355" y2="558.354" stroke="#E0FFCB"/>
<line x1="532.354" y1="359.354" x2="353.354" y2="538.354" stroke="#E0FFCB"/>
<line x1="361.354" y1="377.354" x2="336.354" y2="402.354" stroke="#FFD2BF"/>
<line x1="233.354" y1="394.354" x2="4.35355" y2="623.354" stroke="#C3DFFF"/>
<line x1="218.354" y1="129.354" x2="9.35355" y2="338.354" stroke="white"/>
<line x1="279.354" y1="207.354" x2="11.3535" y2="475.354" stroke="white"/>
<line x1="167.354" y1="246.354" x2="5.35355" y2="408.354" stroke="#EFC1FF"/>
<line x1="148.354" y1="49.3536" x2="7.35355" y2="190.354" stroke="#EFC1FF"/>
<line x1="138.354" y1="135.354" x2="4.35355" y2="269.354" stroke="#FFD2BF"/>
<path d="M602.35 213.65C603.217 214.518 603.217 215.922 602.35 216.789C601.482 217.656 600.078 217.656 599.211 216.789C598.344 215.922 598.344 214.518 599.211 213.65C600.078 212.783 601.482 212.783 602.35 213.65Z" fill="white"/>
<path d="M597.118 222.014C597.985 221.147 597.985 219.743 597.118 218.876C596.251 218.008 594.849 218.008 593.979 218.876C593.112 219.743 593.112 221.147 593.979 222.014C594.846 222.882 596.251 222.882 597.118 222.014Z" fill="white"/>
<path d="M575.53 227.892C576.754 227.892 577.747 226.899 577.747 225.675C577.747 224.45 576.754 223.457 575.53 223.457C574.305 223.457 573.313 224.45 573.313 225.675C573.313 226.899 574.305 227.892 575.53 227.892Z" fill="white"/>
<path d="M582.929 227.892C584.153 227.892 585.146 226.899 585.146 225.675C585.146 224.45 584.153 223.457 582.929 223.457C581.704 223.457 580.712 224.45 580.712 225.675C580.712 226.899 581.704 227.892 582.929 227.892Z" fill="white"/>
<path d="M590.321 235.288C591.546 235.288 592.538 234.296 592.538 233.071C592.538 231.847 591.546 230.854 590.321 230.854C589.097 230.854 588.104 231.847 588.104 233.071C588.104 234.296 589.097 235.288 590.321 235.288Z" fill="white"/>
<path d="M592.538 225.675C592.538 226.899 591.546 227.892 590.321 227.892C589.097 227.892 588.104 226.899 588.104 225.675C588.104 224.45 589.097 223.457 590.321 223.457C591.546 223.457 592.538 224.45 592.538 225.675Z" fill="white"/>
<path d="M570.35 225.675C570.35 226.899 569.358 227.892 568.133 227.892C566.909 227.892 565.916 226.899 565.916 225.675C565.916 224.45 566.909 223.457 568.133 223.457C569.358 223.457 570.35 224.45 570.35 225.675Z" fill="white"/>
<path d="M560.741 227.892C561.965 227.892 562.958 226.899 562.958 225.675C562.958 224.45 561.965 223.457 560.741 223.457C559.517 223.457 558.524 224.45 558.524 225.675C558.524 226.899 559.517 227.892 560.741 227.892Z" fill="white"/>
<path d="M592.538 240.47C592.538 241.694 591.546 242.687 590.321 242.687C589.097 242.687 588.104 241.694 588.104 240.47C588.104 239.246 589.097 238.253 590.321 238.253C591.546 238.253 592.538 239.246 592.538 240.47Z" fill="white"/>
<path d="M562.006 263.603C563.23 263.603 564.223 262.611 564.223 261.386C564.223 260.162 563.23 259.169 562.006 259.169C560.782 259.169 559.789 260.162 559.789 261.386C559.789 262.611 560.782 263.603 562.006 263.603Z" fill="white"/>
<path d="M556.833 253.987C556.833 255.212 555.84 256.204 554.616 256.204C553.391 256.204 552.399 255.212 552.399 253.987C552.399 252.763 553.391 251.77 554.616 251.77C555.84 251.77 556.833 252.763 556.833 253.987Z" fill="white"/>
<path d="M562.006 256.204C563.23 256.204 564.223 255.212 564.223 253.987C564.223 252.763 563.23 251.77 562.006 251.77C560.782 251.77 559.789 252.763 559.789 253.987C559.789 255.212 560.782 256.204 562.006 256.204Z" fill="white"/>
<path d="M549.434 253.987C549.434 255.212 548.442 256.204 547.217 256.204C545.993 256.204 545 255.212 545 253.987C545 252.763 545.993 251.77 547.217 251.77C548.442 251.77 549.434 252.763 549.434 253.987Z" fill="white"/>
<path d="M562.006 271C563.23 271 564.223 270.007 564.223 268.783C564.223 267.558 563.23 266.566 562.006 266.566C560.782 266.566 559.789 267.558 559.789 268.783C559.789 270.007 560.782 271 562.006 271Z" fill="white"/>
<path d="M592.538 247.862C592.538 249.087 591.546 250.079 590.321 250.079C589.097 250.079 588.104 249.087 588.104 247.862C588.104 246.638 589.097 245.645 590.321 245.645C591.546 245.645 592.538 246.638 592.538 247.862Z" fill="white"/>
<path d="M590.321 253.042C591.547 253.042 592.538 254.033 592.538 255.259C592.538 256.485 591.547 257.476 590.321 257.476C589.095 257.476 588.104 256.485 588.104 255.259C588.104 254.033 589.093 253.042 590.321 253.042Z" fill="white"/>
<path d="M574.682 243.53C574.682 244.755 573.69 245.747 572.465 245.747C571.241 245.747 570.248 244.755 570.248 243.53C570.248 242.306 571.241 241.313 572.465 241.313C573.69 241.313 574.682 242.306 574.682 243.53Z" fill="white"/>
<path d="M579.269 236.732C580.136 237.599 580.136 239.003 579.269 239.87C578.401 240.737 576.997 240.737 576.13 239.87C575.263 239.003 575.263 237.599 576.13 236.732C576.999 235.864 578.401 235.864 579.269 236.732Z" fill="white"/>
<path d="M584.494 234.638C585.361 233.771 585.361 232.367 584.494 231.5C583.626 230.632 582.225 230.632 581.355 231.5C580.488 232.367 580.488 233.771 581.355 234.638C582.222 235.506 583.626 235.506 584.494 234.638Z" fill="white"/>
<path d="M568.805 247.189C569.672 248.056 569.672 249.46 568.805 250.327C567.938 251.194 566.533 251.194 565.666 250.327C564.799 249.46 564.799 248.056 565.666 247.189C566.533 246.321 567.938 246.321 568.805 247.189Z" fill="white"/>
<line x1="553.354" y1="264.354" x2="238.354" y2="579.354" stroke="white"/>
<path d="M103.35 634.65C104.217 635.518 104.217 636.922 103.35 637.789C102.482 638.656 101.078 638.656 100.211 637.789C99.3437 636.922 99.3437 635.518 100.211 634.65C101.078 633.783 102.482 633.783 103.35 634.65Z" fill="#C3DFFF"/>
<path d="M98.1179 643.014C98.9851 642.147 98.9851 640.743 98.1179 639.876C97.2506 639.008 95.8486 639.008 94.9791 639.876C94.1119 640.743 94.1119 642.147 94.9791 643.014C95.8464 643.882 97.2506 643.882 98.1179 643.014Z" fill="#C3DFFF"/>
<path d="M76.5299 648.892C77.7544 648.892 78.747 647.899 78.747 646.675C78.747 645.45 77.7544 644.457 76.5299 644.457C75.3055 644.457 74.3129 645.45 74.3129 646.675C74.3129 647.899 75.3055 648.892 76.5299 648.892Z" fill="#C3DFFF"/>
<path d="M83.9287 648.892C85.1532 648.892 86.1458 647.899 86.1458 646.675C86.1458 645.45 85.1532 644.457 83.9287 644.457C82.7043 644.457 81.7118 645.45 81.7118 646.675C81.7118 647.899 82.7043 648.892 83.9287 648.892Z" fill="#C3DFFF"/>
<path d="M91.3211 656.288C92.5455 656.288 93.5381 655.296 93.5381 654.071C93.5381 652.847 92.5455 651.854 91.3211 651.854C90.0966 651.854 89.104 652.847 89.104 654.071C89.104 655.296 90.0966 656.288 91.3211 656.288Z" fill="#C3DFFF"/>
<path d="M93.5381 646.675C93.5381 647.899 92.5455 648.892 91.3211 648.892C90.0966 648.892 89.104 647.899 89.104 646.675C89.104 645.45 90.0966 644.457 91.3211 644.457C92.5455 644.457 93.5381 645.45 93.5381 646.675Z" fill="#C3DFFF"/>
<path d="M71.3503 646.675C71.3503 647.899 70.3578 648.892 69.1333 648.892C67.9089 648.892 66.9162 647.899 66.9162 646.675C66.9162 645.45 67.9089 644.457 69.1333 644.457C70.3578 644.457 71.3503 645.45 71.3503 646.675Z" fill="#C3DFFF"/>
<path d="M61.741 648.892C62.9654 648.892 63.958 647.899 63.958 646.675C63.958 645.45 62.9654 644.457 61.741 644.457C60.5165 644.457 59.524 645.45 59.524 646.675C59.524 647.899 60.5165 648.892 61.741 648.892Z" fill="#C3DFFF"/>
<path d="M93.5381 661.47C93.5381 662.694 92.5455 663.687 91.3211 663.687C90.0966 663.687 89.104 662.694 89.104 661.47C89.104 660.246 90.0966 659.253 91.3211 659.253C92.5455 659.253 93.5381 660.246 93.5381 661.47Z" fill="#C3DFFF"/>
<path d="M63.006 684.603C64.2305 684.603 65.223 683.611 65.223 682.386C65.223 681.162 64.2305 680.169 63.006 680.169C61.7816 680.169 60.789 681.162 60.789 682.386C60.789 683.611 61.7816 684.603 63.006 684.603Z" fill="#C3DFFF"/>
<path d="M57.8329 674.987C57.8329 676.212 56.8403 677.204 55.6159 677.204C54.3915 677.204 53.3988 676.212 53.3988 674.987C53.3988 673.763 54.3915 672.77 55.6159 672.77C56.8403 672.77 57.8329 673.763 57.8329 674.987Z" fill="#C3DFFF"/>
<path d="M63.006 677.204C64.2305 677.204 65.223 676.212 65.223 674.987C65.223 673.763 64.2305 672.77 63.006 672.77C61.7816 672.77 60.789 673.763 60.789 674.987C60.789 676.212 61.7816 677.204 63.006 677.204Z" fill="#C3DFFF"/>
<path d="M50.4341 674.987C50.4341 676.212 49.4415 677.204 48.2171 677.204C46.9926 677.204 46 676.212 46 674.987C46 673.763 46.9926 672.77 48.2171 672.77C49.4415 672.77 50.4341 673.763 50.4341 674.987Z" fill="#C3DFFF"/>
<path d="M63.006 692C64.2305 692 65.223 691.007 65.223 689.783C65.223 688.558 64.2305 687.566 63.006 687.566C61.7816 687.566 60.789 688.558 60.789 689.783C60.789 691.007 61.7816 692 63.006 692Z" fill="#C3DFFF"/>
<path d="M93.5381 668.862C93.5381 670.087 92.5455 671.079 91.3211 671.079C90.0966 671.079 89.104 670.087 89.104 668.862C89.104 667.638 90.0966 666.645 91.3211 666.645C92.5455 666.645 93.5381 667.638 93.5381 668.862Z" fill="#C3DFFF"/>
<path d="M91.3211 674.042C92.5469 674.042 93.5381 675.033 93.5381 676.259C93.5381 677.485 92.5469 678.476 91.3211 678.476C90.0952 678.476 89.104 677.485 89.104 676.259C89.104 675.033 90.093 674.042 91.3211 674.042Z" fill="#C3DFFF"/>
<path d="M75.6822 664.53C75.6822 665.755 74.6896 666.747 73.4652 666.747C72.2407 666.747 71.2482 665.755 71.2482 664.53C71.2482 663.306 72.2407 662.313 73.4652 662.313C74.6896 662.313 75.6822 663.306 75.6822 664.53Z" fill="#C3DFFF"/>
<path d="M80.2685 657.732C81.1357 658.599 81.1357 660.003 80.2685 660.87C79.4012 661.737 77.9971 661.737 77.1299 660.87C76.2626 660.003 76.2626 658.599 77.1299 657.732C77.9993 656.864 79.4012 656.864 80.2685 657.732Z" fill="#C3DFFF"/>
<path d="M85.4938 655.638C86.361 654.771 86.361 653.367 85.4938 652.5C84.6265 651.632 83.2246 651.632 82.3551 652.5C81.4878 653.367 81.4878 654.771 82.3551 655.638C83.2223 656.506 84.6265 656.506 85.4938 655.638Z" fill="#C3DFFF"/>
<path d="M69.8049 668.189C70.6722 669.056 70.6722 670.46 69.8049 671.327C68.9376 672.194 67.5335 672.194 66.6663 671.327C65.799 670.46 65.799 669.056 66.6663 668.189C67.5335 667.321 68.9376 667.321 69.8049 668.189Z" fill="#C3DFFF"/>
<path d="M580.35 814.65C581.217 815.518 581.217 816.922 580.35 817.789C579.482 818.656 578.078 818.656 577.211 817.789C576.344 816.922 576.344 815.518 577.211 814.65C578.078 813.783 579.482 813.783 580.35 814.65Z" fill="#C3DFFF"/>
<path d="M575.118 823.014C575.985 822.147 575.985 820.743 575.118 819.876C574.251 819.008 572.849 819.008 571.979 819.876C571.112 820.743 571.112 822.147 571.979 823.014C572.846 823.882 574.251 823.882 575.118 823.014Z" fill="#C3DFFF"/>
<path d="M553.53 828.892C554.754 828.892 555.747 827.899 555.747 826.675C555.747 825.45 554.754 824.457 553.53 824.457C552.305 824.457 551.313 825.45 551.313 826.675C551.313 827.899 552.305 828.892 553.53 828.892Z" fill="#C3DFFF"/>
<path d="M560.929 828.892C562.153 828.892 563.146 827.899 563.146 826.675C563.146 825.45 562.153 824.457 560.929 824.457C559.704 824.457 558.712 825.45 558.712 826.675C558.712 827.899 559.704 828.892 560.929 828.892Z" fill="#C3DFFF"/>
<path d="M568.321 836.288C569.546 836.288 570.538 835.296 570.538 834.071C570.538 832.847 569.546 831.854 568.321 831.854C567.097 831.854 566.104 832.847 566.104 834.071C566.104 835.296 567.097 836.288 568.321 836.288Z" fill="#C3DFFF"/>
<path d="M570.538 826.675C570.538 827.899 569.546 828.892 568.321 828.892C567.097 828.892 566.104 827.899 566.104 826.675C566.104 825.45 567.097 824.457 568.321 824.457C569.546 824.457 570.538 825.45 570.538 826.675Z" fill="#C3DFFF"/>
<path d="M548.35 826.675C548.35 827.899 547.358 828.892 546.133 828.892C544.909 828.892 543.916 827.899 543.916 826.675C543.916 825.45 544.909 824.457 546.133 824.457C547.358 824.457 548.35 825.45 548.35 826.675Z" fill="#C3DFFF"/>
<path d="M538.741 828.892C539.965 828.892 540.958 827.899 540.958 826.675C540.958 825.45 539.965 824.457 538.741 824.457C537.517 824.457 536.524 825.45 536.524 826.675C536.524 827.899 537.517 828.892 538.741 828.892Z" fill="#C3DFFF"/>
<path d="M570.538 841.47C570.538 842.694 569.546 843.687 568.321 843.687C567.097 843.687 566.104 842.694 566.104 841.47C566.104 840.246 567.097 839.253 568.321 839.253C569.546 839.253 570.538 840.246 570.538 841.47Z" fill="#C3DFFF"/>
<path d="M540.006 864.603C541.23 864.603 542.223 863.611 542.223 862.386C542.223 861.162 541.23 860.169 540.006 860.169C538.782 860.169 537.789 861.162 537.789 862.386C537.789 863.611 538.782 864.603 540.006 864.603Z" fill="#C3DFFF"/>
<path d="M534.833 854.987C534.833 856.212 533.84 857.204 532.616 857.204C531.391 857.204 530.399 856.212 530.399 854.987C530.399 853.763 531.391 852.77 532.616 852.77C533.84 852.77 534.833 853.763 534.833 854.987Z" fill="#C3DFFF"/>
<path d="M540.006 857.204C541.23 857.204 542.223 856.212 542.223 854.987C542.223 853.763 541.23 852.77 540.006 852.77C538.782 852.77 537.789 853.763 537.789 854.987C537.789 856.212 538.782 857.204 540.006 857.204Z" fill="#C3DFFF"/>
<path d="M527.434 854.987C527.434 856.212 526.442 857.204 525.217 857.204C523.993 857.204 523 856.212 523 854.987C523 853.763 523.993 852.77 525.217 852.77C526.442 852.77 527.434 853.763 527.434 854.987Z" fill="#C3DFFF"/>
<path d="M540.006 872C541.23 872 542.223 871.007 542.223 869.783C542.223 868.558 541.23 867.566 540.006 867.566C538.782 867.566 537.789 868.558 537.789 869.783C537.789 871.007 538.782 872 540.006 872Z" fill="#C3DFFF"/>
<path d="M570.538 848.862C570.538 850.087 569.546 851.079 568.321 851.079C567.097 851.079 566.104 850.087 566.104 848.862C566.104 847.638 567.097 846.645 568.321 846.645C569.546 846.645 570.538 847.638 570.538 848.862Z" fill="#C3DFFF"/>
<path d="M568.321 854.042C569.547 854.042 570.538 855.033 570.538 856.259C570.538 857.485 569.547 858.476 568.321 858.476C567.095 858.476 566.104 857.485 566.104 856.259C566.104 855.033 567.093 854.042 568.321 854.042Z" fill="#C3DFFF"/>
<path d="M552.682 844.53C552.682 845.755 551.69 846.747 550.465 846.747C549.241 846.747 548.248 845.755 548.248 844.53C548.248 843.306 549.241 842.313 550.465 842.313C551.69 842.313 552.682 843.306 552.682 844.53Z" fill="#C3DFFF"/>
<path d="M557.269 837.732C558.136 838.599 558.136 840.003 557.269 840.87C556.401 841.737 554.997 841.737 554.13 840.87C553.263 840.003 553.263 838.599 554.13 837.732C554.999 836.864 556.401 836.864 557.269 837.732Z" fill="#C3DFFF"/>
<path d="M562.494 835.638C563.361 834.771 563.361 833.367 562.494 832.5C561.626 831.632 560.225 831.632 559.355 832.5C558.488 833.367 558.488 834.771 559.355 835.638C560.222 836.506 561.626 836.506 562.494 835.638Z" fill="#C3DFFF"/>
<path d="M546.805 848.189C547.672 849.056 547.672 850.46 546.805 851.327C545.938 852.194 544.533 852.194 543.666 851.327C542.799 850.46 542.799 849.056 543.666 848.189C544.533 847.321 545.938 847.321 546.805 848.189Z" fill="#C3DFFF"/>
<path d="M489.35 631.65C490.217 632.518 490.217 633.922 489.35 634.789C488.482 635.656 487.078 635.656 486.211 634.789C485.344 633.922 485.344 632.518 486.211 631.65C487.078 630.783 488.482 630.783 489.35 631.65Z" fill="#C3DFFF"/>
<path d="M484.118 640.014C484.985 639.147 484.985 637.743 484.118 636.876C483.251 636.008 481.849 636.008 480.979 636.876C480.112 637.743 480.112 639.147 480.979 640.014C481.846 640.882 483.251 640.882 484.118 640.014Z" fill="#C3DFFF"/>
<path d="M462.53 645.892C463.754 645.892 464.747 644.899 464.747 643.675C464.747 642.45 463.754 641.457 462.53 641.457C461.305 641.457 460.313 642.45 460.313 643.675C460.313 644.899 461.305 645.892 462.53 645.892Z" fill="#C3DFFF"/>
<path d="M469.929 645.892C471.153 645.892 472.146 644.899 472.146 643.675C472.146 642.45 471.153 641.457 469.929 641.457C468.704 641.457 467.712 642.45 467.712 643.675C467.712 644.899 468.704 645.892 469.929 645.892Z" fill="#C3DFFF"/>
<path d="M477.321 653.288C478.546 653.288 479.538 652.296 479.538 651.071C479.538 649.847 478.546 648.854 477.321 648.854C476.097 648.854 475.104 649.847 475.104 651.071C475.104 652.296 476.097 653.288 477.321 653.288Z" fill="#C3DFFF"/>
<path d="M479.538 643.675C479.538 644.899 478.546 645.892 477.321 645.892C476.097 645.892 475.104 644.899 475.104 643.675C475.104 642.45 476.097 641.457 477.321 641.457C478.546 641.457 479.538 642.45 479.538 643.675Z" fill="#C3DFFF"/>
<path d="M457.35 643.675C457.35 644.899 456.358 645.892 455.133 645.892C453.909 645.892 452.916 644.899 452.916 643.675C452.916 642.45 453.909 641.457 455.133 641.457C456.358 641.457 457.35 642.45 457.35 643.675Z" fill="#C3DFFF"/>
<path d="M447.741 645.892C448.965 645.892 449.958 644.899 449.958 643.675C449.958 642.45 448.965 641.457 447.741 641.457C446.517 641.457 445.524 642.45 445.524 643.675C445.524 644.899 446.517 645.892 447.741 645.892Z" fill="#C3DFFF"/>
<path d="M479.538 658.47C479.538 659.694 478.546 660.687 477.321 660.687C476.097 660.687 475.104 659.694 475.104 658.47C475.104 657.246 476.097 656.253 477.321 656.253C478.546 656.253 479.538 657.246 479.538 658.47Z" fill="#C3DFFF"/>
<path d="M449.006 681.603C450.23 681.603 451.223 680.611 451.223 679.386C451.223 678.162 450.23 677.169 449.006 677.169C447.782 677.169 446.789 678.162 446.789 679.386C446.789 680.611 447.782 681.603 449.006 681.603Z" fill="#C3DFFF"/>
<path d="M443.833 671.987C443.833 673.212 442.84 674.204 441.616 674.204C440.391 674.204 439.399 673.212 439.399 671.987C439.399 670.763 440.391 669.77 441.616 669.77C442.84 669.77 443.833 670.763 443.833 671.987Z" fill="#C3DFFF"/>
<path d="M449.006 674.204C450.23 674.204 451.223 673.212 451.223 671.987C451.223 670.763 450.23 669.77 449.006 669.77C447.782 669.77 446.789 670.763 446.789 671.987C446.789 673.212 447.782 674.204 449.006 674.204Z" fill="#C3DFFF"/>
<path d="M436.434 671.987C436.434 673.212 435.442 674.204 434.217 674.204C432.993 674.204 432 673.212 432 671.987C432 670.763 432.993 669.77 434.217 669.77C435.442 669.77 436.434 670.763 436.434 671.987Z" fill="#C3DFFF"/>
<path d="M449.006 689C450.23 689 451.223 688.007 451.223 686.783C451.223 685.558 450.23 684.566 449.006 684.566C447.782 684.566 446.789 685.558 446.789 686.783C446.789 688.007 447.782 689 449.006 689Z" fill="#C3DFFF"/>
<path d="M479.538 665.862C479.538 667.087 478.546 668.079 477.321 668.079C476.097 668.079 475.104 667.087 475.104 665.862C475.104 664.638 476.097 663.645 477.321 663.645C478.546 663.645 479.538 664.638 479.538 665.862Z" fill="#C3DFFF"/>
<path d="M477.321 671.042C478.547 671.042 479.538 672.033 479.538 673.259C479.538 674.485 478.547 675.476 477.321 675.476C476.095 675.476 475.104 674.485 475.104 673.259C475.104 672.033 476.093 671.042 477.321 671.042Z" fill="#C3DFFF"/>
<path d="M461.682 661.53C461.682 662.755 460.69 663.747 459.465 663.747C458.241 663.747 457.248 662.755 457.248 661.53C457.248 660.306 458.241 659.313 459.465 659.313C460.69 659.313 461.682 660.306 461.682 661.53Z" fill="#C3DFFF"/>
<path d="M466.269 654.732C467.136 655.599 467.136 657.003 466.269 657.87C465.401 658.737 463.997 658.737 463.13 657.87C462.263 657.003 462.263 655.599 463.13 654.732C463.999 653.864 465.401 653.864 466.269 654.732Z" fill="#C3DFFF"/>
<path d="M471.494 652.638C472.361 651.771 472.361 650.367 471.494 649.5C470.626 648.632 469.225 648.632 468.355 649.5C467.488 650.367 467.488 651.771 468.355 652.638C469.222 653.506 470.626 653.506 471.494 652.638Z" fill="#C3DFFF"/>
<path d="M455.805 665.189C456.672 666.056 456.672 667.46 455.805 668.327C454.938 669.194 453.533 669.194 452.666 668.327C451.799 667.46 451.799 666.056 452.666 665.189C453.533 664.321 454.938 664.321 455.805 665.189Z" fill="#C3DFFF"/>
<path d="M254.35 716.65C255.217 717.518 255.217 718.922 254.35 719.789C253.482 720.656 252.078 720.656 251.211 719.789C250.344 718.922 250.344 717.518 251.211 716.65C252.078 715.783 253.482 715.783 254.35 716.65Z" fill="#FFD2BF"/>
<path d="M249.118 725.014C249.985 724.147 249.985 722.743 249.118 721.876C248.251 721.008 246.849 721.008 245.979 721.876C245.112 722.743 245.112 724.147 245.979 725.014C246.846 725.882 248.251 725.882 249.118 725.014Z" fill="#FFD2BF"/>
<path d="M227.53 730.892C228.754 730.892 229.747 729.899 229.747 728.675C229.747 727.45 228.754 726.457 227.53 726.457C226.305 726.457 225.313 727.45 225.313 728.675C225.313 729.899 226.305 730.892 227.53 730.892Z" fill="#FFD2BF"/>
<path d="M234.929 730.892C236.153 730.892 237.146 729.899 237.146 728.675C237.146 727.45 236.153 726.457 234.929 726.457C233.704 726.457 232.712 727.45 232.712 728.675C232.712 729.899 233.704 730.892 234.929 730.892Z" fill="#FFD2BF"/>
<path d="M242.321 738.288C243.546 738.288 244.538 737.296 244.538 736.071C244.538 734.847 243.546 733.854 242.321 733.854C241.097 733.854 240.104 734.847 240.104 736.071C240.104 737.296 241.097 738.288 242.321 738.288Z" fill="#FFD2BF"/>
<path d="M244.538 728.675C244.538 729.899 243.546 730.892 242.321 730.892C241.097 730.892 240.104 729.899 240.104 728.675C240.104 727.45 241.097 726.457 242.321 726.457C243.546 726.457 244.538 727.45 244.538 728.675Z" fill="#FFD2BF"/>
<path d="M222.35 728.675C222.35 729.899 221.358 730.892 220.133 730.892C218.909 730.892 217.916 729.899 217.916 728.675C217.916 727.45 218.909 726.457 220.133 726.457C221.358 726.457 222.35 727.45 222.35 728.675Z" fill="#FFD2BF"/>
<path d="M212.741 730.892C213.965 730.892 214.958 729.899 214.958 728.675C214.958 727.45 213.965 726.457 212.741 726.457C211.517 726.457 210.524 727.45 210.524 728.675C210.524 729.899 211.517 730.892 212.741 730.892Z" fill="#FFD2BF"/>
<path d="M244.538 743.47C244.538 744.694 243.546 745.687 242.321 745.687C241.097 745.687 240.104 744.694 240.104 743.47C240.104 742.246 241.097 741.253 242.321 741.253C243.546 741.253 244.538 742.246 244.538 743.47Z" fill="#FFD2BF"/>
<path d="M214.006 766.603C215.23 766.603 216.223 765.611 216.223 764.386C216.223 763.162 215.23 762.169 214.006 762.169C212.782 762.169 211.789 763.162 211.789 764.386C211.789 765.611 212.782 766.603 214.006 766.603Z" fill="#FFD2BF"/>
<path d="M208.833 756.987C208.833 758.212 207.84 759.204 206.616 759.204C205.391 759.204 204.399 758.212 204.399 756.987C204.399 755.763 205.391 754.77 206.616 754.77C207.84 754.77 208.833 755.763 208.833 756.987Z" fill="#FFD2BF"/>
<path d="M214.006 759.204C215.23 759.204 216.223 758.212 216.223 756.987C216.223 755.763 215.23 754.77 214.006 754.77C212.782 754.77 211.789 755.763 211.789 756.987C211.789 758.212 212.782 759.204 214.006 759.204Z" fill="#FFD2BF"/>
<path d="M201.434 756.987C201.434 758.212 200.442 759.204 199.217 759.204C197.993 759.204 197 758.212 197 756.987C197 755.763 197.993 754.77 199.217 754.77C200.442 754.77 201.434 755.763 201.434 756.987Z" fill="#FFD2BF"/>
<path d="M214.006 774C215.23 774 216.223 773.007 216.223 771.783C216.223 770.558 215.23 769.566 214.006 769.566C212.782 769.566 211.789 770.558 211.789 771.783C211.789 773.007 212.782 774 214.006 774Z" fill="#FFD2BF"/>
<path d="M244.538 750.862C244.538 752.087 243.546 753.079 242.321 753.079C241.097 753.079 240.104 752.087 240.104 750.862C240.104 749.638 241.097 748.645 242.321 748.645C243.546 748.645 244.538 749.638 244.538 750.862Z" fill="#FFD2BF"/>
<path d="M242.321 756.042C243.547 756.042 244.538 757.033 244.538 758.259C244.538 759.485 243.547 760.476 242.321 760.476C241.095 760.476 240.104 759.485 240.104 758.259C240.104 757.033 241.093 756.042 242.321 756.042Z" fill="#FFD2BF"/>
<path d="M226.682 746.53C226.682 747.755 225.69 748.747 224.465 748.747C223.241 748.747 222.248 747.755 222.248 746.53C222.248 745.306 223.241 744.313 224.465 744.313C225.69 744.313 226.682 745.306 226.682 746.53Z" fill="#FFD2BF"/>
<path d="M231.269 739.732C232.136 740.599 232.136 742.003 231.269 742.87C230.401 743.737 228.997 743.737 228.13 742.87C227.263 742.003 227.263 740.599 228.13 739.732C228.999 738.864 230.401 738.864 231.269 739.732Z" fill="#FFD2BF"/>
<path d="M236.494 737.638C237.361 736.771 237.361 735.367 236.494 734.5C235.626 733.632 234.225 733.632 233.355 734.5C232.488 735.367 232.488 736.771 233.355 737.638C234.222 738.506 235.626 738.506 236.494 737.638Z" fill="#FFD2BF"/>
<path d="M220.805 750.189C221.672 751.056 221.672 752.46 220.805 753.327C219.938 754.194 218.533 754.194 217.666 753.327C216.799 752.46 216.799 751.056 217.666 750.189C218.533 749.321 219.938 749.321 220.805 750.189Z" fill="#FFD2BF"/>
<path d="M352.35 540.65C353.217 541.518 353.217 542.922 352.35 543.789C351.482 544.656 350.078 544.656 349.211 543.789C348.344 542.922 348.344 541.518 349.211 540.65C350.078 539.783 351.482 539.783 352.35 540.65Z" fill="#C3DFFF"/>
<path d="M347.118 549.014C347.985 548.147 347.985 546.743 347.118 545.876C346.251 545.008 344.849 545.008 343.979 545.876C343.112 546.743 343.112 548.147 343.979 549.014C344.846 549.882 346.251 549.882 347.118 549.014Z" fill="#C3DFFF"/>
<path d="M325.53 554.892C326.754 554.892 327.747 553.899 327.747 552.675C327.747 551.45 326.754 550.457 325.53 550.457C324.305 550.457 323.313 551.45 323.313 552.675C323.313 553.899 324.305 554.892 325.53 554.892Z" fill="#C3DFFF"/>
<path d="M332.929 554.892C334.153 554.892 335.146 553.899 335.146 552.675C335.146 551.45 334.153 550.457 332.929 550.457C331.704 550.457 330.712 551.45 330.712 552.675C330.712 553.899 331.704 554.892 332.929 554.892Z" fill="#C3DFFF"/>
<path d="M340.321 562.288C341.546 562.288 342.538 561.296 342.538 560.071C342.538 558.847 341.546 557.854 340.321 557.854C339.097 557.854 338.104 558.847 338.104 560.071C338.104 561.296 339.097 562.288 340.321 562.288Z" fill="#C3DFFF"/>
<path d="M342.538 552.675C342.538 553.899 341.546 554.892 340.321 554.892C339.097 554.892 338.104 553.899 338.104 552.675C338.104 551.45 339.097 550.457 340.321 550.457C341.546 550.457 342.538 551.45 342.538 552.675Z" fill="#C3DFFF"/>
<path d="M320.35 552.675C320.35 553.899 319.358 554.892 318.133 554.892C316.909 554.892 315.916 553.899 315.916 552.675C315.916 551.45 316.909 550.457 318.133 550.457C319.358 550.457 320.35 551.45 320.35 552.675Z" fill="#C3DFFF"/>
<path d="M310.741 554.892C311.965 554.892 312.958 553.899 312.958 552.675C312.958 551.45 311.965 550.457 310.741 550.457C309.517 550.457 308.524 551.45 308.524 552.675C308.524 553.899 309.517 554.892 310.741 554.892Z" fill="#C3DFFF"/>
<path d="M342.538 567.47C342.538 568.694 341.546 569.687 340.321 569.687C339.097 569.687 338.104 568.694 338.104 567.47C338.104 566.246 339.097 565.253 340.321 565.253C341.546 565.253 342.538 566.246 342.538 567.47Z" fill="#C3DFFF"/>
<path d="M312.006 590.603C313.23 590.603 314.223 589.611 314.223 588.386C314.223 587.162 313.23 586.169 312.006 586.169C310.782 586.169 309.789 587.162 309.789 588.386C309.789 589.611 310.782 590.603 312.006 590.603Z" fill="#C3DFFF"/>
<path d="M306.833 580.987C306.833 582.212 305.84 583.204 304.616 583.204C303.391 583.204 302.399 582.212 302.399 580.987C302.399 579.763 303.391 578.77 304.616 578.77C305.84 578.77 306.833 579.763 306.833 580.987Z" fill="#C3DFFF"/>
<path d="M312.006 583.204C313.23 583.204 314.223 582.212 314.223 580.987C314.223 579.763 313.23 578.77 312.006 578.77C310.782 578.77 309.789 579.763 309.789 580.987C309.789 582.212 310.782 583.204 312.006 583.204Z" fill="#C3DFFF"/>
<path d="M299.434 580.987C299.434 582.212 298.442 583.204 297.217 583.204C295.993 583.204 295 582.212 295 580.987C295 579.763 295.993 578.77 297.217 578.77C298.442 578.77 299.434 579.763 299.434 580.987Z" fill="#C3DFFF"/>
<path d="M312.006 598C313.23 598 314.223 597.007 314.223 595.783C314.223 594.558 313.23 593.566 312.006 593.566C310.782 593.566 309.789 594.558 309.789 595.783C309.789 597.007 310.782 598 312.006 598Z" fill="#C3DFFF"/>
<path d="M342.538 574.862C342.538 576.087 341.546 577.079 340.321 577.079C339.097 577.079 338.104 576.087 338.104 574.862C338.104 573.638 339.097 572.645 340.321 572.645C341.546 572.645 342.538 573.638 342.538 574.862Z" fill="#C3DFFF"/>
<path d="M340.321 580.042C341.547 580.042 342.538 581.033 342.538 582.259C342.538 583.485 341.547 584.476 340.321 584.476C339.095 584.476 338.104 583.485 338.104 582.259C338.104 581.033 339.093 580.042 340.321 580.042Z" fill="#C3DFFF"/>
<path d="M324.682 570.53C324.682 571.755 323.69 572.747 322.465 572.747C321.241 572.747 320.248 571.755 320.248 570.53C320.248 569.306 321.241 568.313 322.465 568.313C323.69 568.313 324.682 569.306 324.682 570.53Z" fill="#C3DFFF"/>
<path d="M329.269 563.732C330.136 564.599 330.136 566.003 329.269 566.87C328.401 567.737 326.997 567.737 326.13 566.87C325.263 566.003 325.263 564.599 326.13 563.732C326.999 562.864 328.401 562.864 329.269 563.732Z" fill="#C3DFFF"/>
<path d="M334.494 561.638C335.361 560.771 335.361 559.367 334.494 558.5C333.626 557.632 332.225 557.632 331.355 558.5C330.488 559.367 330.488 560.771 331.355 561.638C332.222 562.506 333.626 562.506 334.494 561.638Z" fill="#C3DFFF"/>
<path d="M318.805 574.189C319.672 575.056 319.672 576.46 318.805 577.327C317.938 578.194 316.533 578.194 315.666 577.327C314.799 576.46 314.799 575.056 315.666 574.189C316.533 573.321 317.938 573.321 318.805 574.189Z" fill="#C3DFFF"/>
<path d="M236.35 580.65C237.217 581.518 237.217 582.922 236.35 583.789C235.482 584.656 234.078 584.656 233.211 583.789C232.344 582.922 232.344 581.518 233.211 580.65C234.078 579.783 235.482 579.783 236.35 580.65Z" fill="#E0FFCB"/>
<path d="M231.118 589.014C231.985 588.147 231.985 586.743 231.118 585.876C230.251 585.008 228.849 585.008 227.979 585.876C227.112 586.743 227.112 588.147 227.979 589.014C228.846 589.882 230.251 589.882 231.118 589.014Z" fill="#E0FFCB"/>
<path d="M209.53 594.892C210.754 594.892 211.747 593.899 211.747 592.675C211.747 591.45 210.754 590.457 209.53 590.457C208.305 590.457 207.313 591.45 207.313 592.675C207.313 593.899 208.305 594.892 209.53 594.892Z" fill="#E0FFCB"/>
<path d="M216.929 594.892C218.153 594.892 219.146 593.899 219.146 592.675C219.146 591.45 218.153 590.457 216.929 590.457C215.704 590.457 214.712 591.45 214.712 592.675C214.712 593.899 215.704 594.892 216.929 594.892Z" fill="#E0FFCB"/>
<path d="M224.321 602.288C225.546 602.288 226.538 601.296 226.538 600.071C226.538 598.847 225.546 597.854 224.321 597.854C223.097 597.854 222.104 598.847 222.104 600.071C222.104 601.296 223.097 602.288 224.321 602.288Z" fill="#E0FFCB"/>
<path d="M226.538 592.675C226.538 593.899 225.546 594.892 224.321 594.892C223.097 594.892 222.104 593.899 222.104 592.675C222.104 591.45 223.097 590.457 224.321 590.457C225.546 590.457 226.538 591.45 226.538 592.675Z" fill="#E0FFCB"/>
<path d="M204.35 592.675C204.35 593.899 203.358 594.892 202.133 594.892C200.909 594.892 199.916 593.899 199.916 592.675C199.916 591.45 200.909 590.457 202.133 590.457C203.358 590.457 204.35 591.45 204.35 592.675Z" fill="#E0FFCB"/>
<path d="M194.741 594.892C195.965 594.892 196.958 593.899 196.958 592.675C196.958 591.45 195.965 590.457 194.741 590.457C193.517 590.457 192.524 591.45 192.524 592.675C192.524 593.899 193.517 594.892 194.741 594.892Z" fill="#E0FFCB"/>
<path d="M226.538 607.47C226.538 608.694 225.546 609.687 224.321 609.687C223.097 609.687 222.104 608.694 222.104 607.47C222.104 606.246 223.097 605.253 224.321 605.253C225.546 605.253 226.538 606.246 226.538 607.47Z" fill="#E0FFCB"/>
<path d="M196.006 630.603C197.23 630.603 198.223 629.611 198.223 628.386C198.223 627.162 197.23 626.169 196.006 626.169C194.782 626.169 193.789 627.162 193.789 628.386C193.789 629.611 194.782 630.603 196.006 630.603Z" fill="#E0FFCB"/>
<path d="M190.833 620.987C190.833 622.212 189.84 623.204 188.616 623.204C187.391 623.204 186.399 622.212 186.399 620.987C186.399 619.763 187.391 618.77 188.616 618.77C189.84 618.77 190.833 619.763 190.833 620.987Z" fill="#E0FFCB"/>
<path d="M196.006 623.204C197.23 623.204 198.223 622.212 198.223 620.987C198.223 619.763 197.23 618.77 196.006 618.77C194.782 618.77 193.789 619.763 193.789 620.987C193.789 622.212 194.782 623.204 196.006 623.204Z" fill="#E0FFCB"/>
<path d="M183.434 620.987C183.434 622.212 182.442 623.204 181.217 623.204C179.993 623.204 179 622.212 179 620.987C179 619.763 179.993 618.77 181.217 618.77C182.442 618.77 183.434 619.763 183.434 620.987Z" fill="#E0FFCB"/>
<path d="M196.006 638C197.23 638 198.223 637.007 198.223 635.783C198.223 634.558 197.23 633.566 196.006 633.566C194.782 633.566 193.789 634.558 193.789 635.783C193.789 637.007 194.782 638 196.006 638Z" fill="#E0FFCB"/>
<path d="M226.538 614.862C226.538 616.087 225.546 617.079 224.321 617.079C223.097 617.079 222.104 616.087 222.104 614.862C222.104 613.638 223.097 612.645 224.321 612.645C225.546 612.645 226.538 613.638 226.538 614.862Z" fill="#E0FFCB"/>
<path d="M224.321 620.042C225.547 620.042 226.538 621.033 226.538 622.259C226.538 623.485 225.547 624.476 224.321 624.476C223.095 624.476 222.104 623.485 222.104 622.259C222.104 621.033 223.093 620.042 224.321 620.042Z" fill="#E0FFCB"/>
<path d="M208.682 610.53C208.682 611.755 207.69 612.747 206.465 612.747C205.241 612.747 204.248 611.755 204.248 610.53C204.248 609.306 205.241 608.313 206.465 608.313C207.69 608.313 208.682 609.306 208.682 610.53Z" fill="#E0FFCB"/>
<path d="M213.269 603.732C214.136 604.599 214.136 606.003 213.269 606.87C212.401 607.737 210.997 607.737 210.13 606.87C209.263 606.003 209.263 604.599 210.13 603.732C210.999 602.864 212.401 602.864 213.269 603.732Z" fill="#E0FFCB"/>
<path d="M218.494 601.638C219.361 600.771 219.361 599.367 218.494 598.5C217.626 597.632 216.225 597.632 215.355 598.5C214.488 599.367 214.488 600.771 215.355 601.638C216.222 602.506 217.626 602.506 218.494 601.638Z" fill="#E0FFCB"/>
<path d="M202.805 614.189C203.672 615.056 203.672 616.46 202.805 617.327C201.938 618.194 200.533 618.194 199.666 617.327C198.799 616.46 198.799 615.056 199.666 614.189C200.533 613.321 201.938 613.321 202.805 614.189Z" fill="#E0FFCB"/>
<path d="M588.35 616.65C589.217 617.518 589.217 618.922 588.35 619.789C587.482 620.656 586.078 620.656 585.211 619.789C584.344 618.922 584.344 617.518 585.211 616.65C586.078 615.783 587.482 615.783 588.35 616.65Z" fill="#E0FFCB"/>
<path d="M583.118 625.014C583.985 624.147 583.985 622.743 583.118 621.876C582.251 621.008 580.849 621.008 579.979 621.876C579.112 622.743 579.112 624.147 579.979 625.014C580.846 625.882 582.251 625.882 583.118 625.014Z" fill="#E0FFCB"/>
<path d="M561.53 630.892C562.754 630.892 563.747 629.899 563.747 628.675C563.747 627.45 562.754 626.457 561.53 626.457C560.305 626.457 559.313 627.45 559.313 628.675C559.313 629.899 560.305 630.892 561.53 630.892Z" fill="#E0FFCB"/>
<path d="M568.929 630.892C570.153 630.892 571.146 629.899 571.146 628.675C571.146 627.45 570.153 626.457 568.929 626.457C567.704 626.457 566.712 627.45 566.712 628.675C566.712 629.899 567.704 630.892 568.929 630.892Z" fill="#E0FFCB"/>
<path d="M576.321 638.288C577.546 638.288 578.538 637.296 578.538 636.071C578.538 634.847 577.546 633.854 576.321 633.854C575.097 633.854 574.104 634.847 574.104 636.071C574.104 637.296 575.097 638.288 576.321 638.288Z" fill="#E0FFCB"/>
<path d="M578.538 628.675C578.538 629.899 577.546 630.892 576.321 630.892C575.097 630.892 574.104 629.899 574.104 628.675C574.104 627.45 575.097 626.457 576.321 626.457C577.546 626.457 578.538 627.45 578.538 628.675Z" fill="#E0FFCB"/>
<path d="M556.35 628.675C556.35 629.899 555.358 630.892 554.133 630.892C552.909 630.892 551.916 629.899 551.916 628.675C551.916 627.45 552.909 626.457 554.133 626.457C555.358 626.457 556.35 627.45 556.35 628.675Z" fill="#E0FFCB"/>
<path d="M546.741 630.892C547.965 630.892 548.958 629.899 548.958 628.675C548.958 627.45 547.965 626.457 546.741 626.457C545.517 626.457 544.524 627.45 544.524 628.675C544.524 629.899 545.517 630.892 546.741 630.892Z" fill="#E0FFCB"/>
<path d="M578.538 643.47C578.538 644.694 577.546 645.687 576.321 645.687C575.097 645.687 574.104 644.694 574.104 643.47C574.104 642.246 575.097 641.253 576.321 641.253C577.546 641.253 578.538 642.246 578.538 643.47Z" fill="#E0FFCB"/>
<path d="M548.006 666.603C549.23 666.603 550.223 665.611 550.223 664.386C550.223 663.162 549.23 662.169 548.006 662.169C546.782 662.169 545.789 663.162 545.789 664.386C545.789 665.611 546.782 666.603 548.006 666.603Z" fill="#E0FFCB"/>
<path d="M542.833 656.987C542.833 658.212 541.84 659.204 540.616 659.204C539.391 659.204 538.399 658.212 538.399 656.987C538.399 655.763 539.391 654.77 540.616 654.77C541.84 654.77 542.833 655.763 542.833 656.987Z" fill="#E0FFCB"/>
<path d="M548.006 659.204C549.23 659.204 550.223 658.212 550.223 656.987C550.223 655.763 549.23 654.77 548.006 654.77C546.782 654.77 545.789 655.763 545.789 656.987C545.789 658.212 546.782 659.204 548.006 659.204Z" fill="#E0FFCB"/>
<path d="M535.434 656.987C535.434 658.212 534.442 659.204 533.217 659.204C531.993 659.204 531 658.212 531 656.987C531 655.763 531.993 654.77 533.217 654.77C534.442 654.77 535.434 655.763 535.434 656.987Z" fill="#E0FFCB"/>
<path d="M548.006 674C549.23 674 550.223 673.007 550.223 671.783C550.223 670.558 549.23 669.566 548.006 669.566C546.782 669.566 545.789 670.558 545.789 671.783C545.789 673.007 546.782 674 548.006 674Z" fill="#E0FFCB"/>
<path d="M578.538 650.862C578.538 652.087 577.546 653.079 576.321 653.079C575.097 653.079 574.104 652.087 574.104 650.862C574.104 649.638 575.097 648.645 576.321 648.645C577.546 648.645 578.538 649.638 578.538 650.862Z" fill="#E0FFCB"/>
<path d="M576.321 656.042C577.547 656.042 578.538 657.033 578.538 658.259C578.538 659.485 577.547 660.476 576.321 660.476C575.095 660.476 574.104 659.485 574.104 658.259C574.104 657.033 575.093 656.042 576.321 656.042Z" fill="#E0FFCB"/>
<path d="M560.682 646.53C560.682 647.755 559.69 648.747 558.465 648.747C557.241 648.747 556.248 647.755 556.248 646.53C556.248 645.306 557.241 644.313 558.465 644.313C559.69 644.313 560.682 645.306 560.682 646.53Z" fill="#E0FFCB"/>
<path d="M565.269 639.732C566.136 640.599 566.136 642.003 565.269 642.87C564.401 643.737 562.997 643.737 562.13 642.87C561.263 642.003 561.263 640.599 562.13 639.732C562.999 638.864 564.401 638.864 565.269 639.732Z" fill="#E0FFCB"/>
<path d="M570.494 637.638C571.361 636.771 571.361 635.367 570.494 634.5C569.626 633.632 568.225 633.632 567.355 634.5C566.488 635.367 566.488 636.771 567.355 637.638C568.222 638.506 569.626 638.506 570.494 637.638Z" fill="#E0FFCB"/>
<path d="M554.805 650.189C555.672 651.056 555.672 652.46 554.805 653.327C553.938 654.194 552.533 654.194 551.666 653.327C550.799 652.46 550.799 651.056 551.666 650.189C552.533 649.321 553.938 649.321 554.805 650.189Z" fill="#E0FFCB"/>
<path d="M523.35 517.65C524.217 518.518 524.217 519.922 523.35 520.789C522.482 521.656 521.078 521.656 520.211 520.789C519.344 519.922 519.344 518.518 520.211 517.65C521.078 516.783 522.482 516.783 523.35 517.65Z" fill="#C3DFFF"/>
<path d="M518.118 526.014C518.985 525.147 518.985 523.743 518.118 522.876C517.251 522.008 515.849 522.008 514.979 522.876C514.112 523.743 514.112 525.147 514.979 526.014C515.846 526.882 517.251 526.882 518.118 526.014Z" fill="#C3DFFF"/>
<path d="M496.53 531.892C497.754 531.892 498.747 530.899 498.747 529.675C498.747 528.45 497.754 527.457 496.53 527.457C495.305 527.457 494.313 528.45 494.313 529.675C494.313 530.899 495.305 531.892 496.53 531.892Z" fill="#C3DFFF"/>
<path d="M503.929 531.892C505.153 531.892 506.146 530.899 506.146 529.675C506.146 528.45 505.153 527.457 503.929 527.457C502.704 527.457 501.712 528.45 501.712 529.675C501.712 530.899 502.704 531.892 503.929 531.892Z" fill="#C3DFFF"/>
<path d="M511.321 539.288C512.546 539.288 513.538 538.296 513.538 537.071C513.538 535.847 512.546 534.854 511.321 534.854C510.097 534.854 509.104 535.847 509.104 537.071C509.104 538.296 510.097 539.288 511.321 539.288Z" fill="#C3DFFF"/>
<path d="M513.538 529.675C513.538 530.899 512.546 531.892 511.321 531.892C510.097 531.892 509.104 530.899 509.104 529.675C509.104 528.45 510.097 527.457 511.321 527.457C512.546 527.457 513.538 528.45 513.538 529.675Z" fill="#C3DFFF"/>
<path d="M491.35 529.675C491.35 530.899 490.358 531.892 489.133 531.892C487.909 531.892 486.916 530.899 486.916 529.675C486.916 528.45 487.909 527.457 489.133 527.457C490.358 527.457 491.35 528.45 491.35 529.675Z" fill="#C3DFFF"/>
<path d="M481.741 531.892C482.965 531.892 483.958 530.899 483.958 529.675C483.958 528.45 482.965 527.457 481.741 527.457C480.517 527.457 479.524 528.45 479.524 529.675C479.524 530.899 480.517 531.892 481.741 531.892Z" fill="#C3DFFF"/>
<path d="M513.538 544.47C513.538 545.694 512.546 546.687 511.321 546.687C510.097 546.687 509.104 545.694 509.104 544.47C509.104 543.246 510.097 542.253 511.321 542.253C512.546 542.253 513.538 543.246 513.538 544.47Z" fill="#C3DFFF"/>
<path d="M483.006 567.603C484.23 567.603 485.223 566.611 485.223 565.386C485.223 564.162 484.23 563.169 483.006 563.169C481.782 563.169 480.789 564.162 480.789 565.386C480.789 566.611 481.782 567.603 483.006 567.603Z" fill="#C3DFFF"/>
<path d="M477.833 557.987C477.833 559.212 476.84 560.204 475.616 560.204C474.391 560.204 473.399 559.212 473.399 557.987C473.399 556.763 474.391 555.77 475.616 555.77C476.84 555.77 477.833 556.763 477.833 557.987Z" fill="#C3DFFF"/>
<path d="M483.006 560.204C484.23 560.204 485.223 559.212 485.223 557.987C485.223 556.763 484.23 555.77 483.006 555.77C481.782 555.77 480.789 556.763 480.789 557.987C480.789 559.212 481.782 560.204 483.006 560.204Z" fill="#C3DFFF"/>
<path d="M470.434 557.987C470.434 559.212 469.442 560.204 468.217 560.204C466.993 560.204 466 559.212 466 557.987C466 556.763 466.993 555.77 468.217 555.77C469.442 555.77 470.434 556.763 470.434 557.987Z" fill="#C3DFFF"/>
<path d="M483.006 575C484.23 575 485.223 574.007 485.223 572.783C485.223 571.558 484.23 570.566 483.006 570.566C481.782 570.566 480.789 571.558 480.789 572.783C480.789 574.007 481.782 575 483.006 575Z" fill="#C3DFFF"/>
<path d="M513.538 551.862C513.538 553.087 512.546 554.079 511.321 554.079C510.097 554.079 509.104 553.087 509.104 551.862C509.104 550.638 510.097 549.645 511.321 549.645C512.546 549.645 513.538 550.638 513.538 551.862Z" fill="#C3DFFF"/>
<path d="M511.321 557.042C512.547 557.042 513.538 558.033 513.538 559.259C513.538 560.485 512.547 561.476 511.321 561.476C510.095 561.476 509.104 560.485 509.104 559.259C509.104 558.033 510.093 557.042 511.321 557.042Z" fill="#C3DFFF"/>
<path d="M495.682 547.53C495.682 548.755 494.69 549.747 493.465 549.747C492.241 549.747 491.248 548.755 491.248 547.53C491.248 546.306 492.241 545.313 493.465 545.313C494.69 545.313 495.682 546.306 495.682 547.53Z" fill="#C3DFFF"/>
<path d="M500.269 540.732C501.136 541.599 501.136 543.003 500.269 543.87C499.401 544.737 497.997 544.737 497.13 543.87C496.263 543.003 496.263 541.599 497.13 540.732C497.999 539.864 499.401 539.864 500.269 540.732Z" fill="#C3DFFF"/>
<path d="M505.494 538.638C506.361 537.771 506.361 536.367 505.494 535.5C504.626 534.632 503.225 534.632 502.355 535.5C501.488 536.367 501.488 537.771 502.355 538.638C503.222 539.506 504.626 539.506 505.494 538.638Z" fill="#C3DFFF"/>
<path d="M489.805 551.189C490.672 552.056 490.672 553.46 489.805 554.327C488.938 555.194 487.533 555.194 486.666 554.327C485.799 553.46 485.799 552.056 486.666 551.189C487.533 550.321 488.938 550.321 489.805 551.189Z" fill="#C3DFFF"/>
<line x1="54.3536" y1="683.354" x2="6.35355" y2="731.354" stroke="#C3DFFF"/>
<line x1="531.354" y1="863.354" x2="484.354" y2="910.354" stroke="#C3DFFF"/>
<line x1="440.354" y1="680.354" x2="205.354" y2="915.354" stroke="#C3DFFF"/>
<line x1="205.354" y1="765.354" x2="58.3535" y2="912.354" stroke="#FFD2BF"/>
<line x1="303.354" y1="589.354" x2="10.3535" y2="882.354" stroke="#C3DFFF"/>
<line x1="187.354" y1="629.354" x2="0.353549" y2="816.354" stroke="#E0FFCB"/>
<line x1="539.354" y1="665.354" x2="290.354" y2="914.354" stroke="#E0FFCB"/>
<line x1="469.354" y1="571.354" x2="127.354" y2="913.354" stroke="#C3DFFF"/>
<line x1="336.354" y1="402.354" x2="109.354" y2="629.354" stroke="#C3DFFF"/>
<path d="M141.35 543.65C142.217 544.518 142.217 545.922 141.35 546.789C140.482 547.656 139.078 547.656 138.211 546.789C137.344 545.922 137.344 544.518 138.211 543.65C139.078 542.783 140.482 542.783 141.35 543.65Z" fill="#EFC1FF"/>
<path d="M136.118 552.014C136.985 551.147 136.985 549.743 136.118 548.876C135.251 548.008 133.849 548.008 132.979 548.876C132.112 549.743 132.112 551.147 132.979 552.014C133.846 552.882 135.251 552.882 136.118 552.014Z" fill="#EFC1FF"/>
<path d="M114.53 557.892C115.754 557.892 116.747 556.899 116.747 555.675C116.747 554.45 115.754 553.457 114.53 553.457C113.305 553.457 112.313 554.45 112.313 555.675C112.313 556.899 113.305 557.892 114.53 557.892Z" fill="#EFC1FF"/>
<path d="M121.929 557.892C123.153 557.892 124.146 556.899 124.146 555.675C124.146 554.45 123.153 553.457 121.929 553.457C120.704 553.457 119.712 554.45 119.712 555.675C119.712 556.899 120.704 557.892 121.929 557.892Z" fill="#EFC1FF"/>
<path d="M129.321 565.288C130.546 565.288 131.538 564.296 131.538 563.071C131.538 561.847 130.546 560.854 129.321 560.854C128.097 560.854 127.104 561.847 127.104 563.071C127.104 564.296 128.097 565.288 129.321 565.288Z" fill="#EFC1FF"/>
<path d="M131.538 555.675C131.538 556.899 130.546 557.892 129.321 557.892C128.097 557.892 127.104 556.899 127.104 555.675C127.104 554.45 128.097 553.457 129.321 553.457C130.546 553.457 131.538 554.45 131.538 555.675Z" fill="#EFC1FF"/>
<path d="M109.35 555.675C109.35 556.899 108.358 557.892 107.133 557.892C105.909 557.892 104.916 556.899 104.916 555.675C104.916 554.45 105.909 553.457 107.133 553.457C108.358 553.457 109.35 554.45 109.35 555.675Z" fill="#EFC1FF"/>
<path d="M99.741 557.892C100.965 557.892 101.958 556.899 101.958 555.675C101.958 554.45 100.965 553.457 99.741 553.457C98.5165 553.457 97.524 554.45 97.524 555.675C97.524 556.899 98.5165 557.892 99.741 557.892Z" fill="#EFC1FF"/>
<path d="M131.538 570.47C131.538 571.694 130.546 572.687 129.321 572.687C128.097 572.687 127.104 571.694 127.104 570.47C127.104 569.246 128.097 568.253 129.321 568.253C130.546 568.253 131.538 569.246 131.538 570.47Z" fill="#EFC1FF"/>
<path d="M101.006 593.603C102.23 593.603 103.223 592.611 103.223 591.386C103.223 590.162 102.23 589.169 101.006 589.169C99.7816 589.169 98.789 590.162 98.789 591.386C98.789 592.611 99.7816 593.603 101.006 593.603Z" fill="#EFC1FF"/>
<path d="M95.8329 583.987C95.8329 585.212 94.8403 586.204 93.6159 586.204C92.3915 586.204 91.3988 585.212 91.3988 583.987C91.3988 582.763 92.3915 581.77 93.6159 581.77C94.8403 581.77 95.8329 582.763 95.8329 583.987Z" fill="#EFC1FF"/>
<path d="M101.006 586.204C102.23 586.204 103.223 585.212 103.223 583.987C103.223 582.763 102.23 581.77 101.006 581.77C99.7816 581.77 98.789 582.763 98.789 583.987C98.789 585.212 99.7816 586.204 101.006 586.204Z" fill="#EFC1FF"/>
<path d="M88.4341 583.987C88.4341 585.212 87.4415 586.204 86.2171 586.204C84.9926 586.204 84 585.212 84 583.987C84 582.763 84.9926 581.77 86.2171 581.77C87.4415 581.77 88.4341 582.763 88.4341 583.987Z" fill="#EFC1FF"/>
<path d="M101.006 601C102.23 601 103.223 600.007 103.223 598.783C103.223 597.558 102.23 596.566 101.006 596.566C99.7816 596.566 98.789 597.558 98.789 598.783C98.789 600.007 99.7816 601 101.006 601Z" fill="#EFC1FF"/>
<path d="M131.538 577.862C131.538 579.087 130.546 580.079 129.321 580.079C128.097 580.079 127.104 579.087 127.104 577.862C127.104 576.638 128.097 575.645 129.321 575.645C130.546 575.645 131.538 576.638 131.538 577.862Z" fill="#EFC1FF"/>
<path d="M129.321 583.042C130.547 583.042 131.538 584.033 131.538 585.259C131.538 586.485 130.547 587.476 129.321 587.476C128.095 587.476 127.104 586.485 127.104 585.259C127.104 584.033 128.093 583.042 129.321 583.042Z" fill="#EFC1FF"/>
<path d="M113.682 573.53C113.682 574.755 112.69 575.747 111.465 575.747C110.241 575.747 109.248 574.755 109.248 573.53C109.248 572.306 110.241 571.313 111.465 571.313C112.69 571.313 113.682 572.306 113.682 573.53Z" fill="#EFC1FF"/>
<path d="M118.269 566.732C119.136 567.599 119.136 569.003 118.269 569.87C117.401 570.737 115.997 570.737 115.13 569.87C114.263 569.003 114.263 567.599 115.13 566.732C115.999 565.864 117.401 565.864 118.269 566.732Z" fill="#EFC1FF"/>
<path d="M123.494 564.638C124.361 563.771 124.361 562.367 123.494 561.5C122.626 560.632 121.225 560.632 120.355 561.5C119.488 562.367 119.488 563.771 120.355 564.638C121.222 565.506 122.626 565.506 123.494 564.638Z" fill="#EFC1FF"/>
<path d="M107.805 577.189C108.672 578.056 108.672 579.46 107.805 580.327C106.938 581.194 105.533 581.194 104.666 580.327C103.799 579.46 103.799 578.056 104.666 577.189C105.533 576.321 106.938 576.321 107.805 577.189Z" fill="#EFC1FF"/>
<path d="M578.35 722.65C579.217 723.518 579.217 724.922 578.35 725.789C577.482 726.656 576.078 726.656 575.211 725.789C574.344 724.922 574.344 723.518 575.211 722.65C576.078 721.783 577.482 721.783 578.35 722.65Z" fill="#EFC1FF"/>
<path d="M573.118 731.014C573.985 730.147 573.985 728.743 573.118 727.876C572.251 727.008 570.849 727.008 569.979 727.876C569.112 728.743 569.112 730.147 569.979 731.014C570.846 731.882 572.251 731.882 573.118 731.014Z" fill="#EFC1FF"/>
<path d="M551.53 736.892C552.754 736.892 553.747 735.899 553.747 734.675C553.747 733.45 552.754 732.457 551.53 732.457C550.305 732.457 549.313 733.45 549.313 734.675C549.313 735.899 550.305 736.892 551.53 736.892Z" fill="#EFC1FF"/>
<path d="M558.929 736.892C560.153 736.892 561.146 735.899 561.146 734.675C561.146 733.45 560.153 732.457 558.929 732.457C557.704 732.457 556.712 733.45 556.712 734.675C556.712 735.899 557.704 736.892 558.929 736.892Z" fill="#EFC1FF"/>
<path d="M566.321 744.288C567.546 744.288 568.538 743.296 568.538 742.071C568.538 740.847 567.546 739.854 566.321 739.854C565.097 739.854 564.104 740.847 564.104 742.071C564.104 743.296 565.097 744.288 566.321 744.288Z" fill="#EFC1FF"/>
<path d="M568.538 734.675C568.538 735.899 567.546 736.892 566.321 736.892C565.097 736.892 564.104 735.899 564.104 734.675C564.104 733.45 565.097 732.457 566.321 732.457C567.546 732.457 568.538 733.45 568.538 734.675Z" fill="#EFC1FF"/>
<path d="M546.35 734.675C546.35 735.899 545.358 736.892 544.133 736.892C542.909 736.892 541.916 735.899 541.916 734.675C541.916 733.45 542.909 732.457 544.133 732.457C545.358 732.457 546.35 733.45 546.35 734.675Z" fill="#EFC1FF"/>
<path d="M536.741 736.892C537.965 736.892 538.958 735.899 538.958 734.675C538.958 733.45 537.965 732.457 536.741 732.457C535.517 732.457 534.524 733.45 534.524 734.675C534.524 735.899 535.517 736.892 536.741 736.892Z" fill="#EFC1FF"/>
<path d="M568.538 749.47C568.538 750.694 567.546 751.687 566.321 751.687C565.097 751.687 564.104 750.694 564.104 749.47C564.104 748.246 565.097 747.253 566.321 747.253C567.546 747.253 568.538 748.246 568.538 749.47Z" fill="#EFC1FF"/>
<path d="M538.006 772.603C539.23 772.603 540.223 771.611 540.223 770.386C540.223 769.162 539.23 768.169 538.006 768.169C536.782 768.169 535.789 769.162 535.789 770.386C535.789 771.611 536.782 772.603 538.006 772.603Z" fill="#EFC1FF"/>
<path d="M532.833 762.987C532.833 764.212 531.84 765.204 530.616 765.204C529.391 765.204 528.399 764.212 528.399 762.987C528.399 761.763 529.391 760.77 530.616 760.77C531.84 760.77 532.833 761.763 532.833 762.987Z" fill="#EFC1FF"/>
<path d="M538.006 765.204C539.23 765.204 540.223 764.212 540.223 762.987C540.223 761.763 539.23 760.77 538.006 760.77C536.782 760.77 535.789 761.763 535.789 762.987C535.789 764.212 536.782 765.204 538.006 765.204Z" fill="#EFC1FF"/>
<path d="M525.434 762.987C525.434 764.212 524.442 765.204 523.217 765.204C521.993 765.204 521 764.212 521 762.987C521 761.763 521.993 760.77 523.217 760.77C524.442 760.77 525.434 761.763 525.434 762.987Z" fill="#EFC1FF"/>
<path d="M538.006 780C539.23 780 540.223 779.007 540.223 777.783C540.223 776.558 539.23 775.566 538.006 775.566C536.782 775.566 535.789 776.558 535.789 777.783C535.789 779.007 536.782 780 538.006 780Z" fill="#EFC1FF"/>
<path d="M568.538 756.862C568.538 758.087 567.546 759.079 566.321 759.079C565.097 759.079 564.104 758.087 564.104 756.862C564.104 755.638 565.097 754.645 566.321 754.645C567.546 754.645 568.538 755.638 568.538 756.862Z" fill="#EFC1FF"/>
<path d="M566.321 762.042C567.547 762.042 568.538 763.033 568.538 764.259C568.538 765.485 567.547 766.476 566.321 766.476C565.095 766.476 564.104 765.485 564.104 764.259C564.104 763.033 565.093 762.042 566.321 762.042Z" fill="#EFC1FF"/>
<path d="M550.682 752.53C550.682 753.755 549.69 754.747 548.465 754.747C547.241 754.747 546.248 753.755 546.248 752.53C546.248 751.306 547.241 750.313 548.465 750.313C549.69 750.313 550.682 751.306 550.682 752.53Z" fill="#EFC1FF"/>
<path d="M555.269 745.732C556.136 746.599 556.136 748.003 555.269 748.87C554.401 749.737 552.997 749.737 552.13 748.87C551.263 748.003 551.263 746.599 552.13 745.732C552.999 744.864 554.401 744.864 555.269 745.732Z" fill="#EFC1FF"/>
<path d="M560.494 743.638C561.361 742.771 561.361 741.367 560.494 740.5C559.626 739.632 558.225 739.632 557.355 740.5C556.488 741.367 556.488 742.771 557.355 743.638C558.222 744.506 559.626 744.506 560.494 743.638Z" fill="#EFC1FF"/>
<path d="M544.805 756.189C545.672 757.056 545.672 758.46 544.805 759.327C543.938 760.194 542.533 760.194 541.666 759.327C540.799 758.46 540.799 757.056 541.666 756.189C542.533 755.321 543.938 755.321 544.805 756.189Z" fill="#EFC1FF"/>
<line x1="92.3536" y1="592.354" x2="4.35355" y2="680.354" stroke="#EFC1FF"/>
<line x1="529.354" y1="771.354" x2="386.354" y2="914.354" stroke="#EFC1FF"/>
</svg>
